<svg width="1101" height="1349" viewBox="0 0 1101 1349" fill="none" xmlns="http://www.w3.org/2000/svg">
<mask id="path-1-inside-1" fill="white">
<path d="M1044.76 429.343C1041.93 423.861 1037.97 414.511 1029.93 408.458C1025.94 405.392 1020.68 403.295 1014.69 403.336C1008.7 403.378 1002.06 405.267 994.479 409.608C994.479 409.608 994.479 409.608 994.426 409.686C986.25 414.539 981.234 415.473 978.578 415.266C975.975 414.98 973.941 412.791 971.313 406.3C967.51 396.716 959.242 380.303 951.654 358.969C950.539 356.146 942.416 359.316 942.856 362.596C949.833 383.398 960.129 400.048 962.651 408.3C967.225 422.994 971.026 422.951 977.471 424.023C983.916 425.095 990.657 422.702 999.509 417.393C999.509 417.393 999.509 417.393 999.562 417.315C1006.14 413.551 1011.29 412.248 1015.23 412.182C1019.11 412.195 1022.08 413.19 1024.61 415.371C1032.46 422.22 1033.81 427.379 1036.42 432.826C1037.45 435.245 1046.03 431.932 1044.76 429.343Z"/>
</mask>
<path d="M1044.76 429.343C1041.93 423.861 1037.97 414.511 1029.93 408.458C1025.94 405.392 1020.68 403.295 1014.69 403.336C1008.7 403.378 1002.06 405.267 994.479 409.608C994.479 409.608 994.479 409.608 994.426 409.686C986.25 414.539 981.234 415.473 978.578 415.266C975.975 414.98 973.941 412.791 971.313 406.3C967.51 396.716 959.242 380.303 951.654 358.969C950.539 356.146 942.416 359.316 942.856 362.596C949.833 383.398 960.129 400.048 962.651 408.3C967.225 422.994 971.026 422.951 977.471 424.023C983.916 425.095 990.657 422.702 999.509 417.393C999.509 417.393 999.509 417.393 999.562 417.315C1006.14 413.551 1011.29 412.248 1015.23 412.182C1019.11 412.195 1022.08 413.19 1024.61 415.371C1032.46 422.22 1033.81 427.379 1036.42 432.826C1037.45 435.245 1046.03 431.932 1044.76 429.343Z" fill="#343449" stroke="#343449" stroke-width="62" mask="url(#path-1-inside-1)"/>
<mask id="path-2-inside-2" fill="white">
<path d="M309.931 640.897C313.606 635.152 317.003 629.102 318.91 622.381C323.011 607.987 323.819 591.463 317.283 580.358C317.17 580.166 313.771 571.774 313.576 571.526C309.311 562.085 305.36 555.036 305.174 542.646C304.988 530.257 310.168 519.808 317.839 512.662C319.564 511.203 313.882 503.661 311.884 505.163C301.682 514.593 295.779 529.133 295.936 542.993C296.117 556.639 299.729 563.114 305.317 574.718L308.259 581.996C312.382 591.111 312.64 606.071 310.478 615.484C307.729 627.361 298.642 641.22 290.747 651.192L290.693 651.27C274.344 670.604 263.188 681.79 258.625 693.118C258.151 695.775 266.927 698.78 267.697 695.867C271.081 687.517 281.478 676.73 298.041 657.083L298.094 657.005C302.22 652.026 306.393 646.62 309.931 640.897Z"/>
</mask>
<path d="M309.931 640.897C313.606 635.152 317.003 629.102 318.91 622.381C323.011 607.987 323.819 591.463 317.283 580.358C317.17 580.166 313.771 571.774 313.576 571.526C309.311 562.085 305.36 555.036 305.174 542.646C304.988 530.257 310.168 519.808 317.839 512.662C319.564 511.203 313.882 503.661 311.884 505.163C301.682 514.593 295.779 529.133 295.936 542.993C296.117 556.639 299.729 563.114 305.317 574.718L308.259 581.996C312.382 591.111 312.64 606.071 310.478 615.484C307.729 627.361 298.642 641.22 290.747 651.192L290.693 651.27C274.344 670.604 263.188 681.79 258.625 693.118C258.151 695.775 266.927 698.78 267.697 695.867C271.081 687.517 281.478 676.73 298.041 657.083L298.094 657.005C302.22 652.026 306.393 646.62 309.931 640.897Z" fill="#343449" stroke="#343449" stroke-width="62" mask="url(#path-2-inside-2)"/>
<mask id="path-3-inside-3" fill="white">
<path d="M445.402 630.603C445.578 624.994 447.161 623.208 443.631 613.58C440.653 607.424 437.581 603.724 432.25 600.661C426.753 597.485 415.695 596.934 407.888 604.102C398.67 613.515 394.473 615.924 389.535 622.986C387.958 625.119 395.679 630.385 397.339 628.308C404.328 619.666 407.167 617.821 414.275 611.323C418.526 607.231 424.775 606.45 427.532 607.758C430.29 609.065 432.774 612.021 434.353 616.306C435.931 620.591 435.552 625.605 435.097 630.91C435.174 633.828 445.082 632.677 445.402 630.603Z"/>
</mask>
<path d="M445.402 630.603C445.578 624.994 447.161 623.208 443.631 613.58C440.653 607.424 437.581 603.724 432.25 600.661C426.753 597.485 415.695 596.934 407.888 604.102C398.67 613.515 394.473 615.924 389.535 622.986C387.958 625.119 395.679 630.385 397.339 628.308C404.328 619.666 407.167 617.821 414.275 611.323C418.526 607.231 424.775 606.45 427.532 607.758C430.29 609.065 432.774 612.021 434.353 616.306C435.931 620.591 435.552 625.605 435.097 630.91C435.174 633.828 445.082 632.677 445.402 630.603Z" fill="#343449" stroke="#343449" stroke-width="62" mask="url(#path-3-inside-3)"/>
<mask id="path-4-inside-4" fill="white">
<path d="M367.726 677.791C377.285 656.462 385.595 643.564 397.338 628.308C398.695 626.139 391.638 619.722 390.174 622.047C372.118 645.489 364.283 660.545 357.593 678.558C354.606 687.753 352.751 692.791 352.498 700.297C353.811 714.601 355.015 716.224 365.264 733.299C367.038 736.228 375.279 731.992 373.481 729.277C365.759 717.592 362.894 710.023 361.784 702.733C360.911 696.522 363.684 687.641 367.726 677.791Z"/>
</mask>
<path d="M367.726 677.791C377.285 656.462 385.595 643.564 397.338 628.308C398.695 626.139 391.638 619.722 390.174 622.047C372.118 645.489 364.283 660.545 357.593 678.558C354.606 687.753 352.751 692.791 352.498 700.297C353.811 714.601 355.015 716.224 365.264 733.299C367.038 736.228 375.279 731.992 373.481 729.277C365.759 717.592 362.894 710.023 361.784 702.733C360.911 696.522 363.684 687.641 367.726 677.791Z" fill="#343449" stroke="#343449" stroke-width="62" mask="url(#path-4-inside-4)"/>
<mask id="path-5-inside-5" fill="white">
<path d="M748.551 1079.28C748.49 1066.18 740.524 1053.07 730.887 1046.15C698.308 1026.68 676.492 1042.98 667.212 1066.21C667.158 1066.29 667.158 1066.29 667.105 1066.37L656.023 1094.57C650.085 1108.63 636.739 1113.39 621.874 1110.93C607.009 1108.47 590.998 1098.24 582.403 1081.95C582.32 1081.89 582.374 1081.81 582.291 1081.76L373.593 729.469C371.547 726.584 364.196 730.051 365.038 732.917L574.293 1085.81C574.376 1085.87 574.323 1085.95 574.406 1086.01C584.578 1104.98 602.86 1116.87 620.797 1119.82C638.816 1122.83 657.107 1116.16 664.621 1098.37L664.675 1098.29L675.703 1070.17L675.757 1070.09C681.547 1056.97 690.35 1050.48 699.528 1048.26C708.706 1046.04 718.425 1048.19 725.843 1053.37C733.262 1058.54 738.214 1066.62 738.335 1076.79C738.456 1086.95 733.395 1099.55 719.327 1113.22L672.78 1159.17C661.612 1169.66 639.694 1181.65 619.205 1190.82C598.715 1200 567.077 1201.8 555.799 1199.61C456.356 1178.66 361.406 1151.84 277.064 1129.61L276.981 1129.56C247.161 1121.02 234.22 1103.26 229.845 1077.93C221.727 1014.74 232.993 929.025 250.005 875.189C250.058 875.111 250.058 875.111 250.028 874.976L269.995 800.578C269.995 800.578 270.048 800.5 269.965 800.443C277.003 770.862 273.204 751.998 269.365 737.117C265.526 722.236 261.877 712.069 267.614 695.811C269.439 692.243 260.141 689.11 258.938 692.301C252.367 710.854 256.674 724.335 260.454 738.947C264.234 753.558 267.741 769.817 261.035 798.02L260.982 798.098L241.093 872.205L241.069 872.418C223.672 927.711 210.669 1014.19 220.038 1078.57C226.984 1121.36 250.822 1131.88 274.837 1138.41L274.92 1138.46C365.772 1162.38 458.836 1187.69 561.138 1211.04C582.988 1215.75 602.79 1209.54 624.412 1199.42C645.654 1189.49 662.403 1180.63 674.567 1169.22C681.272 1163.13 712.898 1132.1 725.679 1119.96C725.679 1119.96 725.679 1119.96 725.732 1119.88C737.458 1108.39 748.495 1095.06 748.551 1079.28Z"/>
</mask>
<path d="M748.551 1079.28C748.49 1066.18 740.524 1053.07 730.887 1046.15C698.308 1026.68 676.492 1042.98 667.212 1066.21C667.158 1066.29 667.158 1066.29 667.105 1066.37L656.023 1094.57C650.085 1108.63 636.739 1113.39 621.874 1110.93C607.009 1108.47 590.998 1098.24 582.403 1081.95C582.32 1081.89 582.374 1081.81 582.291 1081.76L373.593 729.469C371.547 726.584 364.196 730.051 365.038 732.917L574.293 1085.81C574.376 1085.87 574.323 1085.95 574.406 1086.01C584.578 1104.98 602.86 1116.87 620.797 1119.82C638.816 1122.83 657.107 1116.16 664.621 1098.37L664.675 1098.29L675.703 1070.17L675.757 1070.09C681.547 1056.97 690.35 1050.48 699.528 1048.26C708.706 1046.04 718.425 1048.19 725.843 1053.37C733.262 1058.54 738.214 1066.62 738.335 1076.79C738.456 1086.95 733.395 1099.55 719.327 1113.22L672.78 1159.17C661.612 1169.66 639.694 1181.65 619.205 1190.82C598.715 1200 567.077 1201.8 555.799 1199.61C456.356 1178.66 361.406 1151.84 277.064 1129.61L276.981 1129.56C247.161 1121.02 234.22 1103.26 229.845 1077.93C221.727 1014.74 232.993 929.025 250.005 875.189C250.058 875.111 250.058 875.111 250.028 874.976L269.995 800.578C269.995 800.578 270.048 800.5 269.965 800.443C277.003 770.862 273.204 751.998 269.365 737.117C265.526 722.236 261.877 712.069 267.614 695.811C269.439 692.243 260.141 689.11 258.938 692.301C252.367 710.854 256.674 724.335 260.454 738.947C264.234 753.558 267.741 769.817 261.035 798.02L260.982 798.098L241.093 872.205L241.069 872.418C223.672 927.711 210.669 1014.19 220.038 1078.57C226.984 1121.36 250.822 1131.88 274.837 1138.41L274.92 1138.46C365.772 1162.38 458.836 1187.69 561.138 1211.04C582.988 1215.75 602.79 1209.54 624.412 1199.42C645.654 1189.49 662.403 1180.63 674.567 1169.22C681.272 1163.13 712.898 1132.1 725.679 1119.96C725.679 1119.96 725.679 1119.96 725.732 1119.88C737.458 1108.39 748.495 1095.06 748.551 1079.28Z" fill="#343449" stroke="#343449" stroke-width="62" mask="url(#path-5-inside-5)"/>
<mask id="path-6-inside-6" fill="white">
<path d="M1051.6 526.148C1052.7 524.719 1053.71 523.233 1054.47 521.577C1057.86 515.179 1059.04 507.387 1059.43 496.303C1060.43 465.585 1051.92 447.746 1044.99 429.726C1043.78 426.498 1035.42 430.195 1036.45 432.961C1043.56 451.442 1051.17 466.492 1050.22 495.528C1049.86 506.051 1048.71 512.373 1046.22 517.093C1043.73 521.813 1039.8 525.436 1032.8 530.173C1032.75 530.251 1032.75 530.251 1032.61 530.272C945.649 579.838 868.758 636.042 787.32 690.175C787.32 690.175 787.32 690.175 787.266 690.253C781.374 694.256 774.716 699.915 763.101 701.964C751.486 704.013 734.635 702.147 709.083 688.961L709 688.904L675.716 672.966C646.209 655.592 614.231 645.586 577.709 657.58L485.439 687.823L467.149 694.488C455.575 697.367 451.762 695.111 448.726 691.894C445.69 688.677 444.829 683.162 444.732 675.991L445.292 630.761C445.286 627.203 435.337 627.523 435.094 630.911L434.473 664.639L434.861 679.229C434.946 687.309 434.656 691.122 440.563 697.443C446.469 703.763 455.696 707.535 469.285 704.196C469.422 704.175 480.983 700.599 481.119 700.578L581.002 666.129C581.002 666.129 581.002 666.129 581.055 666.051C614.938 654.893 643.181 663.956 671.585 680.806C671.668 680.863 671.834 680.976 671.971 680.955L701.739 695.985C701.739 695.985 708.605 699.293 708.688 699.35C735.426 713.115 749.763 715.101 763.779 712.741C777.713 710.325 787.672 701.073 792.782 697.682C874.357 643.527 955.784 588.698 1037.93 537.801C1037.99 537.723 1038.07 537.78 1038.12 537.702C1043.86 533.933 1048.31 530.437 1051.6 526.148Z"/>
</mask>
<path d="M1051.6 526.148C1052.7 524.719 1053.71 523.233 1054.47 521.577C1057.86 515.179 1059.04 507.387 1059.43 496.303C1060.43 465.585 1051.92 447.746 1044.99 429.726C1043.78 426.498 1035.42 430.195 1036.45 432.961C1043.56 451.442 1051.17 466.492 1050.22 495.528C1049.86 506.051 1048.71 512.373 1046.22 517.093C1043.73 521.813 1039.8 525.436 1032.8 530.173C1032.75 530.251 1032.75 530.251 1032.61 530.272C945.649 579.838 868.758 636.042 787.32 690.175C787.32 690.175 787.32 690.175 787.266 690.253C781.374 694.256 774.716 699.915 763.101 701.964C751.486 704.013 734.635 702.147 709.083 688.961L709 688.904L675.716 672.966C646.209 655.592 614.231 645.586 577.709 657.58L485.439 687.823L467.149 694.488C455.575 697.367 451.762 695.111 448.726 691.894C445.69 688.677 444.829 683.162 444.732 675.991L445.292 630.761C445.286 627.203 435.337 627.523 435.094 630.911L434.473 664.639L434.861 679.229C434.946 687.309 434.656 691.122 440.563 697.443C446.469 703.763 455.696 707.535 469.285 704.196C469.422 704.175 480.983 700.599 481.119 700.578L581.002 666.129C581.002 666.129 581.002 666.129 581.055 666.051C614.938 654.893 643.181 663.956 671.585 680.806C671.668 680.863 671.834 680.976 671.971 680.955L701.739 695.985C701.739 695.985 708.605 699.293 708.688 699.35C735.426 713.115 749.763 715.101 763.779 712.741C777.713 710.325 787.672 701.073 792.782 697.682C874.357 643.527 955.784 588.698 1037.93 537.801C1037.99 537.723 1038.07 537.78 1038.12 537.702C1043.86 533.933 1048.31 530.437 1051.6 526.148Z" fill="#343449" stroke="#343449" stroke-width="62" mask="url(#path-6-inside-6)"/>
<mask id="path-7-inside-7" fill="white">
<path d="M951.559 358.216C947.927 344.279 936.374 326.085 917.689 287.67L913.032 276.128C903.836 247.165 896.2 223.047 893.325 197.478C889.781 175.922 888.268 169.046 879.259 157.286C870.25 145.526 853.076 132.897 838.027 130.885C811.351 127.016 799.048 127.221 743.63 171.023C733.979 177.505 713.432 196.039 713.432 196.039C672.646 228.733 570.09 327.026 440.01 446.773C438.67 448.381 444.879 454.793 447.12 453.113C549.304 364.995 644.098 267.023 747.285 181.538C789.347 153.037 801.475 134.72 837.122 140.238C855.035 143.401 865.657 155.114 873.491 165.386C882.69 180.255 882.521 191.026 885.145 206.798C889.983 235.195 895.929 261.255 906.299 286.893C906.328 287.027 906.411 287.084 906.441 287.219C918.554 312.441 939.421 352.115 942.862 362.942C943.9 364.452 952.004 360.238 951.559 358.216Z"/>
</mask>
<path d="M951.559 358.216C947.927 344.279 936.374 326.085 917.689 287.67L913.032 276.128C903.836 247.165 896.2 223.047 893.325 197.478C889.781 175.922 888.268 169.046 879.259 157.286C870.25 145.526 853.076 132.897 838.027 130.885C811.351 127.016 799.048 127.221 743.63 171.023C733.979 177.505 713.432 196.039 713.432 196.039C672.646 228.733 570.09 327.026 440.01 446.773C438.67 448.381 444.879 454.793 447.12 453.113C549.304 364.995 644.098 267.023 747.285 181.538C789.347 153.037 801.475 134.72 837.122 140.238C855.035 143.401 865.657 155.114 873.491 165.386C882.69 180.255 882.521 191.026 885.145 206.798C889.983 235.195 895.929 261.255 906.299 286.893C906.328 287.027 906.411 287.084 906.441 287.219C918.554 312.441 939.421 352.115 942.862 362.942C943.9 364.452 952.004 360.238 951.559 358.216Z" fill="#343449" stroke="#343449" stroke-width="62" mask="url(#path-7-inside-7)"/>
<mask id="path-8-inside-8" fill="white">
<path d="M446.99 453.134C448.52 451.427 441.818 445.023 440.609 446.261C424.757 461.121 416.529 469.261 413.601 470.702C401.275 479.143 384.645 483.73 375.775 484.786C357.46 486.85 326.202 490.057 311.406 505.866C309.272 507.39 315.534 515.329 317.71 513.03C324.48 507.563 332.537 503.775 338.164 501.767C348.088 498.451 371.295 494.566 380.437 493.467C384.665 492.798 404.071 495.375 446.99 453.134Z"/>
</mask>
<path d="M446.99 453.134C448.52 451.427 441.818 445.023 440.609 446.261C424.757 461.121 416.529 469.261 413.601 470.702C401.275 479.143 384.645 483.73 375.775 484.786C357.46 486.85 326.202 490.057 311.406 505.866C309.272 507.39 315.534 515.329 317.71 513.03C324.48 507.563 332.537 503.775 338.164 501.767C348.088 498.451 371.295 494.566 380.437 493.467C384.665 492.798 404.071 495.375 446.99 453.134Z" fill="#343449" stroke="#343449" stroke-width="62" mask="url(#path-8-inside-8)"/>
</svg>
