<svg width="450" height="565" fill="none" xmlns="http://www.w3.org/2000/svg" style=""><rect id="backgroundrect" width="100%" height="100%" x="0" y="0" fill="none" stroke="none" style="" class=""/>

<defs>
<filter id="filter0_d" x="0.3740229904651642" y="0.013122599571943283" width="482.1570129394531" height="573.6309814453125" filterUnits="userSpaceOnUse" color-interpolation-filters="sRGB">
<feFlood flood-opacity="0" result="BackgroundImageFix"/>
<feColorMatrix in="SourceAlpha" type="matrix" values="0 0 0 0 0 0 0 0 0 0 0 0 0 0 0 0 0 0 127 0" result="hardAlpha"/>
<feOffset dx="16" dy="13"/>
<feGaussianBlur stdDeviation="7"/>
<feColorMatrix type="matrix" values="0 0 0 0 0 0 0 0 0 0 0 0 0 0 0 0 0 0 0.23 0"/>
<feBlend mode="normal" in2="BackgroundImageFix" result="effect1_dropShadow"/>
<feBlend mode="normal" in="SourceGraphic" in2="effect1_dropShadow" result="shape"/>
</filter>
</defs>
<g class="currentLayer" style=""><title>Layer 1</title><g filter="url(#filter0_d)" id="svg_1" class="">
<path d="M79.20301818847656,114.77267456054688 L182.8922119140625,114.85216522216797 C213.5328826904297,114.87601470947266 242.9094696044922,126.61602020263672 264.56011962890625,147.49090576171875 C286.20977783203125,168.36480712890625 298.3614501953125,196.66265869140625 298.33953857421875,226.1597442626953 L298.22100830078125,387.0196533203125 C298.193115234375,426.8280029296875 313.8391418457031,465.1688537597656 342.0064697265625,494.3152160644531 C366.0348815917969,519.1792602539062 397.6507263183594,535.7767944335938 432.02783203125,541.88330078125 C441.6831970214844,543.5982055664062 450.021728515625,535.790771484375 450.0286865234375,526.0090942382812 L450.4032287597656,17.223243713378906 C450.41021728515625,7.894752502441406 442.834716796875,0.32670456171035767 433.4821472167969,0.31950122117996216 L16.962848663330078,-0.0013322234153747559 C7.610406875610352,-0.008535802364349365 0.023210465908050537,7.547837257385254 0.016339242458343506,16.876293182373047 L0.000482022762298584,38.40237045288086 C-0.014860212802886963,58.639591217041016 8.320870399475098,78.05472564697266 23.174055099487305,92.37682342529297 C38.02729797363281,106.69892883300781 58.181392669677734,114.75479125976562 79.20301818847656,114.77267456054688 z" fill="#343449" id="svg_2"/>
</g></g></svg>