<?xml version="1.0" encoding="UTF-8"?>
<svg width="25px" height="26px" viewBox="0 0 25 26" version="1.1" xmlns="http://www.w3.org/2000/svg" xmlns:xlink="http://www.w3.org/1999/xlink">
    <!-- Generator: Sketch 61.2 (89653) - https://sketch.com -->
    <title>clock-icon</title>
    <desc>Created with Sketch.</desc>
    <g id="Page-1" stroke="none" stroke-width="1" fill="none" fill-rule="evenodd">
        <g id="clock-icon" transform="translate(2.000000, 1.000000)" stroke="#A616D4" stroke-width="1.5">
            <path d="M10.9998,23.913 C16.2825,23.913 20.565,19.6305 20.565,14.3478 C20.565,9.0651 16.2825,4.78259 10.9998,4.78259 C5.71706,4.78259 1.43457,9.0651 1.43457,14.3478 C1.43457,19.6305 5.71706,23.913 10.9998,23.913 Z" id="Path"></path>
            <path d="M13.3086,0 L8.6918,0 C8.1177,0 7.65234,0.46536 7.65234,1.03942 L7.65234,1.83014 C7.65234,2.4042 8.1177,2.86956 8.6918,2.86956 L13.3086,2.86956 C13.8826,2.86956 14.348,2.4042 14.348,1.83014 L14.348,1.03942 C14.348,0.46536 13.8826,0 13.3086,0 Z" id="Path"></path>
            <polygon id="Path" points="19.8479 4.30435 18.4131 5.73914 20.5653 7.89132 22.0001 6.45653"></polygon>
            <polygon id="Path" points="2.15218 4.30433 0 6.45651 1.43479 7.8913 3.58697 5.73912"></polygon>
            <path d="M14.0158,11.3322 C14.0158,11.3322 12.0224,14.6788 11.6487,15.0524 C11.469,15.2319 11.2254,15.3326 10.9715,15.3324003 C10.7175,15.3322 10.4741,15.2312 10.2946,15.0515 C10.1152,14.8718 10.0145,14.6282 10.0145999,14.3742 C10.0148,14.1203 10.1159,13.8768 10.2956,13.6974 C10.6693,13.3262 14.0158,11.3322 14.0158,11.3322 Z" id="Path"></path>
            <line x1="10.5215" y1="7.17392" x2="11.478" y2="7.17392" id="Path"></line>
            <line x1="10.5215" y1="21.5217" x2="11.478" y2="21.5217" id="Path"></line>
            <line x1="7.8125" y1="7.90341" x2="8.6963" y2="7.53738" id="Path"></line>
            <line x1="13.3037" y1="21.1589" x2="14.1875" y2="20.7928" id="Path"></line>
            <line x1="5.58789" y1="9.6136" x2="6.26447" y2="8.93706" id="Path"></line>
            <line x1="15.7334" y1="19.7592" x2="16.41" y2="19.0826" id="Path"></line>
            <line x1="4.18848" y1="12.0445" x2="4.55451" y2="11.1607" id="Path"></line>
            <line x1="17.4443" y1="17.5356" x2="17.8104" y2="16.6517" id="Path"></line>
            <line x1="3.82617" y1="14.8261" x2="3.82617" y2="13.8696" id="Path"></line>
            <line x1="18.1738" y1="14.8261" x2="18.1738" y2="13.8696" id="Path"></line>
            <line x1="4.55451" y1="17.5356" x2="4.18848" y2="16.6518" id="Path"></line>
            <line x1="17.8104" y1="12.0445" x2="17.4443" y2="11.1607" id="Path"></line>
            <line x1="6.26545" y1="19.7592" x2="5.58887" y2="19.0826" id="Path"></line>
            <line x1="16.411" y1="9.6137" x2="15.7344" y2="8.93709" id="Path"></line>
            <line x1="8.6973" y1="21.1589" x2="7.81348" y2="20.7928" id="Path"></line>
            <line x1="14.1885" y1="7.90341" x2="13.3047" y2="7.53738" id="Path"></line>
        </g>
    </g>
</svg>