<svg width="26" height="26" viewBox="0 0 26 26" fill="none" xmlns="http://www.w3.org/2000/svg">
<path d="M12.9998 24.913C18.2825 24.913 22.565 20.6305 22.565 15.3478C22.565 10.0651 18.2825 5.78259 12.9998 5.78259C7.71706 5.78259 3.43457 10.0651 3.43457 15.3478C3.43457 20.6305 7.71706 24.913 12.9998 24.913Z" stroke="#343449" stroke-width="1.5" stroke-miterlimit="10"/>
<path d="M15.3086 1H10.6918C10.1177 1 9.65234 1.46536 9.65234 2.03942V2.83014C9.65234 3.4042 10.1177 3.86956 10.6918 3.86956H15.3086C15.8826 3.86956 16.348 3.4042 16.348 2.83014V2.03942C16.348 1.46536 15.8826 1 15.3086 1Z" stroke="#343449" stroke-width="1.5" stroke-miterlimit="10"/>
<path d="M21.8479 5.30435L20.4131 6.73914L22.5653 8.89132L24.0001 7.45653L21.8479 5.30435Z" stroke="#343449" stroke-width="1.5" stroke-miterlimit="10"/>
<path d="M4.15218 5.30433L2 7.45651L3.43479 8.8913L5.58697 6.73912L4.15218 5.30433Z" stroke="#343449" stroke-width="1.5" stroke-miterlimit="10"/>
<path d="M16.0158 12.3322C16.0158 12.3322 14.0224 15.6788 13.6487 16.0524C13.469 16.2319 13.2254 16.3326 12.9715 16.3324C12.7175 16.3322 12.4741 16.2312 12.2946 16.0515C12.1152 15.8718 12.0145 15.6282 12.0146 15.3742C12.0148 15.1203 12.1159 14.8768 12.2956 14.6974C12.6693 14.3262 16.0158 12.3322 16.0158 12.3322Z" stroke="#343449" stroke-width="1.5" stroke-miterlimit="10"/>
<path d="M12.5215 8.17392H13.478" stroke="#343449" stroke-width="1.5" stroke-miterlimit="10"/>
<path d="M12.5215 22.5217H13.478" stroke="#343449" stroke-width="1.5" stroke-miterlimit="10"/>
<path d="M9.8125 8.90341L10.6963 8.53738" stroke="#343449" stroke-width="1.5" stroke-miterlimit="10"/>
<path d="M15.3037 22.1589L16.1875 21.7928" stroke="#343449" stroke-width="1.5" stroke-miterlimit="10"/>
<path d="M7.58789 10.6136L8.26447 9.93706" stroke="#343449" stroke-width="1.5" stroke-miterlimit="10"/>
<path d="M17.7334 20.7592L18.41 20.0826" stroke="#343449" stroke-width="1.5" stroke-miterlimit="10"/>
<path d="M6.18848 13.0445L6.55451 12.1607" stroke="#343449" stroke-width="1.5" stroke-miterlimit="10"/>
<path d="M19.4443 18.5356L19.8104 17.6517" stroke="#343449" stroke-width="1.5" stroke-miterlimit="10"/>
<path d="M5.82617 15.8261V14.8696" stroke="#343449" stroke-width="1.5" stroke-miterlimit="10"/>
<path d="M20.1738 15.8261V14.8696" stroke="#343449" stroke-width="1.5" stroke-miterlimit="10"/>
<path d="M6.55451 18.5356L6.18848 17.6518" stroke="#343449" stroke-width="1.5" stroke-miterlimit="10"/>
<path d="M19.8104 13.0445L19.4443 12.1607" stroke="#343449" stroke-width="1.5" stroke-miterlimit="10"/>
<path d="M8.26545 20.7592L7.58887 20.0826" stroke="#343449" stroke-width="1.5" stroke-miterlimit="10"/>
<path d="M18.411 10.6137L17.7344 9.93709" stroke="#343449" stroke-width="1.5" stroke-miterlimit="10"/>
<path d="M10.6973 22.1589L9.81348 21.7928" stroke="#343449" stroke-width="1.5" stroke-miterlimit="10"/>
<path d="M16.1885 8.90341L15.3047 8.53738" stroke="#343449" stroke-width="1.5" stroke-miterlimit="10"/>
</svg>
