<?xml version="1.0" encoding="UTF-8"?> <!-- Generator: Adobe Illustrator 25.0.0, SVG Export Plug-In . SVG Version: 6.00 Build 0) --> <svg xmlns="http://www.w3.org/2000/svg" xmlns:xlink="http://www.w3.org/1999/xlink" version="1.1" id="Layer_1" x="0px" y="0px" viewBox="0 0 838 166" style="enable-background:new 0 0 838 166;" xml:space="preserve"> <style type="text/css"> .st0{enable-background:new ;} .st1{clip-path:url(#SVGID_4_);fill-rule:evenodd;clip-rule:evenodd;fill:#FFFFFF;} .st2{clip-path:url(#SVGID_4_);} .st3{clip-path:url(#SVGID_6_);enable-background:new ;} .st4{clip-path:url(#SVGID_8_);fill:#6DC4E4;} .st5{clip-path:url(#SVGID_8_);fill:#16B9E7;} .st6{clip-path:url(#SVGID_8_);fill:#2B7EB4;} .st7{clip-path:url(#SVGID_10_);enable-background:new ;} .st8{clip-path:url(#SVGID_12_);fill:#2B7EB4;} .st9{fill-rule:evenodd;clip-rule:evenodd;fill:none;} </style> <g> <defs> <rect id="SVGID_1_" x="-109" y="-701" width="876" height="550"></rect> </defs> <clipPath id="SVGID_2_"> <use xlink:href="#SVGID_1_" style="display:none;overflow:visible;"></use> </clipPath> </g> <g class="st0"> <g> <defs> <rect id="SVGID_3_" x="-199" y="-50" width="551.89" height="665"></rect> </defs> <clipPath id="SVGID_4_"> <use xlink:href="#SVGID_3_" style="overflow:visible;"></use> </clipPath> <path class="st1" d="M298.04,248.48c-0.01-0.28-0.03-0.56-0.04-0.84c-0.14,0.57-0.28,1.14-0.44,1.71 c-0.23,0.82-0.46,1.64-0.7,2.46C297.26,250.7,297.65,249.59,298.04,248.48z"></path> <g class="st2"> <defs> <polyline id="SVGID_5_" points="7.8,7.66 166.56,7.66 166.56,160 7.8,160 7.8,7.66 "></polyline> </defs> <clipPath id="SVGID_6_"> <use xlink:href="#SVGID_5_" style="overflow:visible;"></use> </clipPath> <g class="st3"> <g> <defs> <rect id="SVGID_7_" x="7.8" y="7.66" width="530.47" height="304.69"></rect> </defs> <clipPath id="SVGID_8_"> <use xlink:href="#SVGID_7_" style="overflow:visible;"></use> </clipPath> <path class="st4" d="M29.95,80.97c0.02,0.13,0.04,0.24,0.15,0.3c0.8,0.43,0.92,0.4,1.18,0.36c0.33-0.05,0.41,0.07,0.55,0.33 c0.07,0.14,0.46,0.82,1.22,0.86c1.22-0.03,2.47-0.06,3.73-0.08c-0.22-0.41-1.11-1.65-1.88-1.76c-0.16,0.01-0.33,0.01-0.53,0.01 c-0.53,0-1.05,0.24-1.57,0c-0.37-0.16-0.45-0.56-0.72-0.81c-0.39-0.35-0.91-0.53-1.34-0.83c-0.51-0.32-0.51-0.32-0.58-0.55 c-0.05-0.17-0.1-0.32-0.4-0.34c-0.35,0.03-0.69,0.06-1.04,0.08c-0.22,0.01-0.22,0.01-0.48,0.23c-0.21,0.19-0.41-0.03-0.61-0.04 c-0.32,0.01-0.62,0.02-0.98,0.03c-0.84-0.02-0.84-0.02-0.96,0.09c-1,0.97,0.42,2.57,1.61,1.81c0.3-0.19,0.46-0.53,0.8-0.67 c0.05-0.02,0.55-0.03,0.84,0.03C28.94,80.03,29.87,80.39,29.95,80.97z M26.59,94.86c-0.02-0.48-0.05-0.96-0.06-1.44l0.27-1.83 c-0.01-0.41-0.02-0.82-0.02-1.23l-0.51-0.94l-0.99-0.63l-1.45,0.19l-1.01-0.26l-1.09,0.62l-0.72-0.62l0.66-0.76v-0.59 c0.01-0.24,0.01-0.48,0.01-0.73l0.27-0.82l0.4-1.32c0.02-0.48,0.04-0.97,0.07-1.46l0.65-0.59l0.16-1.09l-0.44-0.41l-1.55,0.2 l-0.97,0.24l-0.46,1.03l-0.46,1.53l-0.49,1.4l-0.79,0.18l-1.1,0.48l-1.13,0.27l-0.48-1l-0.88-0.68l-0.26-1.15l-0.53-1.49 l-0.14-2.56l0.05-1.84l0.6-1.44l0.43-1.62l-0.18-1.65l1.03-1.63l0.68-0.1l0.81-0.85l0.85-0.99l0.93,0.16l0.64,0.31L20,69.41 l0.33,0.87c0.28-0.01,0.57-0.02,0.87-0.03l0.69-0.1l-0.03-0.67l0.44-1.1l1.1-0.1l0.79-0.16l1.4,0.14L26,69.2 c0.16-0.01,0.32-0.01,0.48-0.01l0.4-0.56l0.45-0.15l0.56,0.8l0.5,1c-0.06,0.39-0.11,0.78-0.17,1.18l0.29,0.68l0.07,0.76 l0.43,0.55l0.18,0.82l0.57,0.4l-0.04,0.91l0.55,0.2l0.41-0.64l0.38-0.99l-0.2-1.17l-0.12-1.79l-0.52-1.56 c0.1-0.68,0.21-1.37,0.44-2.38c0.14-0.33,0.35-0.76,0.51-1.09l0.88-1.5l1.03-0.48l1.34-1.16l1.24-0.88l1.13-0.48l0.35-0.85 l0.91-0.54l-0.4-1.4l-0.36-0.63l0.4-0.77l-0.29-0.69l0.9-0.46l0.44,1l0.64-1.03l0.66-0.89l0.65-0.58l0.99-1.87 c0.51-0.01,1.03-0.02,1.55-0.03l1.14-0.63l1.2-0.14l-0.11-0.73l0.33-1.51l0.02-0.02c0.04-0.23,0.1-0.45,0.16-0.67 c0.01-0.04,0.02-0.07,0.03-0.11c0.06-0.21,0.13-0.41,0.21-0.62c0.02-0.04,0.03-0.09,0.05-0.13c0.08-0.2,0.16-0.4,0.26-0.59 c0.02-0.04,0.04-0.07,0.05-0.11c0.1-0.2,0.21-0.4,0.32-0.59c0,0,0.01-0.01,0.01-0.01c0.52-0.86,1.17-1.62,1.94-2.27 c0,0,0.01-0.01,0.01-0.01c0.18-0.15,0.37-0.29,0.56-0.43c0.02-0.02,0.04-0.03,0.07-0.05c0.19-0.13,0.39-0.26,0.59-0.38 c0.02-0.01,0.04-0.02,0.06-0.04c1.31-0.77,2.84-1.23,4.48-1.29c0,0,0,0,0,0l0.09-0.05l0.26-1.17l-1.39-0.1l-1.66,0.46 l-1.97,0.98l-2.11,1.61l-1.56,0.94l0.77-0.87l1.05-0.93l0.65-0.46l-1.15-0.32c0.52-0.01,1.05-0.02,1.59-0.03l0.64-0.79 l1.11-0.73l1.07-0.06l0.72-0.89l0.99-0.34c0.47,0,0.94-0.01,1.4-0.01l2.58-0.08l1.27,0.21l1.06-0.07l1.23-0.71l1.18-0.97 l1.75-0.17l0.95-0.32l0.57-0.43l-0.45-0.42l0.45-0.42l0.26-0.88l-1.17-0.15l-0.1-0.51c-0.44,0-0.87,0-1.3,0.01l-1.16,0.52 l-0.79,0.42l-0.51-0.2l0.41-0.62l1.27-0.37l1.48-0.31l0.75-0.51l-0.89-0.05l-0.77-0.4l-1.06-0.29l-0.52-0.59L61,31.94 l-0.13-0.53l0.51-0.1l0.29-0.39l-0.41-0.9l-0.48-0.98l-0.47-1.68l-0.04-0.75l-1.3,1c-0.13,0.29-0.26,0.57-0.39,0.86l-1.06,0.34 l-0.85,0.61l-0.84-0.03l0.08-0.56l-0.36-0.41l-0.93,0.2l0.73-0.96c0.23-0.42,0.45-0.84,0.67-1.25l0.32-0.66L55.4,25.7 l-0.45-0.47l-0.24-0.67l-0.67-0.7l-0.64,0.34l-0.93-0.02l-0.21-0.24c-0.35,0.01-0.71,0.01-1.05,0.02l-0.77,0.47l-0.1,0.67 l-0.8,0.91l-0.29,0.62l-0.19,0.84c-0.2,0-0.39,0.01-0.58,0.01l-0.5,0.82l-0.67,0.47l0.28,0.36l0.4,0.59l-0.41,1.09 c-0.23,0.42-0.47,0.84-0.7,1.27l-1.07,0.9l-1.19,0.72l-1.21,0.18l0.05,1.1c-0.25,0.48-0.49,0.96-0.74,1.45l-0.08,0.83 l-0.51,0.69l-0.92,0.88l-1.21,0.18l-0.06-1.21l-0.23-1.03c0.15-0.3,0.31-0.59,0.47-0.88l0.46-1.23l0.71-1.02l-1.21-0.15 l-0.93-0.02l-0.28-0.34l-0.94-0.31l-0.05-0.57l-0.52-0.6L36.95,31l-1.51,0.43l0.19-0.62l0.62-1.4l-0.26-0.35l0.1-0.54 l1.59-1.69l1.66-1.25l1.55-1.09l1.04-0.41l1.07-0.56l0.35-0.57l-0.58-0.21l-0.48-0.36l0.83,0.16l0.6,0.25l0.53-0.14l0.7-0.6 l0.43,0.29l0.56-0.14l0.5-0.47l0.48-0.21l0.79-0.63l-0.45-0.06l-0.59-0.05l0.13-0.33l-0.31-0.35l0.46,0.02l0.5,0.24l0.3,0.21 l0.79-0.25l0.97-0.57l0.08-0.43c0.18-0.01,0.36-0.01,0.55-0.02l-0.1,0.39l-0.74,0.46l-1.11,0.84c-0.34,0.35-0.69,0.7-1.03,1.06 l-0.82,0.26l-0.3,0.48l0.59,0.02c-0.14,0.15-0.27,0.3,0.04,0.49c0.15-0.04,0.34-0.11,0.48-0.15l0.75-0.57l0.79,0.01l0.38,0.07 l0.25,0.23c0.22,0,0.45-0.01,0.69-0.02l0.58-0.6l-0.54-0.14l0.36-0.74l-0.71-0.06l-0.04-0.56l-0.41-0.14 c0.14-0.14,0.28-0.28,0.43-0.42l0.39,0.1L50.61,20l0.28-0.33c0.21,0,0.4-0.01,0.6-0.02l0.72-0.48l1.05-0.48l0.59-0.4l0.14-0.41 l0.49-0.68l0.62-0.11l0.72-0.5l0.2-0.48l-0.21-0.24l-0.15-0.36c0.24-0.01,0.48-0.02,0.72-0.02l0.39-0.25l0.45,0.05l0.08,0.27 l0.64-0.05l0.69-0.14l0.1-0.45l0.42-0.1l-0.13,0.51l0.49,0.05l-0.31,0.5l0.32,0.09l-0.15,0.38l0.27,0.19l-0.22,0.49l0.38,0.19 l0.01,0.51l-0.44,0.62l-1.28,0.69l-1.19,0.71l-0.22,0.67l-1.23,0.17l-0.45-0.14c-0.2,0.01-0.41,0.01-0.61,0.01l-1.24,0.59 c-0.17,0.2-0.35,0.41-0.53,0.62l0.79,0.14l0.78-0.06l0.47-0.35l0.49-0.2l0.39,0.11l0.7,0.25l0.28,0.86l-0.13,0.48l0.16,0.61 c0.27-0.01,0.55-0.01,0.83-0.02l0.39,0.82l1.32,0.02l0.68,0.37l0.35-0.51l-0.84-1.02l-0.32-0.44l0.01-0.48l0.64,0.43l1.13,0.76 l0.6,0.45c0.13-0.25,0.26-0.5,0.39-0.74l0.81-0.65l-0.55-0.39l0.4-0.98l-0.81-0.33l-0.37-1.19l0.61-0.33l0.58-0.3l0.83,1.09 l0.14,0.72l0.63,0.11l0.69-0.84l1.02-0.31l0.31-0.33c0.18,0,0.38,0,0.57,0l0.44-0.37l0.25-0.54c-0.37,0-0.73,0.01-1.1,0.01 c0.06-0.09,0.11-0.19,0.18-0.29L66,17.76l-0.4-0.07l-0.48-0.26c-0.17,0-0.35,0-0.51,0.01l0.13-0.38l0.07-0.33 c-0.28,0-0.56,0.01-0.85,0.01l-0.31-0.03c0.15-0.19,0.29-0.38,0.45-0.57c0.19,0,0.38,0,0.58,0l0.52-0.26l-0.62-0.18l0.29-0.22 l0.42-0.07l-0.11-0.36l-0.44-0.15l0.54-0.34l-0.37-0.22l-0.67,0.04l0.18-0.26l-0.48-0.02l-0.14-0.05l0.7-0.27l-0.37-0.16 l-0.89,0.18l0.09-0.44l0.25-0.25l-0.37-0.02l0.35-0.29l-0.34-0.2c-0.26,0-0.53,0.01-0.79,0.02L62,12.85l-0.48,0.06l-0.26-0.07 l-0.55,0.3l-0.42,0.04l0.53-0.38l0.74-0.35L61.92,12l0.51-0.39c-0.17,0.01-0.35,0.01-0.52,0.01c-0.14,0.05-0.28,0.09-0.42,0.14 c-0.05,0.02-0.11,0.03-0.16,0.05c-0.02,0.01-0.04,0.01-0.06,0.02l-0.26,0.1l-0.06,0.01c0,0-0.01,0-0.01,0c0,0,0,0-0.01,0 c0,0,0,0,0,0c-0.52,0.18-1.05,0.35-1.57,0.54h0l-0.12,0.06l-0.1,0.05l-0.47,0.45l-0.65,0.3l-0.51,0.58L57.11,14l0.34-0.5 l0.9-0.64h0c0,0,0,0,0,0c-1.01,0.38-2,0.77-2.99,1.18c0,0,0,0,0,0h0l0.13,0.04l0.33,0.02l-0.41,0.37l-0.3-0.07l-0.68,0.16 l-0.33,0.47c0.19-0.01,0.37-0.01,0.55-0.02l0.45-0.13l-0.05,0.3l0.37,0.25l-0.66,0.17l-0.61,0.45l-0.08,0.31l-1.63,0.92 l-1.04,0.66l-1.02,0.54l-0.12-0.2l0.68-0.79l0.87-0.48l0.29-0.71l-1.27,0.58l0.69-0.98l-0.05-0.1c-0.01,0-0.01,0.01-0.01,0.01 c0,0,0,0-0.01,0c0,0,0,0-0.01,0c-0.79,0.38-1.58,0.77-2.35,1.17c0,0,0,0,0,0s0,0,0,0c0,0,0,0,0,0 c-0.09,0.07-0.18,0.13-0.27,0.2l-0.28,0.11c-0.73,0.39-1.47,0.79-2.19,1.21c-0.05,0.03-0.1,0.05-0.15,0.08l-0.21,0.17 l0.01-0.06c-0.95,0.55-1.88,1.13-2.8,1.72c0,0,0,0,0,0c-0.25,0.16-0.49,0.32-0.74,0.48c0,0-0.01,0-0.01,0.01 c-0.91,0.6-1.82,1.21-2.7,1.84c-0.07,0.05-0.15,0.11-0.22,0.16c0,0-0.01,0.01-0.01,0.01c-0.69,0.5-1.36,1.01-2.03,1.53 c-0.13,0.1-0.27,0.2-0.41,0.31c-0.23,0.18-0.46,0.36-0.69,0.55c-0.68,0.54-1.33,1.1-1.99,1.66c-0.16,0.14-0.34,0.27-0.5,0.41 c0,0,0,0,0,0c-0.11,0.1-0.22,0.2-0.33,0.3c-0.16,0.14-0.3,0.28-0.46,0.42c-0.57,0.51-1.13,1.02-1.68,1.54l0,0 c-0.21,0.2-0.41,0.39-0.61,0.59l0,0c-0.14,0.13-0.27,0.28-0.41,0.41c-0.63,0.62-1.26,1.24-1.86,1.87 c-0.13,0.13-0.25,0.27-0.38,0.41c0,0,0,0,0,0c-0.32,0.34-0.63,0.69-0.94,1.04c-0.31,0.35-0.64,0.69-0.95,1.05 c-0.18,0.21-0.36,0.41-0.54,0.62c-0.51,0.59-0.99,1.2-1.48,1.81c-0.06,0.07-0.12,0.15-0.18,0.22c-0.12,0.15-0.25,0.3-0.37,0.45 c-0.13,0.17-0.26,0.34-0.39,0.51c-0.1,0.14-0.2,0.28-0.3,0.41c-0.37,0.48-0.73,0.97-1.09,1.47c-0.08,0.12-0.18,0.23-0.26,0.35 c-0.15,0.21-0.3,0.41-0.44,0.62c0,0,0,0,0,0c-0.61,0.88-1.21,1.77-1.78,2.67c-0.12,0.2-0.24,0.39-0.37,0.59 c-0.49,0.78-0.97,1.58-1.43,2.38c0,0,0,0.01,0,0.01c-0.12,0.2-0.24,0.4-0.35,0.61l0,0c-0.45,0.8-0.88,1.62-1.3,2.44 c-0.07,0.14-0.15,0.27-0.22,0.41c-0.11,0.22-0.21,0.44-0.32,0.65c0,0,0,0,0,0c-0.27,0.54-0.52,1.09-0.77,1.64 c-0.14,0.3-0.29,0.6-0.43,0.91c-0.09,0.19-0.18,0.38-0.26,0.58c-0.43,0.99-0.84,1.99-1.24,3.01c-0.09,0.24-0.18,0.48-0.27,0.72 c-0.34,0.9-0.66,1.81-0.96,2.72c-0.06,0.17-0.12,0.34-0.17,0.51c-0.23,0.71-0.43,1.44-0.64,2.16c-0.1,0.33-0.2,0.66-0.3,1v0 c-0.07,0.25-0.14,0.51-0.2,0.77c-0.02,0.06-0.03,0.13-0.05,0.19c-0.23,0.9-0.46,1.81-0.66,2.73c0,0.01,0,0.01,0,0.02 c-0.03,0.13-0.06,0.26-0.09,0.4c0,0,0,0,0,0c-0.23,1.09-0.43,2.19-0.61,3.3c0,0,0,0,0,0c-0.04,0.27-0.08,0.54-0.13,0.8 c-0.11,0.69-0.19,1.38-0.28,2.08c-0.05,0.37-0.11,0.73-0.15,1.1c0,0,0,0,0,0.01c-0.01,0.08-0.02,0.15-0.03,0.23 c-0.1,0.92-0.16,1.86-0.22,2.79c-0.01,0.21-0.04,0.42-0.05,0.62c-0.02,0.28-0.03,0.56-0.04,0.83c0,0.08,0,0.17-0.01,0.25 c-0.05,1.08-0.08,2.16-0.08,3.24c0,0.37,0.02,0.74,0.03,1.1l0.02,0.04l0.68,1.04l0.88,0.46l0.94,0.97l1.14,0.81l1.32,1.02 l1.1,0.46l0.72-0.11l0.22-0.6l0.82-0.18l0.93,0.69l1.07,1.19l0.6,1c0.29-0.01,0.58-0.02,0.88-0.03c0.12,0,0.23-0.01,0.35-0.01 l0.51,0.27l0.59,1.07l1.14,0.47l0.02-0.73l0.64,0.41c2.03,3.43,2.03,3.43,1.91,4.12l0.42,0.56l0.46-0.3l0.33,0.19l0.63-0.59 l0.82-0.77l-0.37-0.45L26.59,94.86z M34.38,85.48c-0.12-0.11-0.29-0.05-0.42-0.11c-0.16-0.06-0.26-0.21-0.42-0.28l-0.14-0.03 c-0.47,0.01-0.94,0.02-1.4,0.03c0.09,0.17,0.15,0.35,0.24,0.53l0.12,0.15c0.09,0.09,0.12,0.08,0.38,0.02 c0.23-0.05,0.65,0.29,0.66,0.29c0.08,0.08,0.08,0.16,0.08,0.35c-0.01,0.13,0,0.16,0.04,0.24c0.16-0.04,0.32,0.08,0.48-0.01 c0.1-0.06,0.1-0.06,0.43-0.52l0.05-0.09C34.43,85.87,34.56,85.65,34.38,85.48z M32.49,99.15l0.23,0.7l0.53-0.08l0.23-0.94 L32.82,98c-0.37,0.01-0.73,0.02-1.1,0.03l-1.12,1.06l-1.25,1.17l0.31,0.18l0.96,0.47l-0.16-1.13l0.39-0.73L32.49,99.15z M48.27,85.26c-0.15-0.14-0.43-0.06-0.53-0.28c-0.13-0.28,0.05-0.56,0.01-0.83c-0.98,0.23-1.06,0.26-1.55,0.27l-0.14,0.13 l-0.93,0.87c0.09-0.02,0.15-0.04,0.18-0.05c0.23-0.1,0.31-0.1,0.54-0.01c0.22,0.09,1.16,0.2,1.34,0.2c0.19,0,0.36,0,0.55-0.01 c0.2-0.03,0.32-0.18,0.47-0.27L48.27,85.26z M126.71,39.08c-0.05-0.11-0.05-0.11-0.03-0.19c0.11-0.03,0.21-0.01,0.33-0.03 c0,0-0.05-0.24-0.11-0.43c0.12,0.01,0.25,0.01,0.37,0.02c-0.06-0.14-0.14-0.28-0.24-0.44c-0.42-0.24-0.68-0.67-1.08-0.91 l-0.14,0.08c0.08,0.11,0.08,0.11,0.01,0.49c-0.17,0.09-0.17,0.09-0.96-1.17c-0.18-0.01-0.35-0.02-0.54-0.03 c-0.19-0.51-0.34-0.78-0.34-0.78c-0.23-0.27-0.61-0.35-0.86-0.59l-0.21-0.06c-0.16-0.3-0.57-0.36-0.69-0.68 c-0.09-0.2-0.71-0.81-1.07-0.83c-0.61-0.02-1.15-0.21-0.84-0.67c-0.05-0.15-0.05-0.15-0.05-0.2c0.21-0.01,0.21-0.01,0.32-0.03 c-0.03-0.07-0.07-0.13-0.13-0.25c-0.13-0.22,0.16-0.4,0.06-0.62c-0.14-0.26-0.28-0.52-0.43-0.78 c-0.57-0.02-1.13-0.04-1.71-0.11c-0.01-0.17-0.01-0.17,0.07-0.23c0.01-0.19-0.19-0.29-0.19-0.47c0,0,0.18-0.32,0.19-0.39 c-0.19-0.15-0.2-0.16-0.34-0.18l-0.17,0.01c-0.08,0-0.17,0-0.29,0c-0.06,0.03-0.17,0.07-0.75-0.01l-0.05,0.04 c0.13,0.23,0.13,0.49,0.2,0.73c0.09,0.24,0.25,0.44,0.35,0.67c-0.34,0.03-0.61-0.18-0.93-0.22c-0.49-0.05,0.06,0.64,0.08,0.68 c0.18,0.22,0.51,0.1,0.7,0.31v0.14c0.04,0.06,0.07,0.13,0.12,0.25c0.02,0.2,0.3,0.31,0.21,0.55c-0.5,0.12-0.5,0.12-0.23,0.56 c0.13,0.01,0.25,0.01,0.41-0.01c0.03-0.04,0.08-0.1,0.66,0.34c0.12,0,0.25,0.01,0.37,0.01c-0.1-0.24-0.1-0.24-0.1-0.4 c0.01,0,0.81,0.72,0.74,1.03c-0.46,0.04-0.23,0.27,0.04,0.53c0.32,0.01,0.62,0.02,0.94,0.04l0-0.2 c0.62,0.31,0.77,1.08,1.42,1.36c0.09,0.42,0.09,0.42,0.19,0.53c0.26,0.29,0.3,0.39,0.18,0.52l-0.57-0.03 c-0.19-0.04-0.34-0.18-0.55-0.18l-0.12-0.01l-0.15-0.01c-0.03,0.04-0.03,0.04-0.06,0.21l-0.02,0.22 c-0.11-0.02-0.21-0.02-0.33-0.03l0.04,0.21c0.37,0.2,1.11-0.01,1.14,0.57c-0.06,0-0.12,0-0.21,0.01 c-0.12,0.15-0.12,0.15-0.11,0.32c-0.06,0.06-0.09,0.07-0.25,0.06l-0.02,0h-0.03l-0.02,0h-0.06c0.19,0.88,0.6,0.63,0.77,0.52 c0.07-0.04,1.54,0.2,1.55,0.2c0.08,0.03,0.28,0.31,0.1,0.44c-0.29,0.2-0.64-0.02-0.92,0.17c-0.01,0.07,0,0.15-0.03,0.22 c-0.15,0.01-0.15,0.01-0.54,0.08c0.18,0.43,0.18,0.43,0.2,0.66c-0.19,0.22-0.25,0.23-0.48,0.31c0.33,0.18,0.33,0.18,0.81,0.03 l0.17-0.16l-0.03-0.16c0.19,0.01,0.33,0.13,0.5,0.17c0.2,0.01,0.39,0.02,0.59,0.03c-0.18-0.47-0.17-0.5-0.13-0.58 c1.5,0.26,1.48,0.05,1.46-0.24l0.04-0.05c0.36,0.04,0.59,0.36,0.94,0.42l0.12,0c0.23-0.09,0.49,0.06,0.72-0.04l0.03-0.03l0,0 c0.07-0.06,0.08-0.16,0.06-0.3c0.09-0.04,0.19-0.03,0.29-0.03l0.19-0.17c-0.11-0.27-0.38-0.43-0.53-0.67L126.71,39.08z M123.03,43.37c0.02,0.07,0.05,0.17,0.07,0.24c0.05,0.03,0.08,0.06,0.12,0.08l0.85-0.79 C123.11,43.25,123.11,43.25,123.03,43.37z M103.65,9.38c0.19,0,0.56,0.13,1.69,0.49l-0.01-0.02c-0.01,0-0.42-0.17-0.84-0.34 c-0.03-0.01-0.06-0.03-0.1-0.04c-0.33-0.07-0.67-0.14-1.01-0.21c-0.18-0.04-0.36-0.08-0.54-0.11 C103.12,9.26,103.54,9.37,103.65,9.38z M125.17,29.81c0.05,0.08,0.15,0.12,0.21,0.19l0.1,0.14c0.48,0.02,0.48,0.02,0.5,0.02 l0.12,0.1c0.04,0.04,0.04,0.04,0.41,0.3l0.23-0.09c0.2,0.06,0.36,0.2,0.58,0.16c0,0,0.24-0.04,0.17-0.21l0.02-0.09 c0.18,0.01,0.18,0.01,0.23-0.03l0.05-0.15c0-0.08-0.07-0.14-0.07-0.22l0.01-0.17c-0.85-0.05-1.73-0.09-2.62-0.14l0.01,0.02 C125.14,29.78,125.14,29.78,125.17,29.81z M139.12,26.27c-0.3-0.25-0.59-0.49-0.89-0.73c-0.63-0.51-1.27-1.01-1.92-1.5 c0,0,0,0,0,0c-0.29-0.22-0.59-0.44-0.88-0.66c0,0,0,0-0.01,0c-0.67-0.49-1.35-0.98-2.04-1.45c-0.1-0.07-0.2-0.14-0.3-0.2 c-0.03-0.02-0.07-0.04-0.1-0.07c0.18,0.19,0.37,0.38,0.56,0.56v0.07c0.57,0.41,1.19,0.76,1.73,1.2 c-0.18-0.03-0.25-0.04-0.44-0.13l-0.06-0.01c-0.27-0.11-0.74-0.3-1.47-0.81c0.44,0.56,0.54,0.61,1.03,0.85 c0.21,0.17,0.21,0.17,0.35,0.26c0.11,0.07,0.13,0.07,0.16,0.08c0.23,0.02,0.52,0.19,0.86,0.49c-0.02,0.08-0.13,0.06-0.23,0.05 l0.13,0.12c-0.66-0.11-1.98-1.14-2.48-1.54c-0.17-0.08-0.23-0.09-0.3-0.09l-0.69-0.52c-1.14-0.88-2.51-1.42-3.69-2.24 c0.49,0.18,2.17,0.98,2.18,0.98c0.25,0.06,0.39,0.07,0.53,0.09c0.28,0.11,0.54,0.27,0.83,0.36c0.07,0.01,0.09,0.01,0.11,0.01 l0.05,0.01c-0.03-0.08-0.04-0.2-0.04-0.29c-0.21-0.19-0.44-0.37-0.68-0.55c-0.72-0.46-1.44-0.9-2.18-1.34 c-0.89-0.46-1.65-0.77-1.89-0.87c-0.27-0.14-0.27-0.14-0.55-0.27c-0.34-0.17-0.38-0.18-0.57-0.21 c-0.08,0.04-0.08,0.04-0.09,0.04c-0.3-0.15-0.62-0.29-0.91-0.44l-0.18-0.02c0.29,0.17,0.29,0.17,0.52,0.34 c-0.08,0-0.1-0.01-0.13-0.01c-0.18-0.08-0.18-0.08-0.69-0.42c-0.08-0.05-0.12-0.08-0.16-0.1c-0.31-0.13-0.31-0.13-0.87-0.46 l-0.18-0.02l0.12,0.12c-0.05-0.01-0.05-0.01-0.9-0.28c-0.19-0.08-0.27-0.13-0.35-0.18l0.14,0.01 c-0.11-0.08-0.27-0.18-0.39-0.26c-1-0.5-1.61-0.61-1.61-0.61c0.22,0.13,0.44,0.25,0.65,0.38c-0.27-0.07-0.42-0.16-0.57-0.25 c-0.08-0.05-0.18-0.12-0.25-0.17c-0.15-0.1-0.21-0.14-0.28-0.17c-0.15-0.01-0.3-0.03-0.46-0.04c0.63,0.35,0.63,0.35,0.81,0.49 c0.12,0.08,0.2,0.12,0.28,0.16l0.15,0.08l-0.06,0.01c-0.56-0.36-0.6-0.38-0.97-0.55c-0.14-0.03-0.19-0.04-0.23-0.04l-0.54-0.31 l-0.14-0.03l0.03,0.02l0.1,0.1l-0.13,0.06c0.16,0.14,0.36,0.25,0.53,0.38l-0.02,0.07c-0.1-0.03-0.28-0.08-0.58-0.29 c-0.17-0.1-0.25-0.1-0.34-0.11l-0.08,0.12c0.2,0.25,0.6,0.44,1.15,0.57c0.18,0.1,0.33,0.2,0.49,0.29l-0.16-0.01 c-0.23-0.11-0.49-0.13-0.73-0.19c-0.09-0.01-0.13-0.01-0.19-0.02c0.73,0.46,0.74,0.47,0.93,0.63c-0.65-0.25-1.26-0.59-1.9-0.87 c-0.01,0.1,0.12,0.18,0.25,0.26c0.1,0.06,0.96,0.55,1.14,0.83c-0.2,0.05-0.2,0.05-0.8-0.37l0.1,0.13l-0.11,0.09 c0.08,0.07,0.19,0.16,0.29,0.23c0.2,0.13,0.45,0.17,0.66,0.32c0.12,0.08,0.18,0.13,0.24,0.18l0.11,0.1 c-0.39-0.09-1.44-0.71-1.48-0.73c0.05,0.14,0.24,0.28,0.43,0.42c-0.1,0-0.21,0.01-0.31,0c0.03,0.07,0.03,0.07,0.46,0.37 c-0.08,0.04-0.19,0.07-0.28,0.09c0.04,0.07,0.09,0.17,0.13,0.24l-0.06,0.03c0.06,0.09,0.15,0.2,0.23,0.28l-0.1-0.01l0.07,0.12 c0.11,0.05,0.18,0.06,0.24,0.06c-0.02-0.08,0-0.2,0.03-0.26l0.16,0l-0.02-0.14c0.07-0.05,0.15-0.13,0.19-0.21 c0.45,0.04,0.54,0.1,0.77,0.31c-0.09-0.01-0.2-0.02-0.29-0.02l0.11,0.09l-0.14,0.03c0.13,0.28,0.84,0.92,0.92,0.99l-0.16,0.02 c0.01,0.01,1.16,1.84,1.4,2.05l-0.17-0.13c-0.07,0.32-0.07,0.32-0.04,0.4c-0.08,0.04-0.16,0.12-0.22,0.19 c0.07,0.08,0.17,0.18,0.23,0.26l0.15,0.04c0.18-0.03,0.25-0.03,0.34-0.02c0.23,0.26,0.23,0.26,0.32,0.34 c-0.03,0.08-0.06,0.19-0.08,0.28l-0.15,0.03c0.06,0.23,0.04,0.26-0.09,0.38c0.07,0.15,0.07,0.15,0.23,0.39l-0.11,0.11 c-0.11-0.05-0.26-0.12-0.37-0.17c-0.14-0.01-0.22-0.02-0.31-0.02l0.22,0.29c0.1,0.07,0.21,0.18,0.3,0.25l-0.04,0.15l-0.15,0.05 c-0.07,0-0.08,0-0.08,0h-0.04l-0.01,0h-0.01c-0.12,0.14-0.12,0.14-0.18,0.38h-0.15l-0.03,0.14c0.17,0.18,0.52,0.57-0.02,0.56 c-0.05,0.07-0.1,0.19-0.1,0.27c0.37,0.35,0.37,0.35,0.41,0.47l-0.1,0.11c0.15,0.34,0.49,0.5,0.7,0.79c0,0.11-0.06,0.1-0.1,0.1 l0.04,0.14c0.1,0.16,0.19,0.28,0.28,0.4c0.13,0.01,0.26,0.02,0.39,0.02c0.42-0.08,0.56,0.35,0.57,0.35l-0.08,0.13 c0.08,0.13,0.17,0.26,0.26,0.39l-0.12,0.08c0.17,0.38,0.17,0.38,0.92,0.47c0.19,0.28,0.19,0.28,0.27,0.44l-0.06,0.14 c0.9,0.04,1.77,0.09,2.62,0.13c-0.03-0.16-0.05-0.32-0.1-0.47l0.13-0.07l0.14,0.05c0.01-0.2-0.08-0.33-0.17-0.45 c0.32,0.04,0.66,0.34,0.89,0.59c0.29-0.35,0.6-0.67,0.93-0.97c0.04-0.04,0.08-0.07,0.12-0.1c0.33-0.29,0.68-0.57,1.06-0.81 c-0.05-0.06-0.11-0.11-0.16-0.17c-0.44-0.48-0.87-0.96-1.31-1.43c0-0.5-0.55-0.74-0.64-1.2l0.16-0.02 c0.03-0.15,0.05-0.23-0.17-0.54c0.08-0.04,0.19-0.07,0.27-0.07c-0.15-0.3-0.15-0.3-0.33-0.51l0.01-0.14l0.15-0.02 c-0.09-0.86-1.06-0.88-1.48-1.41l0.05-0.14c-0.21-0.26-0.48-0.51-0.59-0.61c0.08-0.03,0.21-0.05,0.3-0.03 c0.08,0.01,0.09,0.01,0.09,0.01h0.01l0.01,0h0.01c0.17,0.1,0.43,0.26,0.79,0.49l-0.05-0.14c0.2-0.01,0.21-0.01,0.92,0.46 c0.26,0.22,0.47,0.39,0.67,0.56c-0.09-0.01-0.19-0.02-0.28-0.02c0.96,0.81,1.06,0.89,1.09,1.2c-0.09-0.02-0.21-0.05-0.3-0.09 l-0.11,0.1c1.16,1.87,1.16,1.87,2.31,2.95c0.56-0.24,1.15-0.43,1.77-0.56c0.02,0,0.03-0.01,0.05-0.01 c0.27-0.06,0.55-0.1,0.84-0.13c0.04-0.01,0.09-0.01,0.13-0.02c0.32-0.03,0.65-0.05,0.98-0.05c0.35,0,0.7,0.02,1.04,0.06 c0.28,0.03,0.56,0.08,0.83,0.14c0.05,0.01,0.11,0.02,0.16,0.03c0.65,0.14,1.28,0.35,1.87,0.62 C139.58,26.66,139.35,26.46,139.12,26.27z M95.05,15.09L95.15,15l0.04-0.22c0.24-0.11,0.53,0.04,0.77-0.09 c-0.33-0.44-0.87-0.61-1.28-0.95c-0.35-0.3-0.89-0.37-1.1-0.85l0.12-0.05c0.56,0.31,0.56,0.31,0.6,0.31 c0.04,0,0.09,0,0.23-0.02l0.13,0.02c-0.11-0.2-0.11-0.2-0.25-0.42c-0.02-0.03-0.06-0.07-0.11-0.21 c-0.03-0.14-0.44-0.51-0.87-0.17c-0.13,0-0.26-0.01-0.4-0.09l0.19-0.17c-0.05-0.04-0.05-0.04-0.48-0.2l0.03-0.07 c0.16,0,0.32,0.01,0.48,0.01c0.06,0.09,0.12,0.18,0.19,0.27c0.15,0.01,0.29,0.01,0.55-0.02l0.08-0.11h0.13 c0.04,0,0.08,0,0.23,0.02c0.26,0.1,0.26,0.1,0.41,0.04c0.11-0.66-0.91-0.38-1.31-0.65l0.03-0.12c0.54,0.11,0.7,0.04,0.77,0.02 l0.07-0.13l0.13,0.04l0.17,0.01c0.07,0.01,0.18-0.02,0.24-0.04c-0.39-0.35-0.99-0.4-1.33-0.84c0.04-0.04,0.04-0.04,0.32-0.05 c-0.08-0.08-0.17-0.16-0.35-0.31c-0.26-0.12-0.26-0.12-0.39-0.22c0,0,0-0.01-0.09-0.08c-0.36-0.17-0.81-0.11-1.13-0.38 l-0.05-0.05C92,9.13,92,9.13,92.26,9.09c0.06,0,0.12,0,0.19,0c0.12,0,0.21,0,0.48,0.16c0.01,0.01,0.03,0.02,0.09,0.11 c0.09,0.15,0.1,0.16,0.52,0.41l0.07-0.04c-0.24-0.21-0.49-0.42-0.74-0.64l-0.03-0.11l-0.07-0.05 c-0.21-0.11-0.21-0.11-0.63-0.12c-0.04,0-0.09,0-0.17-0.01L91.85,8.8c-0.08-0.07-0.18-0.15-0.21-0.23l0.12,0.04l0.09,0 l0.13-0.04c-0.18-0.1-0.78-0.28-0.99-0.17l0.05,0.12c-0.1-0.03-0.23-0.07-0.42-0.3L90.6,8.1c-0.24-0.17-0.24-0.17-0.41-0.3 l0.2,0.01l-0.12-0.08h0c-0.17-0.01-0.34-0.01-0.51-0.02c-0.86-0.03-1.72-0.06-2.58-0.06c-1.35,0-2.69,0.03-4.02,0.1 c0,0,0,0,0,0C81.99,7.81,80.83,7.9,79.68,8c-0.03,0-0.05,0-0.08,0.01c-0.13,0.01-0.26,0.02-0.38,0.03c0,0,0,0,0,0 c-0.54,0.05-1.06,0.13-1.59,0.19c-0.77,0.09-1.54,0.17-2.3,0.28c-1.29,0.19-2.57,0.4-3.84,0.65c0,0,0,0,0,0 c0.02,0.02,0.03,0.03,0.06,0.06l0.01,0.02l-0.13,0.01l-0.09,0.03l-0.07,0.04l-0.03,0.04l0.06,0.04l-0.03,0.04l-0.02,0.03 l-0.05,0.04l0.01,0.02l0.02,0.02l0.01,0.02l0.06,0.06l0.03,0.02l0,0.04l0.14,0.04h0.03l0.05,0l0.08-0.03l0.05-0.04l0.17-0.16 c0.01,0,0.02,0,0.1,0c0.07,0,0.17,0.02,0.25,0.04l0.02,0.02l0.03,0.01l0.01,0.02l0.06-0.01l0.11-0.08h0.19l0.01,0.03 c0.06,0.02,0.17,0.03,0.24,0.02l0.08-0.04L73,9.47l0.07-0.02l0.06-0.01h0.04l0.06-0.01l0.08-0.04l0.18-0.05l0.09,0.08 l0.02,0.02h0.13l0.13,0.01h0.05l0.09,0.08l0,0.04l0.04,0.02l0.04,0.01c0.11,0,0.21,0,0.31,0l0.04,0.01l0.1,0.08l0.02,0.03 l0.13,0l0.05,0h0.05v0.12l0.1,0.04c0.02,0,0.03,0,0.12,0.02l0.02,0.1c-0.09,0.09-0.18,0.19-0.29,0.38v0.04l0.02,0.04l0.03,0.01 h0.08l0.03,0.03l0.05,0.02L75,10.55l-0.03,0.13l-0.03,0.04l0.04,0.13l0.03,0.04L75,10.96l0,0.05l-0.01,0.22l-0.02,0.2L75,11.47 l0.06,0.14L75,11.68c-0.12,0.1-0.14,0.11-0.11,0.34c-0.06,0.09-0.11,0.18-0.17,0.27c-0.21,0.14-0.21,0.14-0.27,0.26h0.3 c-0.04,0.07-0.09,0.15-0.21,0.21c-0.08,0.01-0.18,0.04-0.25,0.07c-0.1,0.13-0.13,0.3-0.25,0.42H73.8 c-0.04,0.07-0.09,0.15-0.13,0.22l0.01,0.13c0.07,0.03,0.17,0.05,0.25,0.06c0.04,0,0.08,0,0.25,0.03l0.12,0.03 c0.23,0,0.45,0,0.7-0.04c0.07-0.12,0.07-0.12,0.7-0.21c-0.06,0.26-0.14,0.58,0.37,0.59h0.09c0.15,0.08,0.25,0.22,0.38,0.32 l-0.01,0.12l-0.09,0.12c-0.09,0-0.18,0-0.33,0l-0.13-0.02h-0.32c-0.28,0.01-0.45,0.02-0.57-0.21c-1-0.09-1.1-0.03-1.11,0.27 l0.19,0.19c-0.25,0.27-0.74,0.17-0.92,0.56l0.07,0.11c0.59,0.06,0.59,0.06,0.8,0.38l0.15,0.03c0.49-0.32,0.49-0.32,1.04-0.31 c0.05-0.15,0.11-0.29,0.14-0.44c-0.18,0.01-0.37-0.02-0.55-0.04l-0.03-0.12c-0.08,0-0.18-0.01-0.26-0.03l0.13-0.12 c0.09,0,0.19,0,0.38,0.01c0.19,0.14,0.19,0.14,0.6,0.2h0.41c0.07,0.01,0.18,0.04,0.24,0.08l0.02,0.13l-0.04,0.08 c-0.17,0.07-0.27,0.23-0.41,0.33c-0.01,0.02-0.01,0.04-0.01,0.13c0.17,0.2,0.17,0.2,0.2,0.32c-0.05,0.13-0.09,0.26-0.13,0.39 c-0.14,0-0.28,0-0.53-0.04c-0.2,0.06-0.35,0.25-0.59,0.23h-0.01c-0.06,0-0.12,0-0.23-0.03c-0.08-0.02-0.19-0.01-0.26,0.01 c-0.08,0.22-0.17,0.44-0.36,0.64c-0.08-0.02-0.17-0.05-0.25-0.08c-0.84,0.41-0.84,0.41-0.87,0.49 c-0.01,0.03-0.02,0.06-0.03,0.2c0.01,0.08,0.04,0.18,0.08,0.25c0.54,0.12,0.58,0.27,0.58,0.31c-0.01,0.38-0.62,0.26-0.62,0.66 l0.07,0.13c0,0,0.08,0.24,0.15,0.53c0.32,0.11,0.58-0.17,0.89-0.15c0.06,0,0.12,0,0.26,0.03l0.06,0.11 c-0.03,0.07-0.09,0.17-0.12,0.24c-0.06,0-0.11,0-0.23,0.02l-0.12,0.04c-0.43,1.04-0.43,1.04-0.32,1.21 c0.5,0,0.82-0.52,1.35-0.43c-0.05,0.21-0.11,0.42-0.23,0.69c-0.19,0.17-0.49,0.17-0.69,0.32c-0.15,0.11,0.9,2.45,0.91,2.47 c0.78,1.12,1.44,1.67,1.95,1.63c0.07,0,0.14,0,0.29-0.02c0.17-0.08,0.17-0.08,0.44-0.11l0.13,0c0.14,0.03,0.27,0.04,0.4,0.08 c0.02,0.74,0.86,0.63,1.21,1.03c0.19,0.2,1.66,0.22,1.63-0.43c0-0.06,0.01-0.12,0.02-0.28c0.08-0.81,1.48-1.61,0.59-2.35 c-0.01,0-0.57-0.51,0.33-0.57c0.07,0,0.13,0,0.29-0.02c0.17-0.03,0.17-0.03,0.42-0.02c0.32-0.51,0.32-0.51,0.8-0.84 c0-0.27,0.01-0.54,0.11-0.87l0.09-0.09c-0.02-0.43-0.16-0.54-0.34-0.69l0.03-0.13c0.28-0.17,0.64-0.04,0.9-0.24 c0.18-0.14,0.04-0.34,0.09-0.5c0.35,0,0.71,0.01,1.07,0.01c-0.05-0.33-0.05-0.36-0.01-0.55c0.19,0,0.39,0,0.59,0.07 c-0.01,0.41-0.01,0.42,0.08,0.56c0.55-0.05,0.94-0.44,1.43-0.63h0.2c0.24,0.01,0.24,0.01,0.63-0.12l-0.02-0.13 c0.16-0.3,0.49-0.45,0.68-0.71c0.2-0.07,0.2-0.07,0.37-0.45c0.09-0.02,0.21-0.06,0.29-0.1c-0.01-0.04-0.02-0.09,0.02-0.21 c0.34-0.28,0.34-0.28,0.24-0.64v-0.02l0.05,0L90,17.04l0.04,0.02l0.04,0.02l0.04,0.01l0.09,0.06l0.04,0.01l0.09,0.08 c0.19,0.06,0.21,0.07,0.42,0.06c0.39-0.03,0.71,0.24,1.09,0.23c0.5,0,0.52-0.68,1.03-0.66c0.35,0.02,0.64-0.26,1-0.2 c0.52,0.08,0.32-0.68,0.73-0.8c0.24,0.01,0.48,0.01,0.77,0.01c0.15-0.08,0.15-0.08,0.36-0.38l-0.06-0.11l-0.17-0.06l-0.18,0.18 l-0.05,0.16l-0.14-0.01c-0.03,0-0.06,0-0.14-0.01c-0.28-0.05-0.43-0.36-0.75-0.35c-0.04,0-0.09,0-0.22,0 c-0.89-0.04-1.05-0.31-1.13-0.44c-0.04-0.08-0.07-0.17-0.11-0.24c1.02-0.15,1.02-0.15,1.19-0.32 C94.45,14.44,94.52,15.04,95.05,15.09z M32.67,109.25c-0.82,0.29-0.85,0.65-0.69,1.64l15.79-14.36 c-0.19-0.11-0.43-0.16-0.86-0.24c-0.46,0.01-0.91,0.01-1.51-0.05c-0.24-0.08-0.56-0.17-0.81-0.22 c-0.01-0.28-0.02-0.57-0.37-0.85c-0.64-0.18-1.15-0.63-1.8-0.78c-0.1,0.07-0.24,0.16-0.34,0.23c-0.01,0.05-0.01,0.05-1.54,1.62 c0.32,1.62,0.32,1.62,0.35,2.05c-0.09,0.08-0.21,0.19-0.3,0.27c-0.43-0.68-1.66-3.04,0.36-4.64l-0.12-0.29 c-0.2,0.01-0.38,0.01-0.7,0.04c-0.75,0.24-0.74,0.31-0.67,1.21c-0.48,0.01-0.95,0.02-1.43,0.03c-1.69,1.13-1.69,1.13-2.6,1.13 c0.03,0.55,0.06,1.1,0.03,1.72c-0.31,0.33-0.31,0.33-1.11,0.57c-0.01,1.15-1.69,1.81-1.04,3.16c0.11,0.02,0.28,0.05,0.39,0.06 c0.08,1.15,1.57,2.41,0.26,3.45c-0.15,2.1-0.15,2.1-0.89,2.23c0.07,0.29,0.16,0.68,0.25,0.97c-0.19,0.14-0.43,0.34-0.61,0.49 C32.69,108.85,32.68,109.08,32.67,109.25z M119.28,37.58c0.2-0.14,0.2-0.14,0.17-0.28c-0.04-0.16-0.16-0.54-0.52-1.26 c-0.06-0.14-0.12-0.27-0.17-0.42c0.37,0.02,0.41-0.16,0.37-0.31c-0.07-0.29-0.38-0.38-0.54-0.6c-0.09-0.12-0.1-0.3-0.23-0.41 c-0.03-0.03-0.09-0.09-0.25-0.16c-0.07-0.03-0.15,0.02-0.22-0.02c-0.08-0.04-0.14-0.12-0.23-0.15l-0.09,0 c-0.14,0-0.38,0.12-0.4,0.14l-0.01,0.2l-0.15,0.09c-0.22-0.13-0.4-0.33-0.65-0.42c-0.13-0.04-0.31,0.02-0.44,0.03 c0.16,0.34,0.22,0.7,0.4,1.02l-0.08,0l-0.05,0.01l-0.14,0.09c-0.08,0.02-0.15-0.02-0.23,0l-0.08,0.05 c-0.07,0.05-0.18,0.12-0.28,0.06c-0.21-0.13-0.21-0.13-0.39-0.1c0.19,0.49,0.38,0.98,0.56,1.47c0.31,0.04,0.31,0.04,0.68,0.02 c0.08,0.22,0.17,0.44,0.24,0.66c-0.16,0.01-0.33,0.01-0.48,0.03c-0.19,0.31,0.15,0.57,0.09,0.87 c-0.17,0.09-0.25,0.13-0.07,0.43c0.13,0.22,0.54,0.34,0.54,0.34c0.18,0.05,0.3-0.13,0.47-0.13c0,0,0.24,0,0.48,0.15 c0.18-0.01,0.35-0.25,0.36-0.28c0.01-0.01,0.01-0.01-0.04-0.24c-0.03-0.1,0.1-0.11,0.13-0.18c0.58,0.02,1.14,0.04,1.71,0.06 c-0.04-0.1-0.08-0.2-0.12-0.3C119.52,37.89,119.31,37.79,119.28,37.58z M66.91,41.85c0,0-0.67-0.37-0.82-0.62 c-0.08-0.13-0.13-0.22-0.26-0.26c-0.31-0.11-0.65-0.04-0.96-0.11c-0.17-0.04-0.29-0.16-0.45-0.22 c0.44-0.81,0.44-0.81,0.95-1.01c0.09-0.04,0.45-0.46,0.26-0.75c-0.07-0.1-0.07-0.1-0.11-0.21c-0.11,0.02-0.23-0.02-0.35-0.03 c-0.05,0-0.51,0.12-0.64,0.24c-0.19,0.18-0.1,0.43-0.19,0.64c-0.21,0.48-0.21,0.48-0.46,0.67c-0.03,0.01-2.52,2.18-2.6,2.29 c-0.08,0.09-0.23,0.3-0.31,0.64c-0.05,0.18,0.03,0.36,0.01,0.54c1.18-0.01,2.38-0.01,3.59-0.01c0.31,0.03,0.44,0.07,0.73,0.44 c0.52,0.65,0.79,0.77,1.13,0.93c0.09-0.08,0.11-0.09,0.31-0.16c0.12-0.04,0.41-0.14,0.39-1.16c-0.02-0.62-0.02-0.62,0.48-1.18 l0.11-0.12c-0.03-0.13-0.06-0.31-0.09-0.45C67.09,41.95,67.09,41.95,66.91,41.85z M57.48,40.9c-0.25,0.02-0.28,0.02-0.38-0.03 c-0.36-0.16-0.44-0.34-0.47-0.4c-0.09-0.19-0.17-0.23-0.29-0.23c-0.11,0-0.22,0.04-0.34,0.02c-0.16,0.07-0.37,0.16-0.52,0.22 c0.13,0.08,0.29,0.1,0.39,0.22c0.11,0.11,0.1,0.27,0.18,0.39l0.09,0.09c0.11,0.09,0.23,0.18,0.33,0.29 c0.09,0.09,0.15,0.21,0.25,0.29c0.08,0.07,0.12,0.11,0.23,0.13c0.13,0.04,0.35,0.09,1.1-0.74l0.03-0.03 c-0.12-0.05-0.22-0.15-0.36-0.2C57.65,40.89,57.52,40.9,57.48,40.9z M104.81,20.75c-0.3-0.12-0.3-0.12-0.71-0.17 c-0.27-0.63-0.27-0.63-0.5-0.97c-0.24-0.01-0.48-0.02-0.73-0.02c-0.27,0.01-0.27,0.01-0.85,0.56 c-0.35-0.04-0.67-0.16-1.03-0.17c-0.6-0.02-0.77,0.13-0.87,0.22c-0.13,0.11-0.19,0.11-0.32,0.12 c-0.21-0.01-0.42-0.01-0.63-0.01c-0.04-0.1-0.09-0.2-0.13-0.3c-0.04-0.1-0.09-0.2-0.13-0.29c-0.1-0.13-0.26-0.19-0.37-0.3 l-0.29,0.07c0.04,0.1,0.09,0.2,0.13,0.29c-0.29-0.09-0.29-0.09-1.22-0.1c-0.1,0-0.92,0.17-0.25,0.82 c0.33-0.01,0.61-0.24,0.95-0.12l0.69,0.38c0.11,0.11,0.09,0.26,0.15,0.38c-0.22-0.04-0.58-0.1-1-0.1 c0.35,0.18,0.68,0.39,1,0.61c0.07,0.05,0.13,0.09,0.2,0.14c0.31,0.23,0.61,0.47,0.88,0.73c0,0,0,0,0.01,0 c0.16-0.01,0.31-0.02,0.47-0.02c0.11,0,0.22,0,0.37,0.01c0.48-0.03,0.73,0.39,1.14,0.51c0.01,0.01,1.31,0.28,1.28-0.36 c-0.02-0.26-0.02-0.26,0.2-0.46c0.13-0.12,0.34,0.1,0.44-0.08c0.17-0.32,0.17-0.32,0.34-0.38c0.25-0.09,0.25-0.09,1.5-0.05 c-0.12-0.21-0.24-0.42-0.36-0.62C105.03,20.96,104.96,20.82,104.81,20.75z M125.22,41.82l0.22-0.21 c-0.08-0.03-0.16-0.06-0.24-0.07C125.19,41.64,125.21,41.73,125.22,41.82z M61.77,12.45l0.91,0.03l0.72-0.27l0.81-0.17l0-0.38 l-0.81-0.03c-0.2,0.01-0.4,0.01-0.6,0.02l-0.63,0.45L61.77,12.45z M115.37,30.72l0.23,0.1l0.14-0.09 c0.01-0.02,0.01-0.02,0.02-0.12l0.02-0.11v-0.11l0.05-0.03c0.15,0.01,0.3,0.02,0.31-0.04l-0.03-0.08l-0.06-0.1l0.03-0.18 l-0.01-0.05c-0.03-0.1-0.06-0.2-0.08-0.28l-0.02-0.05l-0.25,0.11c-0.09,0.06-0.08,0.18-0.17,0.25l-0.15,0.04l-0.01,0.02 l0.02,0.17c-0.03,0.11-0.13,0.19-0.14,0.31C115.27,30.56,115.34,30.64,115.37,30.72z M47.67,23.94 c-0.09,0.02-0.23,0.06-0.75,0.31c-0.12,0.06-0.26,0.12-0.38,0.17c0.04,0.08,0,0.18,0.1,0.24c0.03,0.02,0.2-0.01,0.29-0.02 c0.54-0.14,0.95-0.45,1.2-0.63l0.06-0.04l0.19-0.33c-0.14,0.07-0.28,0.16-0.43,0.23C47.87,23.9,47.87,23.9,47.67,23.94z M49.53,25.09c0.08-0.11,0.17-0.22,0.25-0.34c0.13-0.2,0.24-0.4,0.37-0.59l-0.55-0.07l-0.86,0.35l-0.42,0.85 c0.26,0,0.51-0.01,0.77-0.02L49.53,25.09z M57.08,100.01c-1.36-0.69-1.36-0.69-1.8-0.96c-0.01-0.1-0.01-0.19-0.39-0.33 c-0.68-0.42-0.68-0.49-0.66-1.31c-0.09,0-0.19,0-0.49,0.05c-0.23,0.07-0.46,0.15-0.69,0.23l-20.53,18.68l-0.61,0.56 c0.04,0.1,0.1,0.19,0.18,0.28c0.01,0.09,0.03,0.18,0.08,0.35c0.52,2.35,3.48,2.87,4.16,5.1c0.05,0.2,0.1,0.39,0.18,0.62 c0.17,0.22,0.31,0.45,0.43,0.69l5.53-5.15l17.58-16.36C57.08,101.79,57.08,100.56,57.08,100.01z M57.48,18.23l0.75-0.49 l0.23-0.51c-0.98,0.06-0.98,0.06-1.05,0.08c-0.05,0.02-0.37,0.17-1.02,0.57l-0.15,0.45l0.5,0.06L57.48,18.23z M40.64,83.54 L40.64,83.54l-1.29-0.05c-0.29,0.01-0.29,0.01-0.99,0.16c-0.01,0.58-0.03,1.16-0.04,1.75c0.05,0.07,0.1,0.12,0.15,0.18 L40.64,83.54z M31.97,110.89c-0.3,0.01-0.62,0.02-0.89,0.14c0.06,0.18,0.09,0.37,0.12,0.56l0.52-0.48L31.97,110.89z"></path> <path class="st5" d="M59.29,51.49c0-2.31-1.96-4.19-4.37-4.19c-2.41,0-4.37,1.88-4.37,4.19c0,2.31,1.96,4.19,4.37,4.19 C57.33,55.68,59.29,53.8,59.29,51.49z M97.65,28.86c0-2.31-1.96-4.19-4.37-4.19c-2.41,0-4.37,1.88-4.37,4.19 c0,2.31,1.96,4.19,4.37,4.19C95.69,33.05,97.65,31.17,97.65,28.86z M135.9,30.72c-2.41,0-4.37,1.88-4.37,4.19 c0,2.31,1.96,4.19,4.37,4.19c2.41,0,4.37-1.88,4.37-4.19C140.27,32.6,138.31,30.72,135.9,30.72z M36.34,122.66 c-0.68-2.23-3.64-2.74-4.16-5.1c-0.05-0.17-0.06-0.26-0.08-0.35c-0.08-0.09-0.13-0.19-0.18-0.28l-10.5,9.56 c1.68,2.39,3.52,4.66,5.47,6.85l10.06-9.37c-0.12-0.24-0.26-0.48-0.43-0.69C36.44,123.05,36.38,122.86,36.34,122.66z M116.36,33.99c0.25,0.09,0.43,0.29,0.65,0.42l0.15-0.09l0.01-0.2c0.03-0.02,0.26-0.13,0.4-0.14l0.09,0 c0.09,0.03,0.15,0.1,0.23,0.15c0.07,0.03,0.15-0.01,0.22,0.02c0.16,0.07,0.22,0.13,0.25,0.16c0.13,0.11,0.14,0.28,0.23,0.41 c0.16,0.22,0.46,0.31,0.54,0.6c0.03,0.15-0.01,0.34-0.37,0.31c0.06,0.14,0.12,0.28,0.17,0.42c0.36,0.72,0.48,1.1,0.52,1.26 c0.03,0.14,0.03,0.14-0.17,0.28c0.03,0.21,0.24,0.3,0.33,0.48c0.04,0.1,0.07,0.2,0.12,0.3c-0.57-0.02-1.13-0.04-1.71-0.06 c-0.03,0.07-0.16,0.08-0.13,0.18c0.05,0.23,0.05,0.23,0.04,0.24c-0.01,0.03-0.18,0.26-0.36,0.28 c-0.24-0.15-0.48-0.15-0.48-0.15c-0.17,0-0.28,0.18-0.47,0.13c0,0-0.41-0.13-0.54-0.34c-0.18-0.3-0.1-0.34,0.07-0.43 c0.06-0.3-0.28-0.56-0.09-0.87c0.16-0.03,0.32-0.02,0.48-0.03c-0.08-0.22-0.16-0.44-0.24-0.66c-0.37,0.01-0.37,0.01-0.68-0.02 c-0.18-0.49-0.37-0.99-0.56-1.47c0.18-0.04,0.18-0.04,0.39,0.1c0.1,0.06,0.21-0.01,0.28-0.06l0.08-0.05 c0.08-0.03,0.15,0.02,0.23,0l0.14-0.09l0.05-0.01l0.08,0c-0.18-0.32-0.24-0.69-0.4-1.02 C116.05,34.01,116.23,33.95,116.36,33.99z M115.39,29.99l0.01-0.02l0.15-0.04c0.09-0.07,0.08-0.19,0.17-0.25l0.25-0.11 l0.02,0.05c0.03,0.08,0.06,0.18,0.08,0.28l0.01,0.05l-0.03,0.18l0.06,0.1l0.03,0.08c-0.01,0.05-0.16,0.04-0.31,0.04l-0.05,0.03 v0.11l-0.02,0.11c-0.01,0.1-0.01,0.1-0.02,0.12l-0.14,0.09l-0.23-0.1c-0.03-0.08-0.1-0.16-0.1-0.25c0-0.12,0.11-0.2,0.14-0.31 L115.39,29.99z M125.44,41.61l-0.22,0.21c-0.01-0.09-0.03-0.18-0.01-0.27C125.28,41.55,125.36,41.58,125.44,41.61z M67.61,42.53c-0.5,0.56-0.5,0.56-0.48,1.18c0.01,1.02-0.27,1.12-0.39,1.16c-0.2,0.07-0.22,0.08-0.31,0.16 c-0.34-0.16-0.61-0.28-1.13-0.93c-0.29-0.37-0.42-0.41-0.73-0.44c-1.21,0-2.4,0-3.59,0.01c0.02-0.18-0.06-0.35-0.01-0.54 c0.09-0.35,0.24-0.55,0.31-0.64c0.08-0.11,2.57-2.27,2.6-2.29c0.24-0.19,0.24-0.19,0.46-0.67c0.09-0.2,0-0.46,0.19-0.64 c0.13-0.13,0.59-0.24,0.64-0.24c0.12,0,0.24,0.05,0.35,0.03c0.04,0.11,0.04,0.11,0.11,0.21c0.19,0.29-0.17,0.71-0.26,0.75 c-0.51,0.2-0.51,0.2-0.95,1.01c0.15,0.06,0.28,0.18,0.45,0.22c0.32,0.07,0.65,0,0.96,0.11c0.13,0.04,0.18,0.12,0.26,0.26 c0.16,0.25,0.82,0.62,0.82,0.62c0.18,0.09,0.18,0.09,0.73,0.11c0.02,0.13,0.06,0.32,0.09,0.45L67.61,42.53z M31.97,110.88 c-0.15-0.98-0.13-1.35,0.69-1.64c0.01-0.17,0.02-0.4,0.03-0.57c0.18-0.15,0.41-0.35,0.61-0.49c-0.08-0.29-0.18-0.68-0.25-0.97 c0.74-0.13,0.74-0.13,0.89-2.23c1.31-1.04-0.19-2.3-0.26-3.45c-0.12-0.02-0.28-0.05-0.39-0.06c-0.65-1.36,1.04-2.01,1.04-3.16 c0.79-0.24,0.79-0.24,1.11-0.57c0.02-0.62-0.01-1.17-0.03-1.72c0.91-0.01,0.91-0.01,2.6-1.13c0.48-0.01,0.95-0.02,1.43-0.03 c-0.08-0.89-0.08-0.97,0.67-1.21c0.32-0.03,0.5-0.04,0.7-0.04l0.12,0.29c-2.02,1.6-0.79,3.96-0.36,4.64 c0.08-0.08,0.21-0.18,0.3-0.27c-0.03-0.43-0.03-0.43-0.35-2.05c1.53-1.57,1.53-1.57,1.54-1.62c0.1-0.07,0.24-0.16,0.34-0.23 c0.65,0.15,1.16,0.6,1.8,0.78c0.35,0.28,0.36,0.56,0.37,0.85c0.25,0.05,0.57,0.13,0.81,0.22c0.6,0.06,1.06,0.06,1.51,0.05 c0.43,0.08,0.67,0.13,0.86,0.24L31.97,110.88z M58.05,41.15c-0.75,0.83-0.97,0.77-1.1,0.74c-0.11-0.03-0.15-0.06-0.23-0.13 c-0.09-0.09-0.15-0.21-0.25-0.29c-0.1-0.1-0.22-0.19-0.33-0.29l-0.09-0.09c-0.08-0.12-0.07-0.28-0.18-0.39 c-0.11-0.11-0.27-0.14-0.39-0.22c0.15-0.06,0.36-0.15,0.52-0.22c0.11,0.02,0.23-0.02,0.34-0.02c0.12,0,0.2,0.04,0.29,0.23 c0.03,0.06,0.11,0.24,0.47,0.4c0.1,0.05,0.13,0.05,0.38,0.03c0.04-0.01,0.17-0.01,0.25,0.02c0.14,0.05,0.23,0.15,0.36,0.2 L58.05,41.15z M49.78,24.75c-0.08,0.11-0.16,0.22-0.25,0.34l-0.44,0.18c-0.26,0.01-0.51,0.02-0.77,0.02l0.42-0.85l0.86-0.35 l0.55,0.07C50.02,24.35,49.91,24.55,49.78,24.75z M48.13,24c-0.25,0.18-0.67,0.49-1.2,0.63c-0.08,0.02-0.25,0.04-0.29,0.02 c-0.1-0.05-0.06-0.16-0.1-0.24c0.12-0.06,0.26-0.11,0.38-0.17c0.53-0.25,0.66-0.29,0.75-0.31c0.21-0.04,0.21-0.04,0.28-0.08 c0.15-0.07,0.29-0.16,0.43-0.23l-0.19,0.33L48.13,24z M56.38,17.88c0.65-0.4,0.97-0.56,1.02-0.57 c0.07-0.02,0.07-0.02,1.05-0.08l-0.23,0.51l-0.75,0.49l-0.74,0.15l-0.5-0.06L56.38,17.88z M64.21,12.04l-0.81,0.17l-0.72,0.27 l-0.91-0.03l0.41-0.36l0.63-0.45c0.2,0,0.4-0.01,0.6-0.02l0.81,0.03L64.21,12.04z M128.62,29.41 c-0.23-0.25-0.56-0.55-0.89-0.59c0.09,0.12,0.19,0.25,0.17,0.45l-0.14-0.05l-0.13,0.07c0.05,0.15,0.07,0.31,0.1,0.47 c-0.85-0.05-1.73-0.09-2.62-0.13c0.9,0.04,1.77,0.09,2.62,0.14l-0.01,0.17c0,0.08,0.07,0.14,0.07,0.22l-0.05,0.15 c-0.05,0.04-0.05,0.04-0.23,0.03l-0.02,0.09c0.07,0.17-0.17,0.21-0.17,0.21c-0.22,0.04-0.38-0.1-0.58-0.16l-0.23,0.09 c-0.37-0.26-0.37-0.26-0.41-0.3l-0.12-0.1c-0.02-0.01-0.02-0.01-0.5-0.02l-0.1-0.14c-0.06-0.08-0.15-0.11-0.21-0.19 c-0.03-0.04-0.03-0.04-0.05-0.16l-0.01-0.02l0.06-0.14c-0.08-0.16-0.08-0.16-0.27-0.44c-0.75-0.09-0.75-0.09-0.92-0.47 l0.12-0.08c-0.09-0.12-0.18-0.26-0.26-0.39l0.08-0.13c-0.01,0-0.15-0.43-0.57-0.35c-0.13-0.01-0.26-0.01-0.39-0.02 c-0.09-0.12-0.18-0.24-0.28-0.4l-0.04-0.14c0.05,0,0.1,0.01,0.1-0.1c-0.21-0.29-0.55-0.45-0.7-0.79l0.1-0.11 c-0.04-0.11-0.04-0.11-0.41-0.47c0.01-0.08,0.05-0.19,0.1-0.27c0.54,0.01,0.2-0.38,0.02-0.56l0.03-0.14h0.15 c0.05-0.25,0.05-0.25,0.18-0.38h0.01l0.01,0h0.04c0,0,0.01,0,0.08,0l0.15-0.05l0.04-0.15c-0.1-0.07-0.21-0.18-0.3-0.25 L122,23.53c0.09,0,0.16,0.01,0.31,0.02c0.11,0.05,0.26,0.12,0.37,0.17l0.11-0.11c-0.16-0.25-0.16-0.25-0.23-0.39 c0.12-0.13,0.14-0.15,0.09-0.38l0.15-0.03c0.01-0.09,0.04-0.2,0.08-0.28c-0.09-0.08-0.09-0.08-0.32-0.34 c-0.09-0.01-0.16-0.01-0.34,0.02l-0.15-0.04c-0.07-0.08-0.16-0.18-0.23-0.26c0.05-0.07,0.14-0.15,0.22-0.19 c-0.03-0.09-0.03-0.09,0.04-0.4l0.17,0.13c-0.23-0.21-1.39-2.03-1.4-2.05l0.16-0.02c-0.08-0.07-0.79-0.71-0.92-0.99l0.14-0.03 l-0.11-0.09c0.09,0,0.2,0.01,0.29,0.02c-0.23-0.21-0.32-0.27-0.77-0.31c-0.04,0.07-0.12,0.15-0.19,0.21l0.02,0.14l-0.16,0 c-0.03,0.07-0.05,0.18-0.03,0.26c-0.07-0.01-0.14-0.01-0.24-0.06l-0.07-0.12l0.1,0.01c-0.08-0.07-0.17-0.18-0.23-0.28 l0.06-0.03c-0.04-0.07-0.09-0.17-0.13-0.24c0.09-0.01,0.2-0.05,0.28-0.09c-0.43-0.3-0.43-0.3-0.46-0.37c0.1,0,0.21,0,0.31,0 c-0.19-0.14-0.39-0.27-0.43-0.42c0.04,0.02,1.09,0.64,1.48,0.73l-0.11-0.1c-0.06-0.05-0.12-0.09-0.24-0.18 c-0.21-0.14-0.45-0.19-0.66-0.32c-0.09-0.07-0.21-0.16-0.29-0.23l0.11-0.09l-0.1-0.13c0.59,0.42,0.6,0.42,0.8,0.37 c-0.18-0.28-1.05-0.77-1.14-0.83c-0.13-0.08-0.26-0.16-0.25-0.26c0.64,0.28,1.25,0.62,1.9,0.87c-0.18-0.16-0.2-0.18-0.93-0.63 c0.06,0,0.1,0.01,0.19,0.02c0.24,0.07,0.5,0.09,0.73,0.19l0.16,0.01c-0.16-0.09-0.31-0.2-0.49-0.29 c-0.56-0.13-0.95-0.32-1.15-0.57l0.08-0.12c0.09,0.01,0.17,0.01,0.34,0.11c0.3,0.21,0.47,0.26,0.58,0.29l0.02-0.06 c-0.17-0.14-0.37-0.25-0.53-0.38l0.13-0.06l-0.1-0.1l-0.03-0.02l0.14,0.03l0.54,0.31c0.05,0,0.1,0.01,0.23,0.04 c0.37,0.17,0.41,0.19,0.97,0.55l0.06-0.01l-0.15-0.08c-0.07-0.04-0.15-0.08-0.28-0.16c-0.18-0.13-0.18-0.13-0.81-0.49 c0.16,0.02,0.31,0.03,0.46,0.04c0.06,0.04,0.13,0.07,0.28,0.17c0.07,0.05,0.17,0.12,0.25,0.17c0.15,0.09,0.3,0.18,0.57,0.25 c-0.21-0.12-0.44-0.25-0.65-0.38c0,0,0.61,0.1,1.61,0.61c0.11,0.08,0.27,0.18,0.39,0.26l-0.14-0.01 c0.08,0.05,0.17,0.1,0.35,0.18c0.85,0.28,0.85,0.28,0.9,0.28l-0.12-0.12l0.18,0.02c0.56,0.32,0.56,0.32,0.87,0.45 c0.04,0.02,0.08,0.05,0.16,0.1c0.5,0.33,0.5,0.33,0.69,0.42c0.03,0,0.05,0,0.13,0.01c-0.24-0.16-0.24-0.16-0.52-0.34l0.18,0.02 c0.3,0.16,0.61,0.3,0.91,0.44c0.01,0,0.02,0,0.09-0.04c0.19,0.03,0.23,0.03,0.57,0.21c0.28,0.12,0.28,0.12,0.55,0.27 c0.25,0.1,1,0.41,1.89,0.87c-7.5-4.52-15.85-7.84-24.76-9.75c0.42,0.17,0.83,0.34,0.84,0.34l0.01,0.02 c-1.13-0.37-1.5-0.49-1.69-0.49c-0.11-0.01-0.52-0.12-0.79-0.22c-4.09-0.79-8.29-1.26-12.58-1.43l0.12,0.08l-0.2-0.01 c0.16,0.13,0.16,0.13,0.41,0.3l0.01,0.1c0.19,0.23,0.31,0.27,0.42,0.3l-0.05-0.12c0.21-0.1,0.81,0.07,0.99,0.17l-0.13,0.04 l-0.09,0l-0.12-0.04c0.04,0.09,0.13,0.16,0.21,0.23l0.13,0.01c0.08,0.01,0.13,0.01,0.17,0.01c0.41,0.01,0.41,0.01,0.63,0.12 l0.07,0.05l0.03,0.11c0.26,0.22,0.5,0.43,0.74,0.64l-0.07,0.04c-0.42-0.25-0.43-0.27-0.52-0.41c-0.06-0.08-0.07-0.1-0.09-0.11 c-0.27-0.15-0.36-0.16-0.48-0.16c-0.08,0-0.14,0-0.19,0C92,9.13,92,9.13,91.92,9.22l0.05,0.05c0.32,0.28,0.77,0.21,1.13,0.38 c0.09,0.07,0.09,0.08,0.09,0.08c0.12,0.09,0.12,0.09,0.39,0.22c0.18,0.15,0.27,0.23,0.35,0.31c-0.28,0.01-0.28,0.01-0.32,0.05 c0.33,0.44,0.93,0.49,1.33,0.84c-0.07,0.03-0.17,0.05-0.24,0.04l-0.17-0.01l-0.12-0.04l-0.07,0.13 c-0.07,0.03-0.23,0.1-0.77-0.02l-0.03,0.12c0.39,0.28,1.42,0,1.31,0.65c-0.15,0.06-0.15,0.06-0.41-0.04 c-0.14-0.02-0.18-0.02-0.23-0.02h-0.13l-0.08,0.11c-0.25,0.03-0.4,0.03-0.55,0.02c-0.06-0.09-0.13-0.18-0.19-0.27 c-0.16-0.01-0.32-0.01-0.48-0.01l-0.03,0.07c0.42,0.16,0.42,0.16,0.48,0.2l-0.2,0.17c0.14,0.09,0.27,0.09,0.4,0.09 c0.43-0.34,0.84,0.03,0.87,0.17c0.06,0.14,0.09,0.18,0.11,0.21c0.14,0.22,0.14,0.22,0.25,0.42l-0.13-0.02 c-0.14,0.02-0.19,0.02-0.23,0.02c-0.04,0-0.04,0-0.6-0.31l-0.12,0.05c0.21,0.48,0.75,0.56,1.1,0.85 c0.41,0.34,0.95,0.51,1.28,0.95c-0.25,0.13-0.53-0.01-0.77,0.09L95.15,15l-0.09,0.09c-0.53-0.05-0.6-0.65-1.04-0.81 c-0.18,0.16-0.18,0.16-1.19,0.32c0.04,0.08,0.07,0.16,0.11,0.24c0.08,0.13,0.24,0.4,1.13,0.44c0.13,0,0.18,0,0.22,0 c0.31,0,0.47,0.3,0.75,0.35c0.07,0.01,0.1,0.01,0.14,0.01l0.14,0.01l0.05-0.16l0.18-0.18l0.17,0.06l0.06,0.11 c-0.21,0.31-0.21,0.31-0.36,0.38c-0.29-0.01-0.53-0.01-0.77-0.01c-0.41,0.12-0.21,0.87-0.73,0.8 c-0.36-0.06-0.66,0.22-1.01,0.21c-0.5-0.02-0.53,0.66-1.03,0.66c-0.38,0-0.71-0.26-1.09-0.23c-0.21,0.01-0.23,0.01-0.42-0.06 l-0.09-0.08l-0.04-0.01l-0.09-0.06l-0.04-0.01l-0.04-0.02L90,17.04l-0.14-0.02l-0.05,0v0.02c0.1,0.36,0.1,0.36-0.24,0.64 c-0.04,0.11-0.03,0.16-0.02,0.21c-0.08,0.04-0.2,0.08-0.29,0.1c-0.18,0.38-0.18,0.38-0.37,0.45c-0.19,0.26-0.52,0.41-0.68,0.71 l0.02,0.13c-0.39,0.13-0.39,0.13-0.63,0.12h-0.2c-0.49,0.2-0.88,0.58-1.43,0.63c-0.09-0.14-0.1-0.15-0.08-0.56 c-0.2-0.06-0.4-0.06-0.59-0.07c-0.03,0.19-0.03,0.22,0.01,0.55c-0.36,0-0.72,0-1.07-0.01c-0.05,0.16,0.09,0.36-0.09,0.5 c-0.27,0.2-0.63,0.07-0.9,0.24l-0.03,0.13c0.18,0.15,0.32,0.26,0.34,0.69l-0.09,0.09c-0.1,0.33-0.1,0.6-0.11,0.87 c-0.49,0.33-0.49,0.33-0.8,0.85c-0.25-0.01-0.25-0.01-0.42,0.02c-0.16,0.02-0.22,0.02-0.29,0.02 c-0.89,0.06-0.34,0.57-0.33,0.57c0.9,0.75-0.51,1.54-0.59,2.35c-0.01,0.16-0.02,0.22-0.02,0.28c0.03,0.65-1.44,0.63-1.63,0.43 c-0.35-0.4-1.19-0.3-1.21-1.03c-0.13-0.04-0.26-0.04-0.4-0.08l-0.13,0c-0.27,0.02-0.27,0.02-0.44,0.11 c-0.15,0.02-0.22,0.02-0.29,0.02c-0.51,0.04-1.17-0.51-1.95-1.63c-0.01-0.02-1.06-2.36-0.91-2.47c0.2-0.16,0.5-0.15,0.69-0.32 c0.12-0.27,0.18-0.48,0.23-0.69c-0.53-0.09-0.85,0.43-1.35,0.43c-0.11-0.16-0.11-0.16,0.32-1.21l0.12-0.04 c0.12-0.02,0.17-0.02,0.23-0.02c0.03-0.07,0.09-0.16,0.12-0.24l-0.06-0.11c-0.14-0.03-0.2-0.03-0.26-0.03 c-0.31-0.02-0.56,0.26-0.89,0.15c-0.07-0.29-0.15-0.53-0.15-0.53l-0.07-0.13c-0.01-0.4,0.61-0.27,0.62-0.66 c0-0.04-0.03-0.19-0.58-0.31c-0.04-0.07-0.07-0.17-0.08-0.25c0.01-0.14,0.02-0.17,0.03-0.2c0.03-0.08,0.03-0.08,0.87-0.49 c0.08,0.03,0.17,0.07,0.25,0.08c0.19-0.21,0.28-0.42,0.36-0.64c0.07-0.02,0.18-0.03,0.26-0.01c0.11,0.03,0.17,0.03,0.23,0.03 h0.01c0.24,0.01,0.38-0.17,0.59-0.23c0.25,0.04,0.39,0.04,0.53,0.04c0.04-0.13,0.08-0.26,0.13-0.39 c-0.03-0.12-0.03-0.12-0.2-0.32c-0.01-0.09,0-0.11,0.01-0.13c0.14-0.1,0.24-0.26,0.41-0.33l0.04-0.08l-0.02-0.13 c-0.06-0.04-0.16-0.08-0.24-0.08h-0.41c-0.41-0.06-0.41-0.06-0.6-0.2c-0.19-0.01-0.29-0.01-0.38-0.01l-0.13,0.12 c0.07,0.02,0.18,0.03,0.26,0.03l0.03,0.12c0.18,0.02,0.37,0.04,0.55,0.04c-0.04,0.15-0.09,0.29-0.14,0.44 c-0.55-0.01-0.55-0.01-1.04,0.31l-0.15-0.03c-0.22-0.32-0.22-0.32-0.8-0.38l-0.07-0.11c0.18-0.39,0.67-0.29,0.92-0.56 l-0.19-0.19c0-0.3,0.11-0.36,1.11-0.27c0.12,0.23,0.29,0.22,0.57,0.21h0.32l0.13,0.02c0.14,0,0.24,0,0.33,0l0.09-0.12 l0.01-0.12c-0.13-0.1-0.23-0.24-0.38-0.32h-0.09c-0.5-0.01-0.42-0.34-0.37-0.59c-0.63,0.08-0.63,0.08-0.7,0.21 c-0.25,0.04-0.47,0.04-0.7,0.04l-0.12-0.03c-0.16-0.03-0.21-0.03-0.25-0.03c-0.08-0.01-0.18-0.04-0.25-0.06l-0.01-0.13 c0.04-0.07,0.09-0.15,0.13-0.22h0.24c0.12-0.12,0.15-0.29,0.25-0.42c0.06-0.03,0.17-0.06,0.25-0.07 c0.12-0.07,0.17-0.14,0.21-0.21h-0.3c0.06-0.12,0.06-0.12,0.27-0.26c0.06-0.09,0.12-0.18,0.17-0.27 c-0.03-0.22-0.01-0.24,0.11-0.34l0.05-0.07L75,11.47l-0.03-0.03l0.02-0.2L75,11.01l0-0.05L75,10.9l-0.03-0.04l-0.03-0.13 l0.03-0.04L75,10.55l-0.03-0.04l-0.05-0.02l-0.03-0.03H74.8l-0.03-0.01l-0.02-0.04v-0.04c0.11-0.19,0.21-0.28,0.29-0.38 l-0.02-0.1c-0.09-0.02-0.1-0.02-0.12-0.02l-0.1-0.04V9.7h-0.05l-0.05,0l-0.13-0.01l-0.02-0.03l-0.1-0.08l-0.04-0.01 c-0.1,0-0.2,0-0.31,0l-0.04-0.01l-0.04-0.02l0-0.04l-0.09-0.08h-0.05l-0.13-0.01h-0.13L73.6,9.41L73.5,9.33l-0.18,0.05 l-0.08,0.04l-0.06,0.01h-0.04l-0.06,0.01L73,9.46l-0.07,0.02l-0.08,0.04c-0.07,0.01-0.18,0-0.24-0.02L72.6,9.47h-0.19 L72.3,9.55l-0.06,0.01l-0.01-0.02L72.2,9.53l-0.02-0.02c-0.08-0.02-0.18-0.04-0.25-0.04c-0.08,0-0.09,0-0.1,0l-0.17,0.16 l-0.05,0.04L71.53,9.7l-0.05,0h-0.02l-0.14-0.04l0-0.04L71.29,9.6l-0.06-0.06l-0.01-0.02L71.2,9.51l-0.01-0.02l0.05-0.04 l0.02-0.03l0.03-0.04l-0.06-0.04l0.03-0.04l0.07-0.04l0.09-0.03l0.13-0.01l-0.01-0.02c-0.03-0.03-0.04-0.04-0.06-0.06 c-3.27,0.63-6.46,1.47-9.57,2.47c0.17-0.01,0.34-0.01,0.52-0.01L61.92,12l-0.36,0.45l-0.74,0.35l-0.53,0.38l0.42-0.04l0.55-0.3 l0.26,0.07L62,12.85l0.44-0.24c0.26-0.01,0.53-0.02,0.79-0.02l0.34,0.2l-0.35,0.29l0.37,0.02l-0.25,0.25l-0.09,0.44l0.89-0.18 l0.37,0.16l-0.7,0.27l0.14,0.05l0.48,0.02l-0.18,0.26l0.67-0.04l0.37,0.22l-0.54,0.34l0.44,0.14l0.11,0.36l-0.42,0.07 l-0.29,0.22l0.62,0.18l-0.52,0.26c-0.2,0-0.39,0-0.58,0c-0.16,0.19-0.3,0.37-0.45,0.57l0.31,0.03c0.28,0,0.57-0.01,0.85-0.01 l-0.07,0.33l-0.13,0.38c0.17,0,0.34-0.01,0.51-0.01l0.48,0.26l0.4,0.07l0.36,0.45c-0.06,0.1-0.12,0.19-0.18,0.29 c0.37,0,0.74-0.01,1.1-0.01l-0.25,0.54l-0.44,0.37c-0.19,0-0.39,0-0.57,0l-0.31,0.33l-1.02,0.31l-0.69,0.84l-0.63-0.11 l-0.14-0.72l-0.83-1.09l-0.58,0.3l-0.61,0.33l0.37,1.19l0.81,0.33l-0.4,0.98l0.55,0.39l-0.81,0.65 c-0.13,0.24-0.26,0.49-0.39,0.74l-0.6-0.45l-1.13-0.76l-0.64-0.43l-0.01,0.48l0.32,0.44l0.84,1.02l-0.35,0.51l-0.68-0.37 l-1.32-0.02l-0.39-0.82c-0.28,0.01-0.56,0.01-0.83,0.02l-0.16-0.61l0.13-0.48l-0.28-0.86l-0.7-0.25l-0.39-0.11l-0.49,0.2 l-0.47,0.35L53.4,21.8l-0.79-0.14c0.18-0.21,0.35-0.42,0.53-0.62l1.24-0.59c0.2,0,0.4-0.01,0.61-0.01l0.45,0.14l1.23-0.17 l0.22-0.67l1.19-0.71l1.28-0.69l0.44-0.62l-0.01-0.51l-0.38-0.19l0.22-0.49l-0.27-0.19l0.15-0.38l-0.32-0.09l0.31-0.5 l-0.49-0.04l0.14-0.51l-0.42,0.1l-0.1,0.45l-0.69,0.14l-0.64,0.05l-0.08-0.27l-0.45-0.05l-0.39,0.25 c-0.24,0-0.48,0.01-0.72,0.02l0.15,0.36l0.21,0.24l-0.2,0.48l-0.72,0.5l-0.62,0.11l-0.49,0.68l-0.14,0.41l-0.59,0.4l-1.05,0.48 l-0.72,0.48c-0.2,0.01-0.4,0.02-0.6,0.02L50.62,20l-0.53,0.31l-0.39-0.1c-0.15,0.14-0.29,0.28-0.43,0.42l0.41,0.14l0.04,0.56 l0.71,0.06l-0.36,0.74l0.54,0.14l-0.58,0.6c-0.23,0.01-0.46,0.02-0.69,0.02l-0.25-0.23l-0.38-0.07l-0.79-0.01l-0.75,0.57 c-0.15,0.04-0.34,0.1-0.48,0.15c-0.31-0.19-0.18-0.34-0.04-0.49l-0.59-0.02l0.3-0.48l0.82-0.26c0.34-0.36,0.69-0.71,1.03-1.06 l1.11-0.84l0.74-0.46l0.1-0.39c-0.19,0.01-0.37,0.01-0.55,0.02l-0.08,0.43l-0.97,0.57l-0.79,0.25l-0.3-0.21l-0.5-0.24 l-0.46-0.02l0.31,0.35l-0.13,0.33l0.59,0.05l0.45,0.06l-0.79,0.63l-0.48,0.21l-0.5,0.47l-0.56,0.14l-0.44-0.29l-0.7,0.6 l-0.53,0.14l-0.6-0.25l-0.83-0.16l0.48,0.36l0.58,0.21L43,23.53l-1.07,0.56l-1.04,0.41l-1.55,1.09l-1.66,1.25l-1.59,1.69 l-0.1,0.54l0.26,0.35l-0.62,1.4l-0.19,0.62L36.95,31l0.48,0.64l0.52,0.6l0.05,0.57l0.94,0.31l0.28,0.34l0.93,0.02l1.21,0.15 l-0.71,1.02l-0.46,1.23c-0.15,0.29-0.32,0.59-0.47,0.88l0.23,1.03l0.06,1.21l1.21-0.18l0.92-0.88l0.51-0.69l0.08-0.83 c0.24-0.49,0.48-0.97,0.74-1.45l-0.05-1.1l1.21-0.18l1.19-0.72l1.07-0.9c0.23-0.43,0.46-0.85,0.7-1.27l0.41-1.09l-0.4-0.59 l-0.28-0.36l0.67-0.47l0.5-0.82c0.19,0,0.38-0.01,0.58-0.01l0.19-0.84l0.29-0.62l0.8-0.91l0.1-0.67l0.77-0.47 c0.34-0.01,0.7-0.02,1.05-0.02l0.21,0.24l0.93,0.02l0.64-0.34l0.67,0.7l0.24,0.67l0.45,0.47l0.93,0.03l-0.32,0.66 c-0.22,0.41-0.45,0.83-0.67,1.25l-0.73,0.96l0.93-0.2l0.36,0.41l-0.08,0.56l0.84,0.03l0.85-0.61l1.06-0.34 c0.13-0.29,0.26-0.58,0.39-0.86l1.3-1l0.04,0.75l0.47,1.68l0.48,0.98l0.41,0.9l-0.29,0.39l-0.51,0.1L61,31.93l0.6,0.59 l0.52,0.59l1.06,0.29l0.77,0.4l0.89,0.05l-0.75,0.51l-1.48,0.31l-1.27,0.37l-0.41,0.62l0.51,0.2l0.79-0.42l1.16-0.52 c0.43,0,0.86,0,1.3-0.01l0.1,0.51l1.17,0.15l-0.26,0.88l-0.45,0.42l0.45,0.42l-0.57,0.43l-0.95,0.32l-1.75,0.17l-1.18,0.97 l-1.23,0.71l-1.06,0.07l-1.27-0.21l-2.58,0.08c-0.47,0-0.94,0.01-1.4,0.01l-0.99,0.34l-0.72,0.89l-1.07,0.06l-1.11,0.73 l-0.64,0.79c-0.54,0.01-1.06,0.02-1.59,0.03l1.15,0.32l-0.65,0.46l-1.05,0.93l-0.77,0.87l1.56-0.94l2.11-1.61l1.97-0.98 l1.66-0.46l1.39,0.1l-0.26,1.17l-0.09,0.05c0,0,0,0,0,0c0.11,0,0.22-0.02,0.33-0.02c5.12,0,9.28,4,9.28,8.91 c0,3.83-2.52,7.17-6.31,8.4l0.87,12.73L46.21,84.41c0.49-0.02,0.57-0.04,1.55-0.27c0.03,0.28-0.15,0.55-0.01,0.83 c0.1,0.23,0.39,0.14,0.53,0.28l-0.07,0.04c-0.15,0.09-0.28,0.24-0.47,0.27c-0.18,0-0.36,0.01-0.55,0.01 c-0.18,0-1.12-0.12-1.34-0.2c-0.22-0.09-0.31-0.09-0.54,0.01c-0.02,0.01-0.09,0.03-0.18,0.05l0.93-0.87L30.6,99.08l1.12-1.06 c0.37-0.01,0.73-0.01,1.1-0.03l0.65,0.85l-0.23,0.94l-0.53,0.08l-0.23-0.7l-1.64-0.1l-0.39,0.73l0.16,1.13l-0.96-0.47 l-0.31-0.18l-14.93,14.03c1.33,2.92,2.84,5.74,4.52,8.46l12.78-11.62l-0.52,0.48c-0.03-0.19-0.07-0.38-0.12-0.56 c0.28-0.12,0.59-0.13,0.89-0.14l42.06-38.27l-1.81-26.33l13.13-12.81c-0.89-1.4-1.35-2.99-1.35-4.62 c0-4.91,4.16-8.91,9.28-8.91c1.6,0,3.1,0.39,4.41,1.07c0.42,0,0.78,0.06,1,0.1c-0.07-0.12-0.04-0.28-0.15-0.38l-0.69-0.38 c-0.34-0.12-0.62,0.11-0.95,0.12c-0.66-0.65,0.15-0.82,0.25-0.82c0.92,0.01,0.92,0.01,1.22,0.1c-0.05-0.1-0.09-0.19-0.13-0.29 l0.29-0.07c0.11,0.11,0.28,0.17,0.37,0.3c0.04,0.09,0.09,0.19,0.13,0.29c0.05,0.1,0.09,0.2,0.13,0.3 c0.2,0.01,0.42,0.01,0.63,0.01c0.14-0.01,0.19-0.01,0.32-0.12c0.1-0.1,0.26-0.24,0.87-0.22c0.35,0.01,0.68,0.14,1.03,0.17 c0.59-0.56,0.59-0.56,0.85-0.56c0.25,0,0.49,0.01,0.73,0.02c0.23,0.34,0.23,0.34,0.5,0.97c0.41,0.05,0.41,0.05,0.71,0.17 c0.15,0.07,0.23,0.21,0.34,0.31c0.12,0.21,0.24,0.41,0.36,0.62c-1.25-0.05-1.25-0.05-1.5,0.05c-0.17,0.06-0.17,0.06-0.34,0.38 c-0.09,0.18-0.3-0.04-0.44,0.08c-0.21,0.2-0.21,0.2-0.2,0.46c0.03,0.64-1.26,0.36-1.28,0.36c-0.41-0.12-0.66-0.54-1.14-0.51 c-0.15,0-0.26-0.01-0.37-0.01c-0.16-0.01-0.31,0-0.47,0.02c0,0,0,0-0.01,0c1.72,1.62,2.79,3.87,2.79,6.35 c0,4.91-4.16,8.91-9.28,8.91c-1.64,0-3.25-0.43-4.68-1.24L76.89,47.95l1.82,26.42L53.06,97.7c0.23-0.08,0.45-0.16,0.69-0.23 c0.3-0.05,0.4-0.05,0.49-0.05c-0.02,0.81-0.02,0.88,0.66,1.31c0.38,0.14,0.38,0.23,0.39,0.33c0.44,0.27,0.44,0.27,1.8,0.96 c0,0.54,0,1.78,2.98,2.45l-17.58,16.36l80.73-75.14c-0.03-0.02-0.07-0.05-0.12-0.08c-0.01-0.07-0.04-0.17-0.07-0.24 c0.08-0.12,0.08-0.12,1.03-0.47l2.65-2.47c-0.23,0.1-0.48-0.05-0.72,0.04l-0.12,0c-0.35-0.06-0.57-0.38-0.94-0.42l-0.04,0.05 c0.03,0.28,0.04,0.49-1.46,0.24c-0.05,0.09-0.06,0.11,0.13,0.58c-0.2-0.01-0.39-0.02-0.59-0.03c-0.17-0.05-0.31-0.16-0.5-0.17 l0.03,0.16l-0.17,0.16c-0.48,0.15-0.48,0.15-0.81-0.03c0.24-0.08,0.29-0.09,0.48-0.31c-0.02-0.22-0.02-0.22-0.2-0.66 c0.38-0.08,0.38-0.08,0.54-0.08c0.03-0.07,0.02-0.15,0.03-0.22c0.28-0.19,0.64,0.04,0.92-0.17c0.18-0.13-0.03-0.42-0.1-0.44 c-0.01,0-1.48-0.24-1.55-0.2c-0.17,0.11-0.58,0.36-0.77-0.52h0.06l0.02,0h0.03l0.02,0c0.17,0.01,0.19-0.01,0.25-0.06 c-0.02-0.18-0.02-0.18,0.11-0.32c0.09-0.01,0.15-0.01,0.21-0.01c-0.03-0.58-0.77-0.36-1.14-0.57l-0.04-0.21 c0.11,0.01,0.22,0.01,0.33,0.03l0.02-0.22c0.04-0.17,0.04-0.17,0.06-0.21l0.15,0.01l0.12,0.01c0.21,0,0.36,0.13,0.55,0.18 l0.57,0.03c0.11-0.13,0.08-0.24-0.18-0.52c-0.09-0.1-0.09-0.1-0.19-0.53c-0.65-0.28-0.79-1.06-1.42-1.36l0,0.2 c-0.31-0.01-0.62-0.02-0.94-0.04c-0.27-0.26-0.5-0.49-0.04-0.53c0.08-0.32-0.73-1.03-0.74-1.03c0,0.15,0,0.15,0.1,0.4 c-0.12-0.01-0.25-0.01-0.37-0.01c-0.58-0.44-0.63-0.38-0.66-0.34c-0.16,0.01-0.29,0.01-0.41,0.01 c-0.27-0.45-0.27-0.45,0.23-0.56c0.09-0.24-0.19-0.35-0.21-0.55c-0.05-0.12-0.08-0.19-0.12-0.25v-0.14 c-0.18-0.21-0.52-0.09-0.7-0.31c-0.02-0.03-0.57-0.73-0.08-0.68c0.32,0.04,0.59,0.25,0.93,0.22c-0.1-0.23-0.26-0.43-0.35-0.67 c-0.07-0.24-0.07-0.5-0.2-0.73l0.05-0.04c0.58,0.09,0.68,0.04,0.75,0.01c0.12,0,0.21,0,0.29,0l0.17-0.01 c0.14,0.02,0.15,0.03,0.34,0.18c-0.01,0.07-0.19,0.39-0.19,0.39c0,0.18,0.2,0.28,0.19,0.47c-0.09,0.07-0.09,0.07-0.07,0.23 c0.57,0.07,1.14,0.09,1.71,0.11c0.15,0.26,0.29,0.52,0.43,0.78c0.1,0.22-0.2,0.4-0.06,0.62c0.06,0.11,0.1,0.18,0.13,0.25 c-0.11,0.02-0.11,0.02-0.32,0.03c0,0.05,0,0.05,0.05,0.2c-0.31,0.46,0.23,0.65,0.84,0.67c0.35,0.01,0.98,0.63,1.07,0.83 c0.12,0.32,0.53,0.38,0.69,0.68l0.21,0.06c0.25,0.24,0.63,0.32,0.86,0.58c0,0,0.15,0.27,0.34,0.78 c0.18,0.01,0.36,0.02,0.54,0.03c0.79,1.26,0.79,1.26,0.96,1.17c0.08-0.38,0.08-0.38-0.01-0.49l0.14-0.08 c0.41,0.25,0.66,0.68,1.08,0.91c0.1,0.16,0.17,0.3,0.24,0.44c-0.12,0-0.25-0.01-0.37-0.02c0.06,0.19,0.11,0.43,0.11,0.43 c-0.11,0.01-0.22-0.01-0.33,0.03c-0.03,0.08-0.03,0.08,0.03,0.19l0.06,0.14c0.15,0.24,0.42,0.4,0.53,0.67l0.58-0.54 c-0.82-1.36-1.26-2.89-1.26-4.43C126.62,32.84,127.37,30.93,128.62,29.41z M126.81,40.09c0.01,0.14,0.01,0.24-0.06,0.3l0,0 l0.36-0.34C127.01,40.07,126.91,40.05,126.81,40.09z M50.93,17.5l-0.68,0.79l0.12,0.2l1.02-0.54l1.04-0.66l1.63-0.92l0.08-0.31 l0.61-0.45l0.66-0.17l-0.37-0.25l0.05-0.3l-0.45,0.13c-0.19,0.01-0.37,0.01-0.55,0.02l0.33-0.47l0.68-0.16l0.3,0.07l0.41-0.37 l-0.33-0.02l-0.13-0.04c-1.32,0.55-2.61,1.14-3.89,1.76l0.05,0.1l-0.69,0.98l1.27-0.58l-0.29,0.71L50.93,17.5z M58.02,13.35 l0.65-0.3l0.47-0.45l0.1-0.05c-0.3,0.11-0.6,0.21-0.9,0.32l-0.9,0.64L57.11,14l0.41-0.07L58.02,13.35z M132.13,22.22l0.69,0.52 c0.07,0.01,0.14,0.02,0.3,0.09c0.5,0.39,1.82,1.43,2.48,1.54l-0.13-0.12c0.1,0.02,0.21,0.03,0.23-0.05 c-0.35-0.3-0.63-0.46-0.86-0.49c-0.03,0-0.05-0.01-0.16-0.08c-0.15-0.09-0.15-0.09-0.35-0.26c-0.49-0.24-0.6-0.29-1.03-0.85 c0.74,0.51,1.2,0.69,1.47,0.81l0.06,0.01c0.19,0.09,0.26,0.11,0.44,0.13c-0.54-0.44-1.16-0.79-1.73-1.2v-0.07 c-0.2-0.18-0.38-0.37-0.56-0.56c-0.51-0.35-1.02-0.71-1.55-1.04c0.24,0.18,0.47,0.36,0.68,0.55c0,0.09,0.01,0.2,0.04,0.29 l-0.05-0.01c-0.02,0-0.04-0.01-0.11-0.01c-0.3-0.09-0.55-0.25-0.83-0.36c-0.14-0.02-0.28-0.03-0.53-0.09 c-0.01,0-1.69-0.8-2.18-0.98C129.63,20.81,130.99,21.34,132.13,22.22z M132.14,26.78c-1.15-1.08-1.15-1.08-2.31-2.95l0.11-0.1 c0.09,0.03,0.21,0.07,0.3,0.09c-0.03-0.31-0.13-0.39-1.09-1.2c0.1,0.01,0.19,0.02,0.28,0.02c-0.2-0.17-0.41-0.34-0.67-0.56 c-0.71-0.47-0.72-0.47-0.92-0.46l0.05,0.14c-0.36-0.23-0.62-0.39-0.79-0.49h-0.01l-0.01,0h-0.01c0,0-0.01,0-0.09-0.01 c-0.09-0.02-0.22-0.01-0.3,0.03c0.11,0.1,0.38,0.35,0.59,0.61l-0.05,0.14c0.42,0.54,1.39,0.56,1.48,1.41l-0.15,0.02l-0.01,0.14 c0.18,0.21,0.18,0.21,0.33,0.51c-0.08-0.01-0.19,0.02-0.27,0.07c0.22,0.31,0.2,0.39,0.17,0.54l-0.16,0.02 c0.1,0.46,0.64,0.69,0.64,1.2c0.44,0.47,0.88,0.95,1.31,1.43c0.05,0.06,0.1,0.11,0.16,0.17 C131.17,27.24,131.65,26.99,132.14,26.78z M25.68,78.86c0.12-0.11,0.12-0.11,0.96-0.09c0.36-0.01,0.67-0.02,0.98-0.03 c0.21,0.02,0.41,0.23,0.61,0.04c0.26-0.22,0.26-0.22,0.48-0.23c0.35-0.02,0.7-0.05,1.04-0.08c0.31,0.01,0.35,0.16,0.4,0.34 c0.07,0.23,0.07,0.23,0.58,0.55c0.43,0.3,0.95,0.47,1.34,0.83c0.28,0.24,0.36,0.64,0.72,0.81c0.53,0.24,1.05,0,1.57,0 c0.2,0,0.37-0.01,0.53-0.01c0.77,0.12,1.66,1.35,1.88,1.76c-1.26,0.02-2.51,0.05-3.73,0.08c-0.76-0.04-1.15-0.73-1.22-0.86 c-0.14-0.26-0.22-0.38-0.55-0.33c-0.26,0.05-0.38,0.07-1.18-0.36c-0.12-0.06-0.13-0.17-0.15-0.3 c-0.08-0.58-1.01-0.93-1.03-0.93c-0.28-0.06-0.79-0.05-0.84-0.03c-0.35,0.13-0.5,0.48-0.8,0.67 C26.1,81.43,24.68,79.82,25.68,78.86z M34.43,86.14C34.1,86.6,34.1,86.6,34,86.66c-0.16,0.09-0.32-0.02-0.48,0.01 c-0.03-0.08-0.04-0.12-0.04-0.24c0-0.2,0-0.28-0.08-0.35c0,0-0.43-0.34-0.66-0.29c-0.26,0.06-0.29,0.06-0.38-0.02l-0.12-0.15 c-0.1-0.17-0.15-0.36-0.24-0.53c0.46-0.01,0.92-0.02,1.4-0.03l0.14,0.03c0.16,0.07,0.26,0.22,0.42,0.28 c0.14,0.06,0.3,0,0.42,0.11c0.18,0.17,0.04,0.39,0.1,0.57L34.43,86.14z M14.21,83.46l0.26,1.15l0.88,0.68l0.48,1l1.13-0.27 l1.1-0.48l0.79-0.18l0.49-1.4l0.46-1.53l0.46-1.03l0.97-0.24l1.55-0.2l0.44,0.41l-0.16,1.09l-0.65,0.59 c-0.03,0.49-0.05,0.97-0.07,1.46l-0.4,1.32l-0.27,0.82c-0.01,0.25-0.01,0.49-0.01,0.73v0.59l-0.66,0.76l0.72,0.62l1.09-0.62 l1.01,0.26l1.45-0.19l0.99,0.63l0.51,0.94c0,0.41,0.01,0.82,0.02,1.23l-0.27,1.83c0.01,0.48,0.04,0.96,0.06,1.44l0.01,1.09 l0.37,0.45l-0.82,0.77l12.33-11.59c-0.05-0.06-0.09-0.11-0.15-0.18c0.01-0.58,0.02-1.16,0.04-1.75 c0.69-0.15,0.69-0.15,0.99-0.16l1.29,0.05L54.1,70.9l-0.73-10.67c-4.43-0.72-7.73-4.42-7.73-8.74c0-0.55,0.06-1.08,0.16-1.6 l-0.02,0.02l-0.33,1.51l0.11,0.73l-1.2,0.14l-1.14,0.63c-0.52,0.01-1.03,0.02-1.55,0.03l-0.99,1.87l-0.65,0.58l-0.66,0.89 l-0.64,1.03l-0.44-1l-0.9,0.46l0.29,0.69l-0.4,0.77l0.36,0.63l0.4,1.4l-0.91,0.54l-0.35,0.85l-1.13,0.48l-1.24,0.88l-1.34,1.16 l-1.03,0.48l-0.88,1.5c-0.16,0.32-0.36,0.76-0.51,1.09c-0.23,1.01-0.33,1.69-0.44,2.38l0.51,1.56l0.12,1.79l0.2,1.17 l-0.38,0.99l-0.41,0.64l-0.55-0.2l0.04-0.91l-0.57-0.4l-0.18-0.82l-0.43-0.54l-0.07-0.76l-0.29-0.68 c0.05-0.39,0.11-0.79,0.17-1.18l-0.5-1l-0.56-0.8l-0.45,0.15l-0.4,0.56c-0.16,0.01-0.32,0.01-0.48,0.01l-0.41-0.94l-1.4-0.14 l-0.79,0.16l-1.1,0.1l-0.44,1.1l0.03,0.67l-0.69,0.1c-0.3,0.01-0.59,0.02-0.87,0.03L20,69.41l-0.63,0.36l-0.64-0.31l-0.93-0.16 l-0.85,0.99l-0.81,0.85l-0.68,0.1l-1.03,1.63l0.18,1.65l-0.43,1.62l-0.6,1.44l-0.05,1.84l0.14,2.56L14.21,83.46z M139.12,26.27 c0.23,0.19,0.45,0.39,0.68,0.58c0.02,0.01,0.05,0.02,0.07,0.03c-1.15-0.98-2.35-1.92-3.56-2.84c0.65,0.49,1.28,0.99,1.92,1.5 C138.53,25.78,138.83,26.02,139.12,26.27z M48.8,17.2c0.09-0.07,0.18-0.13,0.27-0.2c-0.93,0.49-1.84,0.99-2.74,1.51 c0.72-0.41,1.45-0.81,2.19-1.21L48.8,17.2z M25.18,97.57l-0.46,0.3L24.3,97.3c0.12-0.69,0.12-0.69-1.91-4.12l-0.64-0.41 l-0.02,0.73l-1.14-0.47l-0.59-1.07l-0.51-0.27c-0.12,0-0.23,0.01-0.35,0.01c-0.29,0.01-0.59,0.02-0.88,0.03l-0.6-1l-1.07-1.19 l-0.93-0.69l-0.82,0.18l-0.22,0.6l-0.72,0.11l-1.1-0.46l-1.32-1.02l-1.14-0.81l-0.94-0.97l-0.88-0.46l-0.68-1.04l-0.02-0.04 c-0.01-0.37-0.03-0.73-0.03-1.1c0,9.16,1.69,17.95,4.78,26.08l12.93-12.15L25.18,97.57z"></path> <path class="st5" d="M61.01,11.93l0.26-0.1c0.02-0.01,0.04-0.01,0.06-0.02c-0.13,0.04-0.26,0.08-0.39,0.13c0,0,0.01,0,0.01,0 L61.01,11.93z"></path> <path class="st5" d="M45.98,18.7l-0.01,0.06l0.21-0.17C46.12,18.63,46.05,18.67,45.98,18.7z"></path> <path class="st6" d="M100.59,126.96c0-2.31-1.96-4.19-4.37-4.19c-2.41,0-4.37,1.88-4.37,4.19c0,2.31,1.96,4.19,4.37,4.19 C98.63,131.15,100.59,129.27,100.59,126.96z M138.01,91.86c2.41,0,4.37-1.88,4.37-4.19c0-2.31-1.96-4.19-4.37-4.19 c-2.41,0-4.37,1.88-4.37,4.19C133.64,89.98,135.6,91.86,138.01,91.86z M144.11,30.77c0.68,1.24,1.08,2.65,1.08,4.15 c0,4.91-4.16,8.91-9.28,8.91c-1.73,0-3.41-0.46-4.88-1.33L29.94,136.57c1.74,1.73,3.56,3.39,5.45,4.96l36.22-34.97l17.12,1.5 l17.97-19.1c-1.26-1.58-1.92-3.42-1.92-5.36c0-4.91,4.16-8.91,9.28-8.91c5.12,0,9.28,4,9.28,8.91c0,4.91-4.16,8.91-9.28,8.91 c-1.29,0-2.57-0.28-3.81-0.82l-15.87,16.86l20.03,1.76l16-17.6c-1.1-1.51-1.68-3.25-1.68-5.05c0-4.91,4.16-8.91,9.28-8.91 c5.12,0,9.28,4,9.28,8.91c0,4.91-4.16,8.91-9.28,8.91c-1.43,0-2.84-0.33-4.18-0.99l-17.53,19.28l-42.98-3.78l-34.4,33.21 c7.19,5.29,15.35,9.43,24.18,12.13l25.2-24.81c-0.9-1.4-1.37-3-1.37-4.65c0-4.91,4.16-8.91,9.28-8.91c5.12,0,9.28,4,9.28,8.91 c0,4.91-4.16,8.91-9.28,8.91c-1.62,0-3.22-0.42-4.65-1.22l-23.48,23.12c6.12,1.45,12.51,2.23,19.09,2.23 c43.84,0,79.38-34.1,79.38-76.17C166.56,63.19,158,44.48,144.11,30.77z M114.06,87.8c2.41,0,4.37-1.88,4.37-4.19 c0-2.31-1.96-4.19-4.37-4.19c-2.41,0-4.37,1.88-4.37,4.19C109.69,85.92,111.65,87.8,114.06,87.8z"></path> </g> </g> </g> <g class="st2"> <defs> <rect id="SVGID_9_" x="-71.7" y="182.59" width="297.84" height="24.22"></rect> </defs> <clipPath id="SVGID_10_"> <use xlink:href="#SVGID_9_" style="overflow:visible;"></use> </clipPath> <g class="st7"> <g> <defs> <rect id="SVGID_11_" x="-71.7" y="182.59" width="530.47" height="48.44"></rect> </defs> <clipPath id="SVGID_12_"> <use xlink:href="#SVGID_11_" style="overflow:visible;"></use> </clipPath> <path class="st8" d="M223.07,196.06c-0.49-0.2-1.05-0.35-1.66-0.47c-0.61,0.06-1.22,0.12-1.83,0.17 C220.74,195.85,221.9,195.96,223.07,196.06z"></path> </g> </g> </g> </g> </g> <g> <path d="M211.54,110.77c-4.48-2.34-7.92-5.65-10.33-9.92c-2.41-4.27-3.61-9.27-3.61-15.02c0-5.74,1.25-10.79,3.74-15.13 c2.49-4.34,6-7.72,10.52-10.14c4.52-2.42,9.83-3.63,15.91-3.63c4.14,0,8.2,0.66,12.17,1.98c3.97,1.32,7.18,3.08,9.64,5.27 l-3.42,6.8c-5.83-4.23-11.75-6.35-17.75-6.35c-6.34,0-11.28,1.85-14.83,5.55c-3.55,3.7-5.32,8.92-5.32,15.64 c0,6.65,1.77,11.79,5.32,15.41s8.49,5.44,14.83,5.44c6,0,11.92-2.12,17.75-6.35l3.42,6.8c-2.62,2.19-5.92,3.93-9.89,5.21 c-3.97,1.28-8.07,1.93-12.3,1.93C221.3,114.29,216.02,113.12,211.54,110.77z"></path> <path d="M255.4,33.59h10.27v79.91H255.4V33.59z"></path> <path d="M288.34,110.77c-4.44-2.34-7.86-5.68-10.27-10.03c-2.41-4.34-3.61-9.39-3.61-15.13c0-5.74,1.2-10.78,3.61-15.13 c2.41-4.34,5.83-7.69,10.27-10.03s9.57-3.51,15.4-3.51s10.99,1.17,15.47,3.51c4.48,2.34,7.92,5.69,10.33,10.03 c2.41,4.35,3.61,9.39,3.61,15.13c0,5.74-1.21,10.79-3.61,15.13c-2.41,4.35-5.85,7.69-10.33,10.03c-4.48,2.34-9.63,3.51-15.47,3.51 S292.78,113.12,288.34,110.77z M317.75,101.31c3.25-3.59,4.88-8.82,4.88-15.7c0-6.72-1.65-11.92-4.94-15.58 c-3.3-3.66-7.94-5.5-13.95-5.5c-6,0-10.65,1.83-13.95,5.5c-3.3,3.67-4.94,8.86-4.94,15.58c0,6.8,1.63,12.01,4.88,15.64 c3.25,3.63,7.92,5.44,14.01,5.44S314.5,104.9,317.75,101.31z"></path> <path d="M393.66,58.3v55.2h-10.02v-9.41c-1.95,3.33-4.67,5.86-8.18,7.59c-3.51,1.74-7.46,2.61-11.85,2.61 c-7.35,0-12.89-1.83-16.61-5.5c-3.72-3.66-5.58-9.08-5.58-16.26V58.3h10.27v34c0,4.91,1.1,8.52,3.3,10.82 c2.2,2.31,5.66,3.46,10.4,3.46c5.41,0,9.76-1.57,13.06-4.7c3.3-3.13,4.94-7.27,4.94-12.41V58.3H393.66z"></path> <path d="M460.95,33.59v79.91h-10.27v-10.09c-1.86,3.48-4.59,6.16-8.18,8.05c-3.59,1.89-7.8,2.83-12.62,2.83 c-5.41,0-10.19-1.21-14.33-3.63c-4.14-2.42-7.35-5.8-9.63-10.14c-2.28-4.34-3.42-9.39-3.42-15.13c0-5.67,1.14-10.65,3.42-14.96 c2.28-4.31,5.49-7.63,9.63-9.97c4.14-2.34,8.92-3.51,14.33-3.51c4.82,0,9.02,0.95,12.62,2.83c3.59,1.89,6.32,4.57,8.18,8.05V33.59 H460.95z M445.8,101.2c3.25-3.66,4.88-8.86,4.88-15.58c0-6.72-1.63-11.9-4.88-15.53c-3.25-3.63-7.88-5.44-13.88-5.44 c-6,0-10.67,1.81-14.01,5.44c-3.34,3.63-5.01,8.73-5.01,15.3c0,6.73,1.67,11.96,5.01,15.7c3.34,3.74,8.01,5.61,14.01,5.61 C437.92,106.69,442.54,104.86,445.8,101.2z"></path> <path d="M480.47,112.64c-4.78-1.17-8.9-2.85-12.36-5.04l5.07-11.79c3.38,2.04,7.1,3.63,11.16,4.76c4.06,1.13,8.16,1.7,12.3,1.7 c2.96,0,5.26-0.43,6.91-1.3c1.65-0.87,2.47-2.06,2.47-3.57c0-1.36-0.57-2.42-1.71-3.17c-1.14-0.76-3.28-1.44-6.4-2.04l-10.14-2.04 c-6-1.21-10.42-3.08-13.25-5.61c-2.83-2.53-4.25-5.99-4.25-10.37c0-3.47,1.12-6.53,3.36-9.18c2.24-2.64,5.41-4.72,9.51-6.23 c4.1-1.51,8.77-2.27,14.01-2.27c4.48,0,8.83,0.61,13.06,1.81c4.23,1.21,8.03,2.91,11.41,5.1l-5.07,11.33 c-6.59-4.08-13.1-6.12-19.52-6.12c-2.96,0-5.28,0.45-6.97,1.36c-1.69,0.91-2.54,2.19-2.54,3.85c0,1.21,0.51,2.15,1.52,2.83 c1.01,0.68,2.79,1.32,5.33,1.93l10.52,2.15c6.34,1.29,10.97,3.23,13.88,5.84s4.37,6.14,4.37,10.6c0,5.37-2.39,9.58-7.16,12.64 c-4.78,3.06-11.35,4.59-19.71,4.59C490.51,114.4,485.25,113.81,480.47,112.64z"></path> <path d="M572.96,101.48l-1.01,12.47c-2.45,0.3-4.9,0.45-7.35,0.45c-9.47,0-16.38-1.85-20.73-5.55c-4.35-3.7-6.53-9.33-6.53-16.89 V70.65h-11.79V57.84h11.79V41.52h19.14v16.32h15.59v12.81h-15.59v21.2c0,6.65,3.46,9.97,10.4,9.97 C568.82,101.82,570.85,101.71,572.96,101.48z"></path> <path d="M627.69,62.38c4.44,3.93,6.66,10.01,6.66,18.25v32.87h-18.13v-8.27c-1.27,2.87-3.38,5.12-6.34,6.74 c-2.96,1.62-6.42,2.44-10.4,2.44c-4.23,0-8.05-0.76-11.47-2.27s-6.13-3.63-8.11-6.35c-1.99-2.72-2.98-5.74-2.98-9.07 c0-4.08,1.16-7.29,3.49-9.63c2.32-2.34,6.06-4.04,11.22-5.1c5.15-1.06,12.21-1.59,21.17-1.59h3.3v-2.04c0-3.32-0.8-5.67-2.41-7.03 c-1.61-1.36-4.4-2.04-8.37-2.04c-3.04,0-6.42,0.49-10.14,1.47c-3.72,0.98-7.27,2.34-10.65,4.08l-5.07-11.45 c3.55-1.96,7.92-3.61,13.12-4.93c5.2-1.32,10.04-1.98,14.52-1.98C616.38,56.48,623.25,58.45,627.69,62.38z M612.67,99.27 c2.28-2.23,3.42-5.12,3.42-8.67v-1.93h-2.16c-6.85,0-11.64,0.49-14.39,1.47c-2.75,0.98-4.12,2.76-4.12,5.33 c0,2.04,0.78,3.74,2.35,5.1c1.56,1.36,3.53,2.04,5.9,2.04C607.38,102.61,610.38,101.5,612.67,99.27z"></path> <path d="M650.94,106.69c-5.83-5.14-8.75-12.13-8.75-20.97c0-5.82,1.39-10.94,4.18-15.36c2.79-4.42,6.72-7.84,11.79-10.26 c5.07-2.42,10.94-3.63,17.62-3.63c4.56,0,8.96,0.62,13.19,1.87c4.23,1.25,7.65,2.93,10.27,5.04l-5.07,11.67 c-2.45-1.74-5.13-3.08-8.05-4.02c-2.92-0.94-5.77-1.42-8.56-1.42c-4.99,0-8.86,1.32-11.6,3.97c-2.75,2.65-4.12,6.57-4.12,11.79 c0,5.21,1.37,9.16,4.12,11.84c2.75,2.68,6.61,4.02,11.6,4.02c2.79,0,5.64-0.47,8.56-1.42c2.92-0.94,5.6-2.28,8.05-4.02l5.07,11.79 c-2.79,2.12-6.34,3.78-10.65,4.99s-8.87,1.81-13.69,1.81C664.76,114.4,656.77,111.83,650.94,106.69z"></path> <path d="M748.64,113.49L724.8,88.67v24.82h-19.14V33.59h19.14v48.06l22.95-23.69h22.82l-26.12,26.52l27.64,29.02H748.64z"></path> <path d="M783.98,112.64c-4.78-1.17-8.9-2.85-12.36-5.04l5.07-11.79c3.38,2.04,7.1,3.63,11.16,4.76c4.06,1.13,8.16,1.7,12.3,1.7 c2.96,0,5.26-0.43,6.91-1.3c1.65-0.87,2.47-2.06,2.47-3.57c0-1.36-0.57-2.42-1.71-3.17c-1.14-0.76-3.28-1.44-6.4-2.04l-10.14-2.04 c-6-1.21-10.42-3.08-13.25-5.61c-2.83-2.53-4.25-5.99-4.25-10.37c0-3.47,1.12-6.53,3.36-9.18c2.24-2.64,5.41-4.72,9.51-6.23 c4.1-1.51,8.77-2.27,14.01-2.27c4.48,0,8.83,0.61,13.06,1.81c4.23,1.21,8.03,2.91,11.41,5.1l-5.07,11.33 c-6.59-4.08-13.1-6.12-19.52-6.12c-2.96,0-5.28,0.45-6.97,1.36c-1.69,0.91-2.54,2.19-2.54,3.85c0,1.21,0.51,2.15,1.52,2.83 c1.01,0.68,2.79,1.32,5.33,1.93l10.52,2.15c6.34,1.29,10.97,3.23,13.88,5.84s4.37,6.14,4.37,10.6c0,5.37-2.39,9.58-7.16,12.64 c-4.78,3.06-11.35,4.59-19.71,4.59C794.02,114.4,788.76,113.81,783.98,112.64z"></path> </g> <g> <rect x="624.33" y="71.84" class="st9" width="222.09" height="4.96"></rect> </g> </svg> 