<svg width="25" height="27" viewBox="0 0 25 27" fill="none" xmlns="http://www.w3.org/2000/svg">
<path d="M8.24083 20.5924L3.76816 22.0406C2.95103 22.3676 2.2506 22.9319 1.7572 23.6607C1.2638 24.3895 1.00006 25.2493 1 26.1294V26.1294" stroke="#333333" stroke-miterlimit="10"/>
<path d="M16.7588 20.5924L21.2315 22.0406C22.0486 22.3676 22.749 22.9319 23.2424 23.6607C23.7358 24.3895 23.9996 25.2493 23.9996 26.1294" stroke="#333333" stroke-miterlimit="10"/>
<path d="M15.4826 19.3146L12.501 21.0184L13.7788 23.1481L16.7601 20.5928L15.4826 19.3146Z" stroke="#333333" stroke-miterlimit="10"/>
<path d="M9.51907 19.3146L8.24121 20.5924L11.2225 23.1478L12.5004 21.018L9.51907 19.3146Z" stroke="#333333" stroke-miterlimit="10"/>
<path d="M6.53516 6.96298C6.53516 5.3815 7.1634 3.86482 8.28167 2.74655C9.39995 1.62827 10.9167 1 12.4981 1C14.0796 1 15.5963 1.62827 16.7146 2.74655C17.8329 3.86482 18.4611 5.3815 18.4611 6.96298" stroke="#333333" stroke-miterlimit="10"/>
<path d="M19.1016 6.96298C20.1603 6.96298 20.5923 7.72579 20.5923 8.6668C20.5923 9.60782 20.1603 10.3703 19.1016 10.3703H18.4629V6.96298H19.1016Z" stroke="#333333" stroke-miterlimit="10"/>
<path d="M5.89824 6.96298C4.83959 6.96298 4.40723 7.72579 4.40723 8.6668C4.40723 9.60782 4.83959 10.3703 5.89824 10.3703H6.53592V6.96298H5.89824Z" stroke="#333333" stroke-miterlimit="10"/>
<path d="M14.2038 16.3346C14.2038 16.5031 14.1538 16.6678 14.0602 16.8079C13.9666 16.948 13.8336 17.0573 13.6779 17.1217C13.5222 17.1862 13.351 17.2031 13.1857 17.1702C13.0205 17.1373 12.8687 17.0562 12.7495 16.9371C12.6304 16.8179 12.5492 16.6661 12.5164 16.5008C12.4835 16.3356 12.5004 16.1643 12.5648 16.0086C12.6293 15.853 12.7385 15.72 12.8786 15.6263C13.0187 15.5327 13.1834 15.4828 13.3519 15.4828C13.5778 15.4828 13.7945 15.5725 13.9543 15.7323C14.1141 15.892 14.2038 16.1087 14.2038 16.3346V16.3346Z" stroke="#333333" stroke-miterlimit="10"/>
<path d="M18.4633 11.2221V13.7779C18.4633 15.1716 17.6791 16.3332 16.3335 16.3332H14.2041" stroke="#333333" stroke-miterlimit="10"/>
<path d="M11.6475 3.55579C11.6475 6.34355 14.4962 8.24092 17.1845 8.24092" stroke="#333333" stroke-miterlimit="10"/>
<path d="M11.6477 4.83362C8.95936 5.37114 7.81445 6.69785 7.81445 9.83421C7.81445 12.5001 7.81445 15.9073 11.6477 16.7592" stroke="#333333" stroke-miterlimit="10"/>
<path d="M13.7773 9.94466C13.7773 9.94466 13.7773 9.51877 14.6289 9.51877C14.9519 9.56341 15.2513 9.71303 15.4808 9.94466H15.9068" stroke="#333333" stroke-linecap="round" stroke-linejoin="round"/>
<path d="M11.2222 9.94466C11.2222 9.94466 11.2222 9.51877 10.3703 9.51877C10.0473 9.56351 9.74796 9.71312 9.51837 9.94466H9.09277" stroke="#333333" stroke-linecap="round" stroke-linejoin="round"/>
<path d="M13.7774 13.3519C13.7774 13.3519 13.2071 14.2039 12.4995 14.2039C11.792 14.2039 11.2217 13.3519 11.2217 13.3519C11.5903 13.0755 12.0387 12.926 12.4995 12.926C12.9604 12.926 13.4087 13.0755 13.7774 13.3519V13.3519Z" stroke="#333333" stroke-miterlimit="10"/>
<path d="M9.94336 16.3333V18.463" stroke="#333333" stroke-miterlimit="10"/>
</svg>
