<?xml version="1.0" encoding="UTF-8"?>
<svg width="30px" height="29px" viewBox="0 0 30 29" version="1.1" xmlns="http://www.w3.org/2000/svg" xmlns:xlink="http://www.w3.org/1999/xlink">
    <!-- Generator: Sketch 61.2 (89653) - https://sketch.com -->
    <title>coach-icon</title>
    <desc>Created with Sketch.</desc>
    <g id="Page-1" stroke="none" stroke-width="1" fill="none" fill-rule="evenodd">
        <g id="coach-icon" transform="translate(1.000000, 1.000000)" stroke="#A616D4">
            <polygon id="Path" points="17.6087 12.0326 0 12.0326 0 22.3043 1.76087 22.3043 1.76087 27.2167 6.60326 22.3043 17.6087 22.3043"></polygon>
            <line x1="7.04395" y1="13.7935" x2="16.1418" y2="13.7935" id="Path"></line>
            <line x1="7.04395" y1="15.5544" x2="16.1418" y2="15.5544" id="Path"></line>
            <line x1="7.04395" y1="17.3152" x2="16.1418" y2="17.3152" id="Path"></line>
            <line x1="12.0332" y1="19.0761" x2="12.6202" y2="19.0761" id="Path"></line>
            <line x1="13.793" y1="19.0761" x2="14.3799" y2="19.0761" id="Path"></line>
            <line x1="15.5537" y1="19.0761" x2="16.1407" y2="19.0761" id="Path"></line>
            <polygon id="Path" points="27.9993 0 10.3906 0 10.3906 10.2717 21.3961 10.2717 26.2385 15.1842 26.2385 10.2717 27.9993 10.2717"></polygon>
            <path d="M15.014,6.18144 L14.3362,6.06381 C14.3362,6.06381 14.2504,5.71723 14.3362,5.63612 C14.5288,5.45434 14.7059,5.23815 14.7059,4.96961 L14.7059,4.54547 C14.7025,4.39741 14.6421,4.25681 14.5381,4.15455 C14.4341,4.0523 14.295,3.99676 14.1512,4.00015 L13.8292,4.00015 C13.6873,4.00019 13.5512,4.05829 13.4508,4.16167 C13.3505,4.26506 13.2941,4.40526 13.2941,4.55145 L13.2941,4.96961 C13.2941,5.23815 13.4944,5.44675 13.6638,5.63612 C13.7423,5.72337 13.6638,6.06026 13.6638,6.06026 L12.9244,6.18144 C12.3969,6.18144 12,6.42025 12,6.93892 L12,8.00000345 L16,8.00000345 L16,6.93973 C16,6.42025 15.5415,6.18144 15.014,6.18144 Z" id="Path"></path>
            <line x1="17.4346" y1="1.76086" x2="26.5324" y2="1.76086" id="Path"></line>
            <line x1="17.4346" y1="3.52176" x2="26.5324" y2="3.52176" id="Path"></line>
            <line x1="17.4346" y1="5.28259" x2="26.5324" y2="5.28259" id="Path"></line>
            <line x1="22.4229" y1="7.04349" x2="23.0098" y2="7.04349" id="Path"></line>
            <line x1="24.1846" y1="7.04349" x2="24.7715" y2="7.04349" id="Path"></line>
            <line x1="25.9463" y1="7.04349" x2="26.5332" y2="7.04349" id="Path"></line>
            <path d="M5.01396,18.1814 L4.33616,18.0638 C4.33616,18.0638 4.25035,17.7172 4.33616,17.6361 C4.52879,17.4543 4.70588,17.2382 4.70588,16.9696 L4.70588,16.5455 C4.70247,16.3974 4.64213,16.2568 4.53812,16.1546 C4.43412,16.0523 4.29495,15.9968 4.15121,16.0001 L3.82917,16.0001 C3.68725,16.0002 3.55116,16.0583 3.45082,16.1617 C3.35048,16.2651 3.29412,16.4053 3.29412,16.5514 L3.29412,16.9696 C3.29412,17.2382 3.49443,17.4468 3.66384,17.6361 C3.74227,17.7234 3.66384,18.0603 3.66384,18.0603 L2.92439,18.1814 C2.39686,18.1814 2,18.4203 2,18.9389 L2,20 L6,20 L6,18.9397 C6,18.4203 5.54149,18.1814 5.01396,18.1814 Z" id="Path"></path>
        </g>
    </g>
</svg>