<svg width="30" height="30" viewBox="0 0 30 30" fill="none" xmlns="http://www.w3.org/2000/svg">
<path d="M18.6087 13.0326H1V23.3043H2.76087V28.2167L7.60326 23.3043H18.6087V13.0326Z" stroke="#343449" stroke-miterlimit="10"/>
<path d="M8.04395 14.7935H17.1418" stroke="#343449" stroke-miterlimit="10"/>
<path d="M8.04395 16.5544H17.1418" stroke="#343449" stroke-miterlimit="10"/>
<path d="M8.04395 18.3152H17.1418" stroke="#343449" stroke-miterlimit="10"/>
<path d="M13.0332 20.0761H13.6202" stroke="#343449" stroke-miterlimit="10"/>
<path d="M14.793 20.0761H15.3799" stroke="#343449" stroke-miterlimit="10"/>
<path d="M16.5537 20.0761H17.1407" stroke="#343449" stroke-miterlimit="10"/>
<path d="M28.9993 1H11.3906V11.2717H22.3961L27.2385 16.1842V11.2717H28.9993V1Z" stroke="#343449" stroke-miterlimit="10"/>
<path d="M16.014 7.18144L15.3362 7.06381C15.3362 7.06381 15.2504 6.71723 15.3362 6.63612C15.5288 6.45434 15.7059 6.23815 15.7059 5.96961V5.54547C15.7025 5.39741 15.6421 5.25681 15.5381 5.15455C15.4341 5.0523 15.295 4.99676 15.1512 5.00015H14.8292C14.6873 5.00019 14.5512 5.05829 14.4508 5.16167C14.3505 5.26506 14.2941 5.40526 14.2941 5.55145V5.96961C14.2941 6.23815 14.4944 6.44675 14.6638 6.63612C14.7423 6.72337 14.6638 7.06026 14.6638 7.06026L13.9244 7.18144C13.3969 7.18144 13 7.42025 13 7.93892V9H17V7.93973C17 7.42025 16.5415 7.18144 16.014 7.18144Z" stroke="#343449" stroke-miterlimit="10"/>
<path d="M18.4346 2.76086H27.5324" stroke="#343449" stroke-miterlimit="10"/>
<path d="M18.4346 4.52176H27.5324" stroke="#343449" stroke-miterlimit="10"/>
<path d="M18.4346 6.28259H27.5324" stroke="#343449" stroke-miterlimit="10"/>
<path d="M23.4229 8.04349H24.0098" stroke="#343449" stroke-miterlimit="10"/>
<path d="M25.1846 8.04349H25.7715" stroke="#343449" stroke-miterlimit="10"/>
<path d="M26.9463 8.04349H27.5332" stroke="#343449" stroke-miterlimit="10"/>
<path d="M6.01396 19.1814L5.33616 19.0638C5.33616 19.0638 5.25035 18.7172 5.33616 18.6361C5.52879 18.4543 5.70588 18.2382 5.70588 17.9696V17.5455C5.70247 17.3974 5.64213 17.2568 5.53812 17.1546C5.43412 17.0523 5.29495 16.9968 5.15121 17.0001H4.82917C4.68725 17.0002 4.55116 17.0583 4.45082 17.1617C4.35048 17.2651 4.29412 17.4053 4.29412 17.5514V17.9696C4.29412 18.2382 4.49443 18.4468 4.66384 18.6361C4.74227 18.7234 4.66384 19.0603 4.66384 19.0603L3.92439 19.1814C3.39686 19.1814 3 19.4203 3 19.9389V21H7V19.9397C7 19.4203 6.54149 19.1814 6.01396 19.1814Z" stroke="#343449" stroke-miterlimit="10"/>
</svg>
