<svg width="456" height="143" viewBox="0 0 456 143" fill="none" xmlns="http://www.w3.org/2000/svg">
<g clip-path="url(#clip0)">
<rect width="1532" height="5992" transform="translate(-484 -2732)" fill="white"/>
<path d="M302.605 115.071L391.407 114.826C396.4 114.814 401.346 115.885 405.962 117.981C410.578 120.076 414.774 123.154 418.311 127.038C421.847 130.923 424.655 135.538 426.573 140.621C428.492 145.703 429.483 151.153 429.492 156.66L429.723 299.316C437.644 299.228 445.565 299.158 453.486 299.106L453.254 156.594C453.21 138.528 446.669 121.224 435.065 108.48C423.461 95.7361 407.744 88.5935 391.363 88.6197L302.715 88.8649C302.699 97.5261 302.658 106.436 302.605 115.071Z" fill="#343449"/>
<path d="M302.61 113.761L391.4 113.516C396.549 113.502 401.649 114.607 406.41 116.767C411.17 118.927 415.498 122.1 419.146 126.106C422.793 130.111 425.689 134.87 427.668 140.111C429.647 145.352 430.671 150.972 430.68 156.651L430.911 299.307C438.04 299.226 445.169 299.162 452.298 299.115L452.066 156.603C452.053 147.827 450.473 139.141 447.416 131.041C444.358 122.941 439.884 115.585 434.247 109.394C428.611 103.203 421.924 98.2976 414.567 94.958C407.21 91.6183 399.328 89.9099 391.37 89.9303L302.711 90.1755C302.697 97.985 302.659 105.965 302.61 113.761Z" fill="white"/>
<path d="M302.626 112.451L391.404 112.206C396.709 112.192 401.964 113.331 406.868 115.558C411.773 117.784 416.231 121.054 419.989 125.182C423.746 129.309 426.729 134.213 428.767 139.613C430.806 145.013 431.859 150.804 431.868 156.655L432.099 299.284C438.436 299.227 444.773 299.173 451.11 299.124L450.878 156.599C450.835 139.228 444.544 122.591 433.387 110.337C422.23 98.0837 407.117 91.2157 391.366 91.2406L302.707 91.4858C302.696 98.4436 302.661 105.506 302.626 112.451Z" fill="#343449"/>
<path d="M418.62 109.78C415.913 107.88 413.05 106.265 410.069 104.956L409.626 106.186C412.543 107.456 415.343 109.032 417.987 110.891L418.62 109.78Z" fill="white"/>
<path d="M426.191 116.304L425.38 117.257C427.658 119.628 429.722 122.237 431.544 125.048L432.509 124.278C430.639 121.403 428.523 118.732 426.191 116.304Z" fill="white"/>
<path d="M400.836 102.003C397.723 101.36 394.561 101.042 391.393 101.055L391.274 101.054L391.27 102.364L391.389 102.365C394.485 102.35 397.575 102.659 400.618 103.286L400.836 102.003Z" fill="white"/>
<path d="M436.28 133.987C437.601 137.123 438.648 140.391 439.408 143.746L440.597 143.436C439.837 139.993 438.774 136.641 437.422 133.427L436.28 133.987Z" fill="white"/>
<path d="M372.235 102.447L381.753 102.412L381.757 101.102L372.24 101.136L372.235 102.447Z" fill="white"/>
<path d="M334.192 102.543L343.709 102.509L343.701 101.199L334.196 101.233L334.192 102.543Z" fill="white"/>
<path d="M353.214 102.488L362.731 102.467L362.735 101.157L353.218 101.178L353.214 102.488Z" fill="white"/>
<path d="M315.169 102.585L324.674 102.564L324.679 101.254L315.162 101.275L315.169 102.585Z" fill="white"/>
<path d="M19.3386 97.4714C31.1547 110.079 47.1203 117.103 63.7269 116.999L193 116.244V90.2072L63.5943 90.9493C53.3746 91.022 43.5463 86.708 36.269 78.9552C28.9918 71.2024 24.8611 60.645 24.7847 49.6032L24.0979 -88C15.9889 -88 7.79567 -88 0 -88L0.68679 49.7334C0.741951 58.6241 2.41752 67.416 5.61782 75.6069C8.81812 83.7979 13.4804 91.2275 19.3386 97.4714Z" fill="#343449"/>
<path d="M20.1942 96.5471C31.7702 108.932 47.4242 115.843 63.715 115.762L193 115.007V91.5741L63.5945 92.3162C58.3709 92.3522 53.1919 91.2757 48.3535 89.1484C43.5151 87.021 39.1121 83.8844 35.396 79.9177C31.68 75.9511 28.7238 71.2323 26.6964 66.0307C24.6689 60.8293 23.6099 55.2471 23.58 49.6032L22.8932 -88C15.5915 -88 8.25371 -88 1.20508 -88L1.89187 49.7334C1.94794 58.4528 3.59312 67.0748 6.73345 75.1072C9.87379 83.1395 14.4478 90.4248 20.1942 96.5471Z" fill="white"/>
<path d="M21.0378 95.6749C32.3894 107.819 47.7405 114.595 63.7152 114.512L193 113.757V92.9281L63.6068 93.6701C58.2209 93.7079 52.881 92.5977 47.8927 90.4033C42.9043 88.2088 38.3655 84.973 34.5358 80.8812C30.7061 76.7894 27.6608 71.9218 25.5742 66.557C23.4875 61.1922 22.4005 55.4355 22.3753 49.6162L21.6885 -88C15.2061 -88 8.69971 -88 2.41016 -88L3.09695 49.7204C3.14445 58.2785 4.75351 66.7424 7.83203 74.6279C10.9105 82.5133 15.3981 89.6655 21.0378 95.6749Z" fill="#343449"/>
<path d="M13.1935 10.4315L13.1453 0.00390625L11.9404 0.0168975L11.9886 10.4315H13.1935Z" fill="white"/>
<path d="M13.3023 31.2735L13.242 20.8589H12.0371L12.0974 31.2865L13.3023 31.2735Z" fill="white"/>
<path d="M12.2419 52.1417H13.4468C13.4468 51.3476 13.3865 50.5405 13.3865 49.7204V41.7532H12.1816V49.7204C12.1816 50.5015 12.2057 51.3216 12.2419 52.1417Z" fill="white"/>
<path d="M13.6393 62.5693C14.413 65.9904 15.4945 69.3216 16.8684 72.5152L17.9529 71.9684C16.6267 68.8456 15.5777 65.5938 14.8201 62.2568L13.6152 62.5693H13.6393Z" fill="white"/>
<path d="M121.497 103.056L111.846 103.122L111.853 104.423L121.504 104.358L121.497 103.056Z" fill="white"/>
<path d="M102.231 103.159L92.5801 103.211L92.5862 104.513L102.237 104.46L102.231 103.159Z" fill="white"/>
<path d="M160.112 102.816L150.461 102.869L150.467 104.171L160.118 104.118L160.112 102.816Z" fill="white"/>
<path d="M140.835 102.922L131.184 102.974L131.19 104.276L140.841 104.223L140.835 102.922Z" fill="white"/>
<path d="M73.2334 103.356L73.2454 104.658L82.8966 104.592L82.8846 103.291L73.2334 103.356Z" fill="white"/>
<path d="M179.36 102.731L169.709 102.796L169.721 104.098L179.372 104.033L179.36 102.731Z" fill="white"/>
<path d="M193 102.666H189.012V103.967H193V102.666Z" fill="white"/>
<path d="M54.1117 102.47L53.8828 103.772C57.0849 104.42 60.3366 104.738 63.5943 104.723V103.421C60.4129 103.424 57.2382 103.106 54.1117 102.47Z" fill="white"/>
<path d="M35.8574 96.0264C38.6013 97.922 41.5062 99.5305 44.5327 100.83L44.9785 99.6195C42.034 98.3541 39.2095 96.7846 36.5442 94.9329L35.8574 96.0264Z" fill="white"/>
<path d="M22.7484 80.8472L21.7725 81.6153C23.6628 84.4792 25.8099 87.1347 28.1825 89.5434L29.0018 88.5931C26.694 86.2319 24.6001 83.6382 22.7484 80.8472Z" fill="white"/>
<g filter="url(#filter0_d)">
<rect x="308" y="143" width="478" height="189" rx="9" fill="white"/>
</g>
<path d="M174.034 98.4609C174.1 103.678 174.16 109.756 174.212 116.382L318.908 114.948L318.713 88.8624L174.197 90.3475C174.207 93.243 174.086 96.139 174.034 98.4609Z" fill="#343449"/>
<path d="M174.033 98.4608C174.049 103.326 174.147 108.895 174.197 115.09L318.903 113.644L318.727 90.1666L174.201 91.6517C174.209 94.1038 174.077 96.4781 174.033 98.4608Z" fill="white"/>
<path d="M174.033 98.4609C174.048 102.987 174.145 108.165 174.183 113.786L318.889 112.34L318.731 91.471L174.205 92.9561C174.142 94.9389 174.078 96.8434 174.033 98.4609Z" fill="#343449"/>
<path d="M314.818 102.596L318.818 102.583L318.813 101.279L314.813 101.292L314.818 102.596Z" fill="white"/>
<path d="M258.808 103.266L258.794 101.962L250.784 102.092L250.799 103.397L258.808 103.266Z" fill="white"/>
<path d="M274.827 103.084L274.812 101.78L266.803 101.91L266.817 103.214L274.827 103.084Z" fill="white"/>
<path d="M242.799 103.501L242.785 102.197L234.776 102.327L234.79 103.631L242.799 103.501Z" fill="white"/>
<path d="M226.746 103.481L226.733 102.177L218.724 102.287L218.736 103.591L226.746 103.481Z" fill="white"/>
<path d="M210.729 103.647L210.713 102.343L202.714 102.494L202.73 103.798L210.729 103.647Z" fill="white"/>
<path d="M290.845 102.888L290.831 101.584L282.821 101.714L282.836 103.019L290.845 102.888Z" fill="white"/>
<path d="M306.812 102.678L306.803 101.373L298.793 101.456L298.803 102.76L306.812 102.678Z" fill="white"/>
<path d="M194.71 103.8L194.697 102.495L186.688 102.612L186.701 103.917L194.71 103.8Z" fill="white"/>
<path d="M174.102 104.043L178.692 104.028L178.688 102.724L174.088 102.739L174.102 104.043Z" fill="white"/>
</g>
<defs>
<filter id="filter0_d" x="300" y="135" width="526" height="237" filterUnits="userSpaceOnUse" color-interpolation-filters="sRGB">
<feFlood flood-opacity="0" result="BackgroundImageFix"/>
<feColorMatrix in="SourceAlpha" type="matrix" values="0 0 0 0 0 0 0 0 0 0 0 0 0 0 0 0 0 0 127 0" result="hardAlpha"/>
<feOffset dx="16" dy="16"/>
<feGaussianBlur stdDeviation="12"/>
<feColorMatrix type="matrix" values="0 0 0 0 0 0 0 0 0 0 0 0 0 0 0 0 0 0 0.12 0"/>
<feBlend mode="normal" in2="BackgroundImageFix" result="effect1_dropShadow"/>
<feBlend mode="normal" in="SourceGraphic" in2="effect1_dropShadow" result="shape"/>
</filter>
<clipPath id="clip0">
<rect width="1532" height="5992" fill="white" transform="translate(-484 -2732)"/>
</clipPath>
</defs>
</svg>
