<svg id="new_roads" data-name="new roads" xmlns="http://www.w3.org/2000/svg" viewBox="0 0 126 185"><defs><style>.cls-1,.cls-2,.cls-3{fill:none;stroke-miterlimit:10;}.cls-1{stroke:#343449;stroke-linecap:round;stroke-width:26px;}.cls-2,.cls-3{stroke:#fff;}.cls-2{stroke-width:1.3px;stroke-dasharray:12;}</style></defs><path class="cls-1" d="M148.82,35.94s-21.42.66-73.72.66c-33.28,0-52,27.41-52,65.37V209.69"/><path class="cls-2" d="M148.82,35.94s-21.42.66-73.72.66c-33.28,0-52,27.41-52,65.37V209.69"/><path class="cls-3" d="M23.1,220.19a10.5,10.5,0,0,1-10.5-10.5V102c0-21.41,5.42-39.83,15.67-53.28C39.53,33.91,55.73,26.1,75.1,26.1c51.66,0,72.75-.65,73.65-.65h.08a10.5,10.5,0,0,1,.07,21c-.89,0-22.06.66-73.8.66C44.5,47.1,33.6,75.45,33.6,102V209.69A10.5,10.5,0,0,1,23.1,220.19Z"/></svg>