<svg xmlns="http://www.w3.org/2000/svg" viewBox="0 0 216 425"><defs><style>.cls-1,.cls-2,.cls-3,.cls-4,.cls-5{fill:none;stroke-miterlimit:10;}.cls-1{stroke:#343449;stroke-linecap:round;stroke-width:26px;}.cls-2,.cls-3,.cls-4,.cls-5{stroke:#fff;}.cls-3,.cls-4{stroke-width:1.3px;}.cls-4{stroke-dasharray:11.81 11.81;}.cls-5{stroke-width:0.5px;}</style></defs><g id="new_roads" data-name="new roads"><path class="cls-1" d="M21-60.29s.13,201.48,1.73,216.57,8.57,65.1,78.84,55.8c22.71-3,40.22-3.82,53.93-.45,32.68,8,42.87,32.28,44.19,52.9.73,11.33,1,39.29,1.48,64.61.33,17,2.05,44.12-10.47,57.49-14.86,15.87-27.42,23.43-65.73,23.43H-81.74"/><path class="cls-2" d="M125,420.56H-81.39a10.73,10.73,0,0,1-10.85-10.3,10.51,10.51,0,0,1,10.5-10.7H125c35.36,0,45.26-6.44,58.06-20.11,8.64-9.22,8.1-31.39,7.74-46.06,0-1.4-.07-2.75-.1-4.05-.13-6.93-.25-14.06-.36-21-.3-18.09-.58-35.17-1.1-43.15-1-16-8.13-36.48-36.21-43.37-11.07-2.72-26-2.53-50,.66-27.51,3.64-49.46-.8-65.23-13.21-14.41-11.34-23-28.79-25.43-51.89-1.61-15.17-1.67-195.62-1.79-217.63A10.5,10.5,0,0,1,21-70.79h0A10.55,10.55,0,0,1,31.53-60.3c.45,86,.54,204.79,1.67,215.47.69,6.43,2.77,26,17.53,37.6,11.16,8.78,27.81,11.77,49.49,8.9,26.76-3.55,44.05-3.62,57.82-.24,31.1,7.64,50.11,30.39,52.16,62.43.54,8.48.83,25.8,1.13,44.14.12,6.91.23,14,.37,20.93,0,1.26.06,2.58.09,3.95.47,19.17,1.12,45.43-13.4,60.93C181.41,411.94,166.1,420.56,125,420.56Z"/><path class="cls-3" d="M21.1,90.65s0,2.27,0,6"/><path class="cls-4" d="M21.21,108.46c.17,16.08.57,38.59,1.55,47.82,1.61,15.09,8.57,65.1,78.84,55.8,22.71-3,40.22-3.82,53.93-.45,32.68,8,42.87,32.28,44.19,52.9.73,11.33,1,39.29,1.48,64.61.33,17,2.05,44.12-10.47,57.49-14.86,15.87-27.42,23.43-65.73,23.43H-69.84"/></g><g id="bits"><polyline class="cls-5" points="14.54 57.8 14.54 64.8 18.65 64.8 18.65 57.8"/><polyline class="cls-5" points="24.48 63.24 24.48 70.24 28.58 70.24 28.58 63.24"/><polyline class="cls-5" points="14.51 44.53 14.51 51.52 18.61 51.52 18.61 44.53"/><polyline class="cls-5" points="24.45 49.97 24.45 56.96 28.55 56.96 28.55 49.97"/><polyline class="cls-5" points="14.37 31.68 14.37 38.67 18.47 38.67 18.47 31.68"/><polyline class="cls-5" points="24.31 37.12 24.31 44.11 28.41 44.11 28.41 37.12"/><polyline class="cls-5" points="14.37 18.87 14.37 25.86 18.47 25.86 18.47 18.87"/><polyline class="cls-5" points="24.31 24.31 24.31 31.3 28.41 31.3 28.41 24.31"/><polyline class="cls-5" points="14.37 5.96 14.37 12.95 18.47 12.95 18.47 5.96"/><polyline class="cls-5" points="24.31 11.4 24.31 18.39 28.41 18.39 28.41 11.4"/><line class="cls-2" x1="11.05" y1="79.4" x2="32.16" y2="79.4"/></g></svg>