<?xml version="1.0" encoding="UTF-8"?>
<svg width="123px" height="189px" viewBox="0 0 123 189" version="1.1" xmlns="http://www.w3.org/2000/svg" xmlns:xlink="http://www.w3.org/1999/xlink">
    <!-- Generator: Sketch 61.2 (89653) - https://sketch.com -->
    <title>curve-2-alt</title>
    <desc>Created with Sketch.</desc>
    <g id="Page-1" stroke="none" stroke-width="1" fill="none" fill-rule="evenodd">
        <g id="curve-2-alt" transform="translate(76.000000, 101.000000) rotate(1.000000) translate(-76.000000, -101.000000) translate(2.000000, 3.000000)">
            <path d="M136.82,10.94 C136.82,10.94 115.4,11.6 63.1,11.6 C29.82,11.6 11.1,39.01 11.1,76.97 L11.1,184.69" id="Path" stroke="#343449" stroke-width="26" stroke-linecap="round"></path>
            <path d="M136.82,10.94 C136.82,10.94 115.4,11.6 63.1,11.6 C29.82,11.6 11.1,39.01 11.1,76.97 L11.1,184.69" id="Path" stroke="#FFFFFF" stroke-width="1.3" stroke-dasharray="12"></path>
            <path d="M11.1,195.19 C5.30101013,195.19 0.6,190.48899 0.6,184.69 L0.6,77 C0.6,55.59 6.02,37.17 16.27,23.72 C27.53,8.91 43.73,1.1 63.1,1.1 C114.76,1.1 135.85,0.449881174 136.75,0.449881174 L136.83,0.449881174 C142.62899,0.43067012 147.34567,5.11601019 147.365118,10.915 C147.38433,16.7139898 142.69899,21.4306699 136.9,21.45 C136.01,21.45 114.84,22.11 63.1,22.11 C32.5,22.1 21.6,50.45 21.6,77 L21.6,184.69 C21.6,190.48899 16.8989899,195.19 11.1,195.19 L11.1,195.19 Z" id="Path" stroke="#FFFFFF"></path>
        </g>
    </g>
</svg>