<?xml version="1.0" encoding="UTF-8"?>
<svg width="290px" height="460px" viewBox="0 0 290 460" version="1.1" xmlns="http://www.w3.org/2000/svg" xmlns:xlink="http://www.w3.org/1999/xlink">
    <!-- Generator: Sketch 61.2 (89653) - https://sketch.com -->
    <title>curve-1-alt</title>
    <desc>Created with Sketch.</desc>
    <g id="Page-1" stroke="none" stroke-width="1" fill="none" fill-rule="evenodd">
        <g id="curve-1-alt" transform="translate(-18.000000, -35.000000)">
            <g id="new_roads">
                <path d="M114,10.71 C114,10.71 114.13,212.19 115.73,227.28 C117.33,242.37 124.3,292.38 194.57,283.08 C217.28,280.08 234.79,279.26 248.5,282.63 C281.18,290.63 291.37,314.91 292.69,335.53 C293.42,346.86 293.69,374.82 294.17,400.14 C294.5,417.14 296.22,444.26 283.7,457.63 C268.84,473.5 256.28,481.06 217.97,481.06 L11.26,481.06" id="Path" stroke="#343449" stroke-width="26" stroke-linecap="round"></path>
                <path d="M218,491.561554 L11.61,491.561554 C5.80151486,491.629614 0.992372044,487.064253 0.756672024,481.26 C0.709038524,478.441535 1.79242445,475.720739 3.76681362,473.708742 C5.7412028,471.696746 8.44107504,470.562221 11.26,470.56 L218,470.56 C253.36,470.56 263.26,464.12 276.06,450.45 C284.7,441.23 284.16,419.06 283.8,404.39 C283.8,402.99 283.73,401.64 283.7,400.34 C283.57,393.41 283.45,386.28 283.34,379.34 C283.04,361.25 282.76,344.17 282.24,336.19 C281.24,320.19 274.11,299.71 246.03,292.82 C234.96,290.1 220.03,290.29 196.03,293.48 C168.52,297.12 146.57,292.68 130.8,280.27 C116.39,268.93 107.8,251.48 105.37,228.38 C103.76,213.21 103.7,32.76 103.58,10.75 C103.5578,4.96651893 108.216644,0.254022335 114,0.21 L114,0.21 C119.79545,0.220892987 124.49705,4.9046334 124.53,10.7 C124.98,96.7 125.07,215.49 126.2,226.17 C126.89,232.6 128.97,252.17 143.73,263.77 C154.89,272.55 171.54,275.54 193.22,272.67 C219.98,269.12 237.27,269.05 251.04,272.43 C282.14,280.07 301.15,302.82 303.2,334.86 C303.74,343.34 304.03,360.66 304.33,379 C304.45,385.91 304.56,393 304.7,399.93 C304.7,401.19 304.76,402.51 304.79,403.88 C305.26,423.05 305.91,449.31 291.39,464.81 C274.41,482.94 259.1,491.561554 218,491.561554 Z" id="Path" stroke="#FFFFFF"></path>
                <path d="M114.1,161.65 C114.1,161.65 114.1,163.92 114.1,167.65" id="Path" stroke="#FFFFFF" stroke-width="1.3"></path>
                <path d="M114.21,179.46 C114.38,195.54 114.78,218.05 115.76,227.28 C117.37,242.37 124.33,292.38 194.6,283.08 C217.31,280.08 234.82,279.26 248.53,282.63 C281.21,290.63 291.4,314.91 292.72,335.53 C293.45,346.86 293.72,374.82 294.2,400.14 C294.53,417.14 296.25,444.26 283.73,457.63 C268.87,473.5 256.31,481.06 218,481.06 L23.16,481.06" id="Path" stroke="#FFFFFF" stroke-width="1.3" stroke-dasharray="11.81"></path>
            </g>
            <g id="bits" transform="translate(104.000000, 76.000000)" stroke="#FFFFFF">
                <polyline id="Path" stroke-width="0.5" points="3.54 52.8 3.54 59.8 7.65 59.8 7.65 52.8"></polyline>
                <polyline id="Path" stroke-width="0.5" points="13.48 58.24 13.48 65.24 17.58 65.24 17.58 58.24"></polyline>
                <polyline id="Path" stroke-width="0.5" points="3.51 39.53 3.51 46.52 7.61 46.52 7.61 39.53"></polyline>
                <polyline id="Path" stroke-width="0.5" points="13.45 44.97 13.45 51.96 17.55 51.96 17.55 44.97"></polyline>
                <polyline id="Path" stroke-width="0.5" points="3.37 26.68 3.37 33.67 7.47 33.67 7.47 26.68"></polyline>
                <polyline id="Path" stroke-width="0.5" points="13.31 32.12 13.31 39.11 17.41 39.11 17.41 32.12"></polyline>
                <polyline id="Path" stroke-width="0.5" points="3.37 13.87 3.37 20.86 7.47 20.86 7.47 13.87"></polyline>
                <polyline id="Path" stroke-width="0.5" points="13.31 19.31 13.31 26.3 17.41 26.3 17.41 19.31"></polyline>
                <polyline id="Path" stroke-width="0.5" points="3.37 0.96 3.37 7.95 7.47 7.95 7.47 0.96"></polyline>
                <polyline id="Path" stroke-width="0.5" points="13.31 6.4 13.31 13.39 17.41 13.39 17.41 6.4"></polyline>
                <line x1="0.05" y1="74.4" x2="21.16" y2="74.4" id="Path"></line>
            </g>
        </g>
    </g>
</svg>