<svg width="126" height="185" viewBox="0 0 126 185" fill="none" xmlns="http://www.w3.org/2000/svg">
<path d="M36.2877 192.335L36.3533 92.1809C36.3578 86.5497 37.3651 80.9733 39.3178 75.7702C41.2704 70.5671 44.1301 65.8391 47.7335 61.8563C51.337 57.8735 55.6137 54.7138 60.3194 52.5576C65.0251 50.4014 70.0676 49.291 75.1591 49.2897L207.066 49.2397C207.011 40.3058 206.972 31.372 206.949 22.4383L75.1763 22.489C58.4718 22.5122 42.4504 29.8647 30.6287 42.9328C18.8071 56.0009 12.151 73.7169 12.1214 92.1923L12.0568 192.172C20.0653 192.204 28.3037 192.264 36.2877 192.335Z" fill="#343449"/>
<path d="M35.0765 192.328L35.142 92.1876C35.1459 86.3804 36.184 80.6295 38.1969 75.2635C40.2099 69.8975 43.1583 65.0213 46.8738 60.9134C50.5894 56.8055 54.9993 53.5464 59.8518 51.3221C64.7042 49.0978 69.9042 47.9518 75.1549 47.9497L207.061 47.8997C207.009 39.8592 206.974 31.8188 206.954 23.7784L75.1813 23.8292C67.0667 23.831 59.0301 25.6006 51.5303 29.0368C44.0305 32.4731 37.2145 37.5087 31.4714 43.8562C25.7282 50.2037 21.1705 57.7388 18.0584 66.0312C14.9462 74.3236 13.3407 83.2109 13.3334 92.1857L13.2687 192.179C20.4896 192.206 27.8679 192.261 35.0765 192.328Z" fill="white"/>
<path d="M33.8648 192.308L33.9302 92.1807C33.9351 86.1975 35.0055 80.2726 37.0803 74.7443C39.155 69.2161 42.1935 64.1927 46.0223 59.961C49.851 55.7293 54.395 52.3722 59.3949 50.0814C64.3947 47.7906 69.7525 46.6108 75.1622 46.6096L207.044 46.5595C207.012 39.4124 206.983 32.2654 206.959 25.1184L75.1735 25.169C59.1116 25.1923 43.7069 32.2625 32.3402 44.828C20.9735 57.3936 14.5735 74.4278 14.5447 92.1924L14.48 192.186C20.9135 192.209 27.4437 192.259 33.8648 192.308Z" fill="#343449"/>
<path d="M75.1582 36.5459L82.4275 36.5867L82.4351 35.2467L75.1657 35.2059C74.3298 35.2012 73.4938 35.1965 72.6695 35.2723L72.6619 36.6123C73.5103 36.5724 74.3424 36.5503 75.1582 36.5459Z" fill="white"/>
<path d="M101.832 35.1973L92.127 35.2102L92.127 36.5502L101.832 36.5373L101.832 35.1973Z" fill="white"/>
<path d="M31.7761 61.4817C30.0111 64.5321 28.5083 67.7583 27.2876 71.1182L28.4236 71.6204C29.6074 68.3323 31.0736 65.1769 32.8019 62.1977L31.7761 61.4817Z" fill="white"/>
<path d="M37.8338 52.9529L38.7132 53.8691C40.913 51.303 43.3322 48.9785 45.9369 46.928L45.2282 45.8386C42.5635 47.9432 40.0874 50.3255 37.8338 52.9529V52.9529Z" fill="white"/>
<path d="M24.5269 81.5283C23.9219 85.0385 23.618 88.6038 23.619 92.1765L23.6183 92.3105L24.8298 92.3173L24.8306 92.1833C24.827 88.6916 25.1224 85.207 25.7129 81.7762L24.5269 81.5283Z" fill="white"/>
<path d="M54.2171 41.6009C57.1212 40.1157 60.1461 38.9391 63.251 38.0871L62.9678 36.7455C59.7822 37.5972 56.6792 38.7916 53.7033 40.3116L54.2171 41.6009Z" fill="white"/>
<path d="M121.23 35.183L111.525 35.1829L111.524 36.5229L121.229 36.523L121.23 35.183Z" fill="white"/>
<path d="M24.8427 113.785L24.8424 103.051L23.6309 103.044L23.6312 113.778L24.8427 113.785Z" fill="white"/>
<path d="M24.8085 156.693L24.8082 145.959L23.5966 145.966L23.597 156.686L24.8085 156.693Z" fill="white"/>
<path d="M24.8199 135.239L24.8317 124.505L23.6201 124.498L23.6083 135.232L24.8199 135.239Z" fill="white"/>
<path d="M24.7848 178.147L24.7965 167.426L23.585 167.42L23.5732 178.153L24.7848 178.147Z" fill="white"/>
</svg>
