<svg width="216" height="425" viewBox="0 0 216 425" fill="none" xmlns="http://www.w3.org/2000/svg">
<path d="M29.6748 206.019C43.1407 219.708 61.2486 227.25 80.0197 226.988L104.398 226.667C115.955 226.511 127.1 231.162 135.384 239.596C143.668 248.03 148.412 259.557 148.572 271.642L148.993 304.286C157.765 304.217 167.026 304.143 176.233 304.071L175.811 271.313C175.53 251.679 167.815 232.958 154.358 219.254C140.9 205.55 122.799 197.982 104.024 198.21L79.6452 198.545C73.9219 198.622 68.2393 197.52 62.9219 195.301C57.6045 193.081 52.7564 189.789 48.6545 185.611C44.5526 181.434 41.2772 176.453 39.0152 170.952C36.7533 165.452 35.5491 159.541 35.4715 153.556L34.9954 117.423C25.0391 117.501 15.695 117.475 7.75391 117.453L8.23296 153.956C8.4996 173.592 16.2121 192.319 29.6748 206.019Z" fill="#343449"/>
<path d="M30.634 205C43.8265 218.446 61.5813 225.868 79.9955 225.634L104.374 225.313C110.276 225.233 116.137 226.369 121.621 228.657C127.105 230.944 132.105 234.339 136.335 238.647C140.566 242.954 143.944 248.09 146.278 253.762C148.611 259.434 149.854 265.53 149.935 271.702L150.356 304.331L174.872 304.138L174.45 271.38C174.179 252.12 166.613 233.754 153.412 220.311C140.211 206.869 122.453 199.448 104.036 199.677L79.6569 200.012C73.7513 200.09 67.888 198.951 62.4022 196.659C56.9163 194.367 51.9154 190.967 47.6854 186.653C43.4554 182.34 40.0792 177.197 37.7498 171.52C35.4204 165.843 34.1834 159.742 34.1097 153.566L33.6334 117.419C24.7532 117.489 16.3899 117.469 9.11621 117.456L9.59515 153.945C9.86089 173.202 17.4284 191.566 30.634 205Z" fill="white"/>
<path d="M31.5787 203.982C44.5153 217.167 61.9266 224.443 79.9835 224.21L104.362 223.89C116.641 223.724 128.483 228.666 137.285 237.628C146.086 246.589 151.126 258.837 151.296 271.678L151.717 304.321L173.509 304.149L173.087 271.391C172.823 252.511 165.406 234.506 152.465 221.328C139.523 208.15 122.115 200.876 104.06 201.102L79.681 201.437C73.5954 201.518 67.5533 200.345 61.9 197.983C56.2468 195.622 51.0933 192.118 46.7344 187.674C42.3754 183.229 38.8964 177.93 36.4963 172.079C34.0962 166.229 32.8221 159.941 32.7469 153.577L32.2707 117.43L10.4775 117.46L10.9563 153.92C11.2139 172.802 18.6317 190.809 31.5787 203.982Z" fill="#343449"/>
<path d="M112.021 212.22L111.855 213.646C115.423 214.101 118.942 214.913 122.362 216.07L122.787 214.642C119.279 213.481 115.674 212.67 112.021 212.22Z" fill="white"/>
<path d="M101.025 211.842L90.1299 211.989L90.1485 213.414L101.044 213.266L101.025 211.842Z" fill="white"/>
<path d="M40.1508 195.866C37.5417 193.278 35.1749 190.435 33.0827 187.376L31.9723 188.21C34.1204 191.339 36.5469 194.248 39.2192 196.899L40.1508 195.866Z" fill="white"/>
<path d="M141.122 226.875L141.985 225.772C139.158 223.308 136.112 221.134 132.889 219.277L132.231 220.522C135.382 222.338 138.359 224.466 141.122 226.875Z" fill="white"/>
<path d="M47.8971 204.009C50.999 206.086 54.2832 207.849 57.7048 209.273L58.1983 207.945C54.8567 206.557 51.6502 204.837 48.6231 202.807L47.8835 204.01L47.8971 204.009Z" fill="white"/>
<path d="M79.2048 213.533L79.1935 212.109C75.5993 212.124 72.0117 211.78 68.4794 211.083L68.2183 212.509C71.8414 213.214 75.5201 213.557 79.2048 213.533Z" fill="white"/>
<path d="M154.716 244.202L155.909 243.524C154.157 240.136 152.097 236.933 149.759 233.957L148.703 234.863C150.988 237.769 153.001 240.896 154.716 244.202Z" fill="white"/>
<path d="M162.498 265.407C162.085 261.58 161.321 257.804 160.216 254.13L158.857 254.554C159.933 258.141 160.683 261.826 161.096 265.561L162.498 265.407Z" fill="white"/>
<path d="M162.941 276.857L161.579 276.876L161.736 288.284L163.098 288.265L162.941 276.857Z" fill="white"/>
<path d="M163.308 304.216L163.272 299.672L161.91 299.683L161.946 304.226L163.308 304.216Z" fill="white"/>
<path d="M27.6664 177.661C26.1686 174.243 24.9822 170.685 24.1227 167.035L22.7633 167.373C23.6274 171.114 24.8377 174.759 26.3771 178.255L27.6664 177.661Z" fill="white"/>
<path d="M22.4059 144.5L21.0439 144.511L21.1171 153.769C21.1229 154.5 21.1286 155.226 21.1343 155.948L22.4963 155.937C22.4907 155.225 22.485 154.513 22.4794 153.801L22.4059 144.5Z" fill="white"/>
<path d="M29.6748 206.019C43.1407 219.708 61.2486 227.25 80.0197 226.988L104.398 226.667C115.955 226.511 127.1 231.162 135.384 239.596C143.668 248.03 148.412 259.557 148.572 271.642L148.993 304.286C157.765 304.217 167.026 304.143 176.233 304.071L175.811 271.313C175.53 251.679 167.815 232.958 154.358 219.254C140.9 205.55 122.799 197.982 104.024 198.21L79.6452 198.545C73.9219 198.622 68.2393 197.52 62.9219 195.301C57.6045 193.081 52.7564 189.789 48.6545 185.611C44.5526 181.434 41.2772 176.453 39.0152 170.952C36.7533 165.452 35.5491 159.541 35.4715 153.556L34.9954 117.423C25.0391 117.501 15.695 117.475 7.75391 117.453L8.23296 153.956C8.4996 173.592 16.2121 192.319 29.6748 206.019Z" fill="#343449"/>
<path d="M30.634 205C43.8265 218.446 61.5813 225.868 79.9955 225.634L104.374 225.313C110.276 225.233 116.137 226.369 121.621 228.657C127.105 230.944 132.105 234.339 136.335 238.647C140.566 242.954 143.944 248.09 146.278 253.762C148.611 259.434 149.854 265.53 149.935 271.702L150.356 304.331L174.872 304.138L174.45 271.38C174.179 252.12 166.613 233.754 153.412 220.311C140.211 206.869 122.453 199.448 104.036 199.677L79.6569 200.012C73.7513 200.09 67.888 198.951 62.4022 196.659C56.9163 194.367 51.9154 190.967 47.6854 186.653C43.4554 182.34 40.0792 177.197 37.7498 171.52C35.4204 165.843 34.1834 159.742 34.1097 153.566L33.6334 117.419C24.7532 117.489 16.3899 117.469 9.11621 117.456L9.59515 153.945C9.86089 173.202 17.4284 191.566 30.634 205Z" fill="white"/>
<path d="M31.5787 203.982C44.5153 217.167 61.9266 224.443 79.9835 224.21L104.362 223.89C116.641 223.724 128.483 228.666 137.285 237.628C146.086 246.589 151.126 258.837 151.296 271.678L151.717 304.321L173.509 304.149L173.087 271.391C172.823 252.511 165.406 234.506 152.465 221.328C139.523 208.15 122.115 200.876 104.06 201.102L79.681 201.437C73.5954 201.518 67.5533 200.345 61.9 197.983C56.2468 195.622 51.0933 192.118 46.7344 187.674C42.3754 183.229 38.8964 177.93 36.4963 172.079C34.0962 166.229 32.8221 159.941 32.7469 153.577L32.2707 117.43L10.4775 117.46L10.9563 153.92C11.2139 172.802 18.6317 190.809 31.5787 203.982Z" fill="#343449"/>
<path d="M112.021 212.22L111.855 213.646C115.423 214.101 118.942 214.913 122.362 216.07L122.787 214.642C119.279 213.481 115.674 212.67 112.021 212.22Z" fill="white"/>
<path d="M101.025 211.842L90.1299 211.989L90.1485 213.414L101.044 213.266L101.025 211.842Z" fill="white"/>
<path d="M141.122 226.875L141.985 225.772C139.158 223.308 136.112 221.134 132.889 219.277L132.231 220.522C135.382 222.338 138.359 224.466 141.122 226.875Z" fill="white"/>
<path d="M40.1508 195.866C37.5417 193.278 35.1749 190.435 33.0827 187.376L31.9723 188.21C34.1204 191.339 36.5469 194.248 39.2192 196.899L40.1508 195.866Z" fill="white"/>
<path d="M79.2048 213.533L79.1935 212.109C75.5993 212.124 72.0117 211.78 68.4794 211.083L68.2183 212.509C71.8414 213.214 75.5201 213.557 79.2048 213.533Z" fill="white"/>
<path d="M47.8971 204.009C50.999 206.086 54.2832 207.849 57.7048 209.273L58.1983 207.945C54.8567 206.557 51.6502 204.837 48.6231 202.807L47.8835 204.01L47.8971 204.009Z" fill="white"/>
<path d="M154.716 244.202L155.909 243.524C154.157 240.136 152.097 236.933 149.759 233.957L148.703 234.863C150.988 237.769 153.001 240.896 154.716 244.202Z" fill="white"/>
<path d="M162.498 265.407C162.085 261.58 161.321 257.804 160.216 254.13L158.857 254.554C159.933 258.141 160.683 261.826 161.096 265.561L162.498 265.407Z" fill="white"/>
<path d="M163.308 304.216L163.272 299.672L161.91 299.683L161.946 304.226L163.308 304.216Z" fill="white"/>
<path d="M162.941 276.857L161.579 276.876L161.736 288.284L163.098 288.265L162.941 276.857Z" fill="white"/>
<path d="M22.4059 144.5L21.0439 144.511L21.1171 153.769C21.1229 154.5 21.1286 155.226 21.1343 155.948L22.4963 155.937C22.4907 155.225 22.485 154.513 22.4794 153.801L22.4059 144.5Z" fill="white"/>
<path d="M27.6664 177.661C26.1686 174.243 24.9822 170.685 24.1227 167.035L22.7633 167.373C23.6274 171.114 24.8377 174.759 26.3771 178.255L27.6664 177.661Z" fill="white"/>
<path d="M29.6748 206.019C43.1407 219.708 61.2486 227.25 80.0197 226.988L104.398 226.667C115.955 226.511 127.1 231.162 135.384 239.596C143.668 248.03 148.412 259.557 148.572 271.642L148.993 304.286C157.765 304.217 167.026 304.143 176.233 304.071L175.811 271.313C175.53 251.679 167.815 232.958 154.358 219.254C140.9 205.55 122.799 197.982 104.024 198.21L79.6452 198.545C73.9219 198.622 68.2393 197.52 62.9219 195.301C57.6045 193.081 52.7564 189.789 48.6545 185.611C44.5526 181.434 41.2772 176.453 39.0152 170.952C36.7533 165.452 35.5491 159.541 35.4715 153.556L34.9954 117.423C25.0391 117.501 15.695 117.475 7.75391 117.453L8.23296 153.956C8.4996 173.592 16.2121 192.319 29.6748 206.019Z" fill="#343449"/>
<path d="M30.634 205C43.8265 218.446 61.5813 225.868 79.9955 225.634L104.374 225.313C110.276 225.233 116.137 226.369 121.621 228.657C127.105 230.944 132.105 234.339 136.335 238.647C140.566 242.954 143.944 248.09 146.278 253.762C148.611 259.434 149.854 265.53 149.935 271.702L150.356 304.331L174.872 304.138L174.45 271.38C174.179 252.12 166.613 233.754 153.412 220.311C140.211 206.869 122.453 199.448 104.036 199.677L79.6569 200.012C73.7513 200.09 67.888 198.951 62.4022 196.659C56.9163 194.367 51.9154 190.967 47.6854 186.653C43.4554 182.34 40.0792 177.197 37.7498 171.52C35.4204 165.843 34.1834 159.742 34.1097 153.566L33.6334 117.419C24.7532 117.489 16.3899 117.469 9.11621 117.456L9.59515 153.945C9.86089 173.202 17.4284 191.566 30.634 205Z" fill="white"/>
<path d="M31.5787 203.982C44.5153 217.167 61.9266 224.443 79.9835 224.21L104.362 223.89C116.641 223.724 128.483 228.666 137.285 237.628C146.086 246.589 151.126 258.837 151.296 271.678L151.717 304.321L173.509 304.149L173.087 271.391C172.823 252.511 165.406 234.506 152.465 221.328C139.523 208.15 122.115 200.876 104.06 201.102L79.681 201.437C73.5954 201.518 67.5533 200.345 61.9 197.983C56.2468 195.622 51.0933 192.118 46.7344 187.674C42.3754 183.229 38.8964 177.93 36.4963 172.079C34.0962 166.229 32.8221 159.941 32.7469 153.577L32.2707 117.43L10.4775 117.46L10.9563 153.92C11.2139 172.802 18.6317 190.809 31.5787 203.982Z" fill="#343449"/>
<path d="M101.025 211.842L90.1299 211.989L90.1485 213.414L101.044 213.266L101.025 211.842Z" fill="white"/>
<path d="M112.021 212.22L111.855 213.646C115.423 214.101 118.942 214.913 122.362 216.07L122.787 214.642C119.279 213.481 115.674 212.67 112.021 212.22Z" fill="white"/>
<path d="M141.122 226.875L141.985 225.772C139.158 223.308 136.112 221.134 132.889 219.277L132.231 220.522C135.382 222.338 138.359 224.466 141.122 226.875Z" fill="white"/>
<path d="M40.1508 195.866C37.5417 193.278 35.1749 190.435 33.0827 187.376L31.9723 188.21C34.1204 191.339 36.5469 194.248 39.2192 196.899L40.1508 195.866Z" fill="white"/>
<path d="M79.2048 213.533L79.1935 212.109C75.5993 212.124 72.0117 211.78 68.4794 211.083L68.2183 212.509C71.8414 213.214 75.5201 213.557 79.2048 213.533Z" fill="white"/>
<path d="M47.8971 204.009C50.999 206.086 54.2832 207.849 57.7048 209.273L58.1983 207.945C54.8567 206.557 51.6502 204.837 48.6231 202.807L47.8835 204.01L47.8971 204.009Z" fill="white"/>
<path d="M154.716 244.202L155.909 243.524C154.157 240.136 152.097 236.933 149.759 233.957L148.703 234.863C150.988 237.769 153.001 240.896 154.716 244.202Z" fill="white"/>
<path d="M163.308 304.216L163.272 299.672L161.91 299.683L161.946 304.226L163.308 304.216Z" fill="white"/>
<path d="M162.498 265.407C162.085 261.58 161.321 257.804 160.216 254.13L158.857 254.554C159.933 258.141 160.683 261.826 161.096 265.561L162.498 265.407Z" fill="white"/>
<path d="M162.941 276.857L161.579 276.876L161.736 288.284L163.098 288.265L162.941 276.857Z" fill="white"/>
<path d="M27.6664 177.661C26.1686 174.243 24.9822 170.685 24.1227 167.035L22.7633 167.373C23.6274 171.114 24.8377 174.759 26.3771 178.255L27.6664 177.661Z" fill="white"/>
<path d="M22.4059 144.5L21.0439 144.511L21.1171 153.769C21.1229 154.5 21.1286 155.226 21.1343 155.948L22.4963 155.937C22.4907 155.225 22.485 154.513 22.4794 153.801L22.4059 144.5Z" fill="white"/>
<path d="M29.6748 206.019C43.1407 219.708 61.2486 227.25 80.0197 226.988L104.398 226.667C115.955 226.511 127.1 231.162 135.384 239.596C143.668 248.03 148.412 259.557 148.572 271.642L148.993 304.286C157.765 304.217 167.026 304.143 176.233 304.071L175.811 271.313C175.53 251.679 167.815 232.958 154.358 219.254C140.9 205.55 122.799 197.982 104.024 198.21L79.6452 198.545C73.9219 198.622 68.2393 197.52 62.9219 195.301C57.6045 193.081 52.7564 189.789 48.6545 185.611C44.5526 181.434 41.2772 176.453 39.0152 170.952C36.7533 165.452 35.5491 159.541 35.4715 153.556L34.9954 117.423C25.0391 117.501 15.695 117.475 7.75391 117.453L8.23296 153.956C8.4996 173.592 16.2121 192.319 29.6748 206.019Z" fill="#343449"/>
<path d="M30.634 205C43.8265 218.446 61.5813 225.868 79.9955 225.634L104.374 225.313C110.276 225.233 116.137 226.369 121.621 228.657C127.105 230.944 132.105 234.339 136.335 238.647C140.566 242.954 143.944 248.09 146.278 253.762C148.611 259.434 149.854 265.53 149.935 271.702L150.356 304.331L174.872 304.138L174.45 271.38C174.179 252.12 166.613 233.754 153.412 220.311C140.211 206.869 122.453 199.448 104.036 199.677L79.6569 200.012C73.7513 200.09 67.888 198.951 62.4022 196.659C56.9163 194.367 51.9154 190.967 47.6854 186.653C43.4554 182.34 40.0792 177.197 37.7498 171.52C35.4204 165.843 34.1834 159.742 34.1097 153.566L33.6334 117.419C24.7532 117.489 16.3899 117.469 9.11621 117.456L9.59515 153.945C9.86089 173.202 17.4284 191.566 30.634 205Z" fill="white"/>
<path d="M31.5787 203.982C44.5153 217.167 61.9266 224.443 79.9835 224.21L104.362 223.89C116.641 223.724 128.483 228.666 137.285 237.628C146.086 246.589 151.126 258.837 151.296 271.678L151.717 304.321L173.509 304.149L173.087 271.391C172.823 252.511 165.406 234.506 152.465 221.328C139.523 208.15 122.115 200.876 104.06 201.102L79.681 201.437C73.5954 201.518 67.5533 200.345 61.9 197.983C56.2468 195.622 51.0933 192.118 46.7344 187.674C42.3754 183.229 38.8964 177.93 36.4963 172.079C34.0962 166.229 32.8221 159.941 32.7469 153.577L32.2707 117.43L10.4775 117.46L10.9563 153.92C11.2139 172.802 18.6317 190.809 31.5787 203.982Z" fill="#343449"/>
<path d="M112.021 212.22L111.855 213.646C115.423 214.101 118.942 214.913 122.362 216.07L122.787 214.642C119.279 213.481 115.674 212.67 112.021 212.22Z" fill="white"/>
<path d="M101.025 211.842L90.1299 211.989L90.1485 213.414L101.044 213.266L101.025 211.842Z" fill="white"/>
<path d="M40.1508 195.866C37.5417 193.278 35.1749 190.435 33.0827 187.376L31.9723 188.21C34.1204 191.339 36.5469 194.248 39.2192 196.899L40.1508 195.866Z" fill="white"/>
<path d="M141.122 226.875L141.985 225.772C139.158 223.308 136.112 221.134 132.889 219.277L132.231 220.522C135.382 222.338 138.359 224.466 141.122 226.875Z" fill="white"/>
<path d="M47.8971 204.009C50.999 206.086 54.2832 207.849 57.7048 209.273L58.1983 207.945C54.8567 206.557 51.6502 204.837 48.6231 202.807L47.8835 204.01L47.8971 204.009Z" fill="white"/>
<path d="M79.2048 213.533L79.1935 212.109C75.5993 212.124 72.0117 211.78 68.4794 211.083L68.2183 212.509C71.8414 213.214 75.5201 213.557 79.2048 213.533Z" fill="white"/>
<path d="M162.498 265.407C162.085 261.58 161.321 257.804 160.216 254.13L158.857 254.554C159.933 258.141 160.683 261.826 161.096 265.561L162.498 265.407Z" fill="white"/>
<path d="M163.308 304.216L163.272 299.672L161.91 299.683L161.946 304.226L163.308 304.216Z" fill="white"/>
<path d="M162.941 276.857L161.579 276.876L161.736 288.284L163.098 288.265L162.941 276.857Z" fill="white"/>
<path d="M154.716 244.202L155.909 243.524C154.157 240.136 152.097 236.933 149.759 233.957L148.703 234.863C150.988 237.769 153.001 240.896 154.716 244.202Z" fill="white"/>
<path d="M27.6664 177.661C26.1686 174.243 24.9822 170.685 24.1227 167.035L22.7633 167.373C23.6274 171.114 24.8377 174.759 26.3771 178.255L27.6664 177.661Z" fill="white"/>
<path d="M22.4059 144.5L21.0439 144.511L21.1171 153.769C21.1229 154.5 21.1286 155.226 21.1343 155.948L22.4963 155.937C22.4907 155.225 22.485 154.513 22.4794 153.801L22.4059 144.5Z" fill="white"/>
<path d="M29.6748 206.019C43.1407 219.708 61.2486 227.25 80.0197 226.988L104.398 226.667C115.955 226.511 127.1 231.162 135.384 239.596C143.668 248.03 148.412 259.557 148.572 271.642L148.993 304.286C157.765 304.217 167.026 304.143 176.233 304.071L175.811 271.313C175.53 251.679 167.815 232.958 154.358 219.254C140.9 205.55 122.799 197.982 104.024 198.21L79.6452 198.545C73.9219 198.622 68.2393 197.52 62.9219 195.301C57.6045 193.081 52.7564 189.789 48.6545 185.611C44.5526 181.434 41.2772 176.453 39.0152 170.952C36.7533 165.452 35.5491 159.541 35.4715 153.556L34.9954 117.423C25.0391 117.501 15.695 117.475 7.75391 117.453L8.23296 153.956C8.4996 173.592 16.2121 192.319 29.6748 206.019Z" fill="#343449"/>
<path d="M30.634 205C43.8265 218.446 61.5813 225.868 79.9955 225.634L104.374 225.313C110.276 225.233 116.137 226.369 121.621 228.657C127.105 230.944 132.105 234.339 136.335 238.647C140.566 242.954 143.944 248.09 146.278 253.762C148.611 259.434 149.854 265.53 149.935 271.702L150.356 304.331L174.872 304.138L174.45 271.38C174.179 252.12 166.613 233.754 153.412 220.311C140.211 206.869 122.453 199.448 104.036 199.677L79.6569 200.012C73.7513 200.09 67.888 198.951 62.4022 196.659C56.9163 194.367 51.9154 190.967 47.6854 186.653C43.4554 182.34 40.0792 177.197 37.7498 171.52C35.4204 165.843 34.1834 159.742 34.1097 153.566L33.6334 117.419C24.7532 117.489 16.3899 117.469 9.11621 117.456L9.59515 153.945C9.86089 173.202 17.4284 191.566 30.634 205Z" fill="white"/>
<path d="M31.5787 203.982C44.5153 217.167 61.9266 224.443 79.9835 224.21L104.362 223.89C116.641 223.724 128.483 228.666 137.285 237.628C146.086 246.589 151.126 258.837 151.296 271.678L151.717 304.321L173.509 304.149L173.087 271.391C172.823 252.511 165.406 234.506 152.465 221.328C139.523 208.15 122.115 200.876 104.06 201.102L79.681 201.437C73.5954 201.518 67.5533 200.345 61.9 197.983C56.2468 195.622 51.0933 192.118 46.7344 187.674C42.3754 183.229 38.8964 177.93 36.4963 172.079C34.0962 166.229 32.8221 159.941 32.7469 153.577L32.2707 117.43L10.4775 117.46L10.9563 153.92C11.2139 172.802 18.6317 190.809 31.5787 203.982Z" fill="#343449"/>
<path d="M112.021 212.22L111.855 213.646C115.423 214.101 118.942 214.913 122.362 216.07L122.787 214.642C119.279 213.481 115.674 212.67 112.021 212.22Z" fill="white"/>
<path d="M101.025 211.842L90.1299 211.989L90.1485 213.414L101.044 213.266L101.025 211.842Z" fill="white"/>
<path d="M141.122 226.875L141.985 225.772C139.158 223.308 136.112 221.134 132.889 219.277L132.231 220.522C135.382 222.338 138.359 224.466 141.122 226.875Z" fill="white"/>
<path d="M40.1508 195.866C37.5417 193.278 35.1749 190.435 33.0827 187.376L31.9723 188.21C34.1204 191.339 36.5469 194.248 39.2192 196.899L40.1508 195.866Z" fill="white"/>
<path d="M79.2048 213.533L79.1935 212.109C75.5993 212.124 72.0117 211.78 68.4794 211.083L68.2183 212.509C71.8414 213.214 75.5201 213.557 79.2048 213.533Z" fill="white"/>
<path d="M47.8971 204.009C50.999 206.086 54.2832 207.849 57.7048 209.273L58.1983 207.945C54.8567 206.557 51.6502 204.837 48.6231 202.807L47.8835 204.01L47.8971 204.009Z" fill="white"/>
<path d="M154.716 244.202L155.909 243.524C154.157 240.136 152.097 236.933 149.759 233.957L148.703 234.863C150.988 237.769 153.001 240.896 154.716 244.202Z" fill="white"/>
<path d="M162.498 265.407C162.085 261.58 161.321 257.804 160.216 254.13L158.857 254.554C159.933 258.141 160.683 261.826 161.096 265.561L162.498 265.407Z" fill="white"/>
<path d="M163.308 304.216L163.272 299.672L161.91 299.683L161.946 304.226L163.308 304.216Z" fill="white"/>
<path d="M162.941 276.857L161.579 276.876L161.736 288.284L163.098 288.265L162.941 276.857Z" fill="white"/>
<path d="M22.4059 144.5L21.0439 144.511L21.1171 153.769C21.1229 154.5 21.1286 155.226 21.1343 155.948L22.4963 155.937C22.4907 155.225 22.485 154.513 22.4794 153.801L22.4059 144.5Z" fill="white"/>
<path d="M27.6664 177.661C26.1686 174.243 24.9822 170.685 24.1227 167.035L22.7633 167.373C23.6274 171.114 24.8377 174.759 26.3771 178.255L27.6664 177.661Z" fill="white"/>
<path d="M29.6748 206.019C43.1407 219.708 61.2486 227.25 80.0197 226.988L104.398 226.667C115.955 226.511 127.1 231.162 135.384 239.596C143.668 248.03 148.412 259.557 148.572 271.642L148.993 304.286C157.765 304.217 167.026 304.143 176.233 304.071L175.811 271.313C175.53 251.679 167.815 232.958 154.358 219.254C140.9 205.55 122.799 197.982 104.024 198.21L79.6452 198.545C73.9219 198.622 68.2393 197.52 62.9219 195.301C57.6045 193.081 52.7564 189.789 48.6545 185.611C44.5526 181.434 41.2772 176.453 39.0152 170.952C36.7533 165.452 35.5491 159.541 35.4715 153.556L34.9954 117.423C25.0391 117.501 15.695 117.475 7.75391 117.453L8.23296 153.956C8.4996 173.592 16.2121 192.319 29.6748 206.019Z" fill="#343449"/>
<path d="M30.634 205C43.8265 218.446 61.5813 225.868 79.9955 225.634L104.374 225.313C110.276 225.233 116.137 226.369 121.621 228.657C127.105 230.944 132.105 234.339 136.335 238.647C140.566 242.954 143.944 248.09 146.278 253.762C148.611 259.434 149.854 265.53 149.935 271.702L150.356 304.331L174.872 304.138L174.45 271.38C174.179 252.12 166.613 233.754 153.412 220.311C140.211 206.869 122.453 199.448 104.036 199.677L79.6569 200.012C73.7513 200.09 67.888 198.951 62.4022 196.659C56.9163 194.367 51.9154 190.967 47.6854 186.653C43.4554 182.34 40.0792 177.197 37.7498 171.52C35.4204 165.843 34.1834 159.742 34.1097 153.566L33.6334 117.419C24.7532 117.489 16.3899 117.469 9.11621 117.456L9.59515 153.945C9.86089 173.202 17.4284 191.566 30.634 205Z" fill="white"/>
<path d="M31.5787 203.982C44.5153 217.167 61.9266 224.443 79.9835 224.21L104.362 223.89C116.641 223.724 128.483 228.666 137.285 237.628C146.086 246.589 151.126 258.837 151.296 271.678L151.717 304.321L173.509 304.149L173.087 271.391C172.823 252.511 165.406 234.506 152.465 221.328C139.523 208.15 122.115 200.876 104.06 201.102L79.681 201.437C73.5954 201.518 67.5533 200.345 61.9 197.983C56.2468 195.622 51.0933 192.118 46.7344 187.674C42.3754 183.229 38.8964 177.93 36.4963 172.079C34.0962 166.229 32.8221 159.941 32.7469 153.577L32.2707 117.43L10.4775 117.46L10.9563 153.92C11.2139 172.802 18.6317 190.809 31.5787 203.982Z" fill="#343449"/>
<path d="M101.025 211.842L90.1299 211.989L90.1485 213.414L101.044 213.266L101.025 211.842Z" fill="white"/>
<path d="M112.021 212.22L111.855 213.646C115.423 214.101 118.942 214.913 122.362 216.07L122.787 214.642C119.279 213.481 115.674 212.67 112.021 212.22Z" fill="white"/>
<path d="M40.1508 195.866C37.5417 193.278 35.1749 190.435 33.0827 187.376L31.9723 188.21C34.1204 191.339 36.5469 194.248 39.2192 196.899L40.1508 195.866Z" fill="white"/>
<path d="M141.122 226.875L141.985 225.772C139.158 223.308 136.112 221.134 132.889 219.277L132.231 220.522C135.382 222.338 138.359 224.466 141.122 226.875Z" fill="white"/>
<path d="M47.8971 204.009C50.999 206.086 54.2832 207.849 57.7048 209.273L58.1983 207.945C54.8567 206.557 51.6502 204.837 48.6231 202.807L47.8835 204.01L47.8971 204.009Z" fill="white"/>
<path d="M79.2048 213.533L79.1935 212.109C75.5993 212.124 72.0117 211.78 68.4794 211.083L68.2183 212.509C71.8414 213.214 75.5201 213.557 79.2048 213.533Z" fill="white"/>
<path d="M154.716 244.202L155.909 243.524C154.157 240.136 152.097 236.933 149.759 233.957L148.703 234.863C150.988 237.769 153.001 240.896 154.716 244.202Z" fill="white"/>
<path d="M162.498 265.407C162.085 261.58 161.321 257.804 160.216 254.13L158.857 254.554C159.933 258.141 160.683 261.826 161.096 265.561L162.498 265.407Z" fill="white"/>
<path d="M162.941 276.857L161.579 276.876L161.736 288.284L163.098 288.265L162.941 276.857Z" fill="white"/>
<path d="M163.308 304.216L163.272 299.672L161.91 299.683L161.946 304.226L163.308 304.216Z" fill="white"/>
<path d="M27.6664 177.661C26.1686 174.243 24.9822 170.685 24.1227 167.035L22.7633 167.373C23.6274 171.114 24.8377 174.759 26.3771 178.255L27.6664 177.661Z" fill="white"/>
<path d="M22.4059 144.5L21.0439 144.511L21.1171 153.769C21.1229 154.5 21.1286 155.226 21.1343 155.948L22.4963 155.937C22.4907 155.225 22.485 154.513 22.4794 153.801L22.4059 144.5Z" fill="white"/>
<path d="M29.6748 206.019C43.1407 219.708 61.2486 227.25 80.0197 226.988L104.398 226.667C115.955 226.511 127.1 231.162 135.384 239.596C143.668 248.03 148.412 259.557 148.572 271.642L148.993 304.286C157.765 304.217 167.026 304.143 176.233 304.071L175.811 271.313C175.53 251.679 167.815 232.958 154.358 219.254C140.9 205.55 122.799 197.982 104.024 198.21L79.6452 198.545C73.9219 198.622 68.2393 197.52 62.9219 195.301C57.6045 193.081 52.7564 189.789 48.6545 185.611C44.5526 181.434 41.2772 176.453 39.0152 170.952C36.7533 165.452 35.5491 159.541 35.4715 153.556L34.9954 117.423C25.0391 117.501 15.695 117.475 7.75391 117.453L8.23296 153.956C8.4996 173.592 16.2121 192.319 29.6748 206.019Z" fill="#343449"/>
<path d="M30.634 205C43.8265 218.446 61.5813 225.868 79.9955 225.634L104.374 225.313C110.276 225.233 116.137 226.369 121.621 228.657C127.105 230.944 132.105 234.339 136.335 238.647C140.566 242.954 143.944 248.09 146.278 253.762C148.611 259.434 149.854 265.53 149.935 271.702L150.356 304.331L174.872 304.138L174.45 271.38C174.179 252.12 166.613 233.754 153.412 220.311C140.211 206.869 122.453 199.448 104.036 199.677L79.6569 200.012C73.7513 200.09 67.888 198.951 62.4022 196.659C56.9163 194.367 51.9154 190.967 47.6854 186.653C43.4554 182.34 40.0792 177.197 37.7498 171.52C35.4204 165.843 34.1834 159.742 34.1097 153.566L33.6334 117.419C24.7532 117.489 16.3899 117.469 9.11621 117.456L9.59515 153.945C9.86089 173.202 17.4284 191.566 30.634 205Z" fill="white"/>
<path d="M31.5787 203.982C44.5153 217.167 61.9266 224.443 79.9835 224.21L104.362 223.89C116.641 223.724 128.483 228.666 137.285 237.628C146.086 246.589 151.126 258.837 151.296 271.678L151.717 304.321L173.509 304.149L173.087 271.391C172.823 252.511 165.406 234.506 152.465 221.328C139.523 208.15 122.115 200.876 104.06 201.102L79.681 201.437C73.5954 201.518 67.5533 200.345 61.9 197.983C56.2468 195.622 51.0933 192.118 46.7344 187.674C42.3754 183.229 38.8964 177.93 36.4963 172.079C34.0962 166.229 32.8221 159.941 32.7469 153.577L32.2707 117.43L10.4775 117.46L10.9563 153.92C11.2139 172.802 18.6317 190.809 31.5787 203.982Z" fill="#343449"/>
<path d="M112.021 212.22L111.855 213.646C115.423 214.101 118.942 214.913 122.362 216.07L122.787 214.642C119.279 213.481 115.674 212.67 112.021 212.22Z" fill="white"/>
<path d="M101.025 211.842L90.1299 211.989L90.1485 213.414L101.044 213.266L101.025 211.842Z" fill="white"/>
<path d="M141.122 226.875L141.985 225.772C139.158 223.308 136.112 221.134 132.889 219.277L132.231 220.522C135.382 222.338 138.359 224.466 141.122 226.875Z" fill="white"/>
<path d="M40.1508 195.866C37.5417 193.278 35.1749 190.435 33.0827 187.376L31.9723 188.21C34.1204 191.339 36.5469 194.248 39.2192 196.899L40.1508 195.866Z" fill="white"/>
<path d="M47.8971 204.009C50.999 206.086 54.2832 207.849 57.7048 209.273L58.1983 207.945C54.8567 206.557 51.6502 204.837 48.6231 202.807L47.8835 204.01L47.8971 204.009Z" fill="white"/>
<path d="M79.2048 213.533L79.1935 212.109C75.5993 212.124 72.0117 211.78 68.4794 211.083L68.2183 212.509C71.8414 213.214 75.5201 213.557 79.2048 213.533Z" fill="white"/>
<path d="M154.716 244.202L155.909 243.524C154.157 240.136 152.097 236.933 149.759 233.957L148.703 234.863C150.988 237.769 153.001 240.896 154.716 244.202Z" fill="white"/>
<path d="M162.498 265.407C162.085 261.58 161.321 257.804 160.216 254.13L158.857 254.554C159.933 258.141 160.683 261.826 161.096 265.561L162.498 265.407Z" fill="white"/>
<path d="M163.308 304.216L163.272 299.672L161.91 299.683L161.946 304.226L163.308 304.216Z" fill="white"/>
<path d="M162.941 276.857L161.579 276.876L161.736 288.284L163.098 288.265L162.941 276.857Z" fill="white"/>
<path d="M22.4059 144.5L21.0439 144.511L21.1171 153.769C21.1229 154.5 21.1286 155.226 21.1343 155.948L22.4963 155.937C22.4907 155.225 22.485 154.513 22.4794 153.801L22.4059 144.5Z" fill="white"/>
<path d="M27.6664 177.661C26.1686 174.243 24.9822 170.685 24.1227 167.035L22.7633 167.373C23.6274 171.114 24.8377 174.759 26.3771 178.255L27.6664 177.661Z" fill="white"/>
<path d="M29.6748 206.019C43.1407 219.708 61.2486 227.25 80.0197 226.988L104.398 226.667C115.955 226.511 127.1 231.162 135.384 239.596C143.668 248.03 148.412 259.557 148.572 271.642L148.993 304.286C157.765 304.217 167.026 304.143 176.233 304.071L175.811 271.313C175.53 251.679 167.815 232.958 154.358 219.254C140.9 205.55 122.799 197.982 104.024 198.21L79.6452 198.545C73.9219 198.622 68.2393 197.52 62.9219 195.301C57.6045 193.081 52.7564 189.789 48.6545 185.611C44.5526 181.434 41.2772 176.453 39.0152 170.952C36.7533 165.452 35.5491 159.541 35.4715 153.556L34.9954 117.423C25.0391 117.501 15.695 117.475 7.75391 117.453L8.23296 153.956C8.4996 173.592 16.2121 192.319 29.6748 206.019Z" fill="#343449"/>
<path d="M30.634 205C43.8265 218.446 61.5813 225.868 79.9955 225.634L104.374 225.313C110.276 225.233 116.137 226.369 121.621 228.657C127.105 230.944 132.105 234.339 136.335 238.647C140.566 242.954 143.944 248.09 146.278 253.762C148.611 259.434 149.854 265.53 149.935 271.702L150.356 304.331L174.872 304.138L174.45 271.38C174.179 252.12 166.613 233.754 153.412 220.311C140.211 206.869 122.453 199.448 104.036 199.677L79.6569 200.012C73.7513 200.09 67.888 198.951 62.4022 196.659C56.9163 194.367 51.9154 190.967 47.6854 186.653C43.4554 182.34 40.0792 177.197 37.7498 171.52C35.4204 165.843 34.1834 159.742 34.1097 153.566L33.6334 117.419C24.7532 117.489 16.3899 117.469 9.11621 117.456L9.59515 153.945C9.86089 173.202 17.4284 191.566 30.634 205Z" fill="white"/>
<path d="M31.5787 203.982C44.5153 217.167 61.9266 224.443 79.9835 224.21L104.362 223.89C116.641 223.724 128.483 228.666 137.285 237.628C146.086 246.589 151.126 258.837 151.296 271.678L151.717 304.321L173.509 304.149L173.087 271.391C172.823 252.511 165.406 234.506 152.465 221.328C139.523 208.15 122.115 200.876 104.06 201.102L79.681 201.437C73.5954 201.518 67.5533 200.345 61.9 197.983C56.2468 195.622 51.0933 192.118 46.7344 187.674C42.3754 183.229 38.8964 177.93 36.4963 172.079C34.0962 166.229 32.8221 159.941 32.7469 153.577L32.2707 117.43L10.4775 117.46L10.9563 153.92C11.2139 172.802 18.6317 190.809 31.5787 203.982Z" fill="#343449"/>
<path d="M112.021 212.22L111.855 213.646C115.423 214.101 118.942 214.913 122.362 216.07L122.787 214.642C119.279 213.481 115.674 212.67 112.021 212.22Z" fill="white"/>
<path d="M101.025 211.842L90.1299 211.989L90.1485 213.414L101.044 213.266L101.025 211.842Z" fill="white"/>
<path d="M40.1508 195.866C37.5417 193.278 35.1749 190.435 33.0827 187.376L31.9723 188.21C34.1204 191.339 36.5469 194.248 39.2192 196.899L40.1508 195.866Z" fill="white"/>
<path d="M141.122 226.875L141.985 225.772C139.158 223.308 136.112 221.134 132.889 219.277L132.231 220.522C135.382 222.338 138.359 224.466 141.122 226.875Z" fill="white"/>
<path d="M47.8971 204.009C50.999 206.086 54.2832 207.849 57.7048 209.273L58.1983 207.945C54.8567 206.557 51.6502 204.837 48.6231 202.807L47.8835 204.01L47.8971 204.009Z" fill="white"/>
<path d="M79.2048 213.533L79.1935 212.109C75.5993 212.124 72.0117 211.78 68.4794 211.083L68.2183 212.509C71.8414 213.214 75.5201 213.557 79.2048 213.533Z" fill="white"/>
<path d="M154.716 244.202L155.909 243.524C154.157 240.136 152.097 236.933 149.759 233.957L148.703 234.863C150.988 237.769 153.001 240.896 154.716 244.202Z" fill="white"/>
<path d="M162.498 265.407C162.085 261.58 161.321 257.804 160.216 254.13L158.857 254.554C159.933 258.141 160.683 261.826 161.096 265.561L162.498 265.407Z" fill="white"/>
<path d="M162.941 276.857L161.579 276.876L161.736 288.284L163.098 288.265L162.941 276.857Z" fill="white"/>
<path d="M163.308 304.216L163.272 299.672L161.91 299.683L161.946 304.226L163.308 304.216Z" fill="white"/>
<path d="M22.4059 144.5L21.0439 144.511L21.1171 153.769C21.1229 154.5 21.1286 155.226 21.1343 155.948L22.4963 155.937C22.4907 155.225 22.485 154.513 22.4794 153.801L22.4059 144.5Z" fill="white"/>
<path d="M27.6664 177.661C26.1686 174.243 24.9822 170.685 24.1227 167.035L22.7633 167.373C23.6274 171.114 24.8377 174.759 26.3771 178.255L27.6664 177.661Z" fill="white"/>
<rect x="100.209" y="174.724" width="92" height="145" transform="rotate(-0.452598 100.209 174.724)" fill="white"/>
<path d="M171.465 235.817C179.955 243.669 184.949 254.528 185.353 266.017L188.214 351.322C188.408 357.017 187.464 362.694 185.437 368.029C183.41 373.365 180.339 378.254 176.4 382.416C172.461 386.579 167.73 389.933 162.479 392.288C157.229 394.643 151.56 395.952 145.799 396.141L123.085 396.9C124.229 405.881 125.208 414.88 125.819 423.93L146.71 423.235C165.595 422.58 183.45 414.549 196.362 400.904C209.273 387.258 216.187 369.113 215.586 350.445L212.725 265.14C212.078 246.479 203.972 228.838 190.184 216.083C176.396 203.327 158.05 196.499 139.169 197.094L98.7559 198.445C98.4751 207.493 98.2368 217.707 98.1204 226.75L140.115 225.919C151.736 225.545 162.967 227.979 171.465 235.817Z" fill="#343449"/>
<path d="M172.424 234.828C181.183 242.918 186.331 254.118 186.736 265.965L189.597 351.27C189.798 357.144 188.825 363.001 186.734 368.505C184.642 374.009 181.474 379.052 177.409 383.346C173.345 387.639 168.464 391.099 163.046 393.527C157.629 395.955 151.781 397.303 145.837 397.495L124.672 398.211L125.356 422.588L146.645 421.882C165.167 421.244 182.682 413.369 195.347 399.987C208.012 386.605 214.793 368.807 214.202 350.498L211.341 265.192C210.712 246.889 202.764 229.585 189.242 217.073C175.72 204.561 157.726 197.863 139.207 198.448L98.7116 199.802C98.4739 207.941 98.2773 216.078 98.1903 224.212L140.028 222.808C152.014 222.409 163.667 226.733 172.424 234.828Z" fill="white"/>
<path d="M173.357 233.839C177.83 237.97 181.435 242.933 183.967 248.443C186.498 253.953 187.905 259.903 188.107 265.953L190.969 351.258C191.171 357.309 190.165 363.34 188.007 369.007C185.85 374.674 182.584 379.866 178.396 384.286C174.208 388.706 169.18 392.268 163.6 394.766C158.02 397.265 151.997 398.653 145.875 398.849L121.354 399.673L121.217 399.677C121.652 406.889 121.964 414.104 122.195 421.335L146.593 420.514C164.753 419.89 181.926 412.17 194.342 399.048C206.758 385.926 213.403 368.474 212.819 350.523L209.958 265.218C209.338 247.28 201.548 230.321 188.296 218.059C175.043 205.797 157.409 199.231 139.259 199.802L98.6679 201.159C98.4595 208.388 98.2926 215.63 98.2075 222.857L139.976 221.454C152.327 221.043 164.334 225.498 173.357 233.839Z" fill="#343449"/>
<path d="M190.974 239.607C192.744 242.715 194.213 245.982 195.361 249.364L196.638 248.921C195.459 245.471 193.946 242.142 192.122 238.978L190.974 239.607Z" fill="white"/>
<path d="M199.723 265.532C199.656 263.546 199.486 261.565 199.214 259.597L197.848 259.784C198.103 261.701 198.267 263.635 198.34 265.585L198.478 270.528L199.862 270.489L199.723 265.532Z" fill="white"/>
<path d="M195.358 377.713L196.595 378.315C198.24 375.035 199.568 371.608 200.559 368.08L199.178 367.726C198.231 371.168 196.952 374.513 195.358 377.713Z" fill="white"/>
<path d="M199.284 292.2L200.654 292.155L200.29 281.309L198.92 281.355L199.284 292.2Z" fill="white"/>
<path d="M200.698 335.583L202.068 335.537L201.704 324.691L200.335 324.737L200.698 335.583Z" fill="white"/>
<path d="M199.998 313.892L201.368 313.846L201.004 303L199.634 303.046L199.998 313.892Z" fill="white"/>
<path d="M202.464 357.292C202.637 355.149 202.686 352.998 202.612 350.85L202.487 346.381L201.117 346.419L201.242 350.902C201.313 352.996 201.266 355.092 201.103 357.181L202.464 357.292Z" fill="white"/>
<path d="M96.5029 211.865C96.5158 212.325 96.5283 212.772 96.5409 213.219L101.597 213.077L101.559 211.723L96.5029 211.865Z" fill="white"/>
<path d="M142.46 409.097L142.498 410.451L146.307 410.344C148.721 410.267 151.128 410.041 153.514 409.667L153.298 408.318C150.966 408.679 148.614 408.899 146.255 408.976L142.46 409.097Z" fill="white"/>
<path d="M136.334 211.391L139.636 211.298C142.164 211.213 144.694 211.292 147.212 211.533L147.338 210.174C144.766 209.923 142.18 209.842 139.597 209.931L136.295 210.023L136.334 211.391Z" fill="white"/>
<path d="M157.828 213.58C161.293 214.602 164.651 215.951 167.855 217.608L168.493 216.411C165.209 214.715 161.767 213.332 158.217 212.281L157.828 213.58Z" fill="white"/>
<path d="M120.514 409.835L120.552 411.189L121.757 411.155L131.499 410.882L131.461 409.527L121.719 409.801L120.514 409.835Z" fill="white"/>
<path d="M114.341 212.136L125.313 211.769L125.268 210.415L114.295 210.782L114.341 212.136Z" fill="white"/>
<path d="M163.795 405.624L164.257 406.967C167.741 405.717 171.094 404.138 174.272 402.254L173.568 401.094C170.462 402.907 167.19 404.424 163.795 405.624Z" fill="white"/>
<path d="M182.287 394.683L183.206 395.687C185.964 393.24 188.482 390.542 190.727 387.629L189.635 386.819C187.444 389.665 184.983 392.298 182.287 394.683Z" fill="white"/>
<path d="M176.931 223.439C179.761 225.663 182.37 228.15 184.722 230.864L185.767 229.981C183.356 227.202 180.681 224.659 177.779 222.385L176.931 223.439Z" fill="white"/>
<path d="M-81.7751 405.549C-81.7232 410.966 -81.6889 417.277 -81.671 424.156L125.025 423.902L124.966 396.818L-81.4732 397.128C-81.4841 400.134 -81.6807 403.139 -81.7751 405.549Z" fill="#343449"/>
<path d="M-81.7751 405.549C-81.7933 410.601 -81.7 416.383 -81.6804 422.816L125.03 422.548L124.975 398.172L-81.4781 398.482C-81.4873 401.028 -81.6962 403.491 -81.7751 405.549Z" fill="white"/>
<path d="M-81.7744 405.55C-81.7914 410.249 -81.6966 415.625 -81.6891 421.462L125.021 421.193L124.971 399.526L-81.4824 399.836C-81.5898 401.894 -81.6969 403.871 -81.7744 405.55Z" fill="#343449"/>
<path d="M119.286 411.043L125 411.064L125.005 409.71L119.291 409.689L119.286 411.043Z" fill="white"/>
<path d="M39.276 411.261L39.2666 409.907L27.8246 409.974L27.8339 411.328L39.276 411.261Z" fill="white"/>
<path d="M62.1588 411.208L62.1494 409.854L50.7074 409.921L50.7168 411.276L62.1588 411.208Z" fill="white"/>
<path d="M16.4078 411.369L16.3984 410.014L4.9564 410.081L4.96578 411.436L16.4078 411.369Z" fill="white"/>
<path d="M85.0416 411.142L85.0322 409.788L73.5902 409.855L73.5996 411.209L85.0416 411.142Z" fill="white"/>
<path d="M107.851 411.059L107.849 409.705L96.4069 409.722L96.4098 411.077L107.851 411.059Z" fill="white"/>
<rect x="14.8369" y="1.39323" width="12" height="90" transform="rotate(-0.452598 14.8369 1.39323)" fill="#343449"/>
<rect x="9.53223" y="89.4379" width="23" height="3.5" transform="rotate(-0.452598 9.53223 89.4379)" fill="white"/>
<path d="M16.6494 152.384C22.1453 152.262 28.5481 152.149 35.5283 152.048L32.7313 -73.2923L5.25038 -72.9039L8.1001 152.155C11.1506 152.131 14.2028 152.309 16.6494 152.384Z" fill="#343449"/>
<path d="M16.6493 152.384C21.7748 152.343 27.6413 152.172 34.1679 152.074L31.3571 -73.2815L6.62428 -72.9303L9.47413 152.144C12.0575 152.124 14.5601 152.322 16.6493 152.384Z" fill="white"/>
<path d="M16.6491 152.383C21.4173 152.345 26.8715 152.177 32.7937 152.099L29.9829 -73.2561L7.99818 -72.9422L10.848 152.132C12.9375 152.225 14.9446 152.318 16.6491 152.383Z" fill="#343449"/>
<path d="M32 91.3641L32 89.9899L10 89.9346L10 91.3089L32 91.3641Z" fill="white"/>
<path d="M21.787 95.2185L20.4131 95.2482L20.6439 107.705L22.0177 107.675L21.787 95.2185Z" fill="white"/>
<path d="M22.0898 120.165L20.7158 120.189L20.9104 132.662L22.2844 132.638L22.0898 120.165Z" fill="white"/>
<path d="M22.5302 152.259L22.4737 145.111L21.0996 145.122L21.1562 152.286L22.5302 152.259Z" fill="white"/>
<rect width="0.25" height="6" transform="matrix(-0.999969 0.00789924 0.00789924 0.999969 28.0947 2.28853)" fill="white"/>
<rect width="0.25" height="6" transform="matrix(-0.999969 0.00789924 0.00789924 0.999969 24.0947 2.32012)" fill="white"/>
<rect width="4.25" height="0.25" transform="matrix(-0.999969 0.00789924 0.00789924 0.999969 28.1426 8.28834)" fill="white"/>
<rect width="0.25" height="6" transform="matrix(-0.999969 0.00789924 0.00789924 0.999969 16.1191 5.38322)" fill="white"/>
<rect width="0.25" height="6" transform="matrix(-0.999969 0.00789924 0.00789924 0.999969 12.1191 5.41482)" fill="white"/>
<rect width="4.25" height="0.25" transform="matrix(-0.999969 0.00789924 0.00789924 0.999969 16.167 11.383)" fill="white"/>
<rect width="0.25" height="6" transform="matrix(-0.999969 0.00789924 0.00789924 0.999969 28.1973 15.2881)" fill="white"/>
<rect width="0.25" height="6" transform="matrix(-0.999969 0.00789924 0.00789924 0.999969 24.1973 15.3197)" fill="white"/>
<rect width="4.25" height="0.25" transform="matrix(-0.999969 0.00789924 0.00789924 0.999969 28.2451 21.2879)" fill="white"/>
<rect width="0.25" height="6" transform="matrix(-0.999969 0.00789924 0.00789924 0.999969 28.2998 28.2877)" fill="white"/>
<rect width="0.25" height="6" transform="matrix(-0.999969 0.00789924 0.00789924 0.999969 24.2998 28.3193)" fill="white"/>
<rect width="4.25" height="0.25" transform="matrix(-0.999969 0.00789924 0.00789924 0.999969 28.3477 34.2875)" fill="white"/>
<rect width="0.25" height="6" transform="matrix(-0.999969 0.00789924 0.00789924 0.999969 16.3398 33.3824)" fill="white"/>
<rect width="0.25" height="6" transform="matrix(-0.999969 0.00789924 0.00789924 0.999969 12.3398 33.414)" fill="white"/>
<rect width="4.25" height="0.25" transform="matrix(-0.999969 0.00789924 0.00789924 0.999969 16.3877 39.3822)" fill="white"/>
<rect width="0.25" height="6" transform="matrix(-0.999969 0.00789924 0.00789924 0.999969 28.4023 41.2873)" fill="white"/>
<rect width="0.25" height="6" transform="matrix(-0.999969 0.00789924 0.00789924 0.999969 24.4023 41.3189)" fill="white"/>
<rect width="4.25" height="0.25" transform="matrix(-0.999969 0.00789924 0.00789924 0.999969 28.4502 47.2871)" fill="white"/>
<rect width="0.25" height="6" transform="matrix(-0.999969 0.00789924 0.00789924 0.999969 16.4502 47.3819)" fill="white"/>
<rect width="0.25" height="6" transform="matrix(-0.999969 0.00789924 0.00789924 0.999969 12.4502 47.4135)" fill="white"/>
<rect width="4.25" height="0.25" transform="matrix(-0.999969 0.00789924 0.00789924 0.999969 16.498 53.3817)" fill="white"/>
<rect width="0.25" height="6" transform="matrix(-0.999969 0.00789924 0.00789924 0.999969 28.5059 54.2869)" fill="white"/>
<rect width="0.25" height="6" transform="matrix(-0.999969 0.00789924 0.00789924 0.999969 24.5059 54.3185)" fill="white"/>
<rect width="4.25" height="0.25" transform="matrix(-0.999969 0.00789924 0.00789924 0.999969 28.5537 60.2867)" fill="white"/>
<rect width="0.25" height="6" transform="matrix(-0.999969 0.00789924 0.00789924 0.999969 16.5615 61.3815)" fill="white"/>
<rect width="0.25" height="6" transform="matrix(-0.999969 0.00789924 0.00789924 0.999969 12.5615 61.4131)" fill="white"/>
<rect width="4.25" height="0.25" transform="matrix(-0.999969 0.00789924 0.00789924 0.999969 16.6094 67.3813)" fill="white"/>
<rect width="0.25" height="6" transform="matrix(-0.999969 0.00789924 0.00789924 0.999969 16.6719 75.381)" fill="white"/>
<rect width="0.25" height="6" transform="matrix(-0.999969 0.00789924 0.00789924 0.999969 12.6719 75.4126)" fill="white"/>
<rect width="4.25" height="0.25" transform="matrix(-0.999969 0.00789924 0.00789924 0.999969 16.7197 81.3809)" fill="white"/>
<rect width="0.25" height="6" transform="matrix(-0.999969 0.00789924 0.00789924 0.999969 28.6084 67.2865)" fill="white"/>
<rect width="0.25" height="6" transform="matrix(-0.999969 0.00789924 0.00789924 0.999969 24.6084 67.3181)" fill="white"/>
<rect width="4.25" height="0.25" transform="matrix(-0.999969 0.00789924 0.00789924 0.999969 28.6562 73.2863)" fill="white"/>
<rect width="0.25" height="6" transform="matrix(-0.999969 0.00789924 0.00789924 0.999969 28.7109 80.2861)" fill="white"/>
<rect width="0.25" height="6" transform="matrix(-0.999969 0.00789924 0.00789924 0.999969 24.7109 80.3177)" fill="white"/>
<rect width="4.25" height="0.25" transform="matrix(-0.999969 0.00789924 0.00789924 0.999969 28.7588 86.2859)" fill="white"/>
<rect width="0.25" height="6" transform="matrix(-0.999969 0.00789924 0.00789924 0.999969 16.2295 19.3828)" fill="white"/>
<rect width="0.25" height="6" transform="matrix(-0.999969 0.00789924 0.00789924 0.999969 12.2295 19.4144)" fill="white"/>
<rect width="4.25" height="0.25" transform="matrix(-0.999969 0.00789924 0.00789924 0.999969 16.2773 25.3826)" fill="white"/>
</svg>
