<svg width="62" height="65" viewBox="0 0 62 65" fill="none" xmlns="http://www.w3.org/2000/svg">
<path d="M19.5439 54.4876C19.5439 54.0311 19.7207 53.5934 20.0354 53.2706C20.35 52.9478 20.7768 52.7665 21.2218 52.7665" stroke="#A616D4" stroke-width="2" stroke-miterlimit="10"/>
<path d="M4.43359 56.2095L23.3302 63.1313C26.3158 64.2258 29.5685 64.2877 32.5916 63.3076L59.8217 54.4876C58.8501 52.993 57.4365 51.8578 55.7887 51.2493C54.141 50.6407 52.3462 50.5908 50.6688 51.1071L39.682 54.4876L32.9687 52.7666" stroke="#A616D4" stroke-width="2" stroke-miterlimit="10"/>
<path d="M1 48.0612C2.77735 45.9537 5.0787 44.3803 7.65898 43.5083C10.9889 42.3701 21.8314 43.611 26.2268 45.8652L26.2561 45.8798H34.4679C35.2849 45.8613 36.0823 46.1381 36.7204 46.662C37.3585 47.1858 37.7966 47.9232 37.958 48.745C38.0398 49.2391 38.0154 49.7457 37.8868 50.2292C37.7581 50.7127 37.5281 51.1616 37.2129 51.5445C36.8977 51.9275 36.5048 52.2353 36.0617 52.4465C35.6186 52.6577 35.1358 52.7672 34.6472 52.7674H21.2207" stroke="#A616D4" stroke-width="2" stroke-miterlimit="10"/>
<path d="M47.3424 18.5044C48.1281 20.4499 48.3337 22.5906 47.9332 24.656C47.5326 26.7213 46.544 28.6184 45.0923 30.1075C43.6406 31.5965 41.791 32.6106 39.7775 33.0214C37.7639 33.4323 35.6768 33.2214 33.78 32.4155C31.8833 31.6097 30.2621 30.2451 29.1215 28.4942C27.9809 26.7432 27.3721 24.6847 27.3721 22.5789C27.3721 20.4731 27.9809 18.4146 29.1215 16.6636C30.262 14.9127 31.8832 13.548 33.7799 12.7422C35.0393 12.2071 36.3892 11.9317 37.7523 11.9317C39.1155 11.9317 40.4653 12.2071 41.7247 12.7422C42.9841 13.2772 44.1284 14.0614 45.0923 15.0501C46.0562 16.0388 46.8208 17.2126 47.3424 18.5044V18.5044Z" stroke="#A616D4" stroke-width="2" stroke-miterlimit="10"/>
<path d="M57.8143 16.6156L56.0488 12.244L49.9739 13.687C48.9988 12.2758 47.7969 11.045 46.4195 10.0472L47.8271 3.81087L43.5652 2L40.2611 7.4301C38.5989 7.13871 36.9005 7.13871 35.2382 7.4301L31.9375 2.00345L27.6748 3.81432L29.0824 10.0455C27.7065 11.0459 26.5064 12.2787 25.533 13.6913L19.453 12.2475L17.6875 16.619L22.9823 20.008C22.6968 21.7124 22.6954 23.4542 22.9782 25.1592L17.6875 28.5455L19.453 32.9171L25.5288 31.4741C26.5039 32.8853 27.7058 34.1161 29.0832 35.1139L27.6748 41.3502L31.9375 43.1611L35.2408 37.7302C36.9027 38.0235 38.6012 38.025 40.2636 37.7345L43.5652 43.1611L47.8271 41.3502L46.4203 35.1191C47.7959 34.1187 48.9958 32.8859 49.9688 31.4733L56.0488 32.9171L57.8143 28.5455L52.5195 25.1566C52.8054 23.4522 52.8068 21.7103 52.5237 20.0054L57.8143 16.6156Z" stroke="#A616D4" stroke-width="2" stroke-miterlimit="10"/>
</svg>
