<svg xmlns="http://www.w3.org/2000/svg" data-name="Layer 1" width="1377" height="161" style=""><rect id="backgroundrect" width="100%" height="100%" x="0" y="0" fill="none" stroke="none" class="" style=""/><defs><style>.cls-1{fill:#fff056;}.cls-2{fill:none;}</style></defs><g class="currentLayer" style=""><title>Layer 1</title><path class="cls-1" d="M358.69000000000005,155.2163134765625 h0 zm812.9,-13.52 c-3.59,-0.21000000000000005 -17.69,-0.11000000000000003 -26,-0.7400000000000002 C1144.74,135.03631347656255 1176.79,139.26631347656246 1171.59,141.69631347656252 zm-52.83,-2.43 c-3.72,-0.21000000000000005 -17.82,-0.11000000000000003 -26,-0.8500000000000002 C1091.9,132.6063134765625 1124,136.8363134765625 1118.76,139.26631347656246 zM665,11.436313476562475 c8.66,-0.3200000000000001 16.21,-0.6400000000000002 2.48,-1.27 l-15.84,-0.6400000000000002 zM685,145.91631347656255 c0.25,-0.7400000000000002 3.59,-1.37 10.15,-1.48 c-13.37,-0.21000000000000005 -40.09,-0.8400000000000002 -38.85,0.8500000000000002 C665.17,145.6063134765625 674.94,145.81631347656253 685,145.91631347656255 zm12.13,-1.26 c19.67,0.21000000000000005 39.34,-0.22000000000000006 19.55,-0.9500000000000002 l-13.49,-0.4300000000000001 zm12.37,-2.54 c9.65,-0.11000000000000003 21.16,-0.4200000000000001 32.79,-0.6300000000000002 l-30.56,-0.4300000000000001 zM801,139.79631347656255 c2.72,-0.21000000000000005 1.61,-0.53 -5,-0.8500000000000002 c-34.89,-1.37 -55.55,-3.06 -33.53,-3.06 c18.81,0 59.76,-0.53 47.76,-1.27 l-48.38,-1.06 a264.27,264.27 0 0 0 -37.37,5.29 C751.53,139.15631347656245 777.3900000000001,139.36631347656248 801,139.79631347656255 zM686.5699999999999,14.496313476562477 c32.42,5.18 100.47,0.4200000000000001 104.92,3.27 l21,-0.9500000000000002 C767.3699999999999,16.39631347656251 719,15.656313476562502 686.5699999999999,14.496313476562477 zm445.18,18 l-16.21,0.21000000000000005 c7.92,0.11000000000000003 14,0.3200000000000001 19.55,0.53 zm76,79 c6.06,0.11000000000000003 13.36,-1.79 20.16,-1.26 c6.44,0.1 13.12,-0.3200000000000001 22.89,0.8400000000000002 c-0.8600000000000002,1.1600000000000001 -17,2.3200000000000003 -29.44,2 v1.9 a140.26,140.26 0 0 0 21.77,1.58 l8.79,-0.4200000000000001 c0.24000000000000005,-1.1600000000000001 -4.33,-2 -6.07,-1.6900000000000004 c2.23,-1.79 9.78,-2.64 19.55,-3.17 l3.59,-1 c1.36,-1.7000000000000002 -6.06,-2.54 2.23,-2.33 c-5.82,-1.9 -20.91,-0.3200000000000001 -30.31,-0.8400000000000002 c10.51,4 -29.2,1.47 -39,3.17 zm69.78,-34.44 c9,-0.8400000000000002 25.36,-0.21000000000000005 34.89,-1.27 c-10.89,-2.21 -24.37,-1.58 -38.11,-0.6300000000000002 zM0.8700000000000045,89.18631347656253 c2.72,-22 22,-39.93 43.18,-52.82 l16,-8.77 c38.73,-9.61 77.7,-14.58 116.67,-17 l23.39,-1.1600000000000001 c23.88,-1.59 47.88,-2.22 72,-2.64 l24.25,-0.3200000000000001 c28.95,-2.85 56.67,0.11000000000000003 85.13,-0.21000000000000005 a229.81,229.81 0 0 0 43.55,-4 c7.42,-1.58 39.22,-1.05 50.48,0.8500000000000002 c-10.89,-4.65 41.33,-2.75 39,-2.64 a86.48,86.48 0 0 0 17.95,3.17 c6.06,0.53 -1.61,1.27 -9.29,1.79 a165.22,165.22 0 0 0 20.54,1.48 l22,-0.4200000000000001 c24.37,-1.9 50.6,-0.4200000000000001 73.25,1.8 c61.86,-0.4300000000000001 231.61,1.58 200.93,2.5300000000000002 c-34.64,1.27 -16.83,3.07 -7.55,3.38 c5.45,0.11000000000000003 12.75,0.3200000000000001 20.91,0.53 a3,3 0 0 0 -2.1,-2 c15.47,-0.6300000000000002 37.24,-3.27 58.53,-0.8400000000000002 c-4,0.4200000000000001 -9,0.4200000000000001 -10.89,1.58 c10.76,-0.1 2.22,2.33 9.28,3.07 c19.67,0.6300000000000002 29.07,1.26 6.3,1 c21.16,2.12 34.65,5.6 55.56,8.67 c7.92,-0.4300000000000001 3.59,-0.22000000000000006 1.24,-1.3800000000000001 c13.85,-1.26 45.65,-0.7400000000000002 48.62,-1.9 c3,-1.37 -86.11,-0.53 -70.28,-2.11 c6.44,-0.6400000000000002 19.8,-0.21000000000000005 24.87,-1.06 c-11.25,-0.3200000000000001 -25.11,-0.21000000000000005 -32.29,-1.1600000000000001 c7.8,-0.4200000000000001 18.81,-0.4200000000000001 24.87,-1.06 c-7.55,0 -12.74,-0.3100000000000001 -15,-1.1600000000000001 c11,-0.1 19.3,-0.53 32.42,-0.3200000000000001 c5.8100000000000005,0.7400000000000002 -5,1.9100000000000001 7.42,1.9100000000000001 c2.23,1.1600000000000001 -8.17,0.4200000000000001 -7.42,1.47 c10,0.6400000000000002 29.94,0.53 34.89,1.06 c4.82,0.7400000000000002 -12.13,0 -12.5,0.7400000000000002 c38.73,0.7400000000000002 82.78,1.1600000000000001 96.38,1.8 s0.8700000000000002,0.53 -4.94,1.05 c16,0.8500000000000002 28,0.8500000000000002 46.89,1.17 c12.12,0.3100000000000001 7.3,0.6300000000000002 2.72,1.1600000000000001 c3.22,0.21000000000000005 6.07,0.4200000000000001 7.92,0.6300000000000002 c1.36,0.21000000000000005 4.82,0.4200000000000001 7.18,0.8500000000000002 c-7.43,0.4200000000000001 -21.28,0 -27.35,0.7400000000000002 c11.14,1.48 37.62,0 47.27,1.79 c-15.34,1.1600000000000001 -31.8,0.8500000000000002 -49,1.59 c33.53,1.05 67.93,-3.81 94.9,0.3100000000000001 c-4.83,0.3200000000000001 -6.93,1.6900000000000004 -10.89,2.43 c10.27,-1.1600000000000001 25.49,-2.74 34.65,0 c5.07,0.3200000000000001 15.09,1.27 25.11,1.6900000000000004 c-17.57,0.6400000000000002 -29.32,1.06 -41.57,0.22000000000000006 c0.25,0.4200000000000001 1.36,0.8400000000000002 3.46,1.1600000000000001 c-27.46,3.27 -43.18,-2.8600000000000003 -62.72,-3.91 l-4.58,0.4200000000000001 c-6.3100000000000005,2.11 16,1.37 18.18,2.85 c-29,0.7400000000000002 -60.5,-0.7400000000000002 -74.73,1.48 c34.4,0.7400000000000002 64.71,-0.21000000000000005 90.57,1.9 c-6.68,2.33 -32.66,0.7400000000000002 -45,2.12 c56.3,2.22 62,2.3200000000000003 66.57,2.74 l-13.12,0.6400000000000002 l3.35,1.27 c24.74,0.21000000000000005 53.82,0.1 52.33,0.8400000000000002 c-1.11,0.53 -23.75,0.9500000000000002 -47.63,0.9500000000000002 l7.55,3 c28,0.4200000000000001 59.63,4.44 87.59,2.85 c-4.57,2.11 -2.22,1.8 3.59,3.07 c-8.78,1.26 -21.28,1.26 -30.68,2.3200000000000003 c3.21,0.6300000000000002 9,0.3200000000000001 10.89,1.27 c-4.71,0.6300000000000002 -12.13,0.3100000000000001 -14.48,1.79 c13.24,0.7400000000000002 27.47,1.17 41.45,1.6900000000000004 c2.85,2.12 -6.06,0.4300000000000001 -5.32,1.8 c13.24,0.7400000000000002 31.8,-0.21000000000000005 41.45,1.8 c-11.14,1.48 -32.91,0.1 -39.72,1.26 l13.36,1.9100000000000001 c9,0.21000000000000005 13.37,0.6300000000000002 3.22,1.47 c-5.44,0.53 -5.32,0.6400000000000002 -4,0.8500000000000002 c6.19,1.37 27.72,1.1600000000000001 27.1,4.12 c-5.45,0 -27,-0.11000000000000003 -32.42,1.9 c4.08,2.22 15.1,0.9500000000000002 16.21,3 c-23.88,-1 -23,0.11000000000000003 -29,-1.37 c2.6,-0.3200000000000001 9.4,0.21000000000000005 9.15,-1.06 l-44.54,0.11000000000000003 a3,3 0 0 1 -0.5,4.54 c6.44,0.1 13.12,0.6300000000000002 25.12,0.3200000000000001 c-3.22,3.06 -14.23,2.64 -24.37,1.6900000000000004 c0.08000000000000003,0.45 0.16000000000000006,0.9 0.25,1.37 c16.45,-0.11000000000000003 41.57,0.8400000000000002 58.4,2.43 c-7.68,0.6300000000000002 -36,0.6300000000000002 -55.31,0.1 l1.86,1.6900000000000004 c-24.26,-0.6300000000000002 -52.72,2 -79.93,0.7400000000000002 c13.11,3.7 28.45,0.7400000000000002 45.41,1.59 a221.74,221.74 0 0 1 22.51,2.75 c21.53,-0.7400000000000002 85.5,-1.17 92.8,0.21000000000000005 c8,1.48 -56.79,1.48 -57.16,2.3200000000000003 s29.82,1.8 15.59,1.59 c-7.43,-0.22000000000000006 -23.64,-0.53 -35.39,-0.8500000000000002 l-1.24,5.28 c10.27,0.11000000000000003 22.4,1 22.89,-2.43 c5.08,0.4300000000000001 15.72,-1 17.33,0.7400000000000002 c-1.7400000000000002,0.21000000000000005 -4.34,0 -4.34,0.8500000000000002 c2.48,0.1 6.07,-0.21000000000000005 6.44,0.7400000000000002 c-12.37,0.3100000000000001 -29.45,1.27 -42.94,1.1600000000000001 l-3.46,2.43 c0.25,0.3200000000000001 10.77,1.06 19.8,1.48 c9.52,0.53 -10.27,1.37 -26,1.1600000000000001 l-7.54,2.64 c5.44,-0.1 11.75,-0.1 19.17,0.11000000000000003 c8.66,1.05 8.42,2.85 17.08,3.91 c-16,0.6300000000000002 -35.26,0.7400000000000002 -50.73,0.21000000000000005 l-17.07,4.86 c12.86,0.7400000000000002 24.74,2.11 31.79,3.27 c5.69,-0.21000000000000005 11.63,-0.4200000000000001 13.74,0.7400000000000002 c-5.32,0.7400000000000002 8.53,1.06 6.43,3.17 c-7.55,-2 -22.64,-1.1600000000000001 -28.08,-3.91 c-11.88,0 -24.87,0.11000000000000003 -36.38,0 l-4.46,0.8500000000000002 c9.78,0.21000000000000005 19.06,0.6300000000000002 29.45,1.58 c-4.7,3 -33.4,3.07 -54.19,1.3800000000000001 c-42.32,2.11 -85.13,-8.67 -127.44,-10.25 a51.23,51.23 0 0 0 -6.93,0.7400000000000002 l-9.28,2.43 c10.15,0.21000000000000005 19.18,0.6300000000000002 26.6,1.27 c-29.94,2.21 42.81,1.6900000000000004 47.51,3.9 c-48.5,3.6 -139.32,1 -195.37,3.39 c13.49,0.21000000000000005 17.82,0.52 3.35,1.26 l-11.88,0.6400000000000002 c57,2 116.3,-2.64 161.71,1.79 c-27,0.4300000000000001 -67.92,-1.1600000000000001 -79.18,1.59 c7.91,0.1 19.42,-0.3200000000000001 21,0.7400000000000002 c-13.86,2.11 -60.26,-0.6400000000000002 -73.87,1.58 c66.57,1.59 156.89,-0.3200000000000001 205.89,3.91 c-74.11,-1.58 -174.09,0.7400000000000002 -237.56,-2.43 c11,-0.4200000000000001 11.13,-1.1600000000000001 5.32,-2.3200000000000003 L871.4200000000001,138.0963134765625 c-4.08,0.52 -2.72,0.8400000000000002 7,1.58 c8,0.6300000000000002 12.75,0.4200000000000001 15.35,1.59 c-5.45,0.52 -68.18,0.3100000000000001 -18.31,1.05 s135.85,2.11 85.49,2.85 s-70.28,2.43 -42.81,3.17 s114.7,3.6 85.5,3.91 s-90.45,2.12 -125.09,1.59 s23.5,-7.61 -27.59,-7.82 s-8.54,2.43 -18.31,2.3200000000000003 c-15.47,-0.1 -43.93,0 -70.9,0.11000000000000003 c-18.93,0.4200000000000001 -43.31,0.3200000000000001 -55.56,1.48 c0.8700000000000002,1.27 58.53,0.3200000000000001 35.76,1.58 c-56,0 -118.66,0.53 -92.92,-2.43 c-34.64,0.3200000000000001 -60.13,0.11000000000000003 -81.78,-0.4200000000000001 c-33.66,3 -72.76,2.43 -77.09,3.17 c-5.07,1 -96.88,-5.07 -131.4,3.2800000000000002 c-2.59,-0.22000000000000006 -64.46,-2.33 -69.78,-4.76 c-58.89,2.64 -50.6,4.65 -108.63,3.7 c-48.5,-0.7400000000000002 -63.35,-2.22 -71.52,-2.43 c-51.1,-1.48 -50.73,1.37 -75.72,-9.83 c-7.55,-3.27 -19.18,-3.38 -23.14,-9 C2.1000000000000227,121.62631347656247 -1.6100000000000136,107.25631347656247 0.8700000000000045,89.18631347656253 zm1186.56,55.78 c8,-0.1 15,0.3200000000000001 19.54,1.48 C1198.69,147.18631347656253 1190.77,147.82631347656252 1187.43,144.9663134765625 zm-1,-7.8100000000000005 c-22.15,-1.7000000000000002 -57.54,-1.48 -73.62,-2.43 s28.45,-2 69.28,-1.59 s7.18,4.65 23.88,5.49 s-16,2 -32.54,0.8500000000000002 S1184.46,138.7363134765625 1186.44,137.15631347656245 zm-22.52,-113.15 c1.48,-1.27 35.63,-0.6400000000000002 54.56,1 C1202.4,25.376313476562473 1162.43,25.276313476562507 1163.92,24.006313476562525 zm-57.54,-2.22 c-6.68,0 -12,-0.4200000000000001 -15.22,-1.59 C1097.35,20.30631347656248 1106,19.456313476562514 1106.38,21.786313476562498 zm160.11,114.52 c-9.9,-0.8500000000000002 -17.08,0.8500000000000002 -23.76,0.7400000000000002 C1209.2,136.62631347656247 1259.93,132.6063134765625 1266.49,136.30631347656254 zM1036.35,14.816313476562527 c9.28,0.21000000000000005 19.18,0.21000000000000005 17.33,2.3200000000000003 C1050.7,15.336313476562509 1037.34,17.3463134765625 1036.35,14.816313476562527 zm-39.71,0.9500000000000002 c4.45,-1.59 14.23,-0.53 17.32,0.7400000000000002 C1008.76,16.0963134765625 998.24,17.55631347656248 996.6400000000001,15.766313476562516 zm-68.43,-5.18 c2.85,-1.06 15.1,-1.48 15.1,0.7400000000000002 C938.8499999999999,10.906313476562502 929.0799999999999,12.38631347656252 928.21,10.586313476562509 zm346.2,37.08 c6.55,0.53 18.68,-0.9500000000000002 21.65,0.8500000000000002 C1289.5,47.986313476562486 1277.38,49.466313476562505 1274.41,47.66631347656249 zm-37.74,-6.34 c4.45,-1.48 14.23,-0.52 17.32,0.8500000000000002 C1248.79,41.64631347656251 1238.28,43.0963134765625 1236.67,41.32631347656252 zm24.62,1.06 c2.85,-1.06 15.1,-1.48 15.22,0.7400000000000002 C1271.93,42.706313476562514 1262.16,44.186313476562475 1261.29,42.38631347656252 z" id="svg_1"/><rect class="cls-2" width="1374.79459083238" height="155.342459519037" id="svg_2" y="5.685354232788086" x="2.4109551906585693"/><image id="svg_3" x="0" y="47.0963134765625" width="0" height="1" xmlns:xlink="http://www.w3.org/1999/xlink" xlink:href="logo/vector_paint_icon256.png" style="color: rgb(0, 0, 0);" class=""/><image id="svg_5" x="166" y="73.0963134765625" width="2" height="0" xmlns:xlink="http://www.w3.org/1999/xlink" xlink:href="logo/vector_paint_icon256.png" style="color: rgb(0, 0, 0);" class=""/><image id="svg_7" x="159" y="152.0963134765625" width="0" height="1" xmlns:xlink="http://www.w3.org/1999/xlink" xlink:href="logo/vector_paint_icon256.png" style="color: rgb(0, 0, 0);" class=""/></g></svg>