<svg width="74" height="61" viewBox="0 0 74 61" fill="none" xmlns="http://www.w3.org/2000/svg">
<path d="M69.9362 7.20618H4.06476C2.37268 7.20618 1.00098 8.57788 1.00098 10.27V56.2799C1.00098 57.972 2.37268 59.3437 4.06476 59.3437H69.9362C71.6283 59.3437 73 57.972 73 56.2799V10.27C73 8.57788 71.6283 7.20618 69.9362 7.20618Z" stroke="#A616D4" stroke-width="1.5" stroke-miterlimit="10"/>
<path d="M15.8961 30.7922H5.96619C5.31404 30.7924 4.66833 30.6641 4.06578 30.4146C3.46324 30.1651 2.91579 29.7993 2.4546 29.3382C1.99341 28.8772 1.62758 28.3298 1.37799 27.7273C1.12839 27.1248 1 26.4791 1 25.8269" stroke="#A616D4" stroke-width="1.5" stroke-miterlimit="10"/>
<path d="M50.6019 30.7922H23.2412" stroke="#A616D4" stroke-width="1.5" stroke-miterlimit="10"/>
<path d="M72.9992 25.8269C72.9992 27.1438 72.476 28.4067 71.5449 29.3379C70.6137 30.2691 69.3507 30.7922 68.0338 30.7922H58.0508" stroke="#A616D4" stroke-width="1.5" stroke-miterlimit="10"/>
<path d="M25.8281 7.20624V3.48272C25.8281 2.82427 26.0898 2.19277 26.5554 1.72718C27.021 1.26158 27.6525 1 28.311 1H45.6896C46.3481 1 46.9796 1.26158 47.4452 1.72718C47.9108 2.19277 48.1725 2.82427 48.1725 3.48272V7.20624" stroke="#A616D4" stroke-width="1.5" stroke-miterlimit="10"/>
<path d="M23.3455 27.0687H15.8975V36.9995H23.3455V27.0687Z" stroke="#A616D4" stroke-width="1.5" stroke-miterlimit="10"/>
<path d="M58.1024 27.0687H50.6543V36.9995H58.1024V27.0687Z" stroke="#A616D4" stroke-width="1.5" stroke-miterlimit="10"/>
</svg>
