<svg width="74" height="70" viewBox="0 0 74 70" fill="none" xmlns="http://www.w3.org/2000/svg">
<path d="M72.4961 28.3101L60.4441 7.43591L49.2981 13.871V1H25.198V13.871L14.052 7.43591L2 28.3101L13.146 34.7449L2 41.1799L14.052 62.054L25.198 55.6189V68.49H49.2981V55.6189L60.4441 62.054L72.4961 41.1799L61.3501 34.7449L72.4961 28.3101Z" stroke="#A616D4" stroke-width="1.5" stroke-miterlimit="10"/>
<path d="M40.8561 12.8269C40.9002 13.5405 40.7317 14.2511 40.372 14.8689C40.0123 15.4867 39.4774 15.984 38.8351 16.2979C38.1928 16.6118 37.4718 16.7282 36.7633 16.6324C36.0549 16.5365 35.3908 16.2329 34.8549 15.7597C34.319 15.2865 33.9355 14.665 33.7528 13.9738C33.5702 13.2826 33.5965 12.5528 33.8285 11.8766C34.0606 11.2004 34.488 10.6082 35.0566 10.1748C35.6251 9.74149 36.3096 9.4864 37.0231 9.44193C37.4971 9.41239 37.9721 9.47663 38.4213 9.63077C38.8705 9.78492 39.2848 10.026 39.6408 10.3404C39.9967 10.6547 40.2873 11.0361 40.4958 11.4628C40.7043 11.8895 40.8268 12.353 40.8561 12.8269V12.8269Z" stroke="#A616D4" stroke-width="1.5" stroke-miterlimit="10"/>
<path d="M37.2461 64.874V16.667" stroke="#A616D4" stroke-width="1.5" stroke-miterlimit="10"/>
<path d="M40.8628 62.4639C38.2008 62.4639 32.4268 62.4638 32.4268 58.2458C32.4268 56.2788 34.5848 54.6838 37.2468 54.6838" stroke="#A616D4" stroke-width="1.5" stroke-miterlimit="10"/>
<path d="M37.2461 45.7791C40.5751 45.7791 43.2722 47.772 43.2722 50.231C43.2722 52.69 40.5721 54.6838 37.2461 54.6838" stroke="#A616D4" stroke-width="1.5" stroke-miterlimit="10"/>
<path d="M37.2466 45.7791C33.2536 45.7791 30.0156 43.387 30.0156 40.436C30.0156 37.485 33.2536 35.093 37.2466 35.093" stroke="#A616D4" stroke-width="1.5" stroke-miterlimit="10"/>
<path d="M33.6318 22.627C39.6578 22.627 45.6838 23.7988 45.6838 28.8608C45.6838 32.3028 41.9068 35.094 37.2468 35.094" stroke="#A616D4" stroke-width="1.5" stroke-miterlimit="10"/>
<path d="M33.6313 22.6269C33.6224 23.2573 33.3635 23.8583 32.9116 24.2978C32.4597 24.7374 31.8518 24.9795 31.2214 24.9709C29.8894 24.9709 25.1953 22.6269 25.1953 22.6269C25.1953 22.6269 29.8894 20.2839 31.2214 20.2839C31.8517 20.2751 32.4597 20.5169 32.9116 20.9563C33.3636 21.3957 33.6224 21.9967 33.6313 22.6269V22.6269Z" stroke="#A616D4" stroke-width="1.5" stroke-miterlimit="10"/>
</svg>
