<svg width="45" height="45" viewBox="0 0 45 45" fill="none" xmlns="http://www.w3.org/2000/svg">
<path d="M43.6027 5.49595C43.9776 6.54382 44.0893 7.66775 43.9281 8.76893C43.7668 9.8701 43.3375 10.9148 42.6779 11.8112C42.0183 12.7076 41.1486 13.4282 40.1452 13.9097C39.1419 14.3912 38.0355 14.6188 36.9236 14.5726C36.3406 14.5488 35.7633 14.4484 35.2066 14.2738C34.3436 14.006 33.5428 13.5686 32.851 12.9872C32.1593 12.4059 31.5905 11.6923 31.1781 10.8883C30.7657 10.0843 30.5179 9.20605 30.4493 8.30506C30.3807 7.40407 30.4926 6.49845 30.7785 5.64127C31.0644 4.78409 31.5185 3.9926 32.1143 3.3132C32.71 2.6338 33.4354 2.08015 34.2478 1.6847C35.0603 1.28925 35.9436 1.05997 36.8458 1.01027C37.748 0.960583 38.6511 1.09149 39.5021 1.39532" stroke="#343449" stroke-linecap="round" stroke-linejoin="round"/>
<path d="M5.52376 43.5747C6.57164 43.9499 7.69567 44.0619 8.79697 43.9007C9.89827 43.7396 10.9431 43.3103 11.8396 42.6507C12.736 41.991 13.4567 41.1211 13.9381 40.1176C14.4195 39.1141 14.6469 38.0076 14.6004 36.8956C14.5763 36.3127 14.4759 35.7354 14.3017 35.1786C13.976 34.1231 13.3977 33.163 12.6169 32.3816C11.8361 31.6003 10.8763 31.0213 9.82101 30.695C9.0796 30.4648 8.30388 30.3648 7.52831 30.3996C6.63737 30.4372 5.76255 30.6499 4.95386 31.0258C4.14518 31.4016 3.41846 31.933 2.81523 32.5898C2.212 33.2465 1.74409 34.0157 1.43821 34.8534C1.13234 35.691 0.994486 36.5807 1.03256 37.4716C1.06001 38.1553 1.19172 38.8308 1.42313 39.4747" stroke="#343449" stroke-linecap="round" stroke-linejoin="round"/>
<path d="M9.82129 30.6952L30.7229 9.79321" stroke="#343449" stroke-linecap="round" stroke-linejoin="round"/>
<path d="M14.0742 29.4727L25.5982 17.9487" stroke="#343449" stroke-linecap="round" stroke-linejoin="round"/>
<path d="M35.2066 14.2739L14.3018 35.1788" stroke="#343449" stroke-linecap="round" stroke-linejoin="round"/>
<path d="M43.6025 5.49589L37.7966 11.302L33.6963 7.20141L39.5018 1.39526" stroke="#343449" stroke-linecap="round" stroke-linejoin="round"/>
<path d="M5.52348 43.5749L11.3296 37.769L7.229 33.6687L1.42285 39.4746" stroke="#343449" stroke-linecap="round" stroke-linejoin="round"/>
<path d="M19.605 15.082L15.0176 19.6695" stroke="#343449" stroke-linecap="round" stroke-linejoin="round"/>
<path d="M42.277 35.2206L27.4395 22.0413" stroke="#343449" stroke-linecap="round" stroke-linejoin="round"/>
<path d="M22.6929 17.8236L19.6064 15.0811" stroke="#343449" stroke-linecap="round" stroke-linejoin="round"/>
<path d="M35.1568 42.338L21.9775 27.5024" stroke="#343449" stroke-linecap="round" stroke-linejoin="round"/>
<path d="M17.76 22.7539L15.0195 19.6694" stroke="#343449" stroke-linecap="round" stroke-linejoin="round"/>
<path d="M17.3296 14.0452L13.9824 17.3923L15.6395 19.0494L18.9867 15.7023L17.3296 14.0452Z" stroke="#343449" stroke-linecap="round" stroke-linejoin="round"/>
<path d="M6.04084 4.5512L4.49023 6.10181L14.8798 16.4913L16.4304 14.9407L6.04084 4.5512Z" stroke="#343449" stroke-linecap="round" stroke-linejoin="round"/>
<path d="M3.48156 1.0628L1 3.54419L4.02418 6.56858L6.50574 4.0872L3.48156 1.0628Z" stroke="#343449" stroke-linecap="round" stroke-linejoin="round"/>
<path d="M42.2765 35.2188C42.3528 35.2854 42.4255 35.3552 42.4968 35.4268C42.9672 35.8947 43.3407 36.4508 43.5959 37.0632C43.851 37.6757 43.9828 38.3325 43.9837 38.9959C43.9846 39.6594 43.8545 40.3165 43.6011 40.9296C43.3476 41.5427 42.9756 42.0998 42.5065 42.569C42.0373 43.0381 41.4802 43.4101 40.8671 43.6636C40.254 43.917 39.5969 44.0471 38.9334 44.0462C38.27 44.0453 37.6132 43.9135 37.0007 43.6584C36.3883 43.4032 35.8322 43.0297 35.3643 42.5593C35.293 42.4877 35.2229 42.4152 35.1562 42.3392" stroke="#343449" stroke-linecap="round" stroke-linejoin="round"/>
<path d="M32.1611 35.22L37.5655 40.9343C37.5655 40.9343 39.1281 42.1063 40.7559 40.9343" stroke="#343449" stroke-linecap="round" stroke-linejoin="round"/>
</svg>
