<?xml version="1.0" encoding="UTF-8"?>
<svg width="52px" height="52px" viewBox="0 0 52 52" version="1.1" xmlns="http://www.w3.org/2000/svg" xmlns:xlink="http://www.w3.org/1999/xlink">
    <!-- Generator: Sketch 61.2 (89653) - https://sketch.com -->
    <title>icon-7</title>
    <desc>Created with Sketch.</desc>
    <g id="Page-1" stroke="none" stroke-width="1" fill="none" fill-rule="evenodd">
        <g id="icon-7" transform="translate(1.000000, 1.000000)">
            <path d="M26.9598,22.3204 C26.2701,21.957 25.4881,21.8063 24.7127,21.8873 C23.9373,21.9684 23.2033,22.2775 22.6037,22.7757 C22.004,23.2739 21.5655,23.9387 21.3436,24.6861 C21.1218,25.4334 21.1265,26.2298 21.3573,26.9745 C21.5881,27.7192 22.0345,28.3787 22.6401,28.8697 C23.2457,29.3606 23.9832,29.661 24.7596,29.7328 C25.5359,29.8045 26.316,29.6445 27.0014,29.2729 C27.6867,28.9013 28.2465,28.3348 28.6098,27.645" id="Path" stroke="#A616D4" stroke-linecap="round" stroke-linejoin="round"></path>
            <path d="M42.2967,42.2968 C51.9243,32.6692 51.9243,17.0598 42.2967,7.43225 C32.6692,-2.19531 17.0598,-2.19531 7.43225,7.43225 C-2.19532,17.0598 -2.19532,32.6692 7.43225,42.2968 C17.0598,51.9243 32.6692,51.9243 42.2967,42.2968 Z" id="Path" stroke="#A616D4" stroke-linecap="round" stroke-linejoin="round"></path>
            <path d="M24.8641,4.03296 C20.744,4.03296 16.7164,5.25459 13.2907,7.54355 C9.8649,9.8325 7.19479,13.0859 5.61804,16.8924 C4.0413,20.6989 3.62871,24.8874 4.43247,28.9284 C5.23622,32.9693 7.22021,36.6812 10.1335,39.5945 C13.0469,42.5079 16.7587,44.492 20.7996,45.2958 C24.8406,46.0996 29.0291,45.6871 32.8356,44.1104 C36.6421,42.5337 39.8956,39.8637 42.1846,36.438 C44.4736,33.0122 45.6954,28.9846 45.6954,24.8645 C45.6954,19.3397 43.5007,14.0412 39.5941,10.1345 C35.6874,6.22785 30.3889,4.03296 24.8641,4.03296 L24.8641,4.03296 Z" id="Path" stroke="#A616D4" stroke-linecap="round" stroke-linejoin="round"></path>
            <polygon id="Path" stroke="#A616D4" stroke-linecap="round" stroke-linejoin="round" points="32.6791 34.6611 17.5664 34.6611 17.5664 39.5919 32.6791 39.5919"></polygon>
            <polyline id="Path" stroke="#A616D4" stroke-linecap="round" stroke-linejoin="round" points="41.2046 20.3401 25.4365 26.9465 24.7451 24.7842 41.2046 20.3404"></polyline>
            <path d="M39.1494,25.8731 C38.8769,25.8731 38.6156,25.7649 38.423,25.5722 C38.2303,25.3796 38.1221,25.1183 38.1221,24.8458 C38.1221,24.7158 38.1477,24.5871 38.1974,24.467 C38.2472,24.3469 38.3201,24.2378 38.412,24.1459 C38.504,24.054 38.6131,23.9811 38.7332,23.9314 C38.8533,23.8817 38.982,23.8562 39.112,23.8562 L42.242,23.8562 C42.3777,23.8562 42.5122,23.8829 42.6376,23.9349 C42.7631,23.9869 42.8771,24.063 42.9731,24.159 C43.0691,24.2551 43.1453,24.369 43.1972,24.4945 C43.2492,24.6199 43.2759,24.7544 43.2759,24.8902 C43.2759,25.0191 43.2505,25.1468 43.2012,25.2659 C43.1518,25.3851 43.0795,25.4933 42.9883,25.5845 C42.8971,25.6757 42.7889,25.748 42.6698,25.7974 C42.5506,25.8467 42.4229,25.8721 42.294,25.8721 L39.1494,25.8731 Z" id="Path" fill="#A616D4" fill-rule="nonzero"></path>
            <path d="M10.5076,25.873 C10.7996,25.873 11.0795,25.757 11.2859,25.5506 C11.4923,25.3442 11.6083,25.0642 11.6083,24.7723 C11.6082,24.5289 11.5115,24.2955 11.3393,24.1235 C11.1672,23.9514 10.9338,23.8546997 10.6904,23.8546997 L7.52879,23.8546997 C7.38745,23.8546 7.24748,23.8824 7.11689,23.9365 C6.9863,23.9906 6.86765,24.0699 6.76774,24.1698 C6.66783,24.2698 6.58862,24.3885 6.53464,24.5191 C6.48065,24.6498 6.45295,24.7897 6.45312913,24.9311 C6.45312913,25.0547 6.4774,25.1772 6.5247,25.2915 C6.572,25.4058 6.64135,25.5096 6.72879,25.5971 C6.81623,25.6846 6.92005,25.754 7.03431,25.8013 C7.14857,25.8486 7.27103,25.873 7.39471,25.873 L10.5076,25.873 Z" id="Path" fill="#A616D4" fill-rule="nonzero"></path>
            <path d="M37.7173,18.6089 C37.6034,18.6747 37.4777,18.7174 37.3473,18.7345 C37.2169,18.7517 37.0845,18.743 36.9575,18.7089 C36.8305,18.6748 36.7114,18.6161 36.6071,18.5359 C36.5029,18.4558 36.4154,18.3559 36.3498,18.242 L36.3087,18.1706 C36.2474,18.0644 36.2076,17.9472 36.1916,17.8256 C36.1756,17.704 36.1837,17.5804 36.2154,17.4619 C36.2472,17.3435 36.3019,17.2324 36.3766,17.1351 C36.4513,17.0378 36.5444,16.9562 36.6506,16.8948 L39.5671,15.2111 C39.7631,15.098 39.9959,15.0674 40.2145,15.126 C40.433,15.1847 40.6194,15.3277 40.7325,15.5237 L40.7888,15.6214 C40.9276,15.8627 40.965,16.1491 40.8929,16.418 C40.8208,16.6868 40.6451,16.9161 40.4043,17.0556 L37.7173,18.6089 Z" id="Path" fill="#A616D4" fill-rule="nonzero"></path>
            <path d="M12.933,32.9179 C13.0584,32.8456 13.1684,32.7493 13.2566,32.6345 C13.3448,32.5197 13.4095,32.3886 13.447,32.2487 C13.4844223,32.1089 13.4939,31.963 13.4749,31.8195 C13.4559,31.6759 13.4088,31.5376 13.3362,31.4123 C13.2147,31.2024 13.0147,31.0493 12.7804,30.9867 C12.546,30.9242 12.2964,30.9573 12.0864,31.0787 L9.2147,32.7361 C9.1096,32.7967 9.0175,32.8775 8.94372,32.9737 C8.86989,33.07 8.81574,33.1798 8.78437,33.297 C8.75299,33.4142 8.745,33.5364 8.76085,33.6566 C8.77671,33.7769 8.81611,33.8928 8.87678,33.9979 C9.0218,34.249 9.2606,34.4321 9.5407,34.5072 C9.8208,34.5823 10.1192,34.543 10.3704,34.3981 L12.933,32.9179 Z" id="Path" fill="#A616D4" fill-rule="nonzero"></path>
            <path d="M32.862,13.0299 C32.797,13.1426 32.7105,13.2413 32.6073,13.3205 C32.5041,13.3997 32.3864,13.4578 32.2607,13.4915 C32.1351,13.5252111 32.004,13.5337 31.8751,13.5167 C31.7461,13.4998 31.6218,13.4575 31.5092,13.3924 C31.2737,13.256 31.102,13.0316 31.0318,12.7686 C30.9616,12.5056 30.9987,12.2255 31.1349,11.9899 L32.7076,9.2662 C32.7721,9.1544 32.858,9.0565 32.9603,8.97793 C33.0627,8.89937 33.1795,8.84174 33.3042,8.80835 C33.4288,8.77496 33.5588,8.76647 33.6867,8.78333 C33.8147,8.8002 33.938,8.84211 34.0497,8.90666 C34.1674,8.97451 34.2706,9.0649 34.3533,9.1726 C34.4361,9.2804 34.4968,9.4034 34.532,9.5346 C34.5671,9.6658 34.5761,9.8026 34.5584,9.9373 C34.5407,10.072 34.4966,10.2019 34.4286,10.3195 L32.862,13.0299 Z" id="Path" fill="#A616D4" fill-rule="nonzero"></path>
            <path d="M25.8737,10.5557 C25.8737,10.694 25.8465,10.8309 25.7936,10.9586 C25.7408,11.0864 25.6632,11.2024 25.5655,11.3002 C25.4677,11.3979 25.3517,11.4755 25.2239,11.5283 C25.0962,11.5812 24.9593,11.6084 24.821,11.6084 C24.5652,11.6084 24.3199,11.5068 24.139,11.3259 C23.9581,11.145 23.8564,10.8996 23.8564,10.6438 L23.8564,7.46183 C23.8564,7.19437 23.9627,6.93786 24.1518,6.74874 C24.3409,6.55962 24.5974,6.45337 24.8649,6.45337 C25.1324,6.45337 25.3889,6.55962 25.578,6.74874 C25.7671,6.93786 25.8734,7.19437 25.8734,7.46183 L25.8737,10.5557 Z" id="Path" fill="#A616D4" fill-rule="nonzero"></path>
            <path d="M18.5749,11.9528 C18.7166,12.1983 18.755,12.4901 18.6817,12.7639 C18.6084,13.0378 18.4294,13.2714 18.184,13.4133 C18.0762,13.4756 17.9572,13.5161 17.8337,13.5324 C17.7102,13.5487 17.5848,13.5404 17.4645,13.5082 C17.3442,13.4759 17.2314,13.4203 17.1327,13.3444 C17.0339,13.2686 16.9511,13.174 16.8889,13.0661 L15.3136,10.3378 C15.2442,10.2177 15.1991,10.0851 15.181,9.9476 C15.1628,9.8101 15.1718814,9.6704 15.2078,9.5365 C15.2437,9.4025 15.3056,9.2769 15.39,9.1669 C15.4744,9.0568 15.5797,8.96453 15.6998,8.8952 C15.8091,8.83207 15.9297,8.7911 16.0549,8.7746 C16.18,8.7581 16.3071,8.76642 16.429,8.79907 C16.5509,8.83172 16.6652,8.88805 16.7654,8.96486 C16.8655,9.0417 16.9495,9.1375 17.0126,9.2468 L18.5749,11.9528 Z" id="Path" fill="#A616D4" fill-rule="nonzero"></path>
            <path d="M12.93,16.8088 C13.0559,16.8815 13.1661,16.9782 13.2546,17.0935 C13.343,17.2088 13.4079,17.3403 13.4454,17.4807 C13.483,17.621 13.4926,17.7674 13.4735,17.9114 C13.4545,18.0554 13.4073,18.1943 13.3346,18.3201 C13.2749,18.4237 13.1953,18.5145 13.1004,18.5874 C13.0055,18.6602 12.8972,18.7137 12.7817,18.7446 C12.6661,18.7756 12.5456,18.7835 12.4271,18.7679 C12.3085,18.7523 12.1941,18.7135 12.0905,18.6536 L9.3201,17.0527 C9.2013,16.9841 9.0972,16.8928 9.0137,16.784 C8.93017,16.6751 8.86891,16.5509 8.83342,16.4184 C8.79792,16.2859 8.78888,16.1477 8.80681,16.0117 C8.82474,15.8757 8.86929,15.7446 8.93791,15.6258 C9.0017,15.5152 9.0867,15.4183 9.1879,15.3406 C9.2892,15.2629 9.4048,15.2058 9.5281,15.1728 C9.6514,15.1397 9.78,15.1313 9.9066,15.148 C10.0331,15.1646 10.1552,15.206 10.2657,15.2699 L12.93,16.8088 Z" id="Path" fill="#A616D4" fill-rule="nonzero"></path>
            <path d="M37.7085,31.1145 C37.481,30.9833 37.2106,30.9477 36.9569,31.0157 C36.7032,31.0837 36.4868,31.2496 36.3554,31.4771 C36.2879,31.5939 36.2442,31.7228 36.2266,31.8565 C36.209,31.9902 36.2179,32.1261 36.2528,32.2564 C36.2877,32.3866 36.3479,32.5088 36.43,32.6158 C36.5121,32.7227 36.6145,32.8125 36.7313,32.88 L39.4199,34.4322 C39.5363,34.4994 39.6647,34.543 39.7979,34.5606 C39.9311,34.5781 40.0665,34.5692 40.1963,34.5344 C40.3261,34.4997 40.4477,34.4397 40.5543,34.3579 C40.6609,34.2761 40.7503,34.1741 40.8175,34.0577 C40.9492,33.8293 40.9849,33.5579 40.9166,33.3033 C40.8484,33.0486 40.6818,32.8314 40.4536,32.6995 L37.7085,31.1145 Z" id="Path" fill="#A616D4" fill-rule="nonzero"></path>
            <line x1="21.1533" y1="42.8845" x2="29.0916" y2="42.8845" id="Path" stroke="#A616D4" stroke-linecap="round" stroke-linejoin="round"></line>
        </g>
    </g>
</svg>