<svg width="84" height="77" viewBox="0 0 84 77" fill="none" xmlns="http://www.w3.org/2000/svg">
<path d="M64.6121 37.4067C57.3802 32.8679 47.2024 29.6973 47.2024 29.6973C45.9093 31.2442 44.2522 32.4944 42.3585 33.3517C40.4648 34.2089 38.3852 34.6502 36.2794 34.6419C34.1737 34.6335 32.0981 34.1755 30.2123 33.3033C28.3266 32.4311 26.681 31.1677 25.4022 29.6106C25.4022 29.6106 1 37.3233 1 45.8553V60.2088H40.5835" stroke="#A616D4" stroke-width="1.5" stroke-miterlimit="10"/>
<path d="M36.3502 1C27.4773 1 20.285 5.6297 20.285 15.9521C20.2017 20.9261 22.0176 25.766 25.4094 29.6106C26.6882 31.1677 28.3337 32.4311 30.2195 33.3033C32.1052 34.1755 34.1808 34.6335 36.2866 34.6419C38.3924 34.6502 40.4722 34.2089 42.3659 33.3517C44.2596 32.4945 45.9168 31.2442 47.2098 29.6973C50.6552 25.8415 52.5018 20.9643 52.4154 15.95C52.4131 5.62975 45.2196 1 36.3502 1Z" stroke="#A616D4" stroke-width="1.5" stroke-miterlimit="10"/>
<path d="M63.208 68.1032C69.454 68.1032 74.5175 63.3906 74.5175 57.5773C74.5175 51.764 69.454 47.0514 63.208 47.0514C56.9619 47.0514 51.8984 51.764 51.8984 57.5773C51.8984 63.3906 56.9619 68.1032 63.208 68.1032Z" stroke="#A616D4" stroke-width="1.5" stroke-miterlimit="10"/>
<path d="M79.2115 57.9746C79.2127 57.0318 79.6092 56.1265 80.3167 55.4516C81.0242 54.7768 81.987 54.3855 82.9997 54.3612C82.5399 51.8519 81.5315 49.4572 80.0373 47.3252C79.2935 47.9695 78.3085 48.3176 77.2926 48.2945C76.2768 48.2714 75.311 47.8791 74.6019 47.2018C73.8928 46.5244 73.4966 45.6157 73.4982 44.67C73.4999 43.7243 73.899 42.8167 74.6104 42.1414C72.3611 40.6908 69.8159 39.6854 67.1321 39.1874C67.0857 40.1174 66.6549 40.9946 65.9299 41.6361C65.2048 42.2776 64.2415 42.6337 63.2412 42.6298C62.2408 42.6259 61.2808 42.2624 60.5615 41.6153C59.8423 40.9681 59.4195 40.0874 59.3814 39.157C56.7263 39.6293 54.2018 40.5979 51.9602 42.004C52.5755 42.6991 52.8904 43.5825 52.8438 44.4821C52.7972 45.3817 52.3924 46.233 51.708 46.8698C51.0237 47.5066 50.1089 47.8832 49.1423 47.9264C48.1757 47.9696 47.2264 47.6763 46.4797 47.1034C44.9922 49.1589 43.9607 51.47 43.4454 53.9014C44.3709 54.025 45.217 54.4559 45.828 55.1147C46.439 55.7734 46.7736 56.6155 46.7699 57.4857C46.7662 58.3559 46.4247 59.1954 45.8082 59.8497C45.1916 60.5039 44.3416 60.9286 43.415 61.0455C43.9052 63.4591 44.9034 65.7587 46.3519 67.812C47.1078 67.322 48.0259 67.0976 48.9429 67.1788C49.86 67.26 50.7163 67.6416 51.3593 68.2554C52.0024 68.8693 52.3905 69.6756 52.4545 70.5308C52.5185 71.3861 52.2543 72.2348 51.7089 72.9257C53.8731 74.3273 56.314 75.3165 58.8908 75.8364C59.0415 74.9775 59.5205 74.1981 60.2398 73.6421C60.9592 73.0861 61.8705 72.7911 62.8053 72.811C63.7401 72.8309 64.6355 73.1645 65.3268 73.7505C66.018 74.3365 66.4584 75.1356 66.5668 76C69.1923 75.5863 71.7029 74.6888 73.9511 73.3607C73.358 72.6511 73.0699 71.7616 73.1427 70.8651C73.2156 69.9687 73.6442 69.1295 74.3452 68.511C75.0463 67.8925 75.9697 67.5389 76.9354 67.5192C77.9012 67.4994 78.8403 67.815 79.5699 68.4042C81.1405 66.3558 82.2481 64.0321 82.8262 61.5738C81.8463 61.5105 80.9286 61.1042 80.2579 60.4364C79.5872 59.7685 79.2133 58.8888 79.2115 57.9746V57.9746Z" stroke="#A616D4" stroke-width="1.5" stroke-miterlimit="10"/>
<path d="M63.2077 64.1576C67.1118 64.1576 70.2767 61.212 70.2767 57.5784C70.2767 53.9448 67.1118 50.9991 63.2077 50.9991C59.3036 50.9991 56.1387 53.9448 56.1387 57.5784C56.1387 61.212 59.3036 64.1576 63.2077 64.1576Z" stroke="#A616D4" stroke-width="1.5" stroke-miterlimit="10"/>
</svg>
