<svg width="70" height="70" viewBox="0 0 70 70" fill="none" xmlns="http://www.w3.org/2000/svg">
<path d="M36.9598 32.3204C36.2701 31.957 35.4881 31.8063 34.7127 31.8873C33.9373 31.9684 33.2033 32.2775 32.6037 32.7757C32.004 33.2739 31.5655 33.9387 31.3436 34.6861C31.1218 35.4334 31.1265 36.2298 31.3573 36.9745C31.5881 37.7192 32.0345 38.3787 32.6401 38.8697C33.2457 39.3606 33.9832 39.661 34.7596 39.7328C35.5359 39.8045 36.316 39.6445 37.0014 39.2729C37.6867 38.9013 38.2465 38.3348 38.6098 37.645" stroke="#343449" stroke-linecap="round" stroke-linejoin="round"/>
<path d="M52.2967 52.2968C61.9243 42.6692 61.9243 27.0598 52.2967 17.4323C42.6692 7.80469 27.0598 7.80469 17.4322 17.4323C7.80468 27.0598 7.80468 42.6692 17.4322 52.2968C27.0598 61.9243 42.6692 61.9243 52.2967 52.2968Z" stroke="#343449" stroke-linecap="round" stroke-linejoin="round"/>
<path d="M34.8641 14.033C30.744 14.0329 26.7164 15.2546 23.2907 17.5436C19.8649 19.8325 17.1948 23.0859 15.618 26.8924C14.0413 30.6989 13.6287 34.8874 14.4325 38.9284C15.2362 42.9693 17.2202 46.6812 20.1335 49.5945C23.0469 52.5079 26.7587 54.492 30.7996 55.2958C34.8406 56.0996 39.0291 55.6871 42.8356 54.1104C46.6421 52.5337 49.8956 49.8637 52.1846 46.438C54.4736 43.0122 55.6954 38.9846 55.6954 34.8645C55.6954 29.3397 53.5007 24.0412 49.5941 20.1345C45.6874 16.2278 40.3889 14.033 34.8641 14.033V14.033Z" stroke="#343449" stroke-linecap="round" stroke-linejoin="round"/>
<path d="M42.6791 44.6611H27.5664V49.5919H42.6791V44.6611Z" stroke="#343449" stroke-linecap="round" stroke-linejoin="round"/>
<path d="M51.2046 30.3401L35.4365 36.9465L34.7451 34.7842L51.2046 30.3404" stroke="#343449" stroke-linecap="round" stroke-linejoin="round"/>
<path d="M49.1494 35.8731C48.8769 35.8731 48.6156 35.7649 48.423 35.5722C48.2303 35.3796 48.1221 35.1183 48.1221 34.8458C48.1221 34.7158 48.1477 34.5871 48.1974 34.467C48.2472 34.3469 48.3201 34.2378 48.412 34.1459C48.504 34.054 48.6131 33.9811 48.7332 33.9314C48.8533 33.8817 48.982 33.8562 49.112 33.8562H52.242C52.3777 33.8562 52.5122 33.8829 52.6376 33.9349C52.7631 33.9869 52.8771 34.063 52.9731 34.159C53.0691 34.2551 53.1453 34.369 53.1972 34.4945C53.2492 34.6199 53.2759 34.7544 53.2759 34.8902C53.2759 35.0191 53.2505 35.1468 53.2012 35.2659C53.1518 35.3851 53.0795 35.4933 52.9883 35.5845C52.8971 35.6757 52.7889 35.748 52.6698 35.7974C52.5506 35.8467 52.4229 35.8721 52.294 35.8721L49.1494 35.8731Z" fill="#343449"/>
<path d="M20.5076 35.873C20.7996 35.873 21.0795 35.757 21.2859 35.5506C21.4923 35.3442 21.6083 35.0642 21.6083 34.7723C21.6082 34.5289 21.5115 34.2955 21.3393 34.1235C21.1672 33.9514 20.9338 33.8547 20.6904 33.8547H17.5288C17.3875 33.8546 17.2475 33.8824 17.1169 33.9365C16.9863 33.9906 16.8677 34.0699 16.7677 34.1698C16.6678 34.2698 16.5886 34.3885 16.5346 34.5191C16.4807 34.6498 16.453 34.7897 16.4531 34.9311C16.4531 35.0547 16.4774 35.1772 16.5247 35.2915C16.572 35.4058 16.6414 35.5096 16.7288 35.5971C16.8162 35.6846 16.92 35.754 17.0343 35.8013C17.1486 35.8486 17.271 35.873 17.3947 35.873H20.5076Z" fill="#343449"/>
<path d="M47.7173 28.6089C47.6034 28.6747 47.4777 28.7174 47.3473 28.7345C47.2169 28.7517 47.0845 28.743 46.9575 28.7089C46.8305 28.6748 46.7114 28.6161 46.6071 28.5359C46.5029 28.4558 46.4154 28.3559 46.3498 28.242L46.3087 28.1706C46.2474 28.0644 46.2076 27.9472 46.1916 27.8256C46.1756 27.704 46.1837 27.5804 46.2154 27.4619C46.2472 27.3435 46.3019 27.2324 46.3766 27.1351C46.4513 27.0378 46.5444 26.9562 46.6506 26.8948L49.5671 25.2111C49.7631 25.098 49.9959 25.0674 50.2145 25.126C50.433 25.1847 50.6194 25.3277 50.7325 25.5237L50.7888 25.6214C50.9276 25.8627 50.965 26.1491 50.8929 26.418C50.8208 26.6868 50.6451 26.9161 50.4043 27.0556L47.7173 28.6089Z" fill="#343449"/>
<path d="M22.933 42.9179C23.0584 42.8456 23.1684 42.7493 23.2566 42.6345C23.3448 42.5197 23.4095 42.3886 23.447 42.2487C23.4844 42.1089 23.4939 41.963 23.4749 41.8195C23.4559 41.6759 23.4088 41.5376 23.3362 41.4123C23.2147 41.2024 23.0147 41.0493 22.7804 40.9867C22.546 40.9242 22.2964 40.9573 22.0864 41.0787L19.2147 42.7361C19.1096 42.7967 19.0175 42.8775 18.9437 42.9737C18.8699 43.07 18.8157 43.1798 18.7844 43.297C18.753 43.4142 18.745 43.5364 18.7609 43.6566C18.7767 43.7769 18.8161 43.8928 18.8768 43.9979C19.0218 44.249 19.2606 44.4321 19.5407 44.5072C19.8208 44.5823 20.1192 44.543 20.3704 44.3981L22.933 42.9179Z" fill="#343449"/>
<path d="M42.862 23.0299C42.797 23.1426 42.7105 23.2413 42.6073 23.3205C42.5041 23.3997 42.3864 23.4578 42.2607 23.4915C42.1351 23.5252 42.004 23.5337 41.8751 23.5167C41.7461 23.4998 41.6218 23.4575 41.5092 23.3924C41.2737 23.256 41.102 23.0316 41.0318 22.7686C40.9616 22.5056 40.9987 22.2255 41.1349 21.9899L42.7076 19.2662C42.7721 19.1544 42.858 19.0565 42.9603 18.9779C43.0627 18.8994 43.1795 18.8417 43.3042 18.8084C43.4288 18.775 43.5588 18.7665 43.6867 18.7833C43.8147 18.8002 43.938 18.8421 44.0497 18.9067C44.1674 18.9745 44.2706 19.0649 44.3533 19.1726C44.4361 19.2804 44.4968 19.4034 44.532 19.5346C44.5671 19.6658 44.5761 19.8026 44.5584 19.9373C44.5407 20.072 44.4966 20.2019 44.4286 20.3195L42.862 23.0299Z" fill="#343449"/>
<path d="M35.8737 20.5557C35.8737 20.694 35.8465 20.8309 35.7936 20.9586C35.7408 21.0864 35.6632 21.2024 35.5655 21.3002C35.4677 21.3979 35.3517 21.4755 35.2239 21.5283C35.0962 21.5812 34.9593 21.6084 34.821 21.6084C34.5652 21.6084 34.3199 21.5068 34.139 21.3259C33.9581 21.145 33.8564 20.8996 33.8564 20.6438V17.4618C33.8564 17.1944 33.9627 16.9379 34.1518 16.7487C34.3409 16.5596 34.5974 16.4534 34.8649 16.4534C35.1324 16.4534 35.3889 16.5596 35.578 16.7487C35.7671 16.9379 35.8734 17.1944 35.8734 17.4618L35.8737 20.5557Z" fill="#343449"/>
<path d="M28.5749 21.9528C28.7166 22.1983 28.755 22.4901 28.6817 22.7639C28.6084 23.0378 28.4294 23.2714 28.184 23.4133C28.0762 23.4756 27.9572 23.5161 27.8337 23.5324C27.7102 23.5487 27.5848 23.5404 27.4645 23.5082C27.3442 23.4759 27.2314 23.4203 27.1327 23.3444C27.0339 23.2686 26.9511 23.174 26.8889 23.0661L25.3136 20.3378C25.2442 20.2177 25.1991 20.0851 25.181 19.9476C25.1628 19.8101 25.1719 19.6704 25.2078 19.5365C25.2437 19.4025 25.3056 19.2769 25.39 19.1669C25.4744 19.0568 25.5797 18.9645 25.6998 18.8952C25.8091 18.8321 25.9297 18.7911 26.0549 18.7746C26.18 18.7581 26.3071 18.7664 26.429 18.7991C26.5509 18.8317 26.6652 18.888 26.7654 18.9649C26.8655 19.0417 26.9495 19.1375 27.0126 19.2468L28.5749 21.9528Z" fill="#343449"/>
<path d="M22.93 26.8088C23.0559 26.8815 23.1661 26.9782 23.2546 27.0935C23.343 27.2088 23.4079 27.3403 23.4454 27.4807C23.483 27.621 23.4926 27.7674 23.4735 27.9114C23.4545 28.0554 23.4073 28.1943 23.3346 28.3201C23.2749 28.4237 23.1953 28.5145 23.1004 28.5874C23.0055 28.6602 22.8972 28.7137 22.7817 28.7446C22.6661 28.7756 22.5456 28.7835 22.4271 28.7679C22.3085 28.7523 22.1941 28.7135 22.0905 28.6536L19.3201 27.0527C19.2013 26.9841 19.0972 26.8928 19.0137 26.784C18.9302 26.6751 18.8689 26.5509 18.8334 26.4184C18.7979 26.2859 18.7889 26.1477 18.8068 26.0117C18.8247 25.8757 18.8693 25.7446 18.9379 25.6258C19.0017 25.5152 19.0867 25.4183 19.1879 25.3406C19.2892 25.2629 19.4048 25.2058 19.5281 25.1728C19.6514 25.1397 19.78 25.1313 19.9066 25.148C20.0331 25.1646 20.1552 25.206 20.2657 25.2699L22.93 26.8088Z" fill="#343449"/>
<path d="M47.7085 41.1145C47.481 40.9833 47.2106 40.9477 46.9569 41.0157C46.7032 41.0837 46.4868 41.2496 46.3554 41.4771C46.2879 41.5939 46.2442 41.7228 46.2266 41.8565C46.209 41.9902 46.2179 42.1261 46.2528 42.2564C46.2877 42.3866 46.3479 42.5088 46.43 42.6158C46.5121 42.7227 46.6145 42.8125 46.7313 42.88L49.4199 44.4322C49.5363 44.4994 49.6647 44.543 49.7979 44.5606C49.9311 44.5781 50.0665 44.5692 50.1963 44.5344C50.3261 44.4997 50.4477 44.4397 50.5543 44.3579C50.6609 44.2761 50.7503 44.1741 50.8175 44.0577C50.9492 43.8293 50.9849 43.5579 50.9166 43.3033C50.8484 43.0486 50.6818 42.8314 50.4536 42.6995L47.7085 41.1145Z" fill="#343449"/>
<path d="M31.1533 52.8845H39.0916" stroke="#343449" stroke-linecap="round" stroke-linejoin="round"/>
</svg>
