<?xml version="1.0" encoding="UTF-8"?>
<svg width="45px" height="45px" viewBox="0 0 45 45" version="1.1" xmlns="http://www.w3.org/2000/svg" xmlns:xlink="http://www.w3.org/1999/xlink">
    <!-- Generator: Sketch 61.2 (89653) - https://sketch.com -->
    <title>icon-8</title>
    <desc>Created with Sketch.</desc>
    <g id="Page-1" stroke="none" stroke-width="1" fill="none" fill-rule="evenodd" stroke-linecap="round" stroke-linejoin="round">
        <g id="icon-8" transform="translate(1.000000, 1.000000)" stroke="#A616D4">
            <path d="M42.6027,4.49595 C42.9776,5.54382 43.0893,6.66775 42.9281,7.76893 C42.7668,8.8701 42.3375,9.9148 41.6779,10.8112 C41.0183,11.7076 40.1486,12.4282 39.1452,12.9097 C38.1419,13.3912 37.0355,13.6188 35.9236,13.5726 C35.3406,13.5488 34.7633,13.4484 34.2066,13.2738 C33.3436,13.006 32.5428,12.5686 31.851,11.9872 C31.1593,11.4059 30.5905,10.6923 30.1781,9.8883 C29.7657,9.0843 29.5179,8.20605 29.4493,7.30506 C29.3807,6.40407 29.4926,5.49845 29.7785,4.64127 C30.0644,3.78409 30.5185,2.9926 31.1143,2.3132 C31.71,1.6338 32.4354,1.08015 33.2478,0.6847 C34.0603,0.28925 34.9436,0.05997 35.8458,0.01027 C36.748,-0.039417 37.6511,0.09149 38.5021,0.39532" id="Path"></path>
            <path d="M4.52376,42.5747 C5.57164,42.9499 6.69567,43.0619 7.79697,42.9007 C8.89827,42.7396 9.9431,42.3103 10.8396,41.6507 C11.736,40.991 12.4567,40.1211 12.9381,39.1176 C13.4195,38.1141 13.6469,37.0076 13.6004,35.8956 C13.5763,35.3127 13.4759,34.7354 13.3017,34.1786 C12.976,33.1231 12.3977,32.163 11.6169,31.3816 C10.8361,30.6003 9.8763,30.0213 8.82101,29.695 C8.0796,29.4648 7.30388,29.3648 6.52831,29.3996 C5.63737,29.4372 4.76255,29.6499 3.95386,30.0258 C3.14518,30.4016 2.41846,30.933 1.81523,31.5898 C1.212,32.2465 0.74409,33.0157 0.43821,33.8534 C0.13234,34.691 -0.005514,35.5807 0.03256,36.4716 C0.06001,37.1553 0.19172,37.8308 0.42313,38.4747" id="Path"></path>
            <line x1="8.82129" y1="29.6952" x2="29.7229" y2="8.79321" id="Path"></line>
            <line x1="13.0742" y1="28.4727" x2="24.5982" y2="16.9487" id="Path"></line>
            <line x1="34.2066" y1="13.2739" x2="13.3018" y2="34.1788" id="Path"></line>
            <polyline id="Path" points="42.6025 4.49589 36.7966 10.302 32.6963 6.20141 38.5018 0.39526"></polyline>
            <polyline id="Path" points="4.52348 42.5749 10.3296 36.769 6.229 32.6687 0.42285 38.4746"></polyline>
            <line x1="18.605" y1="14.082" x2="14.0176" y2="18.6695" id="Path"></line>
            <line x1="41.277" y1="34.2206" x2="26.4395" y2="21.0413" id="Path"></line>
            <line x1="21.6929" y1="16.8236" x2="18.6064" y2="14.0811" id="Path"></line>
            <line x1="34.1568" y1="41.338" x2="20.9775" y2="26.5024" id="Path"></line>
            <line x1="16.76" y1="21.7539" x2="14.0195" y2="18.6694" id="Path"></line>
            <polygon id="Path" points="16.3296 13.0452 12.9824 16.3923 14.6395 18.0494 17.9867 14.7023"></polygon>
            <polygon id="Path" points="5.04084 3.5512 3.49023 5.10181 13.8798 15.4913 15.4304 13.9407"></polygon>
            <polygon id="Path" points="2.48156 0.0628 0 2.54419 3.02418 5.56858 5.50574 3.0872"></polygon>
            <path d="M41.2765,34.2188 C41.3528,34.2854 41.4255,34.3552 41.4968,34.4268 C41.9672,34.8947 42.3407,35.4508 42.5959,36.0632 C42.851,36.6757 42.9828,37.3325 42.9837046,37.9959 C42.9846,38.6594 42.8545,39.3165 42.6011,39.9296 C42.3476,40.5427 41.9756,41.0998 41.5065,41.569 C41.0373,42.0381 40.4802,42.4101 39.8671,42.6636 C39.254,42.917 38.5969,43.0471 37.9334,43.0462046 C37.27,43.0453 36.6132,42.9135 36.0007,42.6584 C35.3883,42.4032 34.8322,42.0297 34.3643,41.5593 C34.293,41.4877 34.2229,41.4152 34.1562,41.3392" id="Path"></path>
            <path d="M31.1611,34.22 L36.5655,39.9343 C36.5655,39.9343 38.1281,41.1063 39.7559,39.9343" id="Path"></path>
        </g>
    </g>
</svg>