<svg width="52" height="52" viewBox="0 0 52 52" fill="none" xmlns="http://www.w3.org/2000/svg">
<path d="M27.9598 23.3204C27.2701 22.957 26.4881 22.8063 25.7127 22.8873C24.9373 22.9684 24.2033 23.2775 23.6037 23.7757C23.004 24.2739 22.5655 24.9387 22.3436 25.6861C22.1218 26.4334 22.1265 27.2298 22.3573 27.9745C22.5881 28.7192 23.0345 29.3787 23.6401 29.8697C24.2457 30.3606 24.9832 30.661 25.7596 30.7328C26.5359 30.8045 27.316 30.6445 28.0014 30.2729C28.6867 29.9013 29.2465 29.3348 29.6098 28.645" stroke="#343449" stroke-linecap="round" stroke-linejoin="round"/>
<path d="M43.2967 43.2968C52.9243 33.6692 52.9243 18.0598 43.2967 8.43225C33.6692 -1.19531 18.0598 -1.19531 8.43225 8.43225C-1.19532 18.0598 -1.19532 33.6692 8.43225 43.2968C18.0598 52.9243 33.6692 52.9243 43.2967 43.2968Z" stroke="#343449" stroke-linecap="round" stroke-linejoin="round"/>
<path d="M25.8641 5.03296C21.744 5.03289 17.7164 6.25459 14.2907 8.54355C10.8649 10.8325 8.19479 14.0859 6.61804 17.8924C5.0413 21.6989 4.62871 25.8874 5.43247 29.9284C6.23622 33.9693 8.22021 37.6812 11.1335 40.5945C14.0469 43.5079 17.7587 45.492 21.7996 46.2958C25.8406 47.0996 30.0291 46.6871 33.8356 45.1104C37.6421 43.5337 40.8956 40.8637 43.1846 37.438C45.4736 34.0122 46.6954 29.9846 46.6954 25.8645C46.6954 20.3397 44.5007 15.0412 40.5941 11.1345C36.6874 7.22785 31.3889 5.03305 25.8641 5.03296V5.03296Z" stroke="#343449" stroke-linecap="round" stroke-linejoin="round"/>
<path d="M33.6791 35.6611H18.5664V40.5919H33.6791V35.6611Z" stroke="#343449" stroke-linecap="round" stroke-linejoin="round"/>
<path d="M42.2046 21.3401L26.4365 27.9465L25.7451 25.7842L42.2046 21.3404" stroke="#343449" stroke-linecap="round" stroke-linejoin="round"/>
<path d="M40.1494 26.8731C39.8769 26.8731 39.6156 26.7649 39.423 26.5722C39.2303 26.3796 39.1221 26.1183 39.1221 25.8458C39.1221 25.7158 39.1477 25.5871 39.1974 25.467C39.2472 25.3469 39.3201 25.2378 39.412 25.1459C39.504 25.054 39.6131 24.9811 39.7332 24.9314C39.8533 24.8817 39.982 24.8562 40.112 24.8562H43.242C43.3777 24.8562 43.5122 24.8829 43.6376 24.9349C43.7631 24.9869 43.8771 25.063 43.9731 25.159C44.0691 25.2551 44.1453 25.369 44.1972 25.4945C44.2492 25.6199 44.2759 25.7544 44.2759 25.8902C44.2759 26.0191 44.2505 26.1468 44.2012 26.2659C44.1518 26.3851 44.0795 26.4933 43.9883 26.5845C43.8971 26.6757 43.7889 26.748 43.6698 26.7974C43.5506 26.8467 43.4229 26.8721 43.294 26.8721L40.1494 26.8731Z" fill="#343449"/>
<path d="M11.5076 26.873C11.7996 26.873 12.0795 26.757 12.2859 26.5506C12.4923 26.3442 12.6083 26.0642 12.6083 25.7723C12.6082 25.5289 12.5115 25.2955 12.3393 25.1235C12.1672 24.9514 11.9338 24.8547 11.6904 24.8547H8.52879C8.38745 24.8546 8.24748 24.8824 8.11689 24.9365C7.9863 24.9906 7.86765 25.0699 7.76774 25.1698C7.66783 25.2698 7.58862 25.3885 7.53464 25.5191C7.48065 25.6498 7.45295 25.7897 7.45313 25.9311C7.45308 26.0547 7.4774 26.1772 7.5247 26.2915C7.572 26.4058 7.64135 26.5096 7.72879 26.5971C7.81623 26.6846 7.92005 26.754 8.03431 26.8013C8.14857 26.8486 8.27103 26.873 8.39471 26.873H11.5076Z" fill="#343449"/>
<path d="M38.7173 19.6089C38.6034 19.6747 38.4777 19.7174 38.3473 19.7345C38.2169 19.7517 38.0845 19.743 37.9575 19.7089C37.8305 19.6748 37.7114 19.6161 37.6071 19.5359C37.5029 19.4558 37.4154 19.3559 37.3498 19.242L37.3087 19.1706C37.2474 19.0644 37.2076 18.9472 37.1916 18.8256C37.1756 18.704 37.1837 18.5804 37.2154 18.4619C37.2472 18.3435 37.3019 18.2324 37.3766 18.1351C37.4513 18.0378 37.5444 17.9562 37.6506 17.8948L40.5671 16.2111C40.7631 16.098 40.9959 16.0674 41.2145 16.126C41.433 16.1847 41.6194 16.3277 41.7325 16.5237L41.7888 16.6214C41.9276 16.8627 41.965 17.1491 41.8929 17.418C41.8208 17.6868 41.6451 17.9161 41.4043 18.0556L38.7173 19.6089Z" fill="#343449"/>
<path d="M13.933 33.9179C14.0584 33.8456 14.1684 33.7493 14.2566 33.6345C14.3448 33.5197 14.4095 33.3886 14.447 33.2487C14.4844 33.1089 14.4939 32.963 14.4749 32.8195C14.4559 32.6759 14.4088 32.5376 14.3362 32.4123C14.2147 32.2024 14.0147 32.0493 13.7804 31.9867C13.546 31.9242 13.2964 31.9573 13.0864 32.0787L10.2147 33.7361C10.1096 33.7967 10.0175 33.8775 9.94372 33.9737C9.86989 34.07 9.81574 34.1798 9.78437 34.297C9.75299 34.4142 9.745 34.5364 9.76085 34.6566C9.77671 34.7769 9.81611 34.8928 9.87678 34.9979C10.0218 35.249 10.2606 35.4321 10.5407 35.5072C10.8208 35.5823 11.1192 35.543 11.3704 35.3981L13.933 33.9179Z" fill="#343449"/>
<path d="M33.862 14.0299C33.797 14.1426 33.7105 14.2413 33.6073 14.3205C33.5041 14.3997 33.3864 14.4578 33.2607 14.4915C33.1351 14.5252 33.004 14.5337 32.8751 14.5167C32.7461 14.4998 32.6218 14.4575 32.5092 14.3924C32.2737 14.256 32.102 14.0316 32.0318 13.7686C31.9616 13.5056 31.9987 13.2255 32.1349 12.9899L33.7076 10.2662C33.7721 10.1544 33.858 10.0565 33.9603 9.97793C34.0627 9.89937 34.1795 9.84174 34.3042 9.80835C34.4288 9.77496 34.5588 9.76647 34.6867 9.78333C34.8147 9.8002 34.938 9.84211 35.0497 9.90666C35.1674 9.97451 35.2706 10.0649 35.3533 10.1726C35.4361 10.2804 35.4968 10.4034 35.532 10.5346C35.5671 10.6658 35.5761 10.8026 35.5584 10.9373C35.5407 11.072 35.4966 11.2019 35.4286 11.3195L33.862 14.0299Z" fill="#343449"/>
<path d="M26.8737 11.5557C26.8737 11.694 26.8465 11.8309 26.7936 11.9586C26.7408 12.0864 26.6632 12.2024 26.5655 12.3002C26.4677 12.3979 26.3517 12.4755 26.2239 12.5283C26.0962 12.5812 25.9593 12.6084 25.821 12.6084C25.5652 12.6084 25.3199 12.5068 25.139 12.3259C24.9581 12.145 24.8564 11.8996 24.8564 11.6438V8.46183C24.8564 8.19437 24.9627 7.93786 25.1518 7.74874C25.3409 7.55962 25.5974 7.45337 25.8649 7.45337C26.1324 7.45337 26.3889 7.55962 26.578 7.74874C26.7671 7.93786 26.8734 8.19437 26.8734 8.46183L26.8737 11.5557Z" fill="#343449"/>
<path d="M19.5749 12.9528C19.7166 13.1983 19.755 13.4901 19.6817 13.7639C19.6084 14.0378 19.4294 14.2714 19.184 14.4133C19.0762 14.4756 18.9572 14.5161 18.8337 14.5324C18.7102 14.5487 18.5848 14.5404 18.4645 14.5082C18.3442 14.4759 18.2314 14.4203 18.1327 14.3444C18.0339 14.2686 17.9511 14.174 17.8889 14.0661L16.3136 11.3378C16.2442 11.2177 16.1991 11.0851 16.181 10.9476C16.1628 10.8101 16.1719 10.6704 16.2078 10.5365C16.2437 10.4025 16.3056 10.2769 16.39 10.1669C16.4744 10.0568 16.5797 9.96453 16.6998 9.8952C16.8091 9.83207 16.9297 9.7911 17.0549 9.7746C17.18 9.7581 17.3071 9.76642 17.429 9.79907C17.5509 9.83172 17.6652 9.88805 17.7654 9.96486C17.8655 10.0417 17.9495 10.1375 18.0126 10.2468L19.5749 12.9528Z" fill="#343449"/>
<path d="M13.93 17.8088C14.0559 17.8815 14.1661 17.9782 14.2546 18.0935C14.343 18.2088 14.4079 18.3403 14.4454 18.4807C14.483 18.621 14.4926 18.7674 14.4735 18.9114C14.4545 19.0554 14.4073 19.1943 14.3346 19.3201C14.2749 19.4237 14.1953 19.5145 14.1004 19.5874C14.0055 19.6602 13.8972 19.7137 13.7817 19.7446C13.6661 19.7756 13.5456 19.7835 13.4271 19.7679C13.3085 19.7523 13.1941 19.7135 13.0905 19.6536L10.3201 18.0527C10.2013 17.9841 10.0972 17.8928 10.0137 17.784C9.93017 17.6751 9.86891 17.5509 9.83342 17.4184C9.79792 17.2859 9.78888 17.1477 9.80681 17.0117C9.82474 16.8757 9.86929 16.7446 9.93791 16.6258C10.0017 16.5152 10.0867 16.4183 10.1879 16.3406C10.2892 16.2629 10.4048 16.2058 10.5281 16.1728C10.6514 16.1397 10.78 16.1313 10.9066 16.148C11.0331 16.1646 11.1552 16.206 11.2657 16.2699L13.93 17.8088Z" fill="#343449"/>
<path d="M38.7085 32.1145C38.481 31.9833 38.2106 31.9477 37.9569 32.0157C37.7032 32.0837 37.4868 32.2496 37.3554 32.4771C37.2879 32.5939 37.2442 32.7228 37.2266 32.8565C37.209 32.9902 37.2179 33.1261 37.2528 33.2564C37.2877 33.3866 37.3479 33.5088 37.43 33.6158C37.5121 33.7227 37.6145 33.8125 37.7313 33.88L40.4199 35.4322C40.5363 35.4994 40.6647 35.543 40.7979 35.5606C40.9311 35.5781 41.0665 35.5692 41.1963 35.5344C41.3261 35.4997 41.4477 35.4397 41.5543 35.3579C41.6609 35.2761 41.7503 35.1741 41.8175 35.0577C41.9492 34.8293 41.9849 34.5579 41.9166 34.3033C41.8484 34.0486 41.6818 33.8314 41.4536 33.6995L38.7085 32.1145Z" fill="#343449"/>
<path d="M22.1533 43.8845H30.0916" stroke="#343449" stroke-linecap="round" stroke-linejoin="round"/>
</svg>
