<svg width="93" height="77" viewBox="0 0 93 77" fill="none" xmlns="http://www.w3.org/2000/svg">
<path d="M25.7558 50.8296L20.1885 49.9142C20.1885 49.9142 19.4837 47.2173 20.1885 46.5862C21.7707 45.1717 23.2253 43.4894 23.2253 41.3998V38.0994C23.1973 36.9473 22.7017 35.8532 21.8474 35.0575C20.9931 34.2618 19.8501 33.8297 18.6694 33.856H16.0243C14.8586 33.8563 13.7408 34.3084 12.9166 35.1129C12.0925 35.9174 11.6295 37.0084 11.6295 38.1459V41.3998C11.6295 43.4894 13.2748 45.1126 14.6663 46.5862C15.3105 47.2651 14.6663 49.8866 14.6663 49.8866L8.59269 50.8296C4.25972 50.8296 1 52.6878 1 56.7238V64.9805H33.8548V56.7301C33.8548 52.6878 30.0887 50.8296 25.7558 50.8296Z" stroke="#A616D4" stroke-width="1.5" stroke-miterlimit="10"/>
<path d="M83.6845 50.8296L78.1172 49.9142C78.1172 49.9142 77.4125 47.2173 78.1172 46.5862C79.6994 45.1717 81.154 43.4894 81.154 41.3998V38.0994C81.126 36.9473 80.6304 35.8532 79.7761 35.0575C78.9218 34.2618 77.7788 33.8297 76.5981 33.856H73.953C72.7873 33.8563 71.6695 34.3084 70.8453 35.1129C70.0212 35.9174 69.5582 37.0084 69.5582 38.1459V41.3998C69.5582 43.4894 71.2035 45.1126 72.595 46.5862C73.2392 47.2651 72.595 49.8866 72.595 49.8866L66.5214 50.8296C62.1884 50.8296 58.9287 52.6878 58.9287 56.7238V64.9805H91.7835V56.7301C91.7835 52.6878 88.0175 50.8296 83.6845 50.8296Z" stroke="#A616D4" stroke-width="1.5" stroke-miterlimit="10"/>
<path d="M55.8158 59.5908L49.5161 58.5294C49.5161 58.5294 48.7185 55.4021 49.5161 54.6702C51.3064 53.03 52.9524 51.0793 52.9524 48.6561V44.829C52.9207 43.4931 52.3599 42.2243 51.3932 41.3017C50.4265 40.379 49.1331 39.8779 47.7971 39.9084H44.8039C43.4848 39.9088 42.2199 40.4331 41.2873 41.3659C40.3547 42.2988 39.8309 43.5639 39.8309 44.8829V48.6561C39.8309 51.0793 41.6927 52.9615 43.2672 54.6702C43.9962 55.4575 43.2672 58.4973 43.2672 58.4973L36.3945 59.5908C31.4914 59.5908 27.8027 61.7456 27.8027 66.4257V76.0001H64.9806V66.433C64.9806 61.7456 60.7189 59.5908 55.8158 59.5908Z" fill="white" stroke="#A616D4" stroke-width="1.5" stroke-miterlimit="10"/>
<path d="M51.1885 6.83882L45.98 10.0839L40.7715 6.83882L45.98 3.59375L51.1885 6.83882Z" stroke="#A616D4" stroke-width="0.75" stroke-linejoin="round"/>
<path d="M45.98 15.2762L40.7715 12.2474V6.83887L45.98 10.0839V15.2762Z" stroke="#A616D4" stroke-width="0.75" stroke-linejoin="round"/>
<path d="M45.9805 15.2762L51.189 12.2474V6.83887L45.9805 10.0839V15.2762Z" stroke="#A616D4" stroke-width="0.75" stroke-linejoin="round"/>
<path d="M42.8545 8.13692L48.063 4.89185" stroke="#A616D4" stroke-width="0.75" stroke-linejoin="round"/>
<path d="M43.8965 8.78596L49.105 5.54089" stroke="#A616D4" stroke-width="0.75" stroke-linejoin="round"/>
<path d="M43.8965 8.78613V13.9783" stroke="#A616D4" stroke-width="0.75" stroke-linejoin="round"/>
<path d="M42.8545 8.13696V13.3291" stroke="#A616D4" stroke-width="0.75" stroke-linejoin="round"/>
<path d="M55.7171 1H37.0659C36.2475 1 35.584 1.66141 35.584 2.4773V15.0855C35.584 15.9014 36.2475 16.5628 37.0659 16.5628H55.7171C56.5355 16.5628 57.199 15.9014 57.199 15.0855V2.4773C57.199 1.66141 56.5355 1 55.7171 1Z" stroke="#A616D4" stroke-width="1.5" stroke-miterlimit="10"/>
<path d="M46.6006 16.3906V32.1549" stroke="#A616D4" stroke-width="1.5" stroke-miterlimit="10"/>
<path d="M23.4795 32.155C23.4797 30.2039 24.255 28.3328 25.6347 26.9532C27.0143 25.5735 28.8853 24.7983 30.8364 24.7981H62.3641C64.3152 24.7983 66.1863 25.5735 67.5659 26.9532C68.9455 28.3328 69.7208 30.2039 69.7211 32.155" stroke="#A616D4" stroke-width="1.5" stroke-miterlimit="10"/>
</svg>
