<svg width="52" height="49" viewBox="0 0 52 49" fill="none" xmlns="http://www.w3.org/2000/svg">
<path d="M51.0012 2.6377L50.5968 4.9406L50.5856 4.99887V5.00112C50.5102 5.03576 50.4376 5.07009 50.3602 5.10246C50.0112 5.24707 49.6437 5.34783 49.2672 5.4022C49.0386 5.43444 48.8077 5.45036 48.5765 5.4498C48.5104 5.4498 48.4446 5.44753 48.3809 5.44559L48.4719 4.9406L48.8012 3.04362C48.8946 3.0501 48.9877 3.05237 49.0832 3.05237C49.353 3.05238 49.6223 3.0292 49.8877 2.9831C50.22 2.92641 50.5441 2.83297 50.8535 2.70469C50.9041 2.68507 50.9533 2.6627 51.0012 2.6377Z" fill="#343449"/>
<path d="M50.1579 7.43115L50.1487 7.48294L49.7625 9.68194C49.2178 9.9261 48.6258 10.0606 48.0238 10.0769C47.9761 10.0769 47.9307 10.0791 47.8854 10.0791C47.7783 10.0791 47.6716 10.0749 47.5693 10.0681L47.9512 7.88434C48.0033 7.88661 48.0603 7.88661 48.1148 7.88661C48.2795 7.8874 48.444 7.87941 48.6078 7.86267C49.0647 7.81635 49.5115 7.70436 49.9329 7.53053C50.0103 7.50011 50.0829 7.46547 50.1579 7.43115Z" fill="#343449"/>
<path d="M48.3804 5.44553L48.0235 7.48265L47.9509 7.88405C47.6146 7.87526 47.2806 7.82964 46.9554 7.74809C46.5992 7.6603 46.2557 7.53124 45.9326 7.36384L45.9507 7.26252L46.3666 4.89746C46.7505 5.1093 47.1669 5.26286 47.6007 5.3526C47.8573 5.40476 48.1182 5.43586 48.3804 5.44553Z" fill="#343449"/>
<path d="M46.7935 2.45513L46.3984 4.72112L46.3664 4.89819C46.2688 4.84854 46.1748 4.79297 46.0848 4.73181C45.8993 4.61253 45.7238 4.47984 45.5598 4.33493C45.5598 4.33267 45.5597 4.33266 45.5574 4.33266C45.2812 4.11662 44.9763 3.93596 44.6505 3.79531C44.6191 3.77947 44.5865 3.76584 44.553 3.75453C44.4893 3.72831 44.4255 3.70241 44.3594 3.67877L44.4276 3.29031L44.7842 1.25513V1.25317C44.9447 1.30602 45.1018 1.36796 45.2546 1.43866C45.5522 1.57492 45.8316 1.74445 46.0868 1.94365C46.2708 2.10933 46.471 2.25816 46.6844 2.38813V2.39038L46.7935 2.45513Z" fill="#343449"/>
<path d="M45.9324 7.36409L45.5645 9.45756C45.5325 9.4404 45.5028 9.4229 45.4731 9.40348C45.3407 9.32359 45.2132 9.23648 45.0913 9.14258H45.0893C45.0893 9.14031 45.0869 9.1403 45.0869 9.13803C45.0707 9.12787 45.0556 9.1164 45.0415 9.10373C45.0066 9.0788 44.9732 9.0521 44.9413 9.02377C44.9185 9.00208 44.896 8.98266 44.8731 8.96324C44.4785 8.65998 44.0318 8.42346 43.5527 8.26402L43.9301 6.12329C43.9594 6.13203 43.9891 6.14499 44.0164 6.15567C44.3845 6.30683 44.7288 6.50586 45.0391 6.74709C45.0415 6.74709 45.0415 6.7513 45.0436 6.7513C45.1729 6.86693 45.3096 6.97504 45.4527 7.07501C45.6069 7.17967 45.767 7.27617 45.9324 7.36409Z" fill="#343449"/>
<path d="M44.36 3.67806L43.9829 5.82978L43.9307 6.12306C43.4545 5.9333 42.9482 5.8205 42.4327 5.78931C42.3417 5.78284 42.2483 5.78058 42.1552 5.78058C42.0209 5.77984 41.8866 5.78556 41.7529 5.79773L41.7846 5.60772L42.1689 3.41747L42.2142 3.41099C42.3847 3.39166 42.5563 3.38226 42.728 3.38284C42.8433 3.38242 42.9585 3.38749 43.0733 3.39805C43.5143 3.43096 43.9479 3.5253 44.36 3.67806Z" fill="#343449"/>
<path d="M42.5853 1.04956L42.2331 3.07147L42.1693 3.41915C41.8899 3.45131 41.6144 3.50908 41.3467 3.59167C40.794 3.76112 40.2819 4.03252 39.8398 4.39029L40.2305 2.14597C40.7235 1.70507 41.3158 1.37661 41.9624 1.18551C42.1665 1.12674 42.3746 1.08132 42.5853 1.04956Z" fill="#343449"/>
<path d="M41.7531 5.79956L41.3508 8.08304C40.8949 8.15092 40.4536 8.28855 40.0441 8.49059C39.661 8.68056 39.3081 8.9211 38.9961 9.20504L39.4441 6.63022C39.8238 6.36047 40.2466 6.15009 40.6963 6.00706C40.9833 5.91486 41.2797 5.85119 41.5806 5.81705C41.6372 5.81057 41.6962 5.80409 41.7531 5.79956Z" fill="#343449"/>
<path d="M46.0869 1.94312C46.271 2.10879 46.471 2.2576 46.6845 2.38757V2.38984L46.7933 2.45457C47.23 2.70463 47.7092 2.88056 48.2095 2.97446C48.4045 3.01047 48.6019 3.03361 48.8003 3.04373C48.8937 3.0502 48.9868 3.05248 49.0822 3.05248C49.3521 3.05249 49.6214 3.02931 49.8868 2.98321C50.2191 2.92652 50.5432 2.83307 50.8526 2.7048C50.9031 2.68518 50.9524 2.66281 51.0002 2.6378" stroke="#343449" stroke-width="0.5" stroke-linecap="round" stroke-linejoin="round"/>
<path d="M40.2295 2.14594C40.7225 1.70504 41.3147 1.37658 41.9614 1.18549C42.1655 1.12672 42.3736 1.0813 42.5842 1.04953C42.6681 1.03658 42.7547 1.02785 42.8409 1.01911C42.9841 1.00648 43.1297 1 43.2753 1C43.4116 1 43.5501 1.00648 43.6844 1.01911C44.0598 1.05284 44.4293 1.13126 44.7842 1.25251C44.9448 1.30535 45.1019 1.36729 45.2547 1.43799C45.5522 1.57426 45.8316 1.74379 46.0868 1.94299" stroke="#343449" stroke-width="0.5" stroke-linecap="round" stroke-linejoin="round"/>
<path d="M50.5851 5.00117C50.5098 5.03581 50.4371 5.07014 50.3597 5.10251C50.0107 5.24713 49.6433 5.34789 49.2668 5.40226C49.0381 5.4345 48.8072 5.45042 48.5761 5.44986C48.5099 5.44986 48.4441 5.44759 48.3804 5.44565C48.1182 5.43598 47.8573 5.40488 47.6007 5.35273C47.1668 5.26299 46.7504 5.10942 46.3666 4.89758C46.269 4.84793 46.175 4.79236 46.085 4.7312" stroke="#343449" stroke-width="0.5" stroke-miterlimit="10"/>
<path d="M39.8389 4.39032C40.2809 4.03255 40.793 3.76115 41.3457 3.59171C41.6134 3.50911 41.8889 3.45134 42.1684 3.41918L42.2137 3.4127C42.3842 3.39337 42.5558 3.38397 42.7275 3.38455C42.8428 3.38412 42.9581 3.3892 43.0728 3.39976C43.5137 3.43218 43.9471 3.52598 44.3591 3.67815C44.4253 3.70178 44.489 3.72768 44.5528 3.7539C44.5863 3.76522 44.6189 3.77884 44.6503 3.79468C44.976 3.93534 45.2809 4.11601 45.5571 4.33206C45.5595 4.33206 45.5595 4.33204 45.5595 4.33431C45.7235 4.47922 45.899 4.61191 46.0845 4.73119" stroke="#343449" stroke-width="0.5" stroke-miterlimit="10"/>
<path d="M50.1578 7.43087C50.0828 7.46518 50.0102 7.49982 49.9328 7.53025C49.5113 7.70363 49.0645 7.81517 48.6076 7.86108C48.4439 7.87782 48.2793 7.88581 48.1147 7.88502C48.0601 7.88502 48.0032 7.88504 47.951 7.88277C47.6148 7.87398 47.2808 7.82834 46.9556 7.7468C46.5994 7.659 46.2559 7.52997 45.9328 7.36256C45.7674 7.27465 45.6073 7.17814 45.4531 7.07349" stroke="#343449" stroke-width="0.5" stroke-miterlimit="10"/>
<path d="M39.4434 6.63084C39.8231 6.36109 40.2458 6.15072 40.6955 6.00769C40.9826 5.9155 41.279 5.8518 41.5799 5.81766C41.6365 5.81118 41.6955 5.8047 41.7524 5.80017C41.8861 5.788 42.0204 5.78228 42.1547 5.78302C42.2478 5.78302 42.3412 5.78528 42.4322 5.79176C42.9474 5.82246 43.4536 5.93472 43.9298 6.12389C43.9592 6.13263 43.9888 6.14559 44.0161 6.15627C44.3843 6.30742 44.7285 6.50646 45.0389 6.74768C45.0412 6.74768 45.0412 6.75189 45.0433 6.75189C45.1727 6.86753 45.3093 6.97563 45.4524 7.07561" stroke="#343449" stroke-width="0.5" stroke-miterlimit="10"/>
<path d="M38.9961 9.20499C39.3081 8.92105 39.661 8.68051 40.0441 8.49054C40.4536 8.28851 40.8949 8.15088 41.3508 8.083C41.5121 8.0571 41.6781 8.04188 41.8438 8.03087C41.9215 8.02667 41.9986 8.02441 42.078 8.02441C42.5505 8.02473 43.02 8.09618 43.469 8.23612C43.4962 8.24454 43.5238 8.25328 43.5532 8.26396C44.0323 8.4234 44.4789 8.65992 44.8735 8.96317C44.8964 8.98259 44.9189 9.00202 44.9417 9.02371C44.9736 9.05204 45.0071 9.07873 45.042 9.10367C45.056 9.11634 45.0712 9.1278 45.0873 9.13797C45.0873 9.14024 45.0897 9.14025 45.0897 9.14251H45.0917C45.2136 9.23642 45.3411 9.32353 45.4736 9.40342C45.5032 9.42284 45.5329 9.44034 45.5649 9.4575C45.8293 9.61539 46.1121 9.74357 46.4077 9.83948C46.7821 9.9655 47.1729 10.0424 47.5692 10.068C47.6715 10.0748 47.7782 10.079 47.8852 10.079C47.9306 10.079 47.9759 10.0767 48.0236 10.0767C48.6257 10.0604 49.2177 9.92599 49.7623 9.68183" stroke="#343449" stroke-width="0.5" stroke-linecap="round" stroke-linejoin="round"/>
<path d="M37.873 15.6726L38.9957 9.20513L39.4433 6.63032L39.8388 4.39054L40.2298 2.14624" stroke="#343449" stroke-width="0.5" stroke-linecap="round" stroke-linejoin="round"/>
<path d="M42.5847 1.04956L42.2325 3.07147L42.1688 3.41915L41.7846 5.60939L41.7529 5.7994L41.3506 8.08289" stroke="#343449" stroke-width="0.5" stroke-miterlimit="10"/>
<path d="M44.7845 1.25464L44.4275 3.28982L44.3594 3.67828L43.9823 5.83L43.9301 6.12329L43.5527 8.26402" stroke="#343449" stroke-width="0.5" stroke-miterlimit="10"/>
<path d="M46.7941 2.45483L46.3987 4.72083L46.367 4.8979L45.9507 7.26328L45.9327 7.3646L45.5645 9.45807" stroke="#343449" stroke-width="0.5" stroke-miterlimit="10"/>
<path d="M48.8007 3.0437L48.4714 4.94068L48.3804 5.44599L48.0238 7.48311L47.9512 7.88453L47.5693 10.0686" stroke="#343449" stroke-width="0.5" stroke-miterlimit="10"/>
<path d="M50.5853 5.00098L50.1578 7.43079L50.149 7.48257L49.7627 9.68157" stroke="#343449" stroke-width="0.5" stroke-linecap="round" stroke-linejoin="round"/>
<path d="M50.585 4.99902V5.0016" stroke="#343449" stroke-width="0.5" stroke-miterlimit="10"/>
<path d="M51.0009 2.6377L50.5962 4.94026L50.585 4.99887" stroke="#343449" stroke-width="0.5" stroke-linecap="round" stroke-linejoin="round"/>
<path d="M25.8849 7.11658C22.264 8.25477 18.3533 8.25477 14.7324 7.11658C15.2281 4.39738 17.5389 2.33984 20.3085 2.33984C23.0781 2.33984 25.3892 4.39544 25.8849 7.11658Z" stroke="#343449" stroke-linecap="round" stroke-linejoin="round"/>
<path d="M25.9868 8.21718C25.9903 9.16905 25.7647 10.1091 25.3272 10.9655C22.0517 11.8829 18.567 11.8829 15.2915 10.9655C14.686 9.76923 14.4907 8.42278 14.7331 7.1156C15.2288 4.39641 17.5395 2.33887 20.3092 2.33887C23.0788 2.33887 25.3889 4.39576 25.8856 7.1156C25.9534 7.47926 25.9873 7.84787 25.9868 8.21718Z" stroke="#343449" stroke-linecap="round" stroke-linejoin="round"/>
<path d="M25.9868 8.21718C25.9903 9.16905 25.7647 10.1091 25.3272 10.9655C24.9035 11.8951 24.2026 12.6866 23.3111 13.2427C22.4195 13.7988 21.3761 14.095 20.3093 14.095C19.2426 14.095 18.1992 13.7988 17.3076 13.2427C16.416 12.6866 15.7152 11.8951 15.2915 10.9655C14.686 9.76923 14.4907 8.42278 14.7331 7.1156C15.2288 4.39641 17.5395 2.33887 20.3092 2.33887C23.0788 2.33887 25.3889 4.39576 25.8856 7.1156C25.9534 7.47926 25.9873 7.84787 25.9868 8.21718Z" stroke="#343449" stroke-linecap="round" stroke-linejoin="round"/>
<path d="M19.4848 11.6343H19.4814" stroke="#343449" stroke-linecap="round" stroke-linejoin="round"/>
<path d="M16.6582 12.7168C16.1439 13.0691 15.6837 13.4875 15.2907 13.9601C15.2183 14.0468 15.1224 14.1131 15.0132 14.1519C14.9041 14.1907 14.7859 14.2005 14.6713 14.1803V14.1803L8.06938 13.0149L5.78524 6.82354C5.61693 6.36581 5.30276 5.96918 4.88631 5.68866C4.46987 5.40814 3.97178 5.25764 3.46119 5.25806C3.18403 5.25852 2.9089 5.30284 2.64707 5.38917C2.03123 5.59432 1.52634 6.02324 1.2434 6.58168C0.960465 7.14012 0.92261 7.78241 1.13816 8.36734L3.89279 15.838C4.03572 16.2264 4.28425 16.572 4.61319 16.8397C4.94212 17.1075 5.33977 17.2879 5.76581 17.3627L11.4902 18.3753C12.1057 18.4841 12.6616 18.794 13.0618 19.2512C13.4619 19.7084 13.6809 20.2841 13.6809 20.8785V26.1185C13.6807 26.6067 13.8846 27.0751 14.2479 27.4205C14.6112 27.766 15.1042 27.9603 15.6184 27.9608H24.9991C25.5133 27.9602 26.0061 27.7659 26.3694 27.4204C26.7328 27.075 26.9367 26.6067 26.9366 26.1185V20.605L30.1119 23.5155C30.4714 23.8438 30.9273 24.0609 31.4194 24.1383C31.9114 24.2158 32.4167 24.1499 32.8685 23.9493L39.016 20.1262C39.3087 19.9957 39.5714 19.8118 39.7893 19.5849C40.0071 19.358 40.1757 19.0926 40.2855 18.8038C40.3953 18.515 40.4441 18.2085 40.4291 17.9018C40.4142 17.5951 40.3357 17.2942 40.1983 17.0163C40.0609 16.7384 39.8672 16.4889 39.6282 16.2821C39.3892 16.0753 39.1097 15.9152 38.8056 15.8109C38.5014 15.7067 38.1787 15.6603 37.8557 15.6745C37.5327 15.6887 37.2158 15.7632 36.9231 15.8937L32.3101 19.0314L27.7278 14.8316C27.4066 14.5351 27.0055 14.3283 26.5687 14.234C25.8463 14.078 25.1815 13.7401 24.6442 13.2557C24.4289 13.0618 24.2002 12.8818 23.9596 12.7168" stroke="#343449" stroke-linecap="round" stroke-linejoin="round"/>
<path d="M20.3089 35.4221C20.3667 35.4009 20.4282 35.3899 20.4902 35.3897L24.4313 46.1496C24.5737 46.678 24.8969 47.1465 25.3502 47.4814C25.8036 47.8163 26.3613 47.9987 26.9357 47.9999C27.1524 48 27.3682 47.9739 27.5779 47.9223C27.9072 47.8425 28.2167 47.7019 28.4887 47.5086C28.7607 47.3152 28.99 47.0729 29.1633 46.7954C29.3367 46.5179 29.4508 46.2107 29.4991 45.8913C29.5474 45.5719 29.5289 45.2467 29.4448 44.9341L26.938 32.315C26.9381 31.768 26.8247 31.2263 26.6042 30.7209C26.3838 30.2154 26.0606 29.7562 25.6533 29.3694C25.2459 28.9825 24.7623 28.6756 24.23 28.4663C23.6977 28.2569 23.1272 28.1492 22.5511 28.1492H18.068C16.9045 28.1493 15.7887 28.5882 14.9659 29.3694C14.1432 30.1507 13.681 31.2102 13.681 32.315L11.1743 44.9341C11.0902 45.2467 11.0717 45.5719 11.12 45.8913C11.1683 46.2107 11.2824 46.5179 11.4558 46.7954C11.6291 47.0729 11.8584 47.3152 12.1304 47.5086C12.4024 47.7019 12.7119 47.8425 13.0411 47.9223C13.2508 47.9739 13.4665 48 13.6831 47.9999C14.2575 47.9988 14.8153 47.8164 15.2687 47.4815C15.7221 47.1466 16.0454 46.678 16.1878 46.1496L20.1278 35.3907C20.1897 35.3906 20.251 35.4012 20.3089 35.4221V35.4221Z" stroke="#343449" stroke-linecap="round" stroke-linejoin="round"/>
<path d="M25.4498 13.8196C25.4498 13.8196 24.3309 16.4381 26.9368 20.6049" stroke="#343449" stroke-linecap="round" stroke-linejoin="round"/>
<path d="M15.2913 13.9607C15.2913 13.9607 15.0278 19.7124 13.6631 20.6046" stroke="#343449" stroke-linecap="round" stroke-linejoin="round"/>
<path d="M27.9384 37.3572C27.9384 37.3572 24.73 40.1149 23.3643 43.24" stroke="#343449" stroke-linecap="round" stroke-linejoin="round"/>
<path d="M12.6797 37.3572C12.6797 37.3572 15.8884 40.1149 17.2538 43.24" stroke="#343449" stroke-linecap="round" stroke-linejoin="round"/>
<path d="M20.3086 25.6933V14.095" stroke="#343449" stroke-linecap="round" stroke-linejoin="round"/>
<path d="M13.6807 25.6931H26.9366" stroke="#343449" stroke-linecap="round" stroke-linejoin="round"/>
<path d="M6.20819 7.96899L1.51953 9.40143" stroke="#343449" stroke-linecap="round" stroke-linejoin="round"/>
<path d="M35.8721 16.6089L39.0167 20.126" stroke="#343449" stroke-linecap="round" stroke-linejoin="round"/>
</svg>
