<svg width="46" height="50" viewBox="0 0 46 50" fill="none" xmlns="http://www.w3.org/2000/svg">
<path d="M13.7389 45.0346C14.5679 45.0345 15.3628 44.7052 15.9491 44.1192L17.2021 42.8658C17.3307 42.7373 17.4326 42.5848 17.5022 42.4169C17.5718 42.249 17.6076 42.0691 17.6076 41.8874V11.2904C17.6074 10.7859 17.4069 10.302 17.0502 9.94529L15.0318 7.92686C14.7683 7.6633 14.4555 7.45429 14.1111 7.31175C13.7668 7.16921 13.3978 7.09596 13.0251 7.09619H5.58243C5.20978 7.09596 4.84075 7.16921 4.49643 7.31175C4.15211 7.45429 3.83926 7.6633 3.57581 7.92686L1.5574 9.94529C1.20065 10.302 1.00016 10.7859 1 11.2904V41.8874C0.999997 42.0691 1.0358 42.249 1.10537 42.4169C1.17494 42.5848 1.27692 42.7373 1.40547 42.8658L2.65882 44.1192C3.24492 44.7053 4.0398 45.0345 4.86866 45.0346H13.7389Z" stroke="#343449" stroke-linecap="round" stroke-linejoin="round"/>
<path d="M13.8767 17.3428C14.0028 17.3427 14.1269 17.374 14.2379 17.4339C14.3489 17.4937 14.4432 17.5801 14.5125 17.6855C14.5818 17.7908 14.6238 17.9117 14.6347 18.0373C14.6457 18.1629 14.6252 18.2893 14.5752 18.405L13.0295 21.9861C12.9293 22.2182 12.7634 22.4159 12.5521 22.5548C12.3409 22.6937 12.0936 22.7677 11.8408 22.7677H6.76848C6.5157 22.7678 6.26845 22.6937 6.05725 22.5548C5.84606 22.4159 5.68017 22.2182 5.5801 21.9861L4.03404 18.405C3.98404 18.2893 3.96361 18.1629 3.97455 18.0373C3.9855 17.9117 4.02751 17.7908 4.09678 17.6855C4.16604 17.5801 4.26041 17.4937 4.37139 17.4339C4.48237 17.374 4.60648 17.3427 4.73256 17.3428H13.8767Z" stroke="#343449" stroke-linecap="round" stroke-linejoin="round"/>
<path d="M11.588 32.0239C11.9122 32.0239 12.2288 32.1226 12.4955 32.3069C12.7623 32.4912 12.9666 32.7523 13.0812 33.0556L14.4148 36.5886C14.4839 36.7717 14.5075 36.9688 14.4837 37.1631C14.4598 37.3574 14.3893 37.5429 14.278 37.7039C14.1667 37.8649 14.018 37.9965 13.8447 38.0875C13.6713 38.1784 13.4785 38.2259 13.2828 38.226H5.32542C5.12967 38.226 4.93686 38.1785 4.7635 38.0876C4.59014 37.9967 4.44141 37.8651 4.33007 37.704C4.21874 37.543 4.14811 37.3575 4.12425 37.1632C4.1004 36.9689 4.12403 36.7717 4.19311 36.5886L5.52735 33.0556C5.64191 32.7523 5.84614 32.4911 6.11284 32.3068C6.37954 32.1225 6.69604 32.0239 7.02023 32.0239H11.588Z" stroke="#343449" stroke-linecap="round" stroke-linejoin="round"/>
<path d="M15.2461 21.321V33.1774" stroke="#343449" stroke-linecap="round" stroke-linejoin="round"/>
<path d="M3.3623 21.321V33.1774" stroke="#343449" stroke-linecap="round" stroke-linejoin="round"/>
<path d="M14.2015 41.3728H4.4082" stroke="#343449" stroke-linecap="round" stroke-linejoin="round"/>
<path d="M12.0723 9.75732L14.2012 14.7605" stroke="#343449" stroke-linecap="round" stroke-linejoin="round"/>
<path d="M6.53714 9.75732L4.4082 14.7605" stroke="#343449" stroke-linecap="round" stroke-linejoin="round"/>
<path d="M41.1318 45.0343C41.9608 45.0342 42.7558 44.7049 43.342 44.1188L44.595 42.8658C44.8546 42.6062 45.0004 42.2541 45.0005 41.887V11.2904C45.0003 10.7857 44.7998 10.3018 44.4431 9.94496L42.4247 7.92655C42.1612 7.66305 41.8483 7.45407 41.504 7.31159C41.1597 7.16911 40.7906 7.09592 40.418 7.09619H32.9753C32.6027 7.09592 32.2337 7.16911 31.8894 7.31159C31.545 7.45407 31.2322 7.66305 30.9687 7.92655L28.95 9.94496C28.5932 10.3018 28.3927 10.7857 28.3926 11.2904V41.887C28.3926 42.0688 28.4284 42.2489 28.4981 42.4168C28.5677 42.5848 28.6697 42.7373 28.7984 42.8658L30.0514 44.1188C30.6375 44.7049 31.4324 45.0342 32.2612 45.0343H41.1318Z" stroke="#343449" stroke-linecap="round" stroke-linejoin="round"/>
<path d="M41.2692 17.3429C41.3952 17.3428 41.5193 17.3741 41.6302 17.4338C41.7412 17.4936 41.8355 17.58 41.9048 17.6853C41.9741 17.7905 42.0161 17.9113 42.0272 18.0369C42.0382 18.1624 42.0179 18.2887 41.968 18.4045L40.4216 21.9858C40.3214 22.2178 40.1555 22.4155 39.9443 22.5543C39.7332 22.6931 39.486 22.7671 39.2332 22.7671H34.1603C33.9075 22.7672 33.6602 22.6932 33.449 22.5544C33.2378 22.4155 33.0718 22.2179 32.9716 21.9858L31.4255 18.4041C31.3756 18.2884 31.3552 18.1621 31.3662 18.0366C31.3772 17.9111 31.4192 17.7902 31.4884 17.6849C31.5577 17.5797 31.652 17.4932 31.763 17.4335C31.8739 17.3737 31.998 17.3425 32.124 17.3425L41.2692 17.3429Z" stroke="#343449" stroke-linecap="round" stroke-linejoin="round"/>
<path d="M38.9803 32.0237C39.3046 32.0237 39.6212 32.1225 39.8879 32.3069C40.1546 32.4914 40.3589 32.7526 40.4735 33.056L41.8071 36.5883C41.8762 36.7714 41.8998 36.9686 41.8759 37.1628C41.8521 37.3571 41.7815 37.5427 41.6702 37.7037C41.5589 37.8647 41.4102 37.9963 41.2369 38.0872C41.0636 38.1782 40.8708 38.2257 40.6751 38.2258H32.7177C32.522 38.2257 32.3292 38.1782 32.1559 38.0872C31.9825 37.9963 31.8339 37.8647 31.7226 37.7037C31.6113 37.5427 31.5407 37.3571 31.5168 37.1628C31.493 36.9686 31.5166 36.7714 31.5857 36.5883L32.9196 33.056C33.0341 32.7526 33.2383 32.4913 33.505 32.3069C33.7717 32.1224 34.0882 32.0237 34.4125 32.0237H38.9803Z" stroke="#343449" stroke-linecap="round" stroke-linejoin="round"/>
<path d="M42.6387 21.3206V33.1766" stroke="#343449" stroke-linecap="round" stroke-linejoin="round"/>
<path d="M30.7549 21.3206V33.1766" stroke="#343449" stroke-linecap="round" stroke-linejoin="round"/>
<path d="M41.5931 41.3723H31.7998" stroke="#343449" stroke-linecap="round" stroke-linejoin="round"/>
<path d="M39.4648 9.75708L41.5941 14.7603" stroke="#343449" stroke-linecap="round" stroke-linejoin="round"/>
<path d="M33.9287 9.75708L31.7998 14.7603" stroke="#343449" stroke-linecap="round" stroke-linejoin="round"/>
<path d="M23 1L23.0379 48.6605" stroke="#343449" stroke-linecap="round" stroke-linejoin="round" stroke-dasharray="26.67 14"/>
</svg>
