<?xml version="1.0" encoding="UTF-8"?>
<svg width="52px" height="49px" viewBox="0 0 52 49" version="1.1" xmlns="http://www.w3.org/2000/svg" xmlns:xlink="http://www.w3.org/1999/xlink">
    <!-- Generator: Sketch 61.2 (89653) - https://sketch.com -->
    <title>icon-6</title>
    <desc>Created with Sketch.</desc>
    <g id="Page-1" stroke="none" stroke-width="1" fill="none" fill-rule="evenodd">
        <g id="icon-6" transform="translate(1.000000, 1.000000)">
            <path d="M50.0012,1.6377 L49.5968,3.9406 L49.5856,3.99887 L49.5856,4.00112 C49.5102,4.03576 49.4376,4.07009 49.3602,4.10246 C49.0112,4.24707 48.6437,4.34783 48.2672,4.4022 C48.0386,4.43444 47.8077,4.45036 47.5765,4.44981427 C47.5104,4.44981427 47.4446,4.44753 47.3809,4.44559 L47.4719,3.9406 L47.8012,2.04362 C47.8946,2.0501 47.9877,2.05237 48.0832,2.05237 C48.353,2.05238 48.6223,2.0292 48.8877,1.9831 C49.22,1.92641 49.5441,1.83297 49.8535,1.70469 C49.9041,1.68507 49.9533,1.6627 50.0012,1.6377 Z" id="Path" fill="#A616D4" fill-rule="nonzero"></path>
            <path d="M49.1579,6.43115 L49.1487,6.48294 L48.7625,8.68194 C48.2178,8.9261 47.6258,9.0606 47.0238,9.0769 C46.9761,9.0769 46.9307,9.0791 46.8854,9.0791 C46.7783,9.0791 46.6716,9.0749 46.5693,9.0681 L46.9512,6.88434 C47.0033,6.88661 47.0603,6.88661 47.1148,6.88661 C47.2795,6.8874 47.444,6.87941 47.6078,6.86267 C48.0647,6.81635 48.5115,6.70436 48.9329,6.53053 C49.0103,6.50011 49.0829,6.46547 49.1579,6.43115 Z" id="Path" fill="#A616D4" fill-rule="nonzero"></path>
            <path d="M47.3804,4.44553 L47.0235,6.48265 L46.9509,6.88405 C46.6146,6.87526 46.2806,6.82964 45.9554,6.74809 C45.5992,6.6603 45.2557,6.53124 44.9326,6.36384 L44.9507,6.26252 L45.3666,3.89746 C45.7505,4.1093 46.1669,4.26286 46.6007,4.3526 C46.8573,4.40476 47.1182,4.43586 47.3804,4.44553 Z" id="Path" fill="#A616D4" fill-rule="nonzero"></path>
            <path d="M45.7935,1.45513 L45.3984,3.72112 L45.3664,3.89819 C45.2688,3.84854 45.1748,3.79297 45.0848,3.73181 C44.8993,3.61253 44.7238,3.47984 44.5598,3.33493 C44.5598,3.33267 44.5597,3.33266 44.5574,3.33266 C44.2812,3.11662 43.9763,2.93596 43.6505,2.79531 C43.6191,2.77947 43.5865,2.76584 43.553,2.75453 C43.4893,2.72831 43.4255,2.70241 43.3594,2.67877 L43.4276,2.29031 L43.7842,0.25513 L43.7842,0.25317 C43.9447,0.30602 44.1018,0.36796 44.2546,0.43866 C44.5522,0.57492 44.8316,0.74445 45.0868,0.94365 C45.2708,1.10933 45.471,1.25816 45.6844,1.38813 L45.6844,1.39038 L45.7935,1.45513 Z" id="Path" fill="#A616D4" fill-rule="nonzero"></path>
            <path d="M44.9324,6.36409 L44.5645,8.45756 C44.5325,8.4404 44.5028,8.4229 44.4731,8.40348 C44.3407,8.32359 44.2132,8.23648 44.0913,8.14258 L44.0893,8.14258 C44.0893,8.14031 44.0869,8.1403 44.0869,8.13803 C44.0707,8.12787 44.0556,8.1164 44.0415,8.10373 C44.0066,8.0788 43.9732,8.0521 43.9413,8.02377 C43.9185,8.00208 43.896,7.98266 43.8731,7.96324 C43.4785,7.65998 43.0318,7.42346 42.5527,7.26402 L42.9301,5.12329 C42.9594,5.13203 42.9891,5.14499 43.0164,5.15567 C43.3845,5.30683 43.7288,5.50586 44.0391,5.74709 C44.0415,5.74709 44.0415,5.7513 44.0436,5.7513 C44.1729,5.86693 44.3096,5.97504 44.4527,6.07501 C44.6069,6.17967 44.767,6.27617 44.9324,6.36409 Z" id="Path" fill="#A616D4" fill-rule="nonzero"></path>
            <path d="M43.36,2.67806 L42.9829,4.82978 L42.9307,5.12306 C42.4545,4.9333 41.9482,4.8205 41.4327,4.78931 C41.3417,4.78284 41.2483,4.78058 41.1552,4.78058 C41.0209,4.77984 40.8866,4.78556 40.7529,4.79773 L40.7846,4.60772 L41.1689,2.41747 L41.2142,2.41099 C41.3847,2.39166 41.5563,2.38226 41.728,2.38281472 C41.8433,2.38242 41.9585,2.38749 42.0733,2.39805 C42.5143,2.43096 42.9479,2.5253 43.36,2.67806 Z" id="Path" fill="#A616D4" fill-rule="nonzero"></path>
            <path d="M41.5853,0.04956 L41.2331,2.07147 L41.1693,2.41915 C40.8899,2.45131 40.6144,2.50908 40.3467,2.59167 C39.794,2.76112 39.2819,3.03252 38.8398,3.39029 L39.2305,1.14597 C39.7235,0.70507 40.3158,0.37661 40.9624,0.18551 C41.1665,0.12674 41.3746,0.08132 41.5853,0.04956 Z" id="Path" fill="#A616D4" fill-rule="nonzero"></path>
            <path d="M40.7531,4.79956 L40.3508,7.08304 C39.8949,7.15092 39.4536,7.28855 39.0441,7.49059 C38.661,7.68056 38.3081,7.9211 37.9961,8.20504 L38.4441,5.63022 C38.8238,5.36047 39.2466,5.15009 39.6963,5.00706 C39.9833,4.91486 40.2797,4.85119 40.5806,4.81705 C40.6372,4.81057 40.6962,4.80409 40.7531,4.79956 Z" id="Path" fill="#A616D4" fill-rule="nonzero"></path>
            <path d="M45.0869,0.94312 C45.271,1.10879 45.471,1.2576 45.6845,1.38757 L45.6845,1.38984 L45.7933,1.45457 C46.23,1.70463 46.7092,1.88056 47.2095,1.97446 C47.4045,2.01047 47.6019,2.03361 47.8003,2.04373 C47.8937,2.0502 47.9868,2.05248 48.0822,2.05248 C48.3521,2.05248 48.6214,2.02931 48.8868,1.98321 C49.2191,1.92652 49.5432,1.83307 49.8526,1.7048 C49.9031,1.68518 49.9524,1.66281 50.0002,1.6378" id="Path" stroke="#A616D4" stroke-width="0.5" stroke-linecap="round" stroke-linejoin="round"></path>
            <path d="M39.2295,1.14594 C39.7225,0.70504 40.3147,0.37658 40.9614,0.18549 C41.1655,0.12672 41.3736,0.0813 41.5842,0.04953 C41.6681,0.03658 41.7547,0.02785 41.8409,0.01911 C41.9841,0.00648 42.1297,0 42.2753,0 C42.4116,0 42.5501,0.00648 42.6844,0.01911 C43.0598,0.05284 43.4293,0.13126 43.7842,0.25251 C43.9448,0.30535 44.1019,0.36729 44.2547,0.43799 C44.5522,0.57426 44.8316,0.74379 45.0868,0.94299" id="Path" stroke="#A616D4" stroke-width="0.5" stroke-linecap="round" stroke-linejoin="round"></path>
            <path d="M49.5851,4.00117 C49.5098,4.03581 49.4371,4.07014 49.3597,4.10251 C49.0107,4.24713 48.6433,4.34789 48.2668,4.40226 C48.0381,4.4345 47.8072,4.45042 47.5761,4.44986 C47.5099,4.44986 47.4441,4.44759 47.3804,4.44565 C47.1182,4.43598 46.8573,4.40488 46.6007,4.35273 C46.1668,4.26299 45.7504,4.10942 45.3666,3.89758 C45.269,3.84793 45.175,3.79236 45.085,3.7312" id="Path" stroke="#A616D4" stroke-width="0.5"></path>
            <path d="M38.8389,3.39032 C39.2809,3.03255 39.793,2.76115 40.3457,2.59171 C40.6134,2.50911 40.8889,2.45134 41.1684,2.41918 L41.2137,2.4127 C41.3842,2.39337 41.5558,2.38397 41.7275,2.38455 C41.8428,2.38412 41.9581,2.3892 42.0728,2.39976 C42.5137,2.43218 42.9471,2.52598 43.3591,2.67815 C43.4253,2.70178 43.489,2.72768 43.5528,2.7539 C43.5863,2.76522 43.6189,2.77884 43.6503,2.79468 C43.976,2.93534 44.2809,3.11601 44.5571,3.33206 C44.5595,3.33206 44.5595,3.33204 44.5595,3.33431 C44.7235,3.47922 44.899,3.61191 45.0845,3.73119" id="Path" stroke="#A616D4" stroke-width="0.5"></path>
            <path d="M49.1578,6.43087 C49.0828,6.46518 49.0102,6.49982 48.9328,6.53025 C48.5113,6.70363 48.0645,6.81517 47.6076,6.86108 C47.4439,6.87782 47.2793,6.88581 47.1147,6.88502 C47.0601,6.88502 47.0032,6.88504 46.951,6.88277 C46.6148,6.87398 46.2808,6.82834 45.9556,6.7468 C45.5994,6.659 45.2559,6.52997 44.9328,6.36256 C44.7674,6.27465 44.6073,6.17814 44.4531,6.07349" id="Path" stroke="#A616D4" stroke-width="0.5"></path>
            <path d="M38.4434,5.63084 C38.8231,5.36109 39.2458,5.15072 39.6955,5.00769 C39.9826,4.9155 40.279,4.8518 40.5799,4.81766 C40.6365,4.81118 40.6955,4.8047 40.7524,4.80017 C40.8861,4.788 41.0204,4.78228 41.1547,4.78302 C41.2478,4.78302 41.3412,4.78528 41.4322,4.79176 C41.9474,4.82246 42.4536,4.93472 42.9298,5.12389 C42.9592,5.13263 42.9888,5.14559 43.0161,5.15627 C43.3843,5.30742 43.7285,5.50646 44.0389,5.74768 C44.0412,5.74768 44.0412,5.75189 44.0433,5.75189 C44.1727,5.86753 44.3093,5.97563 44.4524,6.07561" id="Path" stroke="#A616D4" stroke-width="0.5"></path>
            <path d="M37.9961,8.20499 C38.3081,7.92105 38.661,7.68051 39.0441,7.49054 C39.4536,7.28851 39.8949,7.15088 40.3508,7.083 C40.5121,7.0571 40.6781,7.04188 40.8438,7.03087 C40.9215,7.02667 40.9986,7.02441 41.078,7.02441 C41.5505,7.02473 42.02,7.09618 42.469,7.23612 C42.4962,7.24454 42.5238,7.25328 42.5532,7.26396 C43.0323,7.4234 43.4789,7.65992 43.8735,7.96317 C43.8964,7.98259 43.9189,8.00202 43.9417,8.02371 C43.9736,8.05204 44.0071,8.07873 44.042,8.10367 C44.056,8.11634 44.0712,8.1278 44.0873,8.13797 C44.0873,8.14024 44.0897,8.14025 44.0897,8.14251 L44.0917,8.14251 C44.2136,8.23642 44.3411,8.32353 44.4736,8.40342 C44.5032,8.42284 44.5329,8.44034 44.5649,8.4575 C44.8293,8.61539 45.1121,8.74357 45.4077,8.83948 C45.7821,8.9655 46.1729,9.0424 46.5692,9.068 C46.6715,9.0748 46.7782,9.079 46.8852,9.079 C46.9306,9.079 46.9759,9.0767 47.0236,9.0767 C47.6257,9.0604 48.2177,8.92599 48.7623,8.68183" id="Path" stroke="#A616D4" stroke-width="0.5" stroke-linecap="round" stroke-linejoin="round"></path>
            <polyline id="Path" stroke="#A616D4" stroke-width="0.5" stroke-linecap="round" stroke-linejoin="round" points="36.873 14.6726 37.9957 8.20513 38.4433 5.63032 38.8388 3.39054 39.2298 1.14624"></polyline>
            <polyline id="Path" stroke="#A616D4" stroke-width="0.5" points="41.5847 0.04956 41.2325 2.07147 41.1688 2.41915 40.7846 4.60939 40.7529 4.7994 40.3506 7.08289"></polyline>
            <polyline id="Path" stroke="#A616D4" stroke-width="0.5" points="43.7845 0.25464 43.4275 2.28982 43.3594 2.67828 42.9823 4.83 42.9301 5.12329 42.5527 7.26402"></polyline>
            <polyline id="Path" stroke="#A616D4" stroke-width="0.5" points="45.7941 1.45483 45.3987 3.72083 45.367 3.8979 44.9507 6.26328 44.9327 6.3646 44.5645 8.45807"></polyline>
            <polyline id="Path" stroke="#A616D4" stroke-width="0.5" points="47.8007 2.0437 47.4714 3.94068 47.3804 4.44599 47.0238 6.48311 46.9512 6.88453 46.5693 9.0686"></polyline>
            <polyline id="Path" stroke="#A616D4" stroke-width="0.5" stroke-linecap="round" stroke-linejoin="round" points="49.5853 4.00098 49.1578 6.43079 49.149 6.48257 48.7627 8.68157"></polyline>
            <line x1="49.585" y1="3.99902" x2="49.585" y2="4.0016" id="Path" stroke="#A616D4" stroke-width="0.5"></line>
            <polyline id="Path" stroke="#A616D4" stroke-width="0.5" stroke-linecap="round" stroke-linejoin="round" points="50.0009 1.6377 49.5962 3.94026 49.585 3.99887"></polyline>
            <path d="M24.8849,6.11658 C21.264,7.25477 17.3533,7.25477 13.7324,6.11658 C14.2281,3.39738 16.5389,1.33984 19.3085,1.33984 C22.0781,1.33984 24.3892,3.39544 24.8849,6.11658 Z" id="Path" stroke="#A616D4" stroke-linecap="round" stroke-linejoin="round"></path>
            <path d="M24.9868401,7.21718 C24.9903,8.16905 24.7647,9.1091 24.3272,9.9655 C21.0517,10.8829 17.567,10.8829 14.2915,9.9655 C13.686,8.76923 13.4907,7.42278 13.7331,6.1156 C14.2288,3.39641 16.5395,1.33887 19.3092,1.33887 C22.0788,1.33887 24.3889,3.39576 24.8856,6.1156 C24.9534,6.47926 24.9873,6.84787 24.9868401,7.21718 Z" id="Path" stroke="#A616D4" stroke-linecap="round" stroke-linejoin="round"></path>
            <path d="M24.9868401,7.21718 C24.9903,8.16905 24.7647,9.1091 24.3272,9.9655 C23.9035,10.8951 23.2026,11.6866 22.3111,12.2427 C21.4195,12.7988 20.3761,13.095 19.3093,13.095 C18.2426,13.095 17.1992,12.7988 16.3076,12.2427 C15.416,11.6866 14.7152,10.8951 14.2915,9.9655 C13.686,8.76923 13.4907,7.42278 13.7331,6.1156 C14.2288,3.39641 16.5395,1.33887 19.3092,1.33887 C22.0788,1.33887 24.3889,3.39576 24.8856,6.1156 C24.9534,6.47926 24.9873,6.84787 24.9868401,7.21718 Z" id="Path" stroke="#A616D4" stroke-linecap="round" stroke-linejoin="round"></path>
            <line x1="18.4848" y1="10.6343" x2="18.4814" y2="10.6343" id="Path" stroke="#A616D4" stroke-linecap="round" stroke-linejoin="round"></line>
            <path d="M15.6582,11.7168 C15.1439,12.0691 14.6837,12.4875 14.2907,12.9601 C14.2183,13.0468 14.1224,13.1131 14.0132,13.1519 C13.9041,13.1907 13.7859,13.2005 13.6713,13.1803 L13.6713,13.1803 L7.06938,12.0149 L4.78524,5.82354 C4.61693,5.36581 4.30276,4.96918 3.88631,4.68866 C3.46987,4.40814 2.97178,4.25764 2.46119,4.25805912 C2.18403,4.25852 1.9089,4.30284 1.64707,4.38917 C1.03123,4.59432 0.52634,5.02324 0.2434,5.58168 C-0.039535,6.14012 -0.07739,6.78241 0.13816,7.36734 L2.89279,14.838 C3.03572,15.2264 3.28425,15.572 3.61319,15.8397 C3.94212,16.1075 4.33977,16.2879 4.76581,16.3627 L10.4902,17.3753 C11.1057,17.4841 11.6616,17.794 12.0618,18.2512 C12.4619,18.7084 12.6809,19.2841 12.6809,19.8785 L12.6809,25.1185 C12.6807,25.6067 12.8846,26.0751 13.2479,26.4205 C13.6112,26.766 14.1042,26.9603 14.6184,26.9608 L23.9991,26.9608 C24.5133,26.9602 25.0061,26.7659 25.3694,26.4204 C25.7328,26.075 25.9367,25.6067 25.9366,25.1185 L25.9366,19.605 L29.1119,22.5155 C29.4714,22.8438 29.9273,23.0609 30.4194,23.1383 C30.9114,23.2158 31.4167,23.1499 31.8685,22.9493 L38.016,19.1262 C38.3087,18.9957 38.5714,18.8118 38.7893,18.5849 C39.0071,18.358 39.1757,18.0926 39.2855,17.8038 C39.3953,17.515 39.4441,17.2085 39.4291,16.9018 C39.4142,16.5951 39.3357,16.2942 39.1983,16.0163 C39.0609,15.7384 38.8672,15.4889 38.6282,15.2821 C38.3892,15.0753 38.1097,14.9152 37.8056,14.8109 C37.5014,14.7067 37.1787,14.6603 36.8557,14.6745 C36.5327,14.6887 36.2158,14.7632 35.9231,14.8937 L31.3101,18.0314 L26.7278,13.8316 C26.4066,13.5351 26.0055,13.3283 25.5687,13.234 C24.8463,13.078 24.1815,12.7401 23.6442,12.2557 C23.4289,12.0618 23.2002,11.8818 22.9596,11.7168" id="Path" stroke="#A616D4" stroke-linecap="round" stroke-linejoin="round"></path>
            <path d="M19.3089,34.4221 C19.3667,34.4009 19.4282,34.3899 19.4902,34.3897 L23.4313,45.1496 C23.5737,45.678 23.8969,46.1465 24.3502,46.4814 C24.8036,46.8163 25.3613,46.9987 25.9357,46.9999003 C26.1524,46.9999003 26.3682,46.9739 26.5779,46.9223 C26.9072,46.8425 27.2167,46.7019 27.4887,46.5086 C27.7607,46.3152 27.99,46.0729 28.1633,45.7954 C28.3367,45.5179 28.4508,45.2107 28.4991,44.8913 C28.5474,44.5719 28.5289,44.2467 28.4448,43.9341 L25.938,31.315 C25.9381,30.768 25.8247,30.2263 25.6042,29.7209 C25.3838,29.2154 25.0606,28.7562 24.6533,28.3694 C24.2459,27.9825 23.7623,27.6756 23.23,27.4663 C22.6977,27.2569 22.1272,27.1492 21.5511,27.1492 L17.068,27.1492 C15.9045,27.1492 14.7887,27.5882 13.9659,28.3694 C13.1432,29.1507 12.681,30.2102 12.681,31.315 L10.1743,43.9341 C10.0902,44.2467 10.0717,44.5719 10.12,44.8913 C10.1683,45.2107 10.2824,45.5179 10.4558,45.7954 C10.6291,46.0729 10.8584,46.3152 11.1304,46.5086 C11.4024,46.7019 11.7119,46.8425 12.0411,46.9223 C12.2508,46.9739 12.4665,46.9999003 12.6831,46.9999003 C13.2575,46.9988 13.8153,46.8164 14.2687,46.4815 C14.7221,46.1466 15.0454,45.678 15.1878,45.1496 L19.1278,34.3907 C19.1897,34.3906 19.251,34.4012 19.3089,34.4221 L19.3089,34.4221 Z" id="Path" stroke="#A616D4" stroke-linecap="round" stroke-linejoin="round"></path>
            <path d="M24.4498,12.8196 C24.4498,12.8196 23.3309,15.4381 25.9368,19.6049" id="Path" stroke="#A616D4" stroke-linecap="round" stroke-linejoin="round"></path>
            <path d="M14.2913,12.9607 C14.2913,12.9607 14.0278,18.7124 12.6631,19.6046" id="Path" stroke="#A616D4" stroke-linecap="round" stroke-linejoin="round"></path>
            <path d="M26.9384,36.3572 C26.9384,36.3572 23.73,39.1149 22.3643,42.24" id="Path" stroke="#A616D4" stroke-linecap="round" stroke-linejoin="round"></path>
            <path d="M11.6797,36.3572 C11.6797,36.3572 14.8884,39.1149 16.2538,42.24" id="Path" stroke="#A616D4" stroke-linecap="round" stroke-linejoin="round"></path>
            <line x1="19.3086" y1="24.6933" x2="19.3086" y2="13.095" id="Path" stroke="#A616D4" stroke-linecap="round" stroke-linejoin="round"></line>
            <line x1="12.6807" y1="24.6931" x2="25.9366" y2="24.6931" id="Path" stroke="#A616D4" stroke-linecap="round" stroke-linejoin="round"></line>
            <line x1="5.20819" y1="6.96899" x2="0.51953" y2="8.40143" id="Path" stroke="#A616D4" stroke-linecap="round" stroke-linejoin="round"></line>
            <line x1="34.8721" y1="15.6089" x2="38.0167" y2="19.126" id="Path" stroke="#A616D4" stroke-linecap="round" stroke-linejoin="round"></line>
        </g>
    </g>
</svg>