<?xml version="1.0" encoding="UTF-8"?>
<svg width="46px" height="45px" viewBox="0 0 46 45" version="1.1" xmlns="http://www.w3.org/2000/svg" xmlns:xlink="http://www.w3.org/1999/xlink">
    <!-- Generator: Sketch 61.2 (89653) - https://sketch.com -->
    <title>icon-5</title>
    <desc>Created with Sketch.</desc>
    <g id="Page-1" stroke="none" stroke-width="1" fill="none" fill-rule="evenodd" stroke-linecap="round" stroke-linejoin="round">
        <g id="icon-5" transform="translate(1.000000, 0.000000)" stroke="#A616D4">
            <path d="M12.7389,44.0346 C13.5679,44.0346 14.3628,43.7052 14.9491,43.1192 L16.2021,41.8658 C16.3307,41.7373 16.4326,41.5848 16.5022,41.4169 C16.5718,41.249 16.6076,41.0691 16.6076,40.8874 L16.6076,10.2904 C16.6074,9.7859 16.4069,9.302 16.0502,8.94529 L14.0318,6.92686 C13.7683,6.6633 13.4555,6.45429 13.1111,6.31175 C12.7668,6.16921 12.3978,6.09618946 12.0251,6.09618946 L4.58243,6.09618946 C4.20978,6.09618946 3.84075,6.16921 3.49643,6.31175 C3.15211,6.45429 2.83926,6.6633 2.57581,6.92686 L0.5574,8.94529 C0.20065,9.302 0,9.7859 0,10.2904 L0,40.8874 C0,41.0691 0.0358,41.249 0.10537,41.4169 C0.17494,41.5848 0.27692,41.7373 0.40547,41.8658 L1.65882,43.1192 C2.24492,43.7053 3.0398,44.0346 3.86866,44.0346 L12.7389,44.0346 Z" id="Path"></path>
            <path d="M12.8767,16.3427998 C13.0028,16.3427 13.1269,16.374 13.2379,16.4339 C13.3489,16.4937 13.4432,16.5801 13.5125,16.6855 C13.5818,16.7908 13.6238,16.9117 13.6347,17.0373 C13.6457,17.1629 13.6252,17.2893 13.5752,17.405 L12.0295,20.9861 C11.9293,21.2182 11.7634,21.4159 11.5521,21.5548 C11.3409,21.6937 11.0936,21.7677001 10.8408,21.7677001 L5.76848,21.7677001 C5.5157,21.7678 5.26845,21.6937 5.05725,21.5548 C4.84606,21.4159 4.68017,21.2182 4.5801,20.9861 L3.03404,17.405 C2.98404,17.2893 2.96361,17.1629 2.97455,17.0373 C2.9855,16.9117 3.02751,16.7908 3.09678,16.6855 C3.16604,16.5801 3.26041,16.4937 3.37139,16.4339 C3.48237,16.374 3.60648,16.3427 3.73256,16.3427998 L12.8767,16.3427998 Z" id="Path"></path>
            <path d="M10.588,31.0239 C10.9122,31.0239 11.2288,31.1226 11.4955,31.3069 C11.7623,31.4912 11.9666,31.7523 12.0812,32.0556 L13.4148,35.5886 C13.4839,35.7717 13.5075,35.9688 13.4837,36.1631 C13.4598,36.3574 13.3893,36.5429 13.278,36.7039 C13.1667,36.8649 13.018,36.9965 12.8447,37.0875 C12.6713,37.1784 12.4785,37.2259 12.2828,37.226 L4.32542,37.226 C4.12967,37.226 3.93686,37.1785 3.7635,37.0876 C3.59014,36.9967 3.44141,36.8651 3.33007,36.704 C3.21874,36.543 3.14811,36.3575 3.12425,36.1632 C3.1004,35.9689 3.12403,35.7717 3.19311,35.5886 L4.52735,32.0556 C4.64191,31.7523 4.84614,31.4911 5.11284,31.3068 C5.37954,31.1225 5.69604,31.0239 6.02023,31.0239 L10.588,31.0239 Z" id="Path"></path>
            <line x1="14.2461" y1="20.321" x2="14.2461" y2="32.1774" id="Path"></line>
            <line x1="2.3623" y1="20.321" x2="2.3623" y2="32.1774" id="Path"></line>
            <line x1="13.2015" y1="40.3728" x2="3.4082" y2="40.3728" id="Path"></line>
            <line x1="11.0723" y1="8.75732" x2="13.2012" y2="13.7605" id="Path"></line>
            <line x1="5.53714" y1="8.75732" x2="3.4082" y2="13.7605" id="Path"></line>
            <path d="M40.1318,44.0343 C40.9608,44.0343 41.7558,43.7049 42.342,43.1188 L43.595,41.8658 C43.8546,41.6062 44.0005,41.2541 44.0005,40.887 L44.0005,10.2904 C44.0003,9.7857 43.7998,9.3018 43.4431,8.94496 L41.4247,6.92655 C41.1612,6.66305 40.8483,6.45407 40.504,6.31159 C40.1597,6.16911 39.7906,6.09618926 39.418,6.09618926 L31.9753,6.09618926 C31.6027,6.09618926 31.2337,6.16911 30.8894,6.31159 C30.545,6.45407 30.2322,6.66305 29.9687,6.92655 L27.95,8.94496 C27.5932,9.3018 27.3926,9.7857 27.3926,10.2904 L27.3926,40.887 C27.3926,41.0688 27.4284,41.2489 27.4981,41.4168 C27.5677,41.5848 27.6697,41.7373 27.7984,41.8658 L29.0514,43.1188 C29.6375,43.7049 30.4324,44.0343 31.2612,44.0343 L40.1318,44.0343 Z" id="Path"></path>
            <path d="M40.2692,16.3429 C40.3952,16.3428 40.5193,16.3741 40.6302,16.4338 C40.7412,16.4936 40.8355,16.58 40.9048,16.6853 C40.9741,16.7905 41.0161,16.9113 41.0272,17.0369 C41.0382,17.1624 41.0179,17.2887 40.968,17.4045 L39.4216,20.9858 C39.3214,21.2178 39.1555,21.4155 38.9443,21.5543 C38.7332,21.6931 38.486,21.7671001 38.2332,21.7671001 L33.1603,21.7671001 C32.9075,21.7672 32.6602,21.6932 32.449,21.5544 C32.2378,21.4155 32.0718,21.2179 31.9716,20.9858 L30.4255,17.4041 C30.3756,17.2884 30.3552,17.1621 30.3662,17.0366 C30.3772,16.9111 30.4192,16.7902 30.4884,16.6849 C30.5577,16.5797 30.652,16.4932 30.763,16.4335 C30.8739,16.3737 30.998,16.3425 31.124,16.3425 L40.2692,16.3429 Z" id="Path"></path>
            <path d="M37.9803,31.0237 C38.3046,31.0237 38.6212,31.1225 38.8879,31.3069 C39.1546,31.4914 39.3589,31.7526 39.4735,32.056 L40.8071,35.5883 C40.8762,35.7714 40.8998,35.9686 40.8759,36.1628 C40.8521,36.3571 40.7815,36.5427 40.6702,36.7037 C40.5589,36.8647 40.4102,36.9963 40.2369,37.0872 C40.0636,37.1782 39.8708,37.2257 39.6751,37.2258 L31.7177,37.2258 C31.522,37.2257 31.3292,37.1782 31.1559,37.0872 C30.9825,36.9963 30.8339,36.8647 30.7226,36.7037 C30.6113,36.5427 30.5407,36.3571 30.5168,36.1628 C30.493,35.9686 30.5166,35.7714 30.5857,35.5883 L31.9196,32.056 C32.0341,31.7526 32.2383,31.4913 32.505,31.3069 C32.7717,31.1224 33.0882,31.0237 33.4125,31.0237 L37.9803,31.0237 Z" id="Path"></path>
            <line x1="41.6387" y1="20.3206" x2="41.6387" y2="32.1766" id="Path"></line>
            <line x1="29.7549" y1="20.3206" x2="29.7549" y2="32.1766" id="Path"></line>
            <line x1="40.5931" y1="40.3723" x2="30.7998" y2="40.3723" id="Path"></line>
            <line x1="38.4648" y1="8.75708" x2="40.5941" y2="13.7603" id="Path"></line>
            <line x1="32.9287" y1="8.75708" x2="30.7998" y2="13.7603" id="Path"></line>
            <line x1="22" y1="0" x2="22.0379" y2="47.6605" id="Path" stroke-dasharray="26.67"></line>
        </g>
    </g>
</svg>