<svg width="59" height="59" viewBox="0 0 59 59" fill="none" xmlns="http://www.w3.org/2000/svg">
<g clip-path="url(#clip0)">
<path d="M51.0846 22.2479C51.0811 16.9508 49.0554 11.8549 45.4212 8.00112C41.787 4.14733 36.8185 1.82649 31.5307 1.51267C26.2429 1.19885 21.0349 2.91575 16.9703 6.31264C12.9058 9.70953 10.2916 14.5301 9.66164 19.7896C8.87498 26.7344 12.9312 32.3394 16.1148 37.3544L23.0104 47.3721L30.3854 58.029L37.7604 47.3721L44.7298 37.2438C47.6183 32.8433 51.0846 28.1725 51.0846 22.2479Z" stroke="#A616D4" stroke-width="2" stroke-linejoin="round"/>
<path d="M30.3235 29.7704C35.8697 29.7704 40.3658 25.2743 40.3658 19.7281C40.3658 14.1819 35.8697 9.68582 30.3235 9.68582C24.7773 9.68582 20.2812 14.1819 20.2812 19.7281C20.2812 25.2743 24.7773 29.7704 30.3235 29.7704Z" stroke="#A616D4" stroke-width="2" stroke-linejoin="round"/>
</g>
<defs>
<clipPath id="clip0">
<rect width="59" height="59" fill="white"/>
</clipPath>
</defs>
</svg>
