<svg width="60" height="60" viewBox="0 0 60 60" fill="none" xmlns="http://www.w3.org/2000/svg">
<path d="M28.7797 5.76634C31.0555 8.04215 32.6052 10.9417 33.2331 14.0983C33.861 17.2549 33.5386 20.5269 32.307 23.5003C31.0753 26.4738 28.9897 29.0153 26.3137 30.8034C23.6376 32.5914 20.4915 33.5457 17.273 33.5457C14.0545 33.5457 10.9083 32.5914 8.23229 30.8034C5.55623 29.0153 3.47043 26.4738 2.23877 23.5003C1.00711 20.5269 0.684778 17.2549 1.31265 14.0983C1.94053 10.9417 3.49046 8.04215 5.76624 5.76634C7.27732 4.25524 9.07119 3.05656 11.0455 2.23876C13.0198 1.42096 15.136 1 17.273 1C19.41 1 21.5259 1.42096 23.5002 2.23876C25.4746 3.05656 27.2687 4.25524 28.7797 5.76634V5.76634Z" stroke="#A616D4" stroke-width="2" stroke-miterlimit="10"/>
<path d="M28.7803 28.7816L34.5336 34.535" stroke="#A616D4" stroke-width="2" stroke-miterlimit="10"/>
<path d="M57.545 57.5467C56.3992 58.5609 54.8982 59.0798 53.3706 58.99C51.8431 58.9002 50.4134 58.209 49.3942 57.0675L35.0127 42.6841C33.8709 41.6652 33.1793 40.2356 33.0892 38.708C32.999 37.1804 33.5178 35.6793 34.5317 34.5332C35.6776 33.519 37.1785 33 38.7061 33.0898C40.2337 33.1796 41.6634 33.8709 42.6825 35.0124L57.0661 49.3976C58.207 50.4166 58.8978 51.846 58.9876 53.3732C59.0774 54.9003 58.5587 56.4009 57.545 57.5467V57.5467Z" stroke="#A616D4" stroke-width="2" stroke-miterlimit="10"/>
<path d="M39.3213 39.3354L41.2397 41.2538" stroke="#A616D4" stroke-width="2" stroke-miterlimit="10"/>
<path d="M45.0742 45.0888L46.9926 47.0072" stroke="#A616D4" stroke-width="2" stroke-miterlimit="10"/>
<path d="M50.8281 50.8422L52.7465 52.7606" stroke="#A616D4" stroke-width="2" stroke-miterlimit="10"/>
<path d="M7.52246 15.6585C7.52246 13.5006 8.37986 11.431 9.90574 9.90509C11.4316 8.37922 13.501 7.52203 15.6589 7.52203" stroke="#A616D4" stroke-width="2" stroke-miterlimit="10"/>
</svg>
