<svg width="673" height="350" viewBox="0 0 673 350" fill="none" xmlns="http://www.w3.org/2000/svg">
<g opacity="0.89">
<path d="M636.457 309.985C621.803 320.408 554.572 313.751 536.356 312.833L93.2855 325.876C27.3307 323.688 -24.8937 224.665 68.978 172.866C116.868 146.44 66.2453 89.601 124.728 54.0327C162.517 31.0503 204.858 63.8546 261.693 16.3784C304.153 -19.0892 377.906 9.84445 412.405 39.0308C434.925 58.084 476.501 37.8777 516.914 35.0359C540.64 33.3677 579.512 47.8269 577.894 83.9257C575.679 133.354 610.856 137.153 636.456 156.993C675.558 187.295 693.404 269.482 636.457 309.985Z" fill="#EFDDF4"/>
</g>
<path d="M404.554 192.072C403.616 187.853 400.051 183.638 396.207 182.47C391.913 181.165 386.506 183.972 384.347 187.988C383.244 190.039 382.648 192.538 383.332 194.793C383.851 196.33 384.803 197.685 386.073 198.695C387.677 200.051 389.611 200.958 391.68 201.324C394.09 201.74 396.565 201.373 398.916 200.69C400.728 200.163 402.599 199.369 403.702 197.754C404.578 196.395 404.944 194.77 404.737 193.167C404.695 192.799 404.634 192.434 404.554 192.072Z" fill="#75392F"/>
<path d="M442.44 203.708C442.44 203.708 433.381 225.997 439.493 244.212L443.937 242.355C443.937 242.355 443.547 224.121 449.211 211.09L442.44 203.708Z" fill="#FFC499"/>
<path d="M471.401 304.396C471.401 304.396 472.709 312.929 472.655 313.061C472.601 313.192 473.483 314.164 473.483 314.164L476.417 314.262L478.878 312.779C478.878 312.779 477.554 304.86 477.655 303.57C477.757 302.279 471.401 304.396 471.401 304.396Z" fill="#FFA089"/>
<path d="M478.878 312.779C478.878 312.779 475.722 314.311 472.649 312.891C472.649 312.891 462.177 318.25 462.919 321.155C462.919 321.155 462.571 322.097 467.312 321.267C472.054 320.437 479.439 319.241 479.623 319.11C479.807 318.98 480.808 319.327 478.878 312.779Z" fill="#343449"/>
<path d="M497.175 303.434C497.175 303.434 498.577 311.953 498.524 312.086C498.472 312.218 499.364 313.181 499.364 313.181L502.3 313.25L504.745 311.742C504.745 311.742 503.333 303.838 503.42 302.547C503.507 301.256 497.175 303.434 497.175 303.434Z" fill="#FFA089"/>
<path d="M504.648 311.171C504.648 311.171 501.509 312.734 498.419 311.344C498.419 311.344 488.005 316.805 488.779 319.702C488.779 319.702 488.442 320.647 493.176 319.77C497.91 318.893 505.281 317.626 505.464 317.494C505.647 317.361 506.65 317.7 504.648 311.171Z" fill="#343449"/>
<path d="M489.916 225.351L455.549 221.676C455.549 221.676 455.837 254.197 470.1 310.722L479.529 309.545C479.529 309.545 472.514 249.817 474.658 246.239C476.802 242.661 483.774 283.331 495.34 308.778L504.967 306.618C504.967 306.618 496.656 262.795 495.359 251.203C494.062 239.611 489.916 225.351 489.916 225.351Z" fill="#4C4BF4"/>
<path d="M478.964 197.627C478.964 197.627 486.49 207.948 488.73 224.995L477.299 215.649C477.299 215.649 468.147 205.174 467.988 204.134C467.828 203.093 466.081 195.401 466.499 194.438C466.917 193.475 468.757 190.719 468.757 190.719L478.964 197.627Z" fill="#343449"/>
<path d="M451.503 185.211C451.503 185.211 445.796 190.11 444.161 193.279C442.526 196.448 438.996 204.891 438.826 209.732L448.865 214.546L450.908 208.975L478.676 199.134L484.339 203.41L493.625 193.969C493.318 193.815 477.018 180.416 472.737 179.8C466.373 178.88 451.503 185.211 451.503 185.211Z" fill="#343449"/>
<path d="M449.716 204.895L453.973 236.575C453.973 236.575 492.382 235.271 489.916 225.351C487.45 215.431 471.367 197.175 471.367 197.175L449.716 204.895Z" fill="#343449"/>
<path d="M441.558 174.477C441.558 174.477 440.542 173.769 440.163 174.332C439.198 175.766 441.004 176.555 441.997 176.524L441.558 174.477Z" fill="#E77D6C"/>
<path d="M439.955 171.123L439.964 171.122C439.922 171.025 439.881 170.928 439.843 170.829C438.183 166.439 440.799 161.545 445.658 160.191C449.707 159.064 454.061 160.894 455.828 164.469C456.456 165.728 456.726 167.136 456.608 168.538C456.571 170.317 456.441 172.094 456.221 173.86C455.865 176.369 456.387 178.924 457.699 181.092L458.725 182.813C454.664 187.048 451.501 185.515 451.501 185.515L450.134 182.176C450.038 181.961 449.867 181.79 449.653 181.692C449.439 181.595 449.197 181.58 448.973 181.648L448.964 181.651C442.612 183.423 440.947 173.746 439.955 171.123Z" fill="#FFC499"/>
<path d="M449.864 172.224C449.83 172.128 449.816 172.026 449.823 171.924C449.829 171.823 449.856 171.724 449.902 171.633C449.948 171.542 450.011 171.461 450.089 171.395C450.166 171.329 450.257 171.28 450.354 171.25C450.55 171.178 450.766 171.184 450.957 171.268C451.149 171.351 451.3 171.505 451.381 171.698C451.415 171.794 451.429 171.896 451.423 171.997C451.416 172.099 451.389 172.198 451.344 172.289C451.298 172.38 451.234 172.461 451.157 172.527C451.079 172.592 450.989 172.642 450.892 172.672C450.696 172.744 450.479 172.738 450.288 172.655C450.096 172.571 449.944 172.417 449.864 172.224Z" fill="#343449"/>
<path d="M442.647 173.295C442.613 173.199 442.599 173.097 442.605 172.996C442.611 172.894 442.638 172.795 442.684 172.704C442.73 172.613 442.793 172.532 442.871 172.466C442.949 172.401 443.039 172.351 443.136 172.321C443.332 172.249 443.548 172.255 443.74 172.338C443.931 172.422 444.083 172.576 444.163 172.769C444.197 172.865 444.211 172.967 444.205 173.069C444.198 173.17 444.172 173.269 444.126 173.36C444.08 173.451 444.017 173.532 443.939 173.598C443.861 173.664 443.771 173.713 443.674 173.743C443.478 173.816 443.262 173.809 443.07 173.726C442.879 173.642 442.727 173.488 442.647 173.295Z" fill="#343449"/>
<path d="M452.162 170.173C452.242 170.146 452.313 170.098 452.368 170.034C452.407 169.99 452.437 169.938 452.455 169.882C452.473 169.826 452.479 169.767 452.473 169.708C452.467 169.649 452.449 169.592 452.42 169.541C452.391 169.49 452.351 169.445 452.304 169.41C451.698 168.947 450.186 168.437 448.788 169.821C448.745 169.862 448.712 169.911 448.689 169.966C448.666 170.02 448.655 170.079 448.656 170.138C448.658 170.197 448.671 170.255 448.696 170.308C448.721 170.362 448.756 170.41 448.8 170.449C448.894 170.529 449.014 170.572 449.138 170.568C449.261 170.565 449.379 170.515 449.467 170.429C450.614 169.291 451.66 170.069 451.704 170.102C451.769 170.151 451.844 170.183 451.924 170.195C452.004 170.207 452.086 170.2 452.162 170.173Z" fill="#343449"/>
<path d="M444.901 170.567C444.985 170.559 445.065 170.529 445.133 170.48C445.182 170.446 445.223 170.403 445.254 170.352C445.284 170.302 445.304 170.246 445.312 170.187C445.32 170.129 445.316 170.069 445.299 170.012C445.283 169.956 445.255 169.903 445.217 169.858C444.736 169.266 443.383 168.417 441.702 169.437C441.651 169.467 441.607 169.507 441.572 169.554C441.537 169.602 441.513 169.657 441.5 169.714C441.487 169.772 441.487 169.832 441.499 169.89C441.51 169.948 441.534 170.002 441.568 170.051C441.64 170.151 441.747 170.221 441.868 170.246C441.989 170.271 442.116 170.25 442.222 170.186C443.602 169.35 444.438 170.348 444.473 170.391C444.524 170.454 444.59 170.502 444.665 170.533C444.74 170.563 444.821 170.575 444.901 170.567Z" fill="#343449"/>
<path d="M457.065 165.455L456.81 171.39L455.223 171.625L451.812 165.266L457.065 165.455Z" fill="#100259"/>
<path d="M454.933 171.54C454.977 171.242 455.13 170.972 455.363 170.782C455.845 170.374 456.749 169.798 457.673 170.201C459.029 170.792 457.957 173.978 455.499 173.431C455.499 173.431 454.729 173.095 454.933 171.54Z" fill="#FFA089"/>
<path d="M446.942 176.151C447.194 176.173 447.449 176.139 447.686 176.049C447.923 175.959 448.137 175.817 448.311 175.632C448.322 175.619 448.33 175.604 448.336 175.587C448.341 175.57 448.342 175.553 448.34 175.535C448.338 175.518 448.332 175.501 448.324 175.486C448.315 175.471 448.303 175.458 448.289 175.448C448.259 175.426 448.222 175.417 448.186 175.421C448.149 175.425 448.116 175.443 448.092 175.471C447.897 175.676 447.644 175.817 447.367 175.873C447.089 175.929 446.801 175.898 446.542 175.784C446.385 175.725 446.294 175.664 446.269 175.605C446.232 175.521 446.299 175.374 446.392 175.171C446.798 174.354 446.887 173.417 446.643 172.538C446.634 172.503 446.611 172.473 446.58 172.455C446.549 172.436 446.512 172.43 446.477 172.439C446.442 172.446 446.411 172.466 446.391 172.495C446.37 172.525 446.363 172.561 446.369 172.596C446.603 173.42 446.519 174.303 446.134 175.068C446.019 175.321 445.928 175.521 446.008 175.706C446.053 175.785 446.114 175.855 446.187 175.91C446.26 175.966 446.344 176.005 446.433 176.028C446.596 176.091 446.767 176.133 446.942 176.151Z" fill="#E77D6C"/>
<path d="M440.142 167.703C440.142 167.703 439.263 168.88 440.729 173.616C440.729 173.616 438.756 168.484 439.154 167.702C439.551 166.92 440.142 167.703 440.142 167.703Z" fill="#100259"/>
<path d="M446.308 178.588L446.276 178.301C446.306 178.298 449.225 177.959 450.173 176.318L450.424 176.464C449.402 178.231 446.435 178.575 446.308 178.588Z" fill="#343449"/>
<path d="M439.12 166.755C439.12 166.755 438.876 159.742 447.711 158.535C456.546 157.329 457.065 165.455 457.065 165.455C457.065 165.455 450.68 165.246 449.416 165.35C448.153 165.455 439.12 166.755 439.12 166.755Z" fill="#A616D4"/>
<path d="M452.629 165.295C452.629 165.295 441.501 162.854 435.989 166.436C430.476 170.018 439.306 169.195 439.306 169.195C439.306 169.195 439.333 166.631 452.629 165.295Z" fill="#DA9DEE"/>
<path d="M453.995 244.233L451.644 243.87L453.004 235.065C453.194 233.893 453.642 232.778 454.315 231.801C454.989 230.823 455.871 230.008 456.898 229.413L469.542 221.904C470.032 221.614 470.578 221.429 471.143 221.363C471.709 221.297 472.282 221.35 472.825 221.519C473.337 221.675 473.81 221.937 474.214 222.287C474.618 222.638 474.944 223.069 475.171 223.553L478.229 230.213L476.067 231.206L473.009 224.547C472.923 224.365 472.798 224.203 472.645 224.073C472.491 223.943 472.311 223.847 472.117 223.791C471.892 223.721 471.655 223.699 471.421 223.726C471.186 223.754 470.96 223.83 470.757 223.95L458.113 231.459C457.388 231.875 456.765 232.448 456.288 233.134C455.811 233.82 455.492 234.604 455.355 235.429L453.995 244.233Z" fill="#362DA5"/>
<path d="M473.764 236.307L409.556 275.864L405.983 271.056L470.191 231.499L473.764 236.307Z" fill="#362DA5"/>
<path d="M484.947 202.791C484.947 202.791 489.881 207.487 490.141 209.177C490.4 210.868 480.031 220.043 476.451 223.038L478.946 225.317C478.946 225.317 493.386 220.828 499.427 210.561C499.427 210.561 499.783 205.55 492.104 195.513L484.947 202.791Z" fill="#FFC499"/>
<path d="M478.562 221.573C478.562 221.573 474.684 221.011 473.23 221.103C471.776 221.194 470.313 220.266 470.071 221.03C469.83 221.794 472.456 222.675 472.456 222.675C472.456 222.675 468.87 224.841 468.926 225.28C469.067 226.376 471.575 225.193 471.575 225.193C471.575 225.193 470.107 226.084 470.163 226.682C470.219 227.28 472.546 226.328 472.546 226.328C472.546 226.328 470.765 227.733 471.021 228.039C471.553 228.679 473.873 227.357 473.873 227.357C473.873 227.357 471.552 229.544 473.586 228.796C475.619 228.049 478.659 226.371 480.24 224.446L478.563 221.574L478.562 221.573Z" fill="#FFC499"/>
<path d="M442.137 242.02C442.137 242.02 445.997 242.676 447.332 243.206C448.668 243.735 450.389 243.31 450.334 244.103C450.279 244.895 447.478 244.923 447.478 244.923C447.478 244.923 449.359 247.054 450.045 247.625C450.73 248.196 451.675 249.512 451.264 250.022C450.854 250.531 447.769 247.573 447.769 247.573C447.769 247.573 450.102 250.307 449.829 250.854C449.555 251.4 446.039 248.335 446.039 248.335C446.039 248.335 448.68 251.137 448.68 251.53C448.68 251.923 448.149 251.947 446.954 251.171C446.157 250.633 445.421 250.01 444.759 249.313C444.759 249.313 446.455 251.415 446.564 251.735C446.672 252.055 446.576 252.575 444.939 251.25C443.302 249.925 440.267 246.507 439.492 244.212L442.136 242.02H442.137Z" fill="#FFA089"/>
<path d="M354.518 269.143C354.518 269.143 355.825 277.676 355.771 277.808C355.717 277.94 356.599 278.911 356.599 278.911L359.533 279.009L361.995 277.525C361.995 277.525 360.67 269.607 360.771 268.316C360.873 267.026 354.518 269.143 354.518 269.143Z" fill="#FFA089"/>
<path d="M361.994 277.525C361.994 277.525 358.838 279.057 355.765 277.637C355.765 277.637 345.293 282.996 346.035 285.901C346.035 285.901 345.687 286.843 350.43 286.013C355.173 285.183 362.556 283.987 362.741 283.857C362.925 283.727 363.924 284.074 361.994 277.525Z" fill="#343449"/>
<path d="M380.291 268.181C380.291 268.181 381.693 276.7 381.64 276.833C381.588 276.965 382.48 277.928 382.48 277.928L385.416 277.997L387.861 276.489C387.861 276.489 386.449 268.585 386.536 267.294C386.623 266.003 380.291 268.181 380.291 268.181Z" fill="#FFA089"/>
<path d="M387.763 275.918C387.763 275.918 384.624 277.481 381.535 276.091C381.535 276.091 371.12 281.552 371.895 284.449C371.895 284.449 371.557 285.394 376.291 284.517C381.026 283.64 388.396 282.372 388.579 282.242C388.762 282.111 389.765 282.447 387.763 275.918Z" fill="#343449"/>
<path d="M373.032 190.097L338.665 186.422C338.665 186.422 338.953 218.944 353.217 275.468L362.645 274.291C362.645 274.291 355.63 214.563 357.774 210.985C359.918 207.407 366.89 248.077 378.456 273.522L388.083 271.362C388.083 271.362 379.772 227.539 378.475 215.947C377.178 204.356 373.032 190.097 373.032 190.097Z" fill="#4C4BF4"/>
<path d="M362.08 162.374C362.08 162.374 369.605 172.695 371.846 189.742L360.415 180.396C360.415 180.396 351.262 169.921 351.103 168.881C350.945 167.84 349.196 160.148 349.614 159.185C350.032 158.222 351.872 155.466 351.872 155.466L362.08 162.374Z" fill="#343449"/>
<path d="M334.619 149.958C334.619 149.958 328.912 154.857 327.277 158.026C325.641 161.195 322.111 169.637 321.941 174.479L331.98 179.291L334.023 173.721L361.791 163.879L367.454 168.155L376.739 158.714C376.433 158.56 360.133 145.162 355.852 144.545C349.489 143.627 334.619 149.958 334.619 149.958Z" fill="#343449"/>
<path d="M332.832 169.642L337.089 201.322C337.089 201.322 375.498 200.018 373.032 190.098C370.567 180.178 354.483 161.922 354.483 161.922L332.832 169.642Z" fill="#343449"/>
<path d="M324.674 139.224C324.674 139.224 323.658 138.516 323.279 139.079C322.314 140.513 324.12 141.302 325.114 141.271L324.674 139.224Z" fill="#503335"/>
<path d="M323.07 135.87L323.079 135.869C323.038 135.772 322.996 135.675 322.959 135.576C321.298 131.185 323.914 126.292 328.774 124.938C332.823 123.811 337.176 125.641 338.943 129.216C339.571 130.475 339.841 131.883 339.723 133.284C339.686 135.064 339.556 136.841 339.336 138.607C338.98 141.116 339.503 143.67 340.815 145.838L341.841 147.56C337.779 151.795 334.617 150.262 334.617 150.262L333.25 146.923C333.154 146.708 332.982 146.536 332.768 146.439C332.554 146.342 332.312 146.327 332.088 146.395L332.079 146.398C325.727 148.17 324.062 138.493 323.07 135.87Z" fill="#503335"/>
<path d="M332.98 136.971C332.947 136.875 332.933 136.773 332.939 136.671C332.945 136.57 332.972 136.471 333.018 136.38C333.064 136.289 333.127 136.208 333.205 136.142C333.283 136.076 333.373 136.027 333.47 135.997C333.666 135.924 333.882 135.93 334.074 136.014C334.265 136.098 334.417 136.252 334.497 136.445C334.531 136.541 334.545 136.643 334.539 136.744C334.532 136.846 334.505 136.945 334.46 137.036C334.414 137.127 334.35 137.208 334.273 137.274C334.195 137.339 334.105 137.389 334.008 137.419C333.812 137.491 333.596 137.484 333.404 137.401C333.213 137.317 333.061 137.163 332.98 136.971Z" fill="#343449"/>
<path d="M325.763 138.042C325.729 137.946 325.715 137.844 325.721 137.742C325.728 137.641 325.755 137.542 325.8 137.451C325.846 137.36 325.909 137.279 325.987 137.213C326.065 137.147 326.155 137.098 326.252 137.068C326.448 136.996 326.664 137.002 326.856 137.086C327.047 137.169 327.199 137.323 327.279 137.516C327.313 137.612 327.327 137.714 327.321 137.815C327.314 137.917 327.288 138.016 327.242 138.107C327.196 138.198 327.133 138.279 327.055 138.345C326.977 138.41 326.887 138.46 326.79 138.49C326.594 138.562 326.377 138.556 326.186 138.473C325.995 138.389 325.843 138.235 325.763 138.042Z" fill="#343449"/>
<path d="M335.277 134.92C335.357 134.892 335.428 134.845 335.483 134.781C335.522 134.737 335.552 134.685 335.57 134.629C335.588 134.573 335.595 134.514 335.589 134.455C335.583 134.396 335.564 134.339 335.535 134.288C335.506 134.236 335.467 134.192 335.419 134.156C334.814 133.694 333.301 133.184 331.903 134.568C331.86 134.609 331.827 134.658 331.804 134.712C331.781 134.767 331.77 134.825 331.772 134.885C331.773 134.944 331.786 135.002 331.811 135.055C331.836 135.109 331.872 135.156 331.916 135.196C332.009 135.276 332.13 135.319 332.253 135.315C332.377 135.312 332.494 135.262 332.582 135.175C333.729 134.038 334.776 134.816 334.819 134.85C334.884 134.898 334.96 134.93 335.04 134.942C335.12 134.954 335.201 134.946 335.277 134.92Z" fill="#343449"/>
<path d="M327.747 136.273C327.827 136.246 327.898 136.198 327.953 136.134C327.992 136.09 328.022 136.038 328.04 135.982C328.058 135.926 328.064 135.867 328.058 135.808C328.052 135.749 328.034 135.692 328.005 135.641C327.976 135.59 327.936 135.545 327.889 135.51C327.283 135.047 325.771 134.537 324.373 135.921C324.33 135.962 324.296 136.011 324.274 136.066C324.251 136.12 324.24 136.179 324.241 136.238C324.243 136.297 324.256 136.355 324.281 136.409C324.306 136.462 324.341 136.51 324.386 136.549C324.479 136.63 324.599 136.673 324.723 136.669C324.846 136.665 324.964 136.615 325.052 136.529C326.199 135.391 327.245 136.169 327.289 136.203C327.354 136.251 327.429 136.283 327.509 136.295C327.589 136.307 327.671 136.3 327.747 136.273Z" fill="#343449"/>
<path d="M340.182 130.202L339.927 136.136L338.341 136.372L334.93 130.013L340.182 130.202Z" fill="#4C4BF4"/>
<path d="M338.049 136.287C338.093 135.99 338.246 135.719 338.479 135.529C338.961 135.121 339.865 134.545 340.789 134.948C342.145 135.54 341.073 138.725 338.615 138.178C338.615 138.178 337.845 137.842 338.049 136.287Z" fill="#503335"/>
<path d="M330.058 140.897C330.31 140.92 330.565 140.885 330.802 140.796C331.039 140.706 331.253 140.563 331.427 140.379C331.438 140.366 331.447 140.35 331.452 140.333C331.457 140.317 331.458 140.299 331.456 140.282C331.454 140.265 331.448 140.248 331.439 140.233C331.431 140.218 331.419 140.205 331.404 140.195C331.375 140.173 331.338 140.164 331.302 140.168C331.266 140.172 331.232 140.19 331.208 140.217C331.014 140.423 330.76 140.563 330.483 140.62C330.205 140.676 329.917 140.645 329.658 140.531C329.501 140.471 329.41 140.411 329.385 140.352C329.349 140.268 329.416 140.121 329.508 139.918C329.914 139.101 330.003 138.163 329.759 137.285C329.75 137.25 329.727 137.22 329.696 137.201C329.665 137.183 329.628 137.177 329.593 137.186C329.558 137.192 329.527 137.213 329.507 137.242C329.486 137.271 329.479 137.308 329.485 137.343C329.719 138.167 329.635 139.05 329.25 139.815C329.135 140.068 329.044 140.267 329.124 140.453C329.169 140.532 329.23 140.602 329.304 140.657C329.377 140.712 329.46 140.752 329.549 140.774C329.712 140.838 329.883 140.88 330.058 140.897Z" fill="#343449"/>
<path d="M323.258 132.449C323.258 132.449 322.379 133.626 323.846 138.363C323.846 138.363 321.872 133.231 322.27 132.449C322.668 131.667 323.258 132.449 323.258 132.449Z" fill="#4C4BF4"/>
<path d="M329.424 143.336L329.393 143.049C329.422 143.045 332.341 142.706 333.289 141.066L333.54 141.211C332.518 142.977 329.55 143.321 329.424 143.336Z" fill="#343449"/>
<path d="M322.237 131.501C322.237 131.501 321.993 124.489 330.828 123.282C339.663 122.076 340.183 130.202 340.183 130.202C340.183 130.202 333.797 129.992 332.534 130.097C331.27 130.202 322.237 131.501 322.237 131.501Z" fill="#A616D4"/>
<path d="M335.745 130.042C335.745 130.042 324.617 127.601 319.105 131.183C313.593 134.765 322.422 133.942 322.422 133.942C322.422 133.942 322.448 131.378 335.745 130.042Z" fill="#DA9DEE"/>
<path d="M671.542 290.762C671.542 297.591 664.991 304.15 652.933 310.258C634.095 319.803 601.811 328.225 560.091 334.843C500.631 344.263 421.997 350 335.772 350C150.331 350 0 323.479 0 290.762C0 258.039 150.331 231.518 335.772 231.518C415.72 231.518 489.139 236.446 546.803 244.672C589.245 250.737 623.148 258.586 644.833 267.561C662.03 274.688 671.542 282.529 671.542 290.762Z" fill="#343449"/>
<path d="M557.32 274.511C557.32 274.511 559.348 285.486 559.279 285.612C559.211 285.738 559.92 286.837 559.92 286.837L562.691 287.334L565.22 286.171C565.22 286.171 563.166 275.799 563.431 274.512C563.696 273.224 557.32 274.511 557.32 274.511Z" fill="#FFA089"/>
<path d="M565.22 286.17C565.22 286.17 562.027 287.288 559.296 285.438C559.296 285.438 548.662 289.424 548.987 292.455C548.987 292.455 548.534 293.358 553.141 293.163C557.749 292.968 564.91 292.763 565.102 292.657C565.294 292.55 566.196 293.038 565.22 286.17Z" fill="#343449"/>
<path d="M616.334 284.016C616.334 284.016 627.101 281.077 627.232 281.135C627.363 281.192 628.399 280.393 628.399 280.393L628.662 277.59L627.292 275.168C627.292 275.168 617.304 277.056 615.999 276.9C614.693 276.744 616.334 284.016 616.334 284.016Z" fill="#FFA089"/>
<path d="M627.292 275.168C627.292 275.168 628.672 278.257 627.059 281.131C627.059 281.131 631.92 291.394 634.913 290.817C634.913 290.817 635.851 291.193 635.271 286.618C634.691 282.043 633.888 274.924 633.766 274.741C633.644 274.559 634.053 273.621 627.292 275.168Z" fill="#343449"/>
<path d="M605.369 242.934C605.369 242.934 606.534 245.318 606.796 252.917C607.059 260.516 596.776 275.068 597.683 276.152C598.59 277.235 620.95 276.09 620.95 276.09L619.729 288.198C619.729 288.198 581.271 290.303 578.319 286.679C573.912 281.267 581.343 260.416 581.343 260.416C580.407 257.596 567.335 259.401 566.208 260.287C563.797 262.18 568.897 282.425 568.897 282.425L555.87 283.889C555.87 283.889 546.126 259.711 552.67 251.869C558.089 245.377 575.632 244.672 575.632 244.672L605.369 242.934Z" fill="#4C4BF4"/>
<path d="M539.374 228.992C539.374 228.992 535.01 227.37 533.296 227.112C531.581 226.855 530.122 225.408 529.638 226.238C529.155 227.069 531.978 228.751 531.978 228.751C531.978 228.751 529.936 230.471 528.852 230.639C527.769 230.808 524.595 230.881 524.664 231.637C524.734 232.392 529.878 231.24 529.878 231.24C529.878 231.24 525.648 232.611 525.553 233.32C525.459 234.03 531.114 233.033 531.114 233.033C531.114 233.033 526.526 234.288 526.257 234.68C525.989 235.073 526.514 235.413 528.253 235.34C529.434 235.269 530.605 235.079 531.748 234.771C531.748 234.771 528.594 235.88 528.265 236.137C527.936 236.394 527.682 236.974 530.246 236.61C532.81 236.247 538.216 234.607 540.564 232.757L539.374 228.992Z" fill="#FFA089"/>
<path d="M585.158 197.844L572.192 201.584C572.192 201.584 566.2 203.561 563.224 209.434C560.248 215.308 552.449 227.029 550.376 227.705C548.303 228.381 538.391 227.679 538.391 227.679L537.017 234.068C537.017 234.068 554.47 238.065 559.995 234.787C565.52 231.509 569.857 222.763 569.857 222.763L574.208 242.181L573.46 244.89C573.46 244.89 596.166 249.699 606.765 245.534C606.765 245.534 602.905 205.812 597.575 200.62C592.245 195.429 585.158 197.844 585.158 197.844Z" fill="#343449"/>
<path d="M597.576 200.621C606.389 210.794 612.218 229.183 609.021 233.149C605.824 237.116 579.29 243.03 579.29 243.03L576.955 236.525C576.955 236.525 593.996 227.559 594.45 225.603C594.903 223.647 588.153 209.992 588.153 209.992L597.576 200.621Z" fill="#343449"/>
<path d="M579.29 243.111C579.272 243.112 579.255 243.107 579.24 243.097C579.226 243.087 579.215 243.073 579.209 243.056L576.874 236.551C576.867 236.533 576.868 236.514 576.875 236.496C576.882 236.479 576.895 236.464 576.911 236.456C583.987 232.596 594.475 226.523 594.364 225.612C594.21 224.344 589.087 212.132 589.035 212.008C589.031 211.998 589.029 211.987 589.029 211.977C589.029 211.966 589.032 211.955 589.036 211.945C589.041 211.936 589.047 211.927 589.055 211.92C589.063 211.912 589.073 211.907 589.083 211.903C589.104 211.895 589.127 211.895 589.148 211.904C589.168 211.912 589.185 211.928 589.194 211.949C589.406 212.452 594.378 224.305 594.534 225.594C594.691 226.888 579.135 235.427 577.058 236.561L579.347 242.938C590.277 240.928 605.416 235.286 605.567 235.229C605.588 235.221 605.611 235.221 605.632 235.23C605.653 235.238 605.669 235.254 605.679 235.274C605.683 235.284 605.685 235.295 605.685 235.306C605.685 235.317 605.682 235.327 605.678 235.337C605.673 235.347 605.667 235.356 605.659 235.363C605.651 235.37 605.641 235.375 605.631 235.379C605.479 235.436 590.256 241.108 579.305 243.109C579.3 243.11 579.295 243.111 579.29 243.111Z" fill="#343449"/>
<path d="M567.796 173.798C576.622 168.758 591.964 181.508 584.412 191.389C580.928 195.946 574.922 195.165 569.286 195.727C554.59 197.194 560.508 177.959 567.796 173.798Z" fill="#75392F"/>
<path d="M566.027 190.011C566.027 190.011 565.038 189.198 564.632 189.775C563.594 191.251 565.373 192.196 566.373 192.221L566.027 190.011Z" fill="#E56D5E"/>
<path d="M564.572 186.34H564.581C564.544 186.234 564.507 186.128 564.474 186.02C564.094 184.78 563.996 183.471 564.187 182.188C564.378 180.905 564.853 179.681 565.578 178.606C566.303 177.531 567.259 176.631 568.376 175.973C569.493 175.314 570.744 174.914 572.036 174.801C573.327 174.688 574.628 174.865 575.843 175.319C577.058 175.773 578.156 176.493 579.056 177.426C579.957 178.359 580.638 179.482 581.049 180.712C581.46 181.942 581.591 183.248 581.432 184.535C581.257 186.718 581.088 188.59 580.793 190.195C580.319 192.852 580.722 195.591 581.941 197.999L582.892 199.896C578.612 204.184 575.505 202.366 575.505 202.366L574.287 198.723C574.209 198.494 574.049 198.303 573.838 198.186C573.626 198.07 573.378 198.037 573.144 198.094L573.135 198.096C566.667 199.622 565.446 189.196 564.572 186.34Z" fill="#FFA089"/>
<path d="M574.482 188.084C574.435 187.93 574.434 187.766 574.48 187.613C574.527 187.459 574.617 187.322 574.741 187.22C574.865 187.118 575.016 187.055 575.175 187.039C575.335 187.023 575.496 187.054 575.637 187.13C575.779 187.205 575.895 187.32 575.971 187.462C576.047 187.603 576.079 187.764 576.064 187.923C576.049 188.083 575.986 188.235 575.885 188.359C575.783 188.483 575.647 188.574 575.494 188.621C575.288 188.684 575.066 188.662 574.877 188.561C574.687 188.461 574.545 188.289 574.482 188.084Z" fill="#343449"/>
<path d="M567.176 188.812C567.129 188.659 567.129 188.495 567.175 188.341C567.221 188.188 567.311 188.051 567.435 187.949C567.559 187.847 567.71 187.784 567.87 187.767C568.029 187.751 568.19 187.783 568.332 187.858C568.473 187.933 568.59 188.049 568.665 188.19C568.741 188.332 568.774 188.492 568.758 188.652C568.743 188.812 568.681 188.963 568.579 189.087C568.477 189.211 568.341 189.303 568.188 189.35C567.983 189.412 567.761 189.391 567.571 189.29C567.381 189.189 567.239 189.017 567.176 188.812Z" fill="#343449"/>
<path d="M576.886 186.025C576.967 186 577.039 185.955 577.096 185.893C577.153 185.831 577.192 185.755 577.211 185.673C577.229 185.591 577.225 185.506 577.199 185.426C577.174 185.346 577.127 185.274 577.065 185.218C576.478 184.69 574.98 184.058 573.511 185.456C573.426 185.544 573.378 185.661 573.378 185.784C573.377 185.906 573.424 186.024 573.509 186.113C573.593 186.201 573.708 186.254 573.831 186.26C573.953 186.266 574.073 186.224 574.165 186.144C575.37 184.995 576.386 185.885 576.428 185.924C576.489 185.979 576.564 186.017 576.644 186.035C576.724 186.053 576.808 186.049 576.886 186.025Z" fill="#343449"/>
<path d="M569.254 187.037C569.334 187.013 569.406 186.967 569.463 186.906C569.52 186.844 569.56 186.768 569.578 186.686C569.596 186.604 569.592 186.519 569.567 186.439C569.541 186.359 569.495 186.287 569.432 186.231C568.845 185.702 567.347 185.071 565.878 186.468C565.791 186.556 565.742 186.674 565.74 186.798C565.739 186.921 565.786 187.041 565.871 187.13C565.956 187.22 566.073 187.273 566.196 187.278C566.32 187.282 566.44 187.239 566.532 187.156C567.738 186.008 568.753 186.898 568.796 186.936C568.857 186.991 568.931 187.03 569.011 187.047C569.092 187.065 569.175 187.062 569.254 187.037Z" fill="#343449"/>
<path d="M579.608 187.643C579.663 187.334 579.83 187.055 580.076 186.859C580.58 186.451 581.514 185.888 582.425 186.371C583.759 187.081 582.534 190.419 580.089 189.695C580.089 189.694 579.331 189.291 579.608 187.643Z" fill="#FFA089"/>
<path d="M571.36 192.107C571.614 192.144 571.874 192.121 572.117 192.038C572.36 191.956 572.581 191.817 572.76 191.632C572.783 191.604 572.794 191.568 572.791 191.531C572.788 191.495 572.771 191.461 572.743 191.437C572.716 191.413 572.68 191.401 572.644 191.403C572.607 191.404 572.573 191.42 572.548 191.447C572.348 191.653 572.086 191.788 571.803 191.833C571.519 191.877 571.229 191.828 570.975 191.692C570.821 191.62 570.731 191.55 570.709 191.485C570.676 191.394 570.751 191.241 570.853 191.029C571.301 190.169 571.434 189.18 571.229 188.232C571.222 188.195 571.202 188.163 571.171 188.141C571.141 188.119 571.103 188.111 571.066 188.117C571.029 188.123 570.996 188.144 570.975 188.175C570.953 188.205 570.944 188.243 570.951 188.28C571.149 189.169 571.024 190.1 570.599 190.906C570.472 191.169 570.371 191.377 570.443 191.579C570.483 191.665 570.54 191.742 570.611 191.805C570.682 191.869 570.765 191.917 570.855 191.947C571.015 192.024 571.185 192.078 571.36 192.107Z" fill="#E56D5E"/>
<path d="M570.546 194.43C570.359 194.431 570.173 194.42 569.987 194.397L570.035 194.013C571.669 194.216 573.889 193.301 573.911 193.292L574.06 193.649C573.975 193.684 572.167 194.43 570.546 194.43Z" fill="#343449"/>
<path d="M585.85 192.55C585.891 192.541 585.93 192.522 585.963 192.495C585.997 192.469 586.024 192.435 586.043 192.397C587.117 189.973 587.251 187.236 586.42 184.718C585.311 181.456 582.562 178.787 578.249 176.787C578.215 176.771 578.178 176.763 578.141 176.761C578.103 176.76 578.066 176.766 578.031 176.779C577.996 176.792 577.964 176.812 577.937 176.837C577.909 176.863 577.887 176.893 577.872 176.927C577.855 176.961 577.846 176.997 577.844 177.034C577.842 177.071 577.847 177.108 577.859 177.143C577.872 177.178 577.891 177.211 577.916 177.238C577.941 177.266 577.971 177.288 578.004 177.304C582.174 179.239 584.825 181.799 585.883 184.912C586.651 187.286 586.528 189.86 585.536 192.15C585.511 192.197 585.501 192.251 585.505 192.304C585.51 192.357 585.53 192.408 585.563 192.45C585.596 192.493 585.64 192.524 585.69 192.542C585.741 192.56 585.795 192.563 585.847 192.551L585.85 192.55Z" fill="#75392F"/>
<path d="M587.935 188.023L587.956 188.023C588.036 188.015 588.11 187.975 588.161 187.913C588.213 187.85 588.238 187.77 588.231 187.69C588.223 187.598 587.329 178.521 578.125 175.833C578.048 175.811 577.964 175.82 577.893 175.859C577.822 175.897 577.769 175.962 577.746 176.039C577.734 176.077 577.729 176.117 577.733 176.156C577.736 176.196 577.748 176.234 577.766 176.269C577.785 176.304 577.81 176.335 577.841 176.36C577.872 176.385 577.907 176.404 577.945 176.415C586.764 178.991 587.62 187.666 587.627 187.754C587.634 187.83 587.67 187.9 587.727 187.95C587.785 188.001 587.859 188.026 587.935 188.023Z" fill="#75392F"/>
<path d="M576.658 177.767C576.658 177.767 581.008 189.382 582.648 188.127C584.288 186.873 584.626 178.025 576.658 177.767Z" fill="#75392F"/>
<path d="M577.48 178.216C577.48 178.216 569.307 189.88 565.268 188.943C561.23 188.006 562.74 177.055 565.544 176.386C568.348 175.716 575.558 176.669 577.48 178.216Z" fill="#75392F"/>
<path d="M562.437 180.933C562.437 180.933 562.547 171.668 573.586 170.712C584.625 169.755 584.793 180.507 584.793 180.507C584.793 180.507 576.878 179.772 575.303 179.819C573.728 179.866 562.437 180.933 562.437 180.933Z" fill="#A616D4"/>
<path d="M579.295 179.978C579.295 179.978 565.622 175.96 558.568 180.288C551.514 184.616 562.525 184.164 562.525 184.164C562.525 184.164 562.709 180.785 579.295 179.978Z" fill="#DA9DEE"/>
<path d="M289.837 141.1C289.837 141.1 297.948 159.568 301.715 164.728C305.568 170.006 312.549 177.117 312.549 177.117L310.02 180.361C310.02 180.361 297.42 173.727 293.189 168.566C288.958 163.405 283.239 150.737 283.239 150.737L289.837 141.1Z" fill="#C07951"/>
<path d="M271.595 259.098C271.595 259.098 271.461 268.4 271.533 268.533C271.605 268.665 270.854 269.83 270.854 269.83L267.92 270.355L265.243 269.124C265.243 269.124 265.478 260.477 265.199 259.114C264.92 257.75 271.595 259.098 271.595 259.098Z" fill="#FFA089"/>
<path d="M265.243 269.124C265.243 269.124 268.625 270.307 271.516 268.35C271.516 268.35 282.775 272.57 282.431 275.779C282.431 275.779 282.911 276.735 278.032 276.529C273.154 276.322 265.572 276.105 265.369 275.992C265.165 275.88 264.21 276.395 265.243 269.124Z" fill="#343449"/>
<path d="M236.804 257.17C236.804 257.17 233.729 265.949 233.755 266.098C233.781 266.247 232.7 267.114 232.7 267.114L229.751 266.682L227.602 264.666C227.602 264.666 230.566 256.54 230.733 255.157C230.9 253.775 236.804 257.17 236.804 257.17Z" fill="#C07951"/>
<path d="M227.812 264.078C227.812 264.078 230.644 266.272 234.006 265.332C234.006 265.332 243.347 272.903 242.004 275.838C242.004 275.838 242.155 276.897 237.594 275.154C233.032 273.412 225.91 270.803 225.753 270.632C225.596 270.461 224.527 270.647 227.812 264.078Z" fill="#343449"/>
<path d="M243.249 172.041L277.395 168.715C277.395 168.715 279.204 194.414 274.943 265.198H263.168C263.168 265.198 260.67 198.312 258.53 194.468C256.389 190.625 248.896 236.296 237.121 263.771L226.417 260.559C226.417 260.559 236.051 212.39 237.478 199.902C238.905 187.414 243.249 172.041 243.249 172.041Z" fill="#4C4BF4"/>
<path d="M312.549 177.117C312.549 177.117 317.756 178.726 319.282 179.358C320.809 179.99 322.758 179.468 322.711 180.425C322.663 181.382 319.485 181.426 319.485 181.426C319.485 181.426 321.665 183.985 322.455 184.669C323.244 185.353 322.954 185.866 322.298 185.702C321.554 185.516 319.87 184.617 319.87 184.617C319.87 184.617 321.57 185.806 321.271 186.464C320.971 187.123 317.921 185.547 317.921 185.547C317.921 185.547 319.753 186.899 319.762 187.372C319.772 187.844 319.449 188.756 318.078 187.827C316.707 186.899 316.487 186.729 316.487 186.729C316.487 186.729 317.331 187.618 317.461 188.003C317.592 188.388 317.15 189.263 315.263 187.673C313.376 186.083 310.946 183.125 310.021 180.361L312.549 177.117Z" fill="#FFA089"/>
<path d="M254.628 142.139C254.628 142.139 246.893 153.286 244.456 171.653L256.144 161.539C256.144 161.539 265.531 150.219 265.703 149.098C265.875 147.977 267.721 139.686 267.306 138.651C266.892 137.615 265.051 134.655 265.051 134.655L254.628 142.139Z" fill="#343449"/>
<path d="M282.61 128.65C282.61 128.65 290.114 135.825 291.742 139.231C293.371 142.636 295.96 150.061 297.049 151.376L286.786 159.839L282.985 154.236L254.905 143.758L248.569 147.662C248.569 147.662 239.232 137.48 239.544 137.313C239.856 137.146 256.768 123.594 261.117 122.911C267.583 121.897 282.61 128.65 282.61 128.65Z" fill="#343449"/>
<path d="M284.234 149.839L277.629 174.503C277.629 174.503 240.652 182.734 243.249 172.041C245.846 161.349 262.34 141.619 262.34 141.619L284.234 149.839Z" fill="#343449"/>
<path d="M292.804 117.047C292.804 117.047 293.842 116.281 294.221 116.885C295.187 118.426 293.347 119.282 292.338 119.254L292.804 117.047Z" fill="#C07951"/>
<path d="M292.084 117.031C292.113 117.048 292.146 117.057 292.18 117.058C293.594 117.099 294.686 116.056 295.237 115.067C296.908 112.064 295.886 108.094 294.229 105.675C294.196 105.633 294.148 105.606 294.096 105.598C294.043 105.589 293.99 105.602 293.946 105.632C293.902 105.662 293.871 105.707 293.86 105.759C293.848 105.811 293.857 105.865 293.884 105.911C295.471 108.227 296.457 112.016 294.872 114.864C294.381 115.746 293.42 116.676 292.192 116.641C292.145 116.64 292.1 116.654 292.062 116.682C292.025 116.71 291.998 116.749 291.986 116.794C291.974 116.839 291.976 116.887 291.994 116.93C292.012 116.973 292.044 117.008 292.084 117.031Z" fill="#343449"/>
<path d="M276.167 112.385C276.611 113.966 279.107 116.835 277.904 122.573C277.599 124.16 276.892 125.647 275.902 126.784C273.916 129.117 270.398 140.223 263.134 140.526C258.512 140.718 253.258 134.419 254.752 128.635C255.88 124.267 258.94 119.92 262.255 118.794C264.606 117.995 271.601 120.896 274.527 109.118C274.657 108.599 275.961 103.999 276.689 105.426C277.215 106.455 275.522 110.092 276.167 112.385Z" fill="#343449"/>
<path d="M290.497 109.758C289.801 106.622 287.151 103.489 284.294 102.622C281.102 101.652 277.083 103.738 275.478 106.723C274.659 108.247 274.216 110.105 274.724 111.78C275.11 112.923 275.817 113.93 276.761 114.681C277.953 115.689 279.391 116.363 280.929 116.635C282.72 116.944 284.56 116.671 286.307 116.164C287.654 115.772 289.044 115.182 289.864 113.981C290.515 112.972 290.787 111.764 290.633 110.573C290.603 110.299 290.557 110.027 290.497 109.758Z" fill="#343449"/>
<path d="M296.806 110.476C295.868 106.257 292.303 102.041 288.459 100.874C284.165 99.5692 278.758 102.376 276.599 106.392C275.496 108.443 274.9 110.942 275.584 113.196C276.103 114.734 277.054 116.089 278.325 117.099C279.929 118.455 281.863 119.362 283.932 119.728C286.342 120.144 288.817 119.776 291.168 119.094C292.98 118.567 294.851 117.772 295.954 116.158C296.83 114.799 297.196 113.174 296.988 111.571C296.947 111.203 296.886 110.837 296.806 110.476Z" fill="#343449"/>
<path d="M294.462 113.429L294.454 113.428C294.496 113.323 294.539 113.219 294.578 113.112C295.026 111.884 295.194 110.572 295.07 109.271C294.946 107.97 294.532 106.713 293.86 105.593C293.188 104.472 292.273 103.516 291.184 102.794C290.095 102.072 288.858 101.603 287.564 101.42C286.269 101.238 284.951 101.347 283.705 101.74C282.458 102.132 281.315 102.798 280.359 103.689C279.403 104.581 278.658 105.674 278.179 106.89C277.7 108.106 277.499 109.413 277.59 110.717C277.65 112.923 277.721 114.816 277.932 116.447C278.269 119.146 277.718 121.882 276.363 124.24L275.306 126.099C279.385 130.641 282.61 128.975 282.61 128.975L284.029 125.374C284.119 125.148 284.29 124.963 284.509 124.857C284.728 124.751 284.979 124.731 285.212 124.801L285.221 124.804C291.649 126.686 293.431 116.258 294.462 113.429Z" fill="#C07951"/>
<path d="M296.176 108.51C296.176 108.51 285.584 101.094 275.233 107.194C275.233 107.194 277.826 99.2269 285.987 99.6518C293.999 100.069 296.176 108.51 296.176 108.51Z" fill="#343449"/>
<path d="M281.662 104.859C281.662 104.859 290.673 114.386 294.201 112.916C297.729 111.446 294.475 102.513 291.843 102.317C289.212 102.121 283.19 103.142 281.662 104.859Z" fill="#343449"/>
<path d="M285.369 103.143L285.262 103.833L284.586 103.938L285.196 104.259L285.089 104.948L285.574 104.457L286.184 104.778L285.873 104.153L286.358 103.662L285.681 103.767L285.369 103.143Z" fill="#343449"/>
<path d="M288.556 103.42L288.414 103.858H287.954L288.326 104.128L288.184 104.565L288.556 104.295L288.929 104.565L288.786 104.128L289.158 103.858H288.698L288.556 103.42Z" fill="#343449"/>
<path d="M284.762 103.562L284.658 104.01L284.199 104.048L284.592 104.287L284.487 104.735L284.835 104.434L285.228 104.672L285.049 104.248L285.398 103.948L284.939 103.986L284.762 103.562Z" fill="#343449"/>
<path d="M284.398 114.657C284.453 114.506 284.462 114.341 284.424 114.184C284.386 114.027 284.302 113.885 284.183 113.776C284.064 113.666 283.915 113.595 283.756 113.57C283.596 113.546 283.433 113.569 283.286 113.637C283.14 113.705 283.017 113.815 282.933 113.953C282.849 114.091 282.808 114.251 282.815 114.412C282.822 114.574 282.877 114.73 282.972 114.86C283.068 114.99 283.2 115.089 283.352 115.144C283.555 115.218 283.779 115.209 283.975 115.117C284.172 115.026 284.323 114.861 284.398 114.657Z" fill="#343449"/>
<path d="M291.711 115.779C291.766 115.628 291.775 115.463 291.737 115.306C291.699 115.149 291.615 115.007 291.496 114.898C291.377 114.789 291.228 114.718 291.069 114.693C290.909 114.668 290.746 114.692 290.6 114.76C290.453 114.828 290.33 114.938 290.246 115.076C290.163 115.214 290.122 115.374 290.129 115.535C290.136 115.696 290.19 115.852 290.286 115.982C290.381 116.112 290.513 116.211 290.665 116.267C290.868 116.341 291.093 116.331 291.289 116.24C291.485 116.148 291.637 115.983 291.711 115.779Z" fill="#343449"/>
<path d="M282.086 112.459C282.007 112.43 281.937 112.38 281.883 112.315C281.829 112.25 281.793 112.171 281.779 112.088C281.765 112.004 281.774 111.919 281.804 111.84C281.834 111.761 281.884 111.691 281.95 111.638C282.569 111.137 284.109 110.581 285.513 112.065C285.601 112.157 285.647 112.28 285.644 112.407C285.64 112.534 285.587 112.654 285.494 112.742C285.402 112.829 285.279 112.876 285.152 112.872C285.026 112.869 284.905 112.815 284.818 112.723C283.666 111.503 282.597 112.345 282.552 112.383C282.487 112.434 282.411 112.469 282.329 112.482C282.247 112.495 282.164 112.487 282.086 112.459Z" fill="#343449"/>
<path d="M289.714 113.883C289.635 113.854 289.564 113.804 289.51 113.739C289.456 113.674 289.421 113.596 289.407 113.512C289.393 113.429 289.401 113.343 289.431 113.264C289.461 113.185 289.512 113.115 289.577 113.062C290.196 112.561 291.737 112.005 293.141 113.49C293.226 113.582 293.27 113.704 293.265 113.83C293.261 113.955 293.207 114.073 293.116 114.159C293.025 114.245 292.904 114.292 292.778 114.29C292.653 114.288 292.534 114.236 292.446 114.147C291.293 112.928 290.224 113.769 290.179 113.807C290.115 113.859 290.038 113.893 289.957 113.907C289.875 113.92 289.792 113.912 289.714 113.883Z" fill="#343449"/>
<path d="M279.262 113.943C279.223 113.628 279.071 113.338 278.833 113.128C278.347 112.691 277.436 112.075 276.494 112.513C275.113 113.155 276.17 116.581 278.669 115.981C278.669 115.981 279.454 115.616 279.262 113.943Z" fill="#C07951"/>
<path d="M284.051 103.189C284.051 103.189 279.539 115.782 277.834 114.429C276.13 113.075 275.778 103.496 284.051 103.189Z" fill="#343449"/>
<path d="M287.326 118.873C287.068 118.897 286.808 118.86 286.567 118.764C286.326 118.668 286.112 118.516 285.942 118.321C285.92 118.291 285.91 118.254 285.915 118.218C285.92 118.181 285.939 118.148 285.968 118.125C285.997 118.102 286.034 118.092 286.071 118.096C286.108 118.099 286.141 118.117 286.165 118.146C286.355 118.364 286.611 118.514 286.894 118.574C287.177 118.633 287.472 118.599 287.734 118.476C287.893 118.412 287.987 118.346 288.013 118.282C288.051 118.192 287.984 118.034 287.893 117.815C287.487 116.926 287.406 115.923 287.663 114.981C287.671 114.944 287.694 114.912 287.726 114.892C287.758 114.872 287.796 114.865 287.833 114.874C287.87 114.882 287.902 114.904 287.922 114.936C287.942 114.968 287.948 115.007 287.94 115.043C287.694 115.928 287.77 116.871 288.154 117.705C288.269 117.977 288.359 118.191 288.276 118.391C288.231 118.475 288.169 118.55 288.094 118.61C288.02 118.669 287.934 118.714 287.842 118.739C287.677 118.808 287.503 118.853 287.326 118.873Z" fill="#090605"/>
<path d="M283.721 119.143C283.721 119.143 286.709 120.669 289.028 120.468C289.028 120.468 287.658 122.695 285.771 122.223C283.883 121.752 283.721 119.143 283.721 119.143Z" fill="white"/>
<path d="M297.038 108.094C297.038 108.094 297.414 99.0676 286.715 97.5608C276.016 96.054 275.292 106.515 275.292 106.515C275.292 106.515 283.038 106.212 284.569 106.34C286.099 106.467 297.038 108.094 297.038 108.094Z" fill="#A616D4"/>
<path d="M280.675 106.286C280.675 106.286 294.197 103.086 300.84 107.668C307.483 112.249 296.786 111.236 296.786 111.236C296.786 111.236 296.783 107.936 280.675 106.286Z" fill="#DA9DEE"/>
<path d="M542.54 296.918C560.213 296.918 574.54 278.667 574.54 256.153C574.54 233.64 560.213 215.389 542.54 215.389C524.867 215.389 510.54 233.64 510.54 256.153C510.54 278.667 524.867 296.918 542.54 296.918Z" fill="#706873"/>
<path d="M542.54 215.389H512.641V296.918H542.54V215.389Z" fill="#706873"/>
<path d="M512.64 296.918C530.313 296.918 544.64 278.667 544.64 256.153C544.64 233.64 530.313 215.389 512.64 215.389C494.967 215.389 480.641 233.64 480.641 256.153C480.641 278.667 494.967 296.918 512.64 296.918Z" fill="#343449"/>
<path d="M349.787 211.828L305.666 212.947V221.51L414.599 232.212L491.357 227.39L349.787 211.828Z" fill="#A616D4"/>
<path d="M511.831 269.222V290.168C511.831 297.236 517.663 302.966 524.855 302.966H557.535C563.422 302.966 568.193 298.277 568.193 292.494V268.267L511.831 269.222Z" fill="#A616D4"/>
<path d="M409.493 221.178C409.155 207.041 417.198 201.235 426.701 201.235C436.205 201.235 444.396 208.593 443.91 221.178C443.485 232.185 436.204 241.122 426.701 241.122C417.198 241.122 409.756 232.19 409.493 221.178Z" fill="#F7F7F7"/>
<path d="M416.248 211.49C420.66 210.773 434.285 208.872 441.19 211.429C441.435 211.531 441.65 211.691 441.817 211.897C441.985 212.102 442.098 212.346 442.149 212.606C442.567 214.431 443.4 218.878 442.923 223.624C442.832 224.522 442.146 225.183 441.36 225.127C437.159 224.828 424.21 224.069 417.725 225.509C416.874 225.698 416.067 225.008 415.975 224.018L414.985 213.357C414.9 212.444 415.458 211.618 416.248 211.49Z" fill="#343449"/>
<path d="M520.866 302.352L370.374 280.386L364.492 227.391L476.799 231.29L509.276 243.037L520.866 302.352Z" fill="#A616D4"/>
<path d="M399.984 228.431C399.984 228.431 487.086 249.902 504.583 259.217C511.008 262.638 518.977 279.078 523.07 285.616C525.591 289.644 562.195 289.071 563.938 285.616C566.784 279.974 570.483 258.599 566.344 252.205C556.197 236.533 491.358 227.39 491.358 227.39L399.984 228.431Z" fill="#DA9DEE"/>
<path d="M385.36 228.431L305.666 221.51L301.21 271.665L405.075 282.376L385.36 228.431Z" fill="#DA9DEE"/>
<path d="M295.747 290.759C313.42 290.759 327.747 271.388 327.747 247.492C327.747 223.597 313.42 204.225 295.747 204.225C278.074 204.225 263.747 223.597 263.747 247.492C263.747 271.388 278.074 290.759 295.747 290.759Z" fill="#343449"/>
<path d="M295.747 204.225H265.848V290.759H295.747V204.225Z" fill="#343449"/>
<path d="M265.847 290.759C283.52 290.759 297.847 271.388 297.847 247.492C297.847 223.597 283.52 204.225 265.847 204.225C248.174 204.225 233.848 223.597 233.848 247.492C233.848 271.388 248.174 290.759 265.847 290.759Z" fill="#706873"/>
<path d="M265.848 271.212C275.537 271.212 283.392 260.592 283.392 247.492C283.392 234.392 275.537 223.772 265.848 223.772C256.159 223.772 248.305 234.392 248.305 247.492C248.305 260.592 256.159 271.212 265.848 271.212Z" fill="#F7F7F7"/>
<path d="M265.847 253.642C268.359 253.642 270.396 250.889 270.396 247.492C270.396 244.096 268.359 241.342 265.847 241.342C263.335 241.342 261.299 244.096 261.299 247.492C261.299 250.889 263.335 253.642 265.847 253.642Z" fill="#343449"/>
<path d="M295.306 211.828H289.639L277.143 185.923H282.81L295.306 211.828Z" fill="#343449"/>
<path d="M355.532 214.118L349.786 211.828L344.23 185.923H349.898L355.532 214.118Z" fill="#343449"/>
<path d="M365.624 188.734H275.136L247.592 165.779H346.156L365.624 188.734Z" fill="#DA9DEE"/>
<path d="M247.483 146.359C247.483 146.359 242.021 151.302 241.742 153.124C241.462 154.946 250.203 165.275 255.636 167.256L253.941 170.821C253.941 170.821 231.017 163.191 232.027 151.633C232.027 151.633 231.667 146.617 240.872 138.917L247.483 146.359Z" fill="#C07951"/>
<path d="M252.571 165.673C252.571 165.673 257.904 166.795 259.483 167.283C261.061 167.771 262.953 167.072 262.994 168.029C263.036 168.986 259.875 169.324 259.875 169.324C259.875 169.324 262.283 171.67 263.132 172.279C263.981 172.888 263.74 173.425 263.071 173.322C262.313 173.206 260.554 172.466 260.554 172.466C260.554 172.466 262.356 173.493 262.119 174.176C261.881 174.86 258.698 173.571 258.698 173.571C258.698 173.571 260.648 174.747 260.701 175.218C260.754 175.689 260.518 176.625 259.065 175.828C257.613 175.03 257.38 174.882 257.38 174.882C257.38 174.882 258.302 175.689 258.468 176.06C258.633 176.432 258.274 177.344 256.248 175.935C254.223 174.526 251.53 171.805 250.353 169.139L252.571 165.673Z" fill="#C07951"/>
<g opacity="0.5">
<g opacity="0.5">
<path opacity="0.5" d="M284.016 229.6C283.639 229.6 283.27 229.496 282.948 229.3C282.626 229.104 282.365 228.823 282.193 228.488C278.157 220.659 272.135 216.168 265.67 216.168C259.776 216.168 254.103 220.027 250.106 226.757C249.828 227.224 249.376 227.562 248.849 227.696C248.323 227.83 247.764 227.75 247.297 227.472C246.829 227.194 246.492 226.742 246.357 226.216C246.223 225.689 246.304 225.13 246.581 224.663C251.336 216.66 258.294 212.069 265.67 212.069C273.723 212.069 281.074 217.369 285.836 226.61C285.997 226.922 286.075 227.271 286.062 227.622C286.05 227.973 285.947 228.315 285.765 228.615C285.582 228.915 285.325 229.163 285.019 229.335C284.713 229.508 284.367 229.598 284.016 229.599V229.6Z" fill="#DAE6FF"/>
</g>
<g opacity="0.5">
<path opacity="0.5" d="M265.668 284.125C257.861 284.125 250.648 279.084 245.878 270.295C245.75 270.058 245.669 269.799 245.641 269.531C245.613 269.263 245.638 268.993 245.714 268.735C245.791 268.476 245.917 268.236 246.087 268.027C246.256 267.818 246.465 267.644 246.702 267.516C246.938 267.387 247.198 267.307 247.466 267.279C247.733 267.25 248.004 267.275 248.262 267.352C248.52 267.428 248.76 267.555 248.97 267.724C249.179 267.894 249.352 268.103 249.481 268.339C253.511 275.767 259.411 280.026 265.669 280.026C271.608 280.026 277.311 276.116 281.315 269.299C281.451 269.067 281.632 268.864 281.846 268.702C282.061 268.54 282.306 268.421 282.566 268.354C282.827 268.286 283.098 268.27 283.365 268.307C283.631 268.345 283.888 268.434 284.12 268.57C284.352 268.706 284.555 268.887 284.717 269.102C284.88 269.317 284.998 269.561 285.066 269.822C285.133 270.082 285.149 270.354 285.112 270.62C285.075 270.887 284.985 271.143 284.849 271.376C280.091 279.478 273.1 284.125 265.668 284.125Z" fill="#DAE6FF"/>
</g>
</g>
<path d="M186.142 310.65C202.973 310.65 216.617 292.202 216.617 269.445C216.617 246.688 202.973 228.24 186.142 228.24C169.311 228.24 155.667 246.688 155.667 269.445C155.667 292.202 169.311 310.65 186.142 310.65Z" fill="#343449"/>
<path d="M186.142 228.24H157.668V310.65H186.142V228.24Z" fill="#343449"/>
<path d="M157.667 310.65C174.498 310.65 188.142 292.202 188.142 269.445C188.142 246.688 174.498 228.24 157.667 228.24C140.836 228.24 127.192 246.688 127.192 269.445C127.192 292.202 140.836 310.65 157.667 310.65Z" fill="#706873"/>
<path d="M157.667 292.034C166.895 292.034 174.375 281.921 174.375 269.445C174.375 256.969 166.895 246.855 157.667 246.855C148.44 246.855 140.96 256.969 140.96 269.445C140.96 281.921 148.44 292.034 157.667 292.034Z" fill="#F7F7F7"/>
<path d="M157.667 276.375C160.498 276.375 162.792 273.272 162.792 269.445C162.792 265.618 160.498 262.515 157.667 262.515C154.837 262.515 152.542 265.618 152.542 269.445C152.542 273.272 154.837 276.375 157.667 276.375Z" fill="#343449"/>
<path d="M110.409 291.211C110.409 291.211 108.382 302.186 108.45 302.312C108.519 302.437 107.809 303.537 107.809 303.537L105.037 304.033L102.508 302.87C102.508 302.87 104.562 292.499 104.297 291.211C104.033 289.923 110.409 291.211 110.409 291.211Z" fill="#A1665E"/>
<path d="M102.509 302.87C102.509 302.87 105.703 303.988 108.433 302.138C108.433 302.138 119.067 306.124 118.743 309.155C118.743 309.155 119.195 310.058 114.588 309.863C109.98 309.667 102.819 309.462 102.627 309.356C102.435 309.25 101.534 309.737 102.509 302.87Z" fill="#343449"/>
<path d="M53.6102 272.753C53.6102 272.753 43.8135 278.1 43.7588 278.232C43.7042 278.364 42.4038 278.507 42.4038 278.507L40.2714 276.67L39.5791 273.973C39.5791 273.973 48.924 269.028 49.7569 268.011C50.5899 266.993 53.6102 272.753 53.6102 272.753Z" fill="#A1665E"/>
<path d="M39.5783 273.973C39.5783 273.973 40.7251 277.157 43.8815 278.11C43.8815 278.11 47.4937 288.877 44.9365 290.536C44.9365 290.536 44.5212 291.457 41.767 287.758C39.0129 284.059 34.6567 278.372 34.6182 278.156C34.5798 277.94 33.6336 277.546 39.5783 273.973Z" fill="#343449"/>
<path d="M121.127 264.406C120.059 269.843 118.599 275.197 116.759 280.424C116.144 282.204 115.521 283.9 114.913 285.475C112.23 292.412 109.85 297.103 109.85 297.103H99.5931C99.5931 297.103 100.615 292.172 101.827 285.475C102.117 283.876 102.419 282.177 102.716 280.424C104.051 272.616 105.383 263.67 105.72 257.372C106.327 246.022 103.784 232.084 101.961 232.031C100.142 231.976 91.4286 248.137 78.3023 260.729C74.8243 264.059 71.1508 267.178 67.3012 270.07C65.8612 271.154 64.4832 272.141 63.1905 273.027C57.0203 277.273 52.7556 279.34 52.7556 279.34L45.3662 270.046C45.3662 270.046 49.2525 266.643 54.0601 262.137C55.2407 261.03 56.4756 259.858 57.7259 258.65C63.6134 252.964 69.8843 246.608 71.5798 242.981C84.3383 215.683 94.4337 207.618 94.4337 207.618L118.104 218.873C118.104 218.873 124.707 245.373 121.127 264.406Z" fill="#4C4BF4"/>
<path d="M148.778 194.44C148.778 194.44 147.706 196.601 146.738 198.447C142.235 207.044 132.025 211.909 130.604 213.597C129.182 215.289 121.728 226.556 121.728 226.556C121.728 226.556 118.619 229.439 106.059 223.042C101.103 220.522 96.4867 212.026 91.7949 207.877C91.7949 207.877 110.165 183.851 128.561 176.465C129.625 176.036 130.711 175.661 131.813 175.342C135.26 174.348 138.671 174.027 141.921 174.652C141.921 174.652 146.387 176.059 148.342 177.558C156.266 183.633 148.778 194.44 148.778 194.44Z" fill="#343449"/>
<path d="M159.085 166.031C159.085 166.031 160.074 165.217 160.481 165.796C161.518 167.272 159.74 168.216 158.739 168.241L159.085 166.031Z" fill="#A1665E"/>
<path d="M160.541 162.359H160.532C160.569 162.255 160.606 162.148 160.639 162.04C161.019 160.8 161.117 159.49 160.926 158.208C160.735 156.925 160.26 155.701 159.535 154.625C158.81 153.55 157.854 152.65 156.737 151.992C155.619 151.333 154.369 150.933 153.077 150.82C151.785 150.707 150.484 150.884 149.27 151.338C148.055 151.792 146.957 152.512 146.056 153.445C145.156 154.379 144.475 155.501 144.064 156.731C143.653 157.961 143.522 159.268 143.681 160.555C143.856 162.737 144.025 164.61 144.319 166.214C144.794 168.871 144.391 171.611 143.171 174.019L142.221 175.916C146.501 180.205 149.608 178.386 149.608 178.386L150.826 174.743C150.903 174.514 151.063 174.322 151.275 174.206C151.487 174.089 151.734 174.056 151.969 174.113L151.978 174.115C158.446 175.642 159.666 165.216 160.541 162.359Z" fill="#A1665E"/>
<path d="M150.63 164.101C150.677 163.948 150.677 163.784 150.631 163.631C150.585 163.477 150.495 163.34 150.371 163.238C150.247 163.136 150.096 163.073 149.936 163.057C149.777 163.041 149.616 163.072 149.474 163.148C149.333 163.223 149.217 163.338 149.141 163.48C149.065 163.621 149.032 163.782 149.048 163.941C149.063 164.101 149.125 164.252 149.227 164.377C149.328 164.501 149.464 164.592 149.618 164.639C149.823 164.702 150.045 164.68 150.235 164.58C150.425 164.479 150.567 164.307 150.63 164.101Z" fill="#343449"/>
<path d="M157.935 164.832C157.982 164.679 157.983 164.515 157.937 164.361C157.891 164.207 157.8 164.071 157.676 163.969C157.553 163.867 157.401 163.804 157.242 163.787C157.082 163.771 156.921 163.803 156.78 163.878C156.638 163.954 156.522 164.069 156.446 164.21C156.37 164.352 156.338 164.512 156.353 164.672C156.369 164.832 156.431 164.983 156.533 165.107C156.634 165.232 156.77 165.323 156.924 165.37C157.129 165.432 157.351 165.411 157.541 165.31C157.731 165.209 157.872 165.037 157.935 164.832Z" fill="#343449"/>
<path d="M148.225 162.045C148.144 162.02 148.072 161.974 148.015 161.913C147.958 161.851 147.919 161.775 147.901 161.693C147.883 161.611 147.887 161.526 147.912 161.446C147.938 161.366 147.984 161.294 148.047 161.238C148.634 160.709 150.131 160.078 151.6 161.476C151.648 161.518 151.686 161.569 151.713 161.627C151.741 161.685 151.756 161.747 151.759 161.811C151.762 161.874 151.751 161.938 151.729 161.997C151.707 162.057 151.673 162.112 151.629 162.158C151.585 162.204 151.532 162.241 151.474 162.266C151.415 162.291 151.352 162.305 151.289 162.305C151.225 162.306 151.162 162.293 151.103 162.269C151.044 162.245 150.991 162.209 150.946 162.163C149.741 161.015 148.725 161.905 148.683 161.944C148.622 161.999 148.547 162.037 148.467 162.055C148.387 162.072 148.303 162.069 148.225 162.045Z" fill="#343449"/>
<path d="M155.857 163.058C155.777 163.033 155.705 162.987 155.648 162.926C155.591 162.864 155.552 162.788 155.534 162.706C155.516 162.624 155.519 162.539 155.545 162.459C155.571 162.379 155.617 162.307 155.679 162.251C156.266 161.722 157.764 161.091 159.233 162.488C159.28 162.531 159.318 162.582 159.345 162.64C159.372 162.697 159.387 162.759 159.39 162.823C159.392 162.886 159.382 162.949 159.359 163.009C159.337 163.068 159.303 163.122 159.259 163.168C159.216 163.214 159.163 163.251 159.105 163.276C159.047 163.302 158.984 163.315 158.921 163.316C158.857 163.317 158.794 163.305 158.736 163.281C158.677 163.257 158.624 163.221 158.579 163.176C157.373 162.028 156.358 162.918 156.315 162.956C156.254 163.011 156.18 163.05 156.1 163.067C156.019 163.085 155.936 163.082 155.857 163.058Z" fill="#343449"/>
<path d="M143.075 157.289L143.609 163.61L145.215 163.771L148.347 156.787L143.075 157.289Z" fill="#75392F"/>
<path d="M145.504 163.663C145.449 163.354 145.282 163.075 145.036 162.879C144.532 162.471 143.598 161.908 142.687 162.392C141.353 163.101 142.578 166.44 145.023 165.715C145.023 165.714 145.781 165.311 145.504 163.663Z" fill="#A1665E"/>
<path d="M153.752 168.127C153.498 168.164 153.238 168.141 152.995 168.058C152.752 167.976 152.531 167.836 152.352 167.652C152.328 167.624 152.315 167.587 152.318 167.55C152.32 167.513 152.337 167.478 152.366 167.453C152.394 167.429 152.43 167.416 152.468 167.419C152.505 167.421 152.54 167.439 152.564 167.467C152.764 167.673 153.026 167.808 153.309 167.853C153.593 167.897 153.883 167.848 154.136 167.712C154.291 167.64 154.38 167.57 154.403 167.505C154.435 167.414 154.361 167.261 154.259 167.049C153.811 166.189 153.678 165.2 153.883 164.252C153.89 164.215 153.91 164.183 153.941 164.161C153.971 164.139 154.009 164.131 154.046 164.137C154.083 164.143 154.116 164.164 154.137 164.195C154.159 164.225 154.168 164.263 154.161 164.3C153.963 165.189 154.088 166.12 154.513 166.926C154.64 167.189 154.74 167.397 154.669 167.599C154.629 167.685 154.572 167.762 154.501 167.825C154.43 167.888 154.347 167.937 154.257 167.967C154.097 168.044 153.927 168.098 153.752 168.127Z" fill="#343449"/>
<path d="M160.192 158.718C160.192 158.718 161.13 159.924 159.878 165.065C159.878 165.065 162.008 159.559 161.572 158.748C161.135 157.936 160.192 158.718 160.192 158.718Z" fill="#75392F"/>
<path d="M154.566 170.45C152.945 170.45 151.137 169.704 151.052 169.669L151.201 169.312C151.223 169.321 153.444 170.238 155.076 170.033L155.125 170.417C154.939 170.44 154.753 170.451 154.566 170.45Z" fill="#343449"/>
<path d="M149.766 148.739C150.092 148.597 150.595 148.582 150.681 148.927C150.701 149.07 150.67 149.216 150.594 149.339C150.407 149.713 150.161 150.054 149.865 150.349C151.867 149.316 154.325 149.746 156.397 150.629C158.47 151.512 160.354 152.814 162.479 153.563C163.321 153.86 164.336 154.206 164.547 155.074C164.6 155.382 164.558 155.699 164.426 155.982C164.294 156.265 164.078 156.502 163.808 156.659C163.257 156.963 162.617 157.064 161.999 156.946C162.253 156.944 162.501 157.021 162.709 157.167C162.917 157.312 163.074 157.52 163.158 157.759C163.242 157.999 163.248 158.258 163.177 158.502C163.106 158.745 162.96 158.961 162.76 159.117C162.152 159.591 161.278 159.393 160.543 159.161C158.202 158.421 155.903 157.557 153.654 156.572L154.318 157.775C154.405 157.906 154.458 158.056 154.47 158.213C154.46 158.32 154.425 158.423 154.368 158.514C154.31 158.606 154.232 158.682 154.14 158.738C153.902 158.882 153.633 158.969 153.355 158.992C153.078 159.015 152.798 158.974 152.539 158.872C152.022 158.665 151.531 158.399 151.074 158.081C150.382 157.657 149.652 157.298 148.893 157.009C148.74 156.939 148.574 156.902 148.405 156.9C148.181 156.936 147.968 157.021 147.779 157.147C146.587 157.782 145.154 157.673 143.809 157.548C143.39 157.509 142.87 157.381 142.798 156.968C142.783 156.805 142.812 156.641 142.88 156.493C143.564 154.659 144.729 153.043 146.254 151.816C145.865 152.129 145.27 152.002 145.214 151.43C145.142 150.702 146.096 150.515 146.62 150.442C147.098 150.375 147.486 150.478 147.927 150.22C148.621 149.815 148.974 149.083 149.766 148.739Z" fill="#75392F"/>
<path d="M150.337 226.234L144.808 230.265C144.808 230.265 130.17 217.877 127.42 214.249C119.175 203.371 120.144 190.662 119.972 189.694L136.09 192.863C136.09 192.863 136.816 201.946 137.548 206.614C137.733 207.803 150.337 226.234 150.337 226.234Z" fill="#343449"/>
<path d="M140.573 174.45L142.488 171.573L146.45 176.097L147.052 178.259L148.445 176.715L150.687 176.878L149.76 179.227L147.38 180.361L141.582 177.236L140.573 174.45Z" fill="#343449"/>
<path d="M129.327 215.868C129.301 215.868 129.275 215.862 129.251 215.852C129.227 215.841 129.206 215.825 129.189 215.806C120.872 206.467 119.8 193.936 119.791 193.811C119.787 193.763 119.802 193.714 119.834 193.677C119.866 193.64 119.911 193.617 119.96 193.613C120.009 193.609 120.057 193.625 120.095 193.656C120.132 193.688 120.155 193.734 120.159 193.782C120.169 193.907 121.231 206.318 129.465 215.561C129.488 215.588 129.504 215.621 129.509 215.656C129.515 215.691 129.51 215.727 129.495 215.759C129.481 215.792 129.457 215.82 129.427 215.839C129.397 215.858 129.362 215.869 129.327 215.869V215.868Z" fill="#343449"/>
<path d="M137.905 208.032C137.875 208.032 137.845 208.025 137.819 208.011C137.792 207.997 137.769 207.977 137.752 207.952C133.672 201.934 133.248 189.181 133.244 189.052C133.243 189.003 133.261 188.956 133.294 188.92C133.328 188.885 133.374 188.864 133.423 188.862C133.472 188.861 133.52 188.879 133.556 188.912C133.591 188.946 133.612 188.992 133.614 189.041C133.617 189.168 134.038 201.816 138.058 207.744C138.077 207.772 138.087 207.804 138.089 207.838C138.091 207.871 138.084 207.904 138.068 207.934C138.052 207.964 138.029 207.988 138 208.006C137.971 208.023 137.939 208.032 137.905 208.032V208.032Z" fill="#343449"/>
<path d="M150.39 234.272C150.39 234.272 152.162 236.151 152.319 236.44C152.477 236.729 152.468 237.181 150.745 236.176C149.023 235.17 146.806 231.698 145.687 229.625L149.12 227.121C149.12 227.121 150.103 227.288 151.407 227.581C152.71 227.873 154.805 227.607 154.9 228.375C154.994 229.143 151.942 229.463 151.942 229.463C152.445 229.923 152.985 230.341 153.555 230.714C154.278 231.15 157.266 233.075 156.826 233.831C156.514 234.367 154.067 232.874 154.067 232.874C154.067 232.874 157.199 235.088 156.601 235.658C155.992 236.239 152.202 233.673 152.202 233.673C152.202 233.673 155.201 236.013 155.031 236.356C154.785 236.855 153.748 236.302 152.716 235.698L150.39 234.272Z" fill="#A1665E"/>
<path d="M173.553 225.22C173.553 225.22 176.016 225.997 176.345 226.013C176.673 226.029 177.077 225.823 175.421 224.711C173.765 223.598 169.551 222.642 167.197 222.538L164.98 225.961C164.98 225.961 167.142 228.006 167.973 229.052C168.805 230.098 169.477 232.099 170.21 231.85C170.943 231.601 169.901 228.714 169.901 228.714C170.534 228.967 171.146 229.27 171.73 229.621C172.438 230.082 175.472 231.933 175.961 231.207C176.307 230.692 173.897 229.14 173.897 229.14C173.897 229.14 177.255 230.995 177.506 230.208C177.764 229.406 173.802 227.114 173.802 227.114C173.802 227.114 177.215 228.793 177.45 228.491C177.791 228.051 176.841 227.359 175.849 226.693L173.553 225.22Z" fill="#A1665E"/>
<path d="M162.822 154.917C162.822 154.917 161.462 146.642 151.454 147.288C141.446 147.935 142.759 157.579 142.759 157.579C142.759 157.579 149.742 155.844 151.158 155.672C152.573 155.499 162.822 154.917 162.822 154.917Z" fill="#A616D4"/>
<path d="M147.607 156.358C147.607 156.358 159.295 150.901 166.196 153.813C173.097 156.726 163.183 157.82 163.183 157.82C163.183 157.82 162.559 154.822 147.607 156.358Z" fill="#DA9DEE"/>
<path d="M139.025 207.228C138.987 207.229 138.95 207.217 138.919 207.195C138.887 207.173 138.864 207.142 138.851 207.107C138.838 207.071 138.836 207.032 138.846 206.995C138.856 206.959 138.877 206.926 138.906 206.902C141.989 204.277 144.585 201.129 146.575 197.603C146.598 197.56 146.637 197.527 146.684 197.512C146.707 197.505 146.731 197.502 146.755 197.504C146.779 197.507 146.803 197.513 146.824 197.525C146.846 197.536 146.865 197.551 146.88 197.57C146.896 197.588 146.908 197.61 146.915 197.633C146.922 197.656 146.925 197.68 146.923 197.705C146.921 197.729 146.914 197.752 146.903 197.774C144.889 201.343 142.263 204.529 139.143 207.186C139.109 207.213 139.068 207.228 139.025 207.228Z" fill="#343449"/>
<path d="M151.203 181.087C154.743 186.244 155.667 205.961 169.96 223.014L163.848 226.234C163.848 226.234 145.782 213.677 142.882 195.76C141.326 186.141 151.203 181.087 151.203 181.087Z" fill="#343449"/>
<g opacity="0.5">
<g opacity="0.5">
<path opacity="0.5" d="M175.837 252.448C175.488 252.449 175.146 252.356 174.845 252.18C174.544 252.004 174.295 251.751 174.124 251.448C170.083 244.261 164.02 240.139 157.491 240.139C151.535 240.139 145.82 243.684 141.812 249.867C141.529 250.304 141.084 250.61 140.575 250.719C140.066 250.828 139.534 250.729 139.098 250.446C138.661 250.163 138.355 249.718 138.246 249.209C138.138 248.7 138.236 248.169 138.519 247.732C143.264 240.412 150.179 236.214 157.491 236.214C165.48 236.214 172.791 241.066 177.546 249.524C177.715 249.823 177.802 250.16 177.799 250.502C177.796 250.845 177.704 251.181 177.531 251.477C177.358 251.772 177.111 252.018 176.814 252.188C176.517 252.359 176.18 252.448 175.838 252.448L175.837 252.448Z" fill="#DAE6FF"/>
</g>
<g opacity="0.5">
<path opacity="0.5" d="M157.49 302.42C149.747 302.42 142.575 297.807 137.813 289.765C137.548 289.317 137.471 288.782 137.6 288.278C137.73 287.774 138.054 287.342 138.501 287.077C138.949 286.811 139.484 286.735 139.988 286.864C140.492 286.993 140.924 287.317 141.189 287.765C145.227 294.584 151.169 298.495 157.49 298.495C163.493 298.495 169.237 294.904 173.25 288.641C173.39 288.424 173.57 288.237 173.782 288.09C173.993 287.943 174.232 287.839 174.483 287.783C174.735 287.728 174.995 287.724 175.249 287.769C175.503 287.814 175.745 287.909 175.962 288.049C176.179 288.188 176.366 288.368 176.513 288.58C176.661 288.791 176.765 289.03 176.82 289.281C176.875 289.533 176.88 289.793 176.834 290.047C176.789 290.301 176.694 290.543 176.555 290.76C171.806 298.169 164.857 302.42 157.49 302.42Z" fill="#DAE6FF"/>
</g>
</g>
<path d="M577.745 237.441C577.745 237.441 573.133 236.63 571.397 236.686C569.661 236.742 567.936 235.582 567.631 236.485C567.325 237.387 570.436 238.531 570.436 238.531C570.436 238.531 567.347 240.144 566.317 240.504C565.288 240.863 563.621 241.947 563.842 242.676C564.063 243.406 568.88 241.352 568.88 241.352C568.88 241.352 565.005 243.456 565.056 244.17C565.108 244.883 570.456 242.888 570.456 242.888C570.456 242.888 566.207 244.943 566.023 245.377C565.839 245.812 566.423 246.05 568.115 245.667C569.258 245.386 570.369 244.989 571.431 244.481C571.431 244.481 568.559 246.135 568.288 246.447C568.018 246.758 567.886 247.373 570.328 246.556C572.771 245.738 577.187 243.5 579.118 241.263L577.745 237.441Z" fill="#FFA089"/>
<path d="M446.693 292.269C446.024 292.269 445.369 292.084 444.798 291.736C444.227 291.388 443.763 290.889 443.456 290.295C443.15 289.701 443.013 289.033 443.06 288.366C443.107 287.699 443.337 287.058 443.724 286.513L465.535 255.797C466.098 255.017 466.947 254.492 467.896 254.335C468.845 254.178 469.817 254.403 470.601 254.959C471.385 255.516 471.918 256.36 472.082 257.308C472.247 258.255 472.031 259.23 471.48 260.018L449.669 290.734C449.332 291.21 448.886 291.597 448.368 291.864C447.85 292.131 447.276 292.27 446.693 292.269Z" fill="#343449"/>
<path d="M429.984 286.305C429.316 286.304 428.66 286.12 428.089 285.771C427.518 285.423 427.054 284.924 426.748 284.33C426.441 283.736 426.304 283.069 426.351 282.402C426.398 281.735 426.628 281.093 427.015 280.548L448.826 249.832C449.103 249.442 449.454 249.11 449.86 248.855C450.265 248.601 450.717 248.429 451.189 248.349C451.661 248.269 452.144 248.282 452.611 248.389C453.078 248.496 453.519 248.693 453.909 248.97C454.3 249.248 454.632 249.599 454.886 250.004C455.141 250.41 455.313 250.861 455.393 251.333C455.473 251.805 455.459 252.289 455.353 252.755C455.246 253.222 455.048 253.663 454.771 254.054L432.96 284.769C432.623 285.245 432.177 285.632 431.659 285.899C431.141 286.167 430.567 286.306 429.984 286.305Z" fill="#343449"/>
<path d="M334.975 315.037C334.975 315.037 331.131 325.074 331.16 325.22C331.19 325.366 330.075 326.23 330.075 326.23L326.995 325.847L324.726 323.899C324.726 323.899 328.055 314.91 328.209 313.553C328.362 312.195 334.975 315.037 334.975 315.037Z" fill="#A1665E"/>
<path d="M390.704 255.575C390.704 255.575 393.655 262.209 393.582 263.219C393.51 264.229 391.347 267.651 391.347 267.651L385.351 266.187L385.776 255.925L390.704 255.575Z" fill="#FFA089"/>
<path d="M365.529 316.482C365.529 316.482 365.151 327.145 365.227 327.275C365.303 327.405 364.525 328.55 364.525 328.55L361.468 329.077L358.672 327.88C358.672 327.88 358.902 318.363 358.605 317.027C358.307 315.69 365.529 316.482 365.529 316.482Z" fill="#A1665E"/>
<path d="M358.672 327.88C358.672 327.88 362.202 329.027 365.207 327.095C365.207 327.095 376.962 331.191 376.616 334.34C376.616 334.34 377.12 335.276 372.034 335.092C366.947 334.909 359.043 334.726 358.83 334.615C358.618 334.505 357.624 335.015 358.672 327.88Z" fill="#343449"/>
<path d="M324.726 323.899C324.726 323.899 327.709 326.012 331.2 325.044C331.2 325.044 341.047 332.342 339.689 335.238C339.689 335.238 339.863 336.275 335.083 334.628C330.303 332.981 322.841 330.52 322.675 330.354C322.509 330.189 321.397 330.386 324.726 323.899Z" fill="#343449"/>
<path d="M368.595 249.212C368.595 249.212 371.114 276.352 370.503 294.454C369.892 312.555 366.495 321.619 366.495 321.619L354.471 321.663C354.471 321.663 357.197 275.435 352.693 266.079C352.693 266.079 346.496 303.917 336.952 321.728L323.199 318.871C323.199 318.871 333.721 288.45 333.68 278.755C333.639 269.059 331.832 247.734 334.563 243.522C337.293 239.31 368.595 249.212 368.595 249.212Z" fill="#4C4BF4"/>
<path d="M393.756 220.692C393.756 220.692 408.741 248.71 414.186 254.063L410.252 257.073C410.252 257.073 392.67 240.171 386.233 224.657L393.756 220.692Z" fill="#A1665E"/>
<path d="M394.403 210.276C398.589 216.511 404.673 236.661 404.696 237.664C404.696 237.664 398.421 242.504 393.583 240.587L385.747 231.34C385.747 231.34 376.288 241.506 374.798 244.388C373.308 247.27 370.877 260.647 370.877 260.647C370.877 260.647 339.465 253.61 331.062 245.595C331.062 245.595 351.18 199.945 377.105 199.947C385.896 199.947 391.39 205.789 394.403 210.276Z" fill="#343449"/>
<path d="M392.266 259.256C392.266 259.256 394.375 263.78 394.621 265.395C394.867 267.009 395.503 269.243 394.987 269.245C393.608 269.252 392.949 264.849 391.417 262.858C389.884 260.867 392.266 259.256 392.266 259.256Z" fill="#FFA089"/>
<path d="M384.981 264.314C384.981 264.314 386.196 260.156 387.065 260.306C387.934 260.457 387.189 263.038 387.189 263.038C387.189 263.038 388.122 260.109 388.845 260.229C389.568 260.349 388.923 264.116 388.923 264.116C388.923 264.116 389.568 260.525 390.191 260.596C390.814 260.668 390.357 264.578 390.357 264.578C390.357 264.578 390.731 261.675 391.397 261.474C392.39 261.174 392.294 267.05 391.856 267.924C391.418 268.799 390.222 267.766 390.222 267.766C390.222 267.766 389.298 267.977 388.874 267.482C388.874 267.482 387.067 267.524 386.77 266.769C386.473 266.014 384.817 266.61 384.981 264.314Z" fill="#F58272"/>
<path d="M401.966 195.691C401.966 195.691 403.086 195.069 403.419 195.689C404.268 197.272 402.326 197.895 401.305 197.759L401.966 195.691Z" fill="#955B54"/>
<path d="M403.96 192.399L403.951 192.396C404.004 192.3 404.056 192.205 404.105 192.106C406.315 187.646 403.958 182.168 398.841 180.381C394.847 178.988 390.379 180.467 388.266 183.868C387.495 185.1 387.077 186.519 387.056 187.971C386.914 189.808 386.866 191.651 386.913 193.493C387.026 196.121 386.228 198.708 384.653 200.815L384.182 201.453C383.955 201.767 383.847 202.152 383.877 202.539C383.908 202.925 384.075 203.289 384.348 203.563C387.736 207.132 390.695 206.33 390.695 206.33L392.342 202.733C392.463 202.522 392.657 202.362 392.888 202.284C393.119 202.207 393.37 202.216 393.594 202.311L393.603 202.315C399.969 204.815 402.67 195.002 403.96 192.399Z" fill="#A1665E"/>
<path d="M393.632 192.489C393.677 192.393 393.702 192.29 393.706 192.184C393.709 192.079 393.692 191.973 393.654 191.875C393.616 191.776 393.559 191.686 393.485 191.61C393.412 191.534 393.324 191.474 393.227 191.432C393.033 191.337 392.809 191.321 392.603 191.387C392.397 191.453 392.225 191.596 392.122 191.787C392.078 191.882 392.053 191.986 392.049 192.092C392.046 192.197 392.063 192.302 392.101 192.401C392.139 192.5 392.196 192.59 392.269 192.666C392.343 192.742 392.431 192.802 392.528 192.844C392.722 192.939 392.946 192.955 393.151 192.889C393.357 192.823 393.53 192.68 393.632 192.489Z" fill="#343449"/>
<path d="M400.965 194.357C401.009 194.261 401.034 194.157 401.038 194.052C401.041 193.946 401.024 193.841 400.986 193.743C400.948 193.644 400.891 193.554 400.818 193.478C400.744 193.402 400.656 193.341 400.559 193.3C400.365 193.204 400.141 193.188 399.935 193.254C399.729 193.32 399.557 193.463 399.455 193.654C399.41 193.75 399.385 193.854 399.381 193.959C399.378 194.065 399.395 194.17 399.433 194.269C399.471 194.367 399.528 194.457 399.601 194.533C399.675 194.609 399.762 194.67 399.86 194.711C400.054 194.806 400.278 194.823 400.484 194.757C400.69 194.691 400.862 194.547 400.965 194.357Z" fill="#343449"/>
<path d="M391.463 189.901C391.389 189.855 391.329 189.79 391.288 189.712C391.259 189.659 391.241 189.599 391.236 189.538C391.231 189.477 391.238 189.416 391.258 189.358C391.278 189.3 391.31 189.247 391.352 189.202C391.393 189.157 391.444 189.121 391.5 189.097C392.22 188.775 393.866 188.622 394.948 190.355C394.981 190.406 395.004 190.464 395.013 190.524C395.023 190.585 395.021 190.646 395.006 190.706C394.991 190.765 394.963 190.821 394.926 190.869C394.888 190.917 394.84 190.957 394.787 190.986C394.673 191.045 394.541 191.059 394.418 191.026C394.294 190.992 394.188 190.914 394.119 190.806C393.232 189.382 391.993 189.916 391.941 189.94C391.864 189.974 391.78 189.988 391.697 189.981C391.613 189.974 391.533 189.947 391.463 189.901Z" fill="#343449"/>
<path d="M399.231 192.356C399.144 192.349 399.06 192.319 398.988 192.27C398.937 192.236 398.894 192.191 398.861 192.14C398.828 192.088 398.806 192.03 398.797 191.97C398.788 191.909 398.791 191.847 398.807 191.788C398.823 191.729 398.851 191.674 398.889 191.626C399.376 191.006 400.763 190.104 402.526 191.134C402.58 191.164 402.626 191.204 402.663 191.253C402.7 191.302 402.727 191.358 402.741 191.417C402.755 191.477 402.757 191.539 402.746 191.599C402.735 191.659 402.712 191.717 402.677 191.768C402.604 191.873 402.495 191.947 402.37 191.975C402.245 192.003 402.114 191.983 402.003 191.919C400.555 191.073 399.708 192.122 399.673 192.167C399.62 192.233 399.552 192.284 399.475 192.317C399.398 192.35 399.314 192.363 399.231 192.356Z" fill="#343449"/>
<path d="M388.478 191.248C388.462 190.936 388.332 190.64 388.111 190.419C387.656 189.948 386.783 189.257 385.789 189.576C384.331 190.043 385.112 193.445 387.701 193.14C387.701 193.14 388.529 192.875 388.478 191.248Z" fill="#FFA089"/>
<path d="M396.245 196.851C395.982 196.848 395.723 196.785 395.488 196.667C395.253 196.549 395.047 196.38 394.887 196.171C394.876 196.156 394.869 196.139 394.866 196.122C394.862 196.104 394.862 196.086 394.866 196.068C394.87 196.05 394.878 196.034 394.888 196.019C394.899 196.004 394.913 195.992 394.928 195.983C394.961 195.964 395 195.958 395.037 195.966C395.074 195.975 395.107 195.996 395.128 196.027C395.308 196.26 395.554 196.431 395.834 196.518C396.115 196.605 396.415 196.604 396.694 196.514C396.861 196.469 396.962 196.417 396.994 196.357C397.04 196.275 396.986 196.116 396.912 195.896C396.576 195.012 396.58 194.034 396.921 193.152C396.934 193.117 396.96 193.088 396.994 193.072C397.028 193.056 397.067 193.055 397.102 193.067C397.12 193.072 397.137 193.081 397.151 193.092C397.165 193.104 397.177 193.118 397.186 193.135C397.195 193.151 397.2 193.169 397.202 193.187C397.204 193.206 397.202 193.224 397.197 193.242C396.872 194.069 396.868 194.989 397.187 195.819C397.28 196.092 397.353 196.307 397.252 196.49C397.197 196.567 397.127 196.633 397.046 196.682C396.965 196.732 396.875 196.764 396.781 196.778C396.607 196.826 396.426 196.851 396.245 196.851Z" fill="#533531"/>
<path d="M403.768 332.571C420.599 332.571 434.243 314.123 434.243 291.366C434.243 268.609 420.599 250.161 403.768 250.161C386.937 250.161 373.293 268.609 373.293 291.366C373.293 314.123 386.937 332.571 403.768 332.571Z" fill="#343449"/>
<path d="M432.243 250.161H403.769V332.571H432.243V250.161Z" fill="#343449"/>
<path d="M432.242 332.571C449.073 332.571 462.717 314.123 462.717 291.366C462.717 268.609 449.073 250.161 432.242 250.161C415.412 250.161 401.768 268.609 401.768 291.366C401.768 314.123 415.412 332.571 432.242 332.571Z" fill="#706873"/>
<g opacity="0.5">
<g opacity="0.5">
<path opacity="0.5" d="M450.607 274.497C450.259 274.498 449.916 274.405 449.615 274.229C449.315 274.053 449.066 273.8 448.895 273.497C444.853 266.31 438.79 262.188 432.262 262.188C426.305 262.188 420.59 265.733 416.582 271.916C416.442 272.133 416.261 272.319 416.048 272.465C415.836 272.611 415.597 272.714 415.345 272.768C415.093 272.822 414.833 272.825 414.58 272.779C414.326 272.732 414.085 272.636 413.868 272.495C413.652 272.355 413.466 272.174 413.32 271.962C413.173 271.749 413.071 271.51 413.017 271.258C412.963 271.006 412.959 270.746 413.006 270.493C413.053 270.239 413.149 269.998 413.289 269.782C418.035 262.462 424.95 258.263 432.262 258.263C440.25 258.263 447.56 263.115 452.317 271.573C452.485 271.872 452.572 272.209 452.569 272.551C452.567 272.894 452.474 273.23 452.302 273.525C452.129 273.821 451.882 274.066 451.585 274.237C451.288 274.407 450.951 274.497 450.609 274.497L450.607 274.497Z" fill="#F7F7F7"/>
</g>
<g opacity="0.5">
<path opacity="0.5" d="M432.26 324.469C424.517 324.469 417.345 319.857 412.582 311.814C412.451 311.593 412.365 311.347 412.328 311.092C412.292 310.837 412.306 310.577 412.37 310.328C412.434 310.078 412.546 309.844 412.701 309.637C412.856 309.431 413.049 309.258 413.271 309.126C413.493 308.995 413.738 308.909 413.993 308.872C414.248 308.836 414.508 308.85 414.758 308.914C415.007 308.978 415.242 309.09 415.448 309.245C415.654 309.4 415.828 309.593 415.959 309.815C419.997 316.634 425.938 320.545 432.26 320.545C438.262 320.545 444.007 316.953 448.02 310.691C448.301 310.253 448.745 309.944 449.253 309.833C449.761 309.722 450.293 309.817 450.731 310.098C451.17 310.379 451.478 310.823 451.589 311.331C451.701 311.84 451.605 312.371 451.324 312.809C446.576 320.219 439.627 324.469 432.26 324.469Z" fill="#F7F7F7"/>
</g>
</g>
<path d="M432.242 313.956C441.47 313.956 448.95 303.842 448.95 291.366C448.95 278.89 441.47 268.776 432.242 268.776C423.015 268.776 415.535 278.89 415.535 291.366C415.535 303.842 423.015 313.956 432.242 313.956Z" fill="#F7F7F7"/>
<path d="M432.242 298.267C435.061 298.267 437.346 295.177 437.346 291.366C437.346 287.555 435.061 284.465 432.242 284.465C429.424 284.465 427.139 287.555 427.139 291.366C427.139 295.177 429.424 298.267 432.242 298.267Z" fill="#343449"/>
<path d="M372.752 229.52C372.752 229.52 370.517 238.281 372.827 241.272C380.718 251.49 386.36 253.35 386.36 253.35L384.56 257.253C384.56 257.253 367.489 253.402 364.112 243.784C360.735 234.166 365.305 223.92 365.305 223.92L372.752 229.52Z" fill="#A1665E"/>
<path d="M362.83 198.747C365.378 195.996 368.906 195.414 372.295 194.314C379.609 191.94 379.403 188.43 381.474 184.77C385.387 177.858 393.67 177.808 397.116 180.908C397.313 181.085 398.507 182.603 398.407 182.725L397.497 183.938C395.99 187.387 390.606 187.078 389.23 190.59C388.251 193.085 389.898 195.793 390.339 198.133C391.093 202.133 388.977 207.141 386.123 209.764C384.861 210.923 383.23 211.488 382.008 212.712C379.074 215.65 377.573 224.378 367.781 226.07C364.003 226.722 362.181 224.994 361.807 223.233C361.3 220.844 363.399 218.747 363.965 216.36C365.368 210.449 357.133 204.894 362.83 198.747Z" fill="#572D26"/>
<path d="M359.601 202.092C359.538 202.084 359.481 202.054 359.438 202.009C359.395 201.964 359.37 201.906 359.366 201.845C359.235 199.576 360.694 197.189 363.086 195.767C365.31 194.444 367.942 194.015 370.236 193.716C370.568 193.674 370.9 193.632 371.234 193.59C373.313 193.331 375.463 193.064 377.418 192.329C377.452 192.313 377.489 192.304 377.526 192.303C377.563 192.301 377.601 192.307 377.636 192.321C377.671 192.334 377.703 192.354 377.73 192.38C377.756 192.405 377.777 192.436 377.791 192.47C377.805 192.503 377.812 192.54 377.811 192.576C377.809 192.612 377.801 192.647 377.784 192.68C377.768 192.712 377.745 192.741 377.717 192.765C377.689 192.788 377.656 192.806 377.62 192.816C375.602 193.574 373.419 193.846 371.309 194.109C370.976 194.151 370.645 194.193 370.314 194.235C368.076 194.527 365.51 194.944 363.375 196.213C361.148 197.537 359.787 199.739 359.908 201.822C359.912 201.891 359.888 201.958 359.84 202.01C359.792 202.061 359.725 202.092 359.653 202.095C359.636 202.096 359.618 202.095 359.601 202.092Z" fill="#75392F"/>
<path d="M405.414 185.554C405.898 188.417 403.995 190.411 399.365 190.15C394.735 189.888 393.017 187.339 391.641 187.573C390.094 187.837 388.884 188.298 387.997 188.8C386.84 189.456 382.288 182.696 390.238 179.772C397.746 177.012 404.822 182.059 405.414 185.554Z" fill="#5B3028"/>
<path d="M405.298 190.108C405.298 190.108 407.919 180.775 396.743 176.517C385.568 172.26 382.222 183.004 382.222 183.004C382.222 183.004 390.654 184.63 392.274 185.148C393.894 185.665 405.298 190.108 405.298 190.108Z" fill="#A616D4"/>
<path d="M387.191 183.952C387.191 183.952 402.554 183.344 408.868 189.528C415.182 195.713 404.438 192.939 404.438 192.939C404.438 192.939 404.397 188.983 387.191 183.952Z" fill="#DA9DEE"/>
<path d="M393.24 197.315C393.24 197.315 396.229 198.841 398.547 198.641C398.547 198.641 397.178 200.867 395.29 200.396C393.403 199.924 393.24 197.315 393.24 197.315Z" fill="white"/>
<path d="M386.359 253.35C386.359 253.35 390.625 253.702 392.199 253.907C393.773 254.113 395.508 253.185 395.661 254.053C395.814 254.922 392.818 255.712 392.818 255.712C392.818 255.712 395.409 257.49 396.297 257.916C397.184 258.341 398.552 259.5 398.249 260.16C397.946 260.82 393.842 258.479 393.842 258.479C393.842 258.479 397.08 260.783 396.934 261.444C396.787 262.105 392.191 259.771 392.191 259.771C392.191 259.771 395.778 262.062 395.885 262.483C395.992 262.905 395.426 263.075 393.937 262.568C392.937 262.206 391.979 261.737 391.08 261.169C391.08 261.169 393.467 262.965 393.669 263.279C393.872 263.594 393.907 264.179 391.794 263.201C389.682 262.223 385.508 259.378 384.061 257.121L386.359 253.35Z" fill="#A1665E"/>
<path d="M368.639 166.94C368.639 166.94 373.573 171.636 373.832 173.327C374.092 175.018 363.723 184.193 360.143 187.188L362.638 189.467C362.638 189.467 377.078 184.977 383.118 174.71C383.118 174.71 383.475 169.7 375.796 159.663L368.639 166.94Z" fill="#503335"/>
<path d="M362.254 185.723C362.254 185.723 358.376 185.161 356.922 185.252C355.467 185.344 354.004 184.415 353.763 185.179C353.521 185.943 356.147 186.825 356.147 186.825C356.147 186.825 352.562 188.991 352.617 189.429C352.758 190.526 355.266 189.343 355.266 189.343C355.266 189.343 353.798 190.234 353.854 190.832C353.909 191.43 356.237 190.478 356.237 190.478C356.237 190.478 354.455 191.882 354.711 192.189C355.244 192.828 357.564 191.507 357.564 191.507C357.564 191.507 355.243 193.694 357.276 192.946C359.31 192.199 362.35 190.521 363.93 188.596L362.254 185.724V185.723Z" fill="#503335"/>
<path d="M317.537 162.824C317.537 162.824 319.009 167.099 318.235 167.582C317.462 168.064 316.54 165.415 316.54 165.415C316.54 165.415 317.516 168.48 316.875 168.885C316.234 169.29 314.538 165.734 314.538 165.734C314.538 165.734 316.13 169.146 315.596 169.52C315.062 169.895 313.135 166.351 313.135 166.351C313.135 166.351 314.538 169.006 314.129 169.635C313.518 170.575 310.158 165.66 309.993 164.635C309.827 163.61 311.376 163.627 311.376 163.627C311.376 163.627 311.982 162.81 312.607 162.923C312.607 162.923 314.01 161.629 314.686 162.045C315.362 162.461 316.325 160.817 317.537 162.824Z" fill="#503335"/>
</svg>
