<svg width="65" height="72" viewBox="0 0 65 72" fill="none" xmlns="http://www.w3.org/2000/svg">
<path d="M27.0195 58.246H37.5195" stroke="#A616D4" stroke-width="1.75" stroke-miterlimit="10"/>
<path d="M27.0195 44.742H32.2695V58.242" stroke="#A616D4" stroke-width="1.75" stroke-miterlimit="10"/>
<path d="M32.2695 70.996C43.4533 70.996 52.5195 61.9297 52.5195 50.746C52.5195 39.5622 43.4533 30.496 32.2695 30.496C21.0858 30.496 12.0195 39.5622 12.0195 50.746C12.0195 61.9297 21.0858 70.996 32.2695 70.996Z" stroke="#A616D4" stroke-width="1.75" stroke-miterlimit="10"/>
<path d="M32.2695 66.496C40.968 66.496 48.0195 59.4445 48.0195 50.746C48.0195 42.0475 40.968 34.996 32.2695 34.996C23.571 34.996 16.5195 42.0475 16.5195 50.746C16.5195 59.4445 23.571 66.496 32.2695 66.496Z" stroke="#A616D4" stroke-width="1.75" stroke-miterlimit="10"/>
<path d="M44.2695 24.496V27.496H20.2695V20.742H23.2695" stroke="#A616D4" stroke-width="1.75" stroke-miterlimit="10"/>
<path d="M24.7695 27.496V31.996" stroke="#A616D4" stroke-width="1.75" stroke-miterlimit="10"/>
<path d="M38.2695 28.246V31.996" stroke="#A616D4" stroke-width="1.75" stroke-miterlimit="10"/>
<path d="M63.5403 1.00397L40.7981 23.742H23.7422L46.4841 1" stroke="#A616D4" stroke-width="1.75" stroke-miterlimit="10"/>
<path d="M52.1692 1.24597L31.7012 21.714" stroke="#A616D4" stroke-width="1.75" stroke-miterlimit="10"/>
<path d="M57.8547 1.24597L37.3867 21.714" stroke="#A616D4" stroke-width="1.75" stroke-miterlimit="10"/>
<path d="M1 1.24597L20.331 20.576" stroke="#A616D4" stroke-width="1.75" stroke-miterlimit="10"/>
<path d="M31.7007 14.891L18.0557 1.24597" stroke="#A616D4" stroke-width="1.75" stroke-miterlimit="10"/>
<path d="M12.3711 1.24597L27.1531 16.028" stroke="#A616D4" stroke-width="1.75" stroke-miterlimit="10"/>
<path d="M6.68457 1.24597L23.7406 18.302" stroke="#A616D4" stroke-width="1.75" stroke-miterlimit="10"/>
</svg>
