<?xml version="1.0" encoding="UTF-8"?>
<svg width="32px" height="26px" viewBox="0 0 32 26" version="1.1" xmlns="http://www.w3.org/2000/svg" xmlns:xlink="http://www.w3.org/1999/xlink">
    <!-- Generator: Sketch 61.2 (89653) - https://sketch.com -->
    <title>people-icon</title>
    <desc>Created with Sketch.</desc>
    <g id="Page-1" stroke="none" stroke-width="1" fill="none" fill-rule="evenodd">
        <g id="people-icon" transform="translate(1.000000, 0.000000)" stroke="#A616D4" stroke-width="1.5">
            <path d="M20.1801,15.3251 L16.6993,14.7387 C16.6993,14.7387 16.2587,13.0108 16.6993,12.6064 C17.6885,11.7001 18.598,10.6223 18.598,9.28346 L18.598,7.16888 C18.5805,6.43073 18.2706,5.72973 17.7365,5.21994 C17.2024,4.71015 16.4877,4.43327 15.7495,4.45013 L14.0957,4.45013 C13.3669,4.45034 12.668,4.74001 12.1527,5.25544 C11.6374,5.77087 11.348,6.46985 11.348,7.19867 L11.348,9.28346 C11.348,10.6223 12.3767,11.6623 13.2467,12.6064 C13.6494,13.0414 13.2467,14.721 13.2467,14.721 L9.4493,15.3251 C6.74021,15.3251 4.70215,16.5157 4.70215,19.1016 L4.70215,24.3917 L25.2438,24.3917 L25.2438,19.1056 C25.2438,16.5157 22.8892,15.3251 20.1801,15.3251 Z" id="Path"></path>
            <path d="M14.5539,4.45337 C14.3444,3.91296 13.9747,3.44947 13.4944,3.12497 C13.0141,2.80047 12.4462,2.63046 11.8666,2.63767 L9.8672,2.63767 C9.1384,2.63788 8.43949,2.92755 7.92421,3.44298 C7.40893,3.95841 7.11947,4.65739 7.11947,5.38622 L7.11947,7.47504 C7.11947,8.81387 8.14816,9.85384 9.0182,10.798 C9.4209,11.233 9.0182,12.9125 9.0182,12.9125 L5.22078,13.5167 C2.51169,13.5167 0.47363,14.7073 0.47363,17.2931 L0.47363,22.5792 L5.30697,22.5792" id="Path"></path>
            <path d="M25.2451,20.7667 L29.4743,20.7667 L29.4743,15.4234 C29.4743,12.8102 27.1196,11.6067 24.4106,11.6067 L20.9298,11.0146 C20.9298,11.0146 20.4891,9.26732 20.9298,8.85891 C21.919,7.94299 22.8285,6.85307 22.8285,5.50054 L22.8285,3.57771 C22.8285,2.84889 22.539,2.1499 22.0237,1.63447 C21.5084,1.11904 20.8095,0.829376 20.0807,0.829163 L18.9304,0.829163 C18.2015,0.829376 17.5026,1.11904 16.9874,1.63447 C16.4721,2.1499 16.1826,2.84889 16.1826,3.57771 L16.1826,4.45416" id="Path"></path>
        </g>
    </g>
</svg>