<svg width="31" height="26" viewBox="0 0 31 26" fill="none" xmlns="http://www.w3.org/2000/svg">
<path d="M16.1044 17.9126H14.8961L13.4863 15.496H17.5141L16.1044 17.9126Z" stroke="#343449" stroke-width="1.5" stroke-miterlimit="10"/>
<path d="M17.398 24.5625H13.6006L14.8951 17.9167H16.1034L17.398 24.5625Z" stroke="#343449" stroke-width="1.5" stroke-miterlimit="10"/>
<path d="M20.7065 15.496L17.2257 14.9095C17.2257 14.9095 16.785 13.1816 17.2257 12.7772C18.2149 11.871 19.1243 10.7931 19.1243 9.4543V7.33972C19.1068 6.60157 18.797 5.90057 18.2628 5.39078C17.7287 4.88098 17.0141 4.6041 16.2759 4.62097H14.6221C13.8933 4.62118 13.1944 4.91085 12.6791 5.42628C12.1638 5.94171 11.8743 6.64069 11.8743 7.36951V9.4543C11.8743 10.7931 12.903 11.8331 13.773 12.7772C14.1758 13.2122 13.773 14.8918 13.773 14.8918L9.97566 15.496C7.26658 15.496 5.22852 16.6866 5.22852 19.2724V24.5625H25.7702V19.2764C25.7702 16.6866 23.4155 15.496 20.7065 15.496Z" stroke="#343449" stroke-width="1.5" stroke-miterlimit="10"/>
<path d="M15.0803 4.6242C14.8707 4.0838 14.5011 3.62031 14.0208 3.2958C13.5405 2.9713 12.9726 2.8013 12.393 2.80851H10.3936C9.66475 2.80872 8.96586 3.09839 8.45058 3.61382C7.9353 4.12925 7.64583 4.82823 7.64583 5.55705V7.64587C7.64583 8.98471 8.67452 10.0247 9.54452 10.9688C9.9473 11.4038 9.54452 13.0834 9.54452 13.0834L5.74714 13.6875C3.03806 13.6875 1 14.8781 1 17.464V22.75H5.83333" stroke="#343449" stroke-width="1.5" stroke-miterlimit="10"/>
<path d="M25.7715 20.9375H30.0007V15.5943C30.0007 12.981 27.646 11.7775 24.9369 11.7775L21.4561 11.1854C21.4561 11.1854 21.0155 9.43816 21.4561 9.02974C22.4453 8.11383 23.3548 7.0239 23.3548 5.67138V3.74855C23.3548 3.01972 23.0654 2.32074 22.5501 1.80531C22.0348 1.28988 21.3359 1.00021 20.6071 1H19.4567C18.7279 1.00021 18.029 1.28988 17.5137 1.80531C16.9984 2.32074 16.709 3.01972 16.709 3.74855V4.625" stroke="#343449" stroke-width="1.5" stroke-miterlimit="10"/>
</svg>
