<svg width="32" height="26" viewBox="0 0 32 26" fill="none" xmlns="http://www.w3.org/2000/svg">
<path d="M21.1801 15.3251L17.6993 14.7387C17.6993 14.7387 17.2587 13.0108 17.6993 12.6064C18.6885 11.7001 19.598 10.6223 19.598 9.28346V7.16888C19.5805 6.43073 19.2706 5.72973 18.7365 5.21994C18.2024 4.71015 17.4877 4.43327 16.7495 4.45013H15.0957C14.3669 4.45034 13.668 4.74001 13.1527 5.25544C12.6374 5.77087 12.348 6.46985 12.348 7.19867V9.28346C12.348 10.6223 13.3767 11.6623 14.2467 12.6064C14.6494 13.0414 14.2467 14.721 14.2467 14.721L10.4493 15.3251C7.74021 15.3251 5.70215 16.5157 5.70215 19.1016V24.3917H26.2438V19.1056C26.2438 16.5157 23.8892 15.3251 21.1801 15.3251Z" stroke="#343449" stroke-width="1.5" stroke-miterlimit="10"/>
<path d="M15.5539 4.45337C15.3444 3.91296 14.9747 3.44947 14.4944 3.12497C14.0141 2.80047 13.4462 2.63046 12.8666 2.63767H10.8672C10.1384 2.63788 9.43949 2.92755 8.92421 3.44298C8.40893 3.95841 8.11947 4.65739 8.11947 5.38622V7.47504C8.11947 8.81387 9.14816 9.85384 10.0182 10.798C10.4209 11.233 10.0182 12.9125 10.0182 12.9125L6.22078 13.5167C3.51169 13.5167 1.47363 14.7073 1.47363 17.2931V22.5792H6.30697" stroke="#343449" stroke-width="1.5" stroke-miterlimit="10"/>
<path d="M26.2451 20.7667H30.4743V15.4234C30.4743 12.8102 28.1196 11.6067 25.4106 11.6067L21.9298 11.0146C21.9298 11.0146 21.4891 9.26732 21.9298 8.85891C22.919 7.94299 23.8285 6.85307 23.8285 5.50054V3.57771C23.8285 2.84889 23.539 2.1499 23.0237 1.63447C22.5084 1.11904 21.8095 0.829376 21.0807 0.829163H19.9304C19.2015 0.829376 18.5026 1.11904 17.9874 1.63447C17.4721 2.1499 17.1826 2.84889 17.1826 3.57771V4.45416" stroke="#343449" stroke-width="1.5" stroke-miterlimit="10"/>
</svg>
