<?xml version="1.0" encoding="UTF-8"?>
<svg width="29px" height="26px" viewBox="0 0 29 26" version="1.1" xmlns="http://www.w3.org/2000/svg" xmlns:xlink="http://www.w3.org/1999/xlink">
    <!-- Generator: Sketch 61.2 (89653) - https://sketch.com -->
    <title>pit-icon</title>
    <desc>Created with Sketch.</desc>
    <g id="Page-1" stroke="none" stroke-width="1" fill="none" fill-rule="evenodd">
        <g id="pit-icon" transform="translate(1.000000, 1.000000)" stroke="#A616D4" stroke-width="1.25">
            <polygon id="Path" points="27.2338 -0.000122 0.00879 -0.000122 0.00879 1.94452 27.2338 1.94452"></polygon>
            <polyline id="Path" points="0.00879 10.8899 0.00879 1.94455 27.2338 1.94455 27.2338 18.6685 9.3431 18.6685"></polyline>
            <path d="M13.6365,10.1416 C13.6262,10.0036 13.6211,9.8636 13.6211,9.7231 C13.6211,8.49195 14.0382,7.29715 14.8046,6.33363 C15.5709,5.37011 16.6413,4.69476 17.8408,4.41773 C19.0404,4.1407 20.2984,4.27835 21.4097,4.80824 C22.5209,5.33813 23.4197,6.22897 23.9596,7.33542 C24.4994,8.44187 24.6484,9.6986 24.3822,10.9006 C24.116,12.1026 23.4502,13.1789 22.4936,13.9538 C21.5371,14.7288 20.346,15.1568 19.115,15.1679 C17.8839,15.1789 16.6854,14.7724 15.715,14.0148" id="Path"></path>
            <line x1="19.0664" y1="9.7552" x2="23.3446" y2="7.01663" id="Path"></line>
            <line x1="14.459" y1="7.21011" x2="19.0665" y2="9.7553" id="Path"></line>
            <line x1="19.0664" y1="9.7231" x2="19.0664" y2="14.7791" id="Path"></line>
            <line x1="1.17578" y1="4.21109" x2="12.0658" y2="4.21109" id="Path"></line>
            <line x1="7.00879" y1="5.76683" x2="12.0649" y2="5.76683" id="Path"></line>
            <line x1="7.00879" y1="7.32256" x2="12.0649" y2="7.32256" id="Path"></line>
            <line x1="1.95312" y1="21.002" x2="1.95312" y2="14.3902" id="Path"></line>
            <path d="M5.75065,8.64804 C5.73844,8.97717 5.62959,9.2955 5.43781,9.5632 C5.24603,9.831 4.97979,10.0364 4.6721,10.1539 C4.36442,10.2714 4.02896,10.2959 3.70751,10.2241 C3.38605,10.1523 3.09271,9.9876 2.8642,9.7504 C2.63569,9.5132 2.48206,9.214 2.42235,8.8901 C2.36264,8.56619 2.39953,8.23189 2.52844,7.9288 C2.65735,7.62571 2.87254,7.36726 3.14728,7.1856 C3.42202,7.00394 3.74415,6.90712 4.07352,6.90719995 C4.52659,6.91619 4.95756,7.10451 5.27196,7.43086 C5.58635,7.75722 5.75856,8.19495 5.75065,8.64804 L5.75065,8.64804 Z" id="Path"></path>
            <path d="M7.38285,18.4439 L7.59289,13.2213 L14.3991,13.2213 L14.3991,11.6656 L1.19102,11.6656 C0.89407,11.7056 0.6182,11.841 0.40493,12.0515 C0.19167,12.2619 0.05268,12.536 0.00879,12.8324 L0.00879,20.9999 L1.95343,20.9999 L2.34236,24.5002" id="Path"></path>
        </g>
    </g>
</svg>