<svg width="29" height="26" viewBox="0 0 29 26" fill="none" xmlns="http://www.w3.org/2000/svg">
<path d="M28.2338 0.999878H1.00879V2.94452H28.2338V0.999878Z" stroke="#343449" stroke-width="1.25" stroke-miterlimit="10"/>
<path d="M1.00879 11.8899V2.94455H28.2338V19.6685H10.3431" stroke="#343449" stroke-width="1.25" stroke-miterlimit="10"/>
<path d="M14.6365 11.1416C14.6262 11.0036 14.6211 10.8636 14.6211 10.7231C14.6211 9.49195 15.0382 8.29715 15.8046 7.33363C16.5709 6.37011 17.6413 5.69476 18.8408 5.41773C20.0404 5.1407 21.2984 5.27835 22.4097 5.80824C23.5209 6.33813 24.4197 7.22897 24.9596 8.33542C25.4994 9.44187 25.6484 10.6986 25.3822 11.9006C25.116 13.1026 24.4502 14.1789 23.4936 14.9538C22.5371 15.7288 21.346 16.1568 20.115 16.1679C18.8839 16.1789 17.6854 15.7724 16.715 15.0148" stroke="#343449" stroke-width="1.25" stroke-miterlimit="10"/>
<path d="M20.0664 10.7552L24.3446 8.01663" stroke="#343449" stroke-width="1.25" stroke-miterlimit="10"/>
<path d="M15.459 8.21011L20.0665 10.7553" stroke="#343449" stroke-width="1.25" stroke-miterlimit="10"/>
<path d="M20.0664 10.7231V15.7791" stroke="#343449" stroke-width="1.25" stroke-miterlimit="10"/>
<path d="M2.17578 5.21109H13.0658" stroke="#343449" stroke-width="1.25" stroke-miterlimit="10"/>
<path d="M8.00879 6.76683H13.0649" stroke="#343449" stroke-width="1.25" stroke-miterlimit="10"/>
<path d="M8.00879 8.32256H13.0649" stroke="#343449" stroke-width="1.25" stroke-miterlimit="10"/>
<path d="M2.95312 22.002V15.3902" stroke="#343449" stroke-width="1.25" stroke-miterlimit="10"/>
<path d="M6.75065 9.64804C6.73844 9.97717 6.62959 10.2955 6.43781 10.5632C6.24603 10.831 5.97979 11.0364 5.6721 11.1539C5.36442 11.2714 5.02896 11.2959 4.70751 11.2241C4.38605 11.1523 4.09271 10.9876 3.8642 10.7504C3.63569 10.5132 3.48206 10.214 3.42235 9.8901C3.36264 9.56619 3.39953 9.23189 3.52844 8.9288C3.65735 8.62571 3.87254 8.36726 4.14728 8.1856C4.42202 8.00394 4.74415 7.90712 5.07352 7.9072C5.52659 7.91619 5.95756 8.10451 6.27196 8.43086C6.58635 8.75722 6.75856 9.19495 6.75065 9.64804V9.64804Z" stroke="#343449" stroke-width="1.25" stroke-miterlimit="10"/>
<path d="M8.38285 19.4439L8.59289 14.2213H15.3991V12.6656H2.19102C1.89407 12.7056 1.6182 12.841 1.40493 13.0515C1.19167 13.2619 1.05268 13.536 1.00879 13.8324V21.9999H2.95343L3.34236 25.5002" stroke="#343449" stroke-width="1.25" stroke-miterlimit="10"/>
</svg>
