<svg id="Layer_1" data-name="Layer 1" xmlns="http://www.w3.org/2000/svg" viewBox="0 0 512 512"><defs><style>.cls-1{fill:#fff;}</style></defs><path class="cls-1" d="M282.8,327.81c78.63,0,141.82-64.59,141.82-140.41,0-73-54.77-123.56-126.38-123.56-72.31,0-139.71,60.37-139.71,141.11C158.53,275.86,214,327.81,282.8,327.81Z"/><path class="cls-1" d="M512,106.77V0H416.89C461.25,21.43,495,59.55,512,106.77Z"/><path class="cls-1" d="M176.88,0l-4.31,40A255.4,255.4,0,0,1,238.46,0Z"/><path class="cls-1" d="M305.26,410.66c-65.29,0-122.86-28.09-159.37-73L127.6,512H512V254.36C481.86,345.07,399.75,410.66,305.26,410.66Z"/><polygon class="cls-1" points="87.02 0 0 0 0 512 32.85 512 87.02 0"/></svg>