<svg width="371" height="321" viewBox="0 0 371 321" fill="none" xmlns="http://www.w3.org/2000/svg">
<g filter="url(#filter0_d)">
<path d="M283.314 293.071C264.573 293.114 246.582 285.585 233.3 272.142C220.018 258.699 212.531 240.442 212.488 221.387L212.454 206.419C212.41 186.968 204.767 168.33 191.208 154.607C177.649 140.884 159.284 133.198 140.152 133.242L91.5721 133.352C67.3652 133.407 44.1275 123.683 26.9711 106.319C9.81462 88.9543 0.144751 65.3723 0.0887406 40.7603L0.0388657 18.8442C0.0174993 9.45537 7.6113 1.82692 17.0001 1.80556L370.977 1L371.642 292.87L283.314 293.071Z" fill="#343449"/>
</g>
<defs>
<filter id="filter0_d" x="0.0390625" y="0" width="401.603" height="320.071" filterUnits="userSpaceOnUse" color-interpolation-filters="sRGB">
<feFlood flood-opacity="0" result="BackgroundImageFix"/>
<feColorMatrix in="SourceAlpha" type="matrix" values="0 0 0 0 0 0 0 0 0 0 0 0 0 0 0 0 0 0 127 0" result="hardAlpha"/>
<feOffset dx="16" dy="13"/>
<feGaussianBlur stdDeviation="7"/>
<feColorMatrix type="matrix" values="0 0 0 0 0 0 0 0 0 0 0 0 0 0 0 0 0 0 0.23 0"/>
<feBlend mode="normal" in2="BackgroundImageFix" result="effect1_dropShadow"/>
<feBlend mode="normal" in="SourceGraphic" in2="effect1_dropShadow" result="shape"/>
</filter>
</defs>
</svg>
