<svg width="277" height="726" viewBox="0 0 277 726" fill="none" xmlns="http://www.w3.org/2000/svg">
<g filter="url(#filter0_d)">
<path d="M181.045 562.496L180.268 638.387C180.107 654.114 186.592 669.25 198.297 680.465C210.002 691.681 225.968 698.057 242.682 698.191L246.109 363.645L205.334 363.318C185.956 363.163 167.447 355.771 153.877 342.769C140.308 329.767 132.789 312.219 132.976 293.987L133.237 268.474C133.32 256.503 136.743 244.759 143.163 234.417C149.583 224.075 158.776 215.498 169.821 209.544C187.869 199.926 202.914 186.011 213.445 169.198C223.975 152.384 229.62 133.263 229.812 113.757C230.004 94.2513 224.737 75.0469 214.539 58.0742C204.341 41.1014 189.572 26.9581 171.716 17.0652C153.86 7.17234 133.546 1.87843 112.816 1.71561C92.0851 1.55279 71.668 6.52674 53.6159 16.1376C35.5639 25.7484 20.5128 39.6575 9.97522 56.4674C-0.562392 73.2773 -6.21541 92.3958 -6.41575 111.902L-9.60721 423.465C-9.79398 441.697 -2.27549 459.245 11.2942 472.247C24.864 485.249 43.3734 492.641 62.7506 492.796L108.687 493.165C128.065 493.32 146.574 500.712 160.144 513.714C173.713 526.716 181.232 544.264 181.045 562.496Z" fill="#A616D4"/>
</g>
<defs>
<filter id="filter0_d" x="-9.61035" y="0.711739" width="285.719" height="724.479" filterUnits="userSpaceOnUse" color-interpolation-filters="sRGB">
<feFlood flood-opacity="0" result="BackgroundImageFix"/>
<feColorMatrix in="SourceAlpha" type="matrix" values="0 0 0 0 0 0 0 0 0 0 0 0 0 0 0 0 0 0 127 0" result="hardAlpha"/>
<feOffset dx="16" dy="13"/>
<feGaussianBlur stdDeviation="7"/>
<feColorMatrix type="matrix" values="0 0 0 0 0 0 0 0 0 0 0 0 0 0 0 0 0 0 0.23 0"/>
<feBlend mode="normal" in2="BackgroundImageFix" result="effect1_dropShadow"/>
<feBlend mode="normal" in="SourceGraphic" in2="effect1_dropShadow" result="shape"/>
</filter>
</defs>
</svg>
