<svg width="260" height="631" viewBox="0 0 260 631" fill="none" xmlns="http://www.w3.org/2000/svg">
<g filter="url(#filter0_d)">
<path d="M204.491 487.217L205.189 553.108C205.333 566.762 212.398 579.769 224.829 589.267C237.26 598.764 254.039 603.974 271.474 603.751L268.4 313.286L225.866 313.831C205.653 314.09 186.201 308.05 171.789 297.039C157.378 286.029 149.188 270.95 149.02 255.12L148.786 232.969C148.634 222.576 151.971 212.312 158.461 203.204C164.952 194.097 174.369 186.465 185.771 181.072C204.403 172.357 219.819 159.973 230.468 145.164C241.117 130.355 246.624 113.643 246.437 96.7076C246.249 79.772 240.374 63.2091 229.4 48.6835C218.427 34.1579 202.742 22.1812 183.922 13.9568C165.102 5.73233 143.81 1.54992 122.185 1.82982C100.561 2.10972 79.3647 6.84218 60.7278 15.5515C42.0909 24.2608 26.6694 36.6402 16.0129 51.4457C5.35648 66.2513 -0.159562 82.9617 0.01912 99.8974L2.88205 370.408C3.04959 386.238 11.2399 401.317 25.6513 412.327C40.0626 423.338 59.5144 429.378 79.7276 429.119L127.646 428.505C147.859 428.246 167.311 434.287 181.722 445.297C196.133 456.308 204.324 471.387 204.491 487.217Z" fill="#343449"/>
</g>
<defs>
<filter id="filter0_d" x="0.0146484" y="0.81665" width="301.459" height="629.941" filterUnits="userSpaceOnUse" color-interpolation-filters="sRGB">
<feFlood flood-opacity="0" result="BackgroundImageFix"/>
<feColorMatrix in="SourceAlpha" type="matrix" values="0 0 0 0 0 0 0 0 0 0 0 0 0 0 0 0 0 0 127 0" result="hardAlpha"/>
<feOffset dx="16" dy="13"/>
<feGaussianBlur stdDeviation="7"/>
<feColorMatrix type="matrix" values="0 0 0 0 0 0 0 0 0 0 0 0 0 0 0 0 0 0 0.23 0"/>
<feBlend mode="normal" in2="BackgroundImageFix" result="effect1_dropShadow"/>
<feBlend mode="normal" in="SourceGraphic" in2="effect1_dropShadow" result="shape"/>
</filter>
</defs>
</svg>
