<svg width="1481" height="223" viewBox="0 0 1481 223" fill="none" xmlns="http://www.w3.org/2000/svg">
<path fill-rule="evenodd" clip-rule="evenodd" d="M-561.129 -447.687C-368.855 -495.384 -156.034 -541.131 -27.198 -546.99C142.765 -554.72 340.212 -543.371 537.359 -532.039C782.093 -517.971 1026.37 -503.93 1217.03 -526.447C1388.79 -546.731 1435.26 -590.098 1477.96 -629.942C1524.67 -673.527 1566.85 -712.896 1763.58 -713.225C2143.94 -713.862 2641.03 -672.695 2641.03 -672.695L2489.68 -792.723L2608.63 -800.642L3113.39 -66.1666C3113.39 -66.1666 2491.09 -112.539 2265.39 -89.7013C2124.75 -75.47 1974.08 -15.7251 1820.9 45.0209C1639.71 116.869 1455 190.118 1279.14 191.117C1117.22 192.036 1002.03 152.542 896.203 116.256C780.436 76.5634 675.867 40.7099 533.567 65.7935C258.445 114.29 -21.9737 221.737 -21.9737 221.737L-561.129 -447.687Z" fill="#F7F7F7"/>
<path fill-rule="evenodd" clip-rule="evenodd" d="M-561.129 -447.687C-368.855 -495.384 -156.034 -541.131 -27.198 -546.99C142.765 -554.72 340.212 -543.371 537.359 -532.039C782.093 -517.971 1026.37 -503.93 1217.03 -526.447C1388.79 -546.731 1435.26 -590.098 1477.96 -629.942C1524.67 -673.527 1566.85 -712.896 1763.58 -713.225C2143.94 -713.862 2641.03 -672.695 2641.03 -672.695L2489.68 -792.723L2608.63 -800.642L3113.39 -66.1666C3113.39 -66.1666 2491.09 -112.539 2265.39 -89.7013C2124.75 -75.47 1974.08 -15.7251 1820.9 45.0209C1639.71 116.869 1455 190.118 1279.14 191.117C1117.22 192.036 1002.03 152.542 896.203 116.256C780.436 76.5634 675.867 40.7099 533.567 65.7935C258.445 114.29 -21.9737 221.737 -21.9737 221.737L-561.129 -447.687Z" fill="#706873" fill-opacity="0.04"/>
<path fill-rule="evenodd" clip-rule="evenodd" d="M-587.565 -597.23C-391.38 -633.419 -172.239 -666.552 -42.6809 -662.986C124.945 -658.373 317.795 -631.833 510.353 -605.334C749.389 -572.438 987.975 -539.605 1177.3 -548.855C1347.85 -557.188 1397.5 -598.907 1443.12 -637.237C1493.02 -679.166 1538.09 -717.04 1731.32 -702.722C2104.9 -675.039 2589.26 -595.102 2589.26 -595.102L2472.02 -711.329L2569.28 -710.821L2997.01 92.0278C2997.01 92.0278 2390.18 -2.66382 2166.41 4.30949C2026.98 8.65489 1873.49 59.6732 1717.43 111.547C1532.86 172.9 1344.68 235.45 1171.89 223.385C1012.79 212.275 903.329 162.543 802.758 116.851C692.744 66.8683 593.371 21.7202 451.306 37.2492C176.637 67.2726 -108.688 158.32 -108.688 158.32L-587.565 -597.23Z" fill="#F7F7F7"/>
</svg>
