<svg width="1481" height="159" viewBox="0 0 1481 159" fill="none" xmlns="http://www.w3.org/2000/svg">
<path fill-rule="evenodd" clip-rule="evenodd" d="M-561.129 216.313C-368.855 168.616 -156.034 122.869 -27.198 117.01C142.765 109.28 340.212 120.629 537.359 131.961C782.093 146.029 1026.37 160.07 1217.03 137.553C1388.79 117.269 1435.26 73.902 1477.96 34.0582C1524.67 -9.52652 1566.85 -48.8958 1763.58 -49.2252C2143.94 -49.8621 2641.03 -8.69542 2641.03 -8.69542L2489.68 -128.723L2608.63 -136.642L3113.39 597.833C3113.39 597.833 2491.09 551.461 2265.39 574.299C2124.75 588.53 1974.08 648.275 1820.9 709.021C1639.71 780.869 1455 854.118 1279.14 855.117C1117.22 856.036 1002.03 816.542 896.203 780.256C780.436 740.563 675.867 704.71 533.567 729.793C258.445 778.29 -21.9737 885.737 -21.9737 885.737L-561.129 216.313Z" fill="#F7F7F7"/>
<path fill-rule="evenodd" clip-rule="evenodd" d="M-561.129 216.313C-368.855 168.616 -156.034 122.869 -27.198 117.01C142.765 109.28 340.212 120.629 537.359 131.961C782.093 146.029 1026.37 160.07 1217.03 137.553C1388.79 117.269 1435.26 73.902 1477.96 34.0582C1524.67 -9.52652 1566.85 -48.8958 1763.58 -49.2252C2143.94 -49.8621 2641.03 -8.69542 2641.03 -8.69542L2489.68 -128.723L2608.63 -136.642L3113.39 597.833C3113.39 597.833 2491.09 551.461 2265.39 574.299C2124.75 588.53 1974.08 648.275 1820.9 709.021C1639.71 780.869 1455 854.118 1279.14 855.117C1117.22 856.036 1002.03 816.542 896.203 780.256C780.436 740.563 675.867 704.71 533.567 729.793C258.445 778.29 -21.9737 885.737 -21.9737 885.737L-561.129 216.313Z" fill="#706873" fill-opacity="0.04"/>
<path fill-rule="evenodd" clip-rule="evenodd" d="M-587.565 66.77C-391.38 30.5809 -172.239 -2.55151 -42.6809 1.01402C124.945 5.6272 317.795 32.1668 510.353 58.666C749.389 91.5616 987.975 124.395 1177.3 115.145C1347.85 106.812 1397.5 65.093 1443.12 26.7628C1493.02 -15.1662 1538.09 -53.04 1731.32 -38.7217C2104.9 -11.0389 2589.26 68.8979 2589.26 68.8979L2472.02 -47.3285L2569.28 -46.8211L2997.01 756.028C2997.01 756.028 2390.18 661.336 2166.41 668.309C2026.98 672.655 1873.49 723.673 1717.43 775.547C1532.86 836.9 1344.68 899.45 1171.89 887.385C1012.79 876.275 903.329 826.543 802.758 780.851C692.744 730.868 593.371 685.72 451.306 701.249C176.637 731.273 -108.688 822.32 -108.688 822.32L-587.565 66.77Z" fill="#F7F7F7"/>
</svg>
