<svg width="368" height="451" viewBox="0 0 368 451" fill="none" xmlns="http://www.w3.org/2000/svg">
<path d="M228.622 160.861C186.483 189.432 179.183 197.868 171.807 191.799C164.81 186.003 170.452 179.679 174.581 172.087C178.811 164.23 187.487 159.818 190.21 150.248C192.022 144.135 185.245 136.296 179.065 133.537C165.753 127.649 147.856 134.329 135.465 137.53C122.882 140.729 112.176 146.534 112.905 155.62C113.797 166.666 121.396 170.602 130.001 171.083C133.922 171.318 138.299 172.983 140.801 178.625C143.673 185.162 142.299 200.713 137.759 216.751C129.782 245.463 108.058 291.592 113.22 305.191C118.75 319.774 147.705 322.597 154.362 332.036C165.709 348.039 121.921 358.346 104.807 370.465C85.1792 384.327 58.8463 405.209 45.6754 422.546C34.5537 437.154 20.5333 447.093 9.84984 438.13C0.583416 430.432 5.97229 421.791 18.1787 411.558C42.399 391.179 72.886 361.015 74.9559 350.279C77.1241 339.367 68.5882 327.498 70.0039 315.685C73.1507 290.106 105.157 221.26 107.233 203.495C109.205 186.352 64.2291 179.648 56.3266 163.696C50.564 151.956 130.8 76.604 145.268 68.8065C158.192 61.8763 225.677 53.9595 276.745 43.1348C293.64 39.5544 283.953 21.2628 293.965 17.1375C302.245 13.6988 347.176 3.76371 357.828 14.8624C367.914 25.4189 362.113 36.1006 356.504 40.1119L228.622 160.861Z" stroke="#343449" stroke-width="8" stroke-miterlimit="10"/>
</svg>
