<svg xmlns="http://www.w3.org/2000/svg" viewBox="0 0 54 495"><defs><style>.cls-1,.cls-2,.cls-3,.cls-5{fill:none;}.cls-1{stroke:#343449;stroke-linecap:round;stroke-width:26px;}.cls-1,.cls-2,.cls-3{stroke-miterlimit:10;}.cls-2,.cls-3,.cls-5{stroke:#fff;}.cls-2{stroke-width:1.3px;stroke-dasharray:12;}.cls-4{fill:#fff;}</style></defs><g id="new_roads" data-name="new roads"><path class="cls-1" d="M208.18,17.06s-89.62.66-141.92.66c-33.28,0-52,27.41-52,65.37V539.61"/><path class="cls-2" d="M208.18,17.06s-89.62.66-141.92.66c-33.28,0-52,27.41-52,65.37V539.61"/><path class="cls-3" d="M14.26,550.11a10.5,10.5,0,0,1-10.5-10.5V83.09c0-21.41,5.42-39.83,15.67-53.28C30.69,15,46.89,7.22,66.26,7.22c51.66,0,141-.65,141.85-.66h.07a10.5,10.5,0,0,1,.08,21c-.9,0-90.26.66-142,.66-30.6,0-41.5,28.35-41.5,54.87V539.61A10.5,10.5,0,0,1,14.26,550.11Z"/></g><g id="bits"><rect class="cls-4" x="4.42" y="481.35" width="2.3" height="3.65"/><rect class="cls-4" x="6.72" y="485" width="2.3" height="3.65"/><rect class="cls-4" x="9.02" y="481.35" width="2.3" height="3.65"/><rect class="cls-4" x="11.32" y="485" width="2.3" height="3.65"/><rect class="cls-4" x="13.62" y="481.35" width="2.3" height="3.65"/><rect class="cls-4" x="15.92" y="485" width="2.3" height="3.65"/><rect class="cls-4" x="18.21" y="481.35" width="2.3" height="3.65"/><rect class="cls-4" x="20.35" y="485" width="2.3" height="3.65"/><rect class="cls-4" x="22.65" y="481.35" width="2.3" height="3.65"/><rect class="cls-5" x="4.41" y="481.5" width="20.39" height="7"/></g></svg>