<svg width="27" height="42" viewBox="0 0 27 42" fill="none" xmlns="http://www.w3.org/2000/svg">
<g clip-path="url(#clip0)">
<rect width="1532" height="5992" transform="translate(-482 -1969)" fill="white"/>
<path fill-rule="evenodd" clip-rule="evenodd" d="M-1043.13 246.313C-850.855 198.616 -638.034 152.869 -509.198 147.01C-339.235 139.28 -141.788 150.629 55.359 161.961C300.093 176.029 544.366 190.07 735.029 167.553C906.793 147.269 953.264 103.902 995.96 64.0582C1042.67 20.4735 1084.85 -18.8958 1281.58 -19.2252C1661.94 -19.8621 2159.03 21.3046 2159.03 21.3046L2007.68 -98.7226L2126.63 -106.642L2631.39 627.833C2631.39 627.833 2009.09 581.461 1783.39 604.299C1642.75 618.53 1492.08 678.275 1338.9 739.021C1157.71 810.869 972.996 884.118 797.143 885.117C635.219 886.036 520.032 846.542 414.203 810.256C298.436 770.563 193.867 734.71 51.5669 759.793C-223.555 808.29 -503.974 915.737 -503.974 915.737L-1043.13 246.313Z" fill="#F7F7F7"/>
<path fill-rule="evenodd" clip-rule="evenodd" d="M-1043.13 246.313C-850.855 198.616 -638.034 152.869 -509.198 147.01C-339.235 139.28 -141.788 150.629 55.359 161.961C300.093 176.029 544.366 190.07 735.029 167.553C906.793 147.269 953.264 103.902 995.96 64.0582C1042.67 20.4735 1084.85 -18.8958 1281.58 -19.2252C1661.94 -19.8621 2159.03 21.3046 2159.03 21.3046L2007.68 -98.7226L2126.63 -106.642L2631.39 627.833C2631.39 627.833 2009.09 581.461 1783.39 604.299C1642.75 618.53 1492.08 678.275 1338.9 739.021C1157.71 810.869 972.996 884.118 797.143 885.117C635.219 886.036 520.032 846.542 414.203 810.256C298.436 770.563 193.867 734.71 51.5669 759.793C-223.555 808.29 -503.974 915.737 -503.974 915.737L-1043.13 246.313Z" fill="#706873" fill-opacity="0.04"/>
<path fill-rule="evenodd" clip-rule="evenodd" d="M-1069.57 96.77C-873.38 60.5809 -654.239 27.4485 -524.681 31.014C-357.055 35.6272 -164.205 62.1668 28.3527 88.666C267.389 121.562 505.975 154.395 695.298 145.145C865.854 136.812 915.504 95.093 961.12 56.7628C1011.02 14.8338 1056.09 -23.04 1249.32 -8.72173C1622.9 18.9611 2107.26 98.8979 2107.26 98.8979L1990.02 -17.3285L2087.28 -16.8211L2515.01 786.028C2515.01 786.028 1908.18 691.336 1684.41 698.309C1544.98 702.655 1391.49 753.673 1235.43 805.547C1050.86 866.9 862.68 929.45 689.893 917.385C530.793 906.275 421.329 856.543 320.758 810.851C210.744 760.868 111.371 715.72 -30.6943 731.249C-305.363 761.273 -590.688 852.32 -590.688 852.32L-1069.57 96.77Z" fill="#F7F7F7"/>
<path d="M9.68753 159C14.6518 158.924 20.4352 158.863 26.7399 158.818L25.8215 -61L1 -60.8329L1.96804 158.711C4.72323 158.711 7.47842 158.909 9.68753 159Z" fill="#343449"/>
<path d="M9.68766 159C14.3169 159 19.6163 158.878 25.5114 158.833L24.5806 -61L2.24121 -60.8481L3.20925 158.711C5.54247 158.711 7.80123 158.924 9.68766 159Z" fill="white"/>
<path d="M9.6878 158.999C13.9943 158.999 18.9214 158.878 24.2704 158.847L23.3396 -60.9855L3.48242 -60.8488L4.45046 158.711C6.3369 158.817 8.14887 158.923 9.6878 158.999Z" fill="#343449"/>
<path d="M14.3973 5.9062L13.1562 5.92139L13.2557 18.0896L14.4967 18.0744L14.3973 5.9062Z" fill="white"/>
<rect x="3" y="27.1177" width="2.44444" height="3.88235" fill="white"/>
<rect x="3" y="27.1177" width="2.44444" height="3.88235" fill="white"/>
<rect x="3" y="27.1177" width="2.44444" height="3.88235" fill="white"/>
<rect x="5.44336" y="31" width="2.44444" height="3.88235" fill="white"/>
<rect x="5.44336" y="31" width="2.44444" height="3.88235" fill="white"/>
<rect x="5.44336" y="31" width="2.44444" height="3.88235" fill="white"/>
<rect x="7.88867" y="27.1177" width="2.44444" height="3.88235" fill="white"/>
<rect x="7.88867" y="27.1177" width="2.44444" height="3.88235" fill="white"/>
<rect x="7.88867" y="27.1177" width="2.44444" height="3.88235" fill="white"/>
<rect x="10.334" y="31" width="2.44444" height="3.88235" fill="white"/>
<rect x="10.334" y="31" width="2.44444" height="3.88235" fill="white"/>
<rect x="10.334" y="31" width="2.44444" height="3.88235" fill="white"/>
<rect x="12.7773" y="27.1177" width="2.44444" height="3.88235" fill="white"/>
<rect x="12.7773" y="27.1177" width="2.44444" height="3.88235" fill="white"/>
<rect x="12.7773" y="27.1177" width="2.44444" height="3.88235" fill="white"/>
<rect x="15.2227" y="31" width="2.44444" height="3.88235" fill="white"/>
<rect x="15.2227" y="31" width="2.44444" height="3.88235" fill="white"/>
<rect x="15.2227" y="31" width="2.44444" height="3.88235" fill="white"/>
<rect x="17.666" y="27.1177" width="2.44444" height="3.88235" fill="white"/>
<rect x="17.666" y="27.1177" width="2.44444" height="3.88235" fill="white"/>
<rect x="17.666" y="27.1177" width="2.44444" height="3.88235" fill="white"/>
<rect x="20.1113" y="31" width="2.44444" height="3.88235" fill="white"/>
<rect x="20.1113" y="31" width="2.44444" height="3.88235" fill="white"/>
<rect x="20.1113" y="31" width="2.44444" height="3.88235" fill="white"/>
<rect x="22.5557" y="27.1177" width="2.44444" height="3.88235" fill="white"/>
<rect x="22.5557" y="27.1177" width="2.44444" height="3.88235" fill="white"/>
<rect x="22.5557" y="27.1177" width="2.44444" height="3.88235" fill="white"/>
<rect x="3.125" y="27.2427" width="21.75" height="7.5147" stroke="white" stroke-width="0.25"/>
</g>
<defs>
<clipPath id="clip0">
<rect width="1532" height="5992" fill="white" transform="translate(-482 -1969)"/>
</clipPath>
</defs>
</svg>
