<svg width="27" height="24" viewBox="0 0 27 24" fill="none" xmlns="http://www.w3.org/2000/svg">
<g clip-path="url(#clip0)">
<rect width="1532" height="5992" transform="translate(-482 -1969)" fill="white"/>
<path d="M9.68753 159C14.6518 158.924 20.4352 158.863 26.7399 158.818L25.8215 -61L1 -60.8329L1.96804 158.711C4.72323 158.711 7.47842 158.909 9.68753 159Z" fill="#343449"/>
<path d="M9.68766 159C14.3169 159 19.6163 158.878 25.5114 158.833L24.5806 -61L2.24121 -60.8481L3.20925 158.711C5.54247 158.711 7.80123 158.924 9.68766 159Z" fill="white"/>
<path d="M9.6878 158.999C13.9943 158.999 18.9214 158.878 24.2704 158.847L23.3396 -60.9855L3.48242 -60.8488L4.45046 158.711C6.3369 158.817 8.14887 158.923 9.6878 158.999Z" fill="#343449"/>
<path d="M14.3973 5.9062L13.1562 5.92139L13.2557 18.0896L14.4967 18.0744L14.3973 5.9062Z" fill="white"/>
</g>
<defs>
<clipPath id="clip0">
<rect width="1532" height="5992" fill="white" transform="translate(-482 -1969)"/>
</clipPath>
</defs>
</svg>
