<svg width="26" height="28" viewBox="0 0 26 28" fill="none" xmlns="http://www.w3.org/2000/svg">
<g clip-path="url(#clip0)">
<rect width="1532" height="5992" transform="translate(-1017 -1197)" fill="white"/>
<path d="M-9.77508 8.5495C-9.72324 13.9664 -9.68893 20.2771 -9.67096 27.1564L197.025 26.9018L196.966 -0.182209L-9.47321 0.127536C-9.48408 3.1338 -9.68065 6.13938 -9.77508 8.5495Z" fill="#343449"/>
<path d="M-9.77506 8.54945C-9.79333 13.6005 -9.69997 19.3832 -9.68036 25.8157L197.03 25.5476L196.975 1.17197L-9.47809 1.48166C-9.4873 4.0275 -9.69619 6.49137 -9.77506 8.54945Z" fill="white"/>
<path d="M-9.77442 8.54958C-9.79141 13.2486 -9.69657 18.625 -9.68911 24.4616L197.021 24.1935L196.971 2.52627L-9.48235 2.83596C-9.58978 4.89394 -9.69692 6.87067 -9.77442 8.54958Z" fill="#343449"/>
<path d="M19.7156 14.2684L19.708 12.9142L8.26646 12.9675L8.27403 14.3217L19.7156 14.2684Z" fill="white"/>
</g>
<defs>
<clipPath id="clip0">
<rect width="1532" height="5992" fill="white" transform="translate(-1017 -1197)"/>
</clipPath>
</defs>
</svg>
