<svg width="54" height="495" viewBox="0 0 54 495" fill="none" xmlns="http://www.w3.org/2000/svg">
<g clip-path="url(#clip0)">
<rect width="1532" height="5992" transform="translate(-699 -3702)" fill="white"/>
<rect x="-699" y="-177" width="1442" height="1175" fill="#F7F7F7"/>
<path d="M14.4397 630.318C10.3354 630.256 5.55393 630.204 0.341462 630.162L1.46351 476.047L21.9851 476.205L20.8224 630.128C18.5445 630.123 16.2663 630.257 14.4397 630.318Z" fill="#343449"/>
<path d="M14.4394 630.318C10.6121 630.31 6.23085 630.216 1.35699 630.175L2.48933 476.049L20.9587 476.192L19.7961 630.126C17.867 630.122 15.9992 630.267 14.4394 630.318Z" fill="white"/>
<path d="M14.4401 630.317C10.8796 630.31 6.80619 630.217 2.38379 630.187L3.51612 476.061L19.9334 476.189L18.7707 630.123C17.2109 630.195 15.7126 630.266 14.4401 630.317Z" fill="#343449"/>
<path d="M11.1807 480.379L11.1907 476.118L12.2168 476.12L12.2068 480.381L11.1807 480.379Z" fill="white"/>
<path d="M11.1175 488.906L12.1436 488.913L12.079 497.444L11.0529 497.437L11.1175 488.906Z" fill="white"/>
<path d="M19.6859 24.5607C29.7395 13.8761 43.399 7.83127 57.6627 7.75462L168.697 7.11205L168.893 28.9363L57.745 29.5911C48.967 29.6309 40.5582 33.3439 34.3664 39.9143C28.1745 46.4846 24.7062 55.3747 24.7237 64.6308L25.1696 179.979C18.2051 180.059 11.1681 180.139 4.47266 180.216L4.02576 64.7594C4.00622 57.3066 5.37914 49.9206 8.06612 43.0232C10.7531 36.1259 14.7015 29.8523 19.6859 24.5607Z" fill="#343449"/>
<path d="M20.4279 25.3277C30.277 14.8324 43.6697 8.88467 57.662 8.79205L168.707 8.14937L168.883 27.7912L57.735 28.4459C53.2483 28.4673 48.8084 29.4207 44.6688 31.2516C40.5292 33.0826 36.7712 35.7552 33.6095 39.1167C30.4477 42.4783 27.9443 46.4628 26.2421 50.8428C24.5399 55.2228 23.6724 59.9123 23.6892 64.6434L24.1351 179.991C17.8639 180.063 11.5617 180.136 5.50781 180.205L5.06092 64.7482C5.04345 57.439 6.39154 50.1956 9.02822 43.4318C11.6649 36.668 15.5385 30.5162 20.4279 25.3277Z" fill="white"/>
<path d="M21.1582 26.0504C30.8163 15.7589 43.9499 9.92787 57.6707 9.83958L168.716 9.19683L168.872 26.6562L57.7345 27.3109C53.1084 27.3324 48.5305 28.3156 44.2627 30.2043C39.9949 32.0929 36.1209 34.85 32.8625 38.3176C29.6042 41.7852 27.0253 45.8953 25.2735 50.4127C23.5217 54.9302 22.6314 59.7663 22.6536 64.6443L23.0996 180.003C17.5321 180.067 11.9439 180.131 6.54199 180.193L6.0952 64.7472C6.07158 57.5732 7.38984 50.4627 9.97453 43.8227C12.5592 37.1826 16.3596 31.1433 21.1582 26.0504Z" fill="#343449"/>
<path d="M15.2015 132.535L15.2282 141.276L14.1933 141.277L14.1666 132.547L15.2015 132.535Z" fill="white"/>
<path d="M14.331 176.23L14.2939 167.489L15.3288 167.488L15.3659 176.229L14.331 176.23Z" fill="white"/>
<path d="M15.1268 115.063L15.1638 123.793L14.1289 123.804L14.0918 115.064L15.1268 115.063Z" fill="white"/>
<path d="M15.2653 150.006L15.3024 158.747L14.2676 158.759L14.2305 150.018L15.2653 150.006Z" fill="white"/>
<path d="M15.0632 97.5803L15.1003 106.321L14.0653 106.322L14.0283 97.5922L15.0632 97.5803Z" fill="white"/>
<path d="M14.9994 80.1087L15.0261 88.8387L13.9912 88.8506L13.9645 80.1096L14.9994 80.1087Z" fill="white"/>
<path d="M13.9316 62.6277L14.9664 62.6158C14.9724 63.2814 14.9267 63.9586 14.9329 64.646L14.9929 71.324L13.958 71.3359L13.898 64.6579C13.8922 64.0032 13.9067 63.3155 13.9316 62.6277Z" fill="white"/>
<path d="M15.0535 53.8727C15.6922 50.9974 16.596 48.1946 17.752 45.5041L18.6875 45.9518C17.572 48.5824 16.6955 51.3184 16.07 54.1229L15.0328 53.8729L15.0535 53.8727Z" fill="white"/>
<path d="M49.514 20.0278L49.3076 18.9388C52.0529 18.3644 54.8433 18.0656 57.6413 18.0464L57.6511 19.1376C54.9187 19.166 52.1945 19.4641 49.514 20.0278Z" fill="white"/>
<path d="M33.8843 25.6095C36.2267 23.9936 38.7095 22.6167 41.2991 21.4974L41.6911 22.5078C39.1717 23.5975 36.7577 24.9409 34.4824 26.5193L33.8843 25.6095Z" fill="white"/>
<path d="M22.7396 38.4628L21.8956 37.8286C23.4976 35.4094 25.3217 33.1624 27.3413 31.1201L28.0522 31.9085C26.0878 33.9104 24.3089 36.1051 22.7396 38.4628Z" fill="white"/>
<path d="M16.8863 325.772C12.7718 325.693 7.97829 325.619 2.75264 325.554L4.56051 171.445L25.134 171.694L23.2863 325.611C21.0025 325.596 18.7178 325.72 16.8863 325.772Z" fill="#343449"/>
<path d="M16.8867 325.772C13.0496 325.748 8.65756 325.634 3.77139 325.571L5.58961 171.452L24.1057 171.677L22.2579 325.604C20.324 325.592 18.4507 325.729 16.8867 325.772Z" fill="white"/>
<path d="M16.8862 325.771C13.3165 325.749 9.23313 325.637 4.79952 325.588L6.61774 171.468L23.0765 171.67L21.2287 325.597C19.6646 325.661 18.1621 325.726 16.8862 325.771Z" fill="#343449"/>
<path d="M14.2832 175.82L14.3121 171.56L15.3408 171.566L15.3119 175.827L14.2832 175.82Z" fill="white"/>
<path d="M13.4928 235.474L14.5215 235.491L14.3811 244.022L13.3525 244.005L13.4928 235.474Z" fill="white"/>
<path d="M13.7116 218.414L14.7402 218.431L14.5999 226.961L13.5713 226.944L13.7116 218.414Z" fill="white"/>
<path d="M13.2331 252.524L14.2617 252.541L14.1214 261.072L13.0927 261.054L13.2331 252.524Z" fill="white"/>
<path d="M13.1735 269.622L14.2021 269.637L14.0781 278.167L13.0494 278.152L13.1735 269.622Z" fill="white"/>
<path d="M12.9675 286.681L13.9961 286.7L13.8391 295.219L12.8106 295.2L12.9675 286.681Z" fill="white"/>
<path d="M13.9411 201.353L14.9697 201.37L14.8294 209.901L13.8007 209.883L13.9411 201.353Z" fill="white"/>
<path d="M14.1823 184.347L15.2109 184.359L15.1084 192.89L14.0798 192.877L14.1823 184.347Z" fill="white"/>
<path d="M12.7722 303.741L13.8008 303.757L13.6709 312.287L12.6423 312.272L12.7722 303.741Z" fill="white"/>
<path d="M12.484 325.691L12.5172 320.802L13.5459 320.809L13.5126 325.708L12.484 325.691Z" fill="white"/>
<path d="M15.6262 477.277C11.4982 477.214 6.68898 477.16 1.44632 477.115L2.64539 323L23.2858 323.168L22.046 477.091C19.7549 477.085 17.4634 477.218 15.6262 477.277Z" fill="#343449"/>
<path d="M15.626 477.278C11.7765 477.268 7.3699 477.172 2.46782 477.128L3.67724 323.003L22.2536 323.155L21.0138 477.088C19.0735 477.084 17.1948 477.228 15.626 477.278Z" fill="white"/>
<path d="M15.6258 477.277C12.0446 477.268 7.94769 477.173 3.49967 477.141L4.70909 323.015L21.2214 323.152L19.9816 477.085C18.4127 477.156 16.9057 477.227 15.6258 477.277Z" fill="#343449"/>
<path d="M12.4169 327.337L12.4289 323.076L13.4609 323.079L13.4489 327.339L12.4169 327.337Z" fill="white"/>
<path d="M11.8615 386.993L12.8936 387.007L12.7868 395.538L11.7548 395.524L11.8615 386.993Z" fill="white"/>
<path d="M12.0129 369.932L13.0449 369.945L12.9382 378.476L11.9061 378.463L12.0129 369.932Z" fill="white"/>
<path d="M11.6692 404.044L12.7012 404.057L12.5944 412.588L11.5624 412.575L11.6692 404.044Z" fill="white"/>
<path d="M11.678 421.142L12.71 421.153L12.6195 429.684L11.5875 429.673L11.678 421.142Z" fill="white"/>
<path d="M11.5394 438.202L12.5713 438.217L12.4478 446.737L11.4159 446.722L11.5394 438.202Z" fill="white"/>
<path d="M12.175 352.871L13.207 352.884L13.1003 361.415L12.0683 361.402L12.175 352.871Z" fill="white"/>
<path d="M12.3489 335.864L13.3809 335.872L13.312 344.403L12.28 344.395L12.3489 335.864Z" fill="white"/>
<path d="M11.4114 455.263L12.4434 455.275L12.3471 463.806L11.3152 463.794L11.4114 455.263Z" fill="white"/>
<path d="M11.209 477.214L11.2228 472.325L12.2549 472.328L12.241 477.227L11.209 477.214Z" fill="white"/>
<g filter="url(#filter0_d)">
<rect x="-539" y="495" width="1115" height="438" rx="15" fill="#343449"/>
</g>
<path d="M225.298 5.9093C213.813 16.55 198.204 22.5765 181.902 22.6647L55.0039 23.3968L54.7708 1.67974L181.799 0.935405C191.831 0.888437 201.44 -2.81341 208.514 -9.35671C215.588 -15.9 219.548 -24.7494 219.524 -33.9601L218.966 -148.742C226.926 -148.827 234.968 -148.914 242.62 -148.996L243.179 -34.1054C243.204 -26.6891 241.638 -19.3382 238.57 -12.4724C235.502 -5.60661 230.992 0.639527 225.298 5.9093Z" fill="#343449"/>
<path d="M224.449 5.14782C213.197 15.5999 197.894 21.5297 181.902 21.6335L54.9919 22.3657L54.7821 2.82037L181.811 2.07603C186.938 2.05102 192.012 1.09861 196.742 -0.726795C201.473 -2.55222 205.767 -5.21486 209.379 -8.56257C212.991 -11.9103 215.85 -15.8774 217.794 -20.2373C219.737 -24.5973 220.727 -29.2645 220.706 -33.9724L220.148 -148.754C227.315 -148.831 234.518 -148.908 241.437 -148.983L241.995 -34.0922C242.018 -26.8188 240.481 -19.6099 237.47 -12.877C234.46 -6.14416 230.035 -0.0193107 224.449 5.14782Z" fill="white"/>
<path d="M223.615 4.42872C212.581 14.6779 197.573 20.4913 181.892 20.5906L54.9818 21.3229L54.7953 3.94921L181.812 3.205C187.099 3.17972 192.331 2.19749 197.207 0.314539C202.084 -1.56841 206.51 -4.3152 210.233 -7.76853C213.955 -11.2218 216.901 -15.3139 218.901 -19.8107C220.901 -24.3075 221.917 -29.1206 221.89 -33.9747L221.332 -148.767C227.695 -148.836 234.081 -148.904 240.255 -148.97L240.814 -34.0909C240.844 -26.9521 239.34 -19.8754 236.389 -13.2657C233.438 -6.65603 229.097 -0.643174 223.615 4.42872Z" fill="#343449"/>
<g filter="url(#filter1_d)">
<rect x="-495" y="-26" width="465" height="232" rx="9" fill="white"/>
</g>
<g filter="url(#filter2_d)">
<rect x="-495" y="228" width="465" height="221" rx="9" fill="white"/>
</g>
<g filter="url(#filter3_d)">
<rect x="54" y="228" width="465" height="221" rx="9" fill="white"/>
</g>
<g filter="url(#filter4_d)">
<rect x="54" y="-26" width="465" height="232" rx="9" fill="white"/>
</g>
<rect x="3" y="482" width="1.88889" height="3" fill="white"/>
<rect x="3" y="482" width="1.88889" height="3" fill="white"/>
<rect x="3" y="482" width="1.88889" height="3" fill="white"/>
<rect x="4.88867" y="485" width="1.88889" height="3" fill="white"/>
<rect x="4.88867" y="485" width="1.88889" height="3" fill="white"/>
<rect x="4.88867" y="485" width="1.88889" height="3" fill="white"/>
<rect x="6.77734" y="482" width="1.88889" height="3" fill="white"/>
<rect x="6.77734" y="482" width="1.88889" height="3" fill="white"/>
<rect x="6.77734" y="482" width="1.88889" height="3" fill="white"/>
<rect x="8.66699" y="485" width="1.88889" height="3" fill="white"/>
<rect x="8.66699" y="485" width="1.88889" height="3" fill="white"/>
<rect x="8.66699" y="485" width="1.88889" height="3" fill="white"/>
<rect x="10.5557" y="482" width="1.88889" height="3" fill="white"/>
<rect x="10.5557" y="482" width="1.88889" height="3" fill="white"/>
<rect x="10.5557" y="482" width="1.88889" height="3" fill="white"/>
<rect x="12.4443" y="485" width="1.88889" height="3" fill="white"/>
<rect x="12.4443" y="485" width="1.88889" height="3" fill="white"/>
<rect x="12.4443" y="485" width="1.88889" height="3" fill="white"/>
<rect x="14.333" y="482" width="1.88889" height="3" fill="white"/>
<rect x="14.333" y="482" width="1.88889" height="3" fill="white"/>
<rect x="14.333" y="482" width="1.88889" height="3" fill="white"/>
<rect x="16.2227" y="485" width="1.88889" height="3" fill="white"/>
<rect x="16.2227" y="485" width="1.88889" height="3" fill="white"/>
<rect x="16.2227" y="485" width="1.88889" height="3" fill="white"/>
<rect x="18.1113" y="482" width="1.88889" height="3" fill="white"/>
<rect x="18.1113" y="482" width="1.88889" height="3" fill="white"/>
<rect x="18.1113" y="482" width="1.88889" height="3" fill="white"/>
<rect x="3.125" y="482.125" width="16.75" height="5.75" stroke="white" stroke-width="0.25"/>
</g>
<defs>
<filter id="filter0_d" x="-547" y="487" width="1163" height="486" filterUnits="userSpaceOnUse" color-interpolation-filters="sRGB">
<feFlood flood-opacity="0" result="BackgroundImageFix"/>
<feColorMatrix in="SourceAlpha" type="matrix" values="0 0 0 0 0 0 0 0 0 0 0 0 0 0 0 0 0 0 127 0" result="hardAlpha"/>
<feOffset dx="16" dy="16"/>
<feGaussianBlur stdDeviation="12"/>
<feColorMatrix type="matrix" values="0 0 0 0 0 0 0 0 0 0 0 0 0 0 0 0 0 0 0.12 0"/>
<feBlend mode="normal" in2="BackgroundImageFix" result="effect1_dropShadow"/>
<feBlend mode="normal" in="SourceGraphic" in2="effect1_dropShadow" result="shape"/>
</filter>
<filter id="filter1_d" x="-503" y="-34" width="513" height="280" filterUnits="userSpaceOnUse" color-interpolation-filters="sRGB">
<feFlood flood-opacity="0" result="BackgroundImageFix"/>
<feColorMatrix in="SourceAlpha" type="matrix" values="0 0 0 0 0 0 0 0 0 0 0 0 0 0 0 0 0 0 127 0" result="hardAlpha"/>
<feOffset dx="16" dy="16"/>
<feGaussianBlur stdDeviation="12"/>
<feColorMatrix type="matrix" values="0 0 0 0 0 0 0 0 0 0 0 0 0 0 0 0 0 0 0.12 0"/>
<feBlend mode="normal" in2="BackgroundImageFix" result="effect1_dropShadow"/>
<feBlend mode="normal" in="SourceGraphic" in2="effect1_dropShadow" result="shape"/>
</filter>
<filter id="filter2_d" x="-503" y="220" width="513" height="269" filterUnits="userSpaceOnUse" color-interpolation-filters="sRGB">
<feFlood flood-opacity="0" result="BackgroundImageFix"/>
<feColorMatrix in="SourceAlpha" type="matrix" values="0 0 0 0 0 0 0 0 0 0 0 0 0 0 0 0 0 0 127 0" result="hardAlpha"/>
<feOffset dx="16" dy="16"/>
<feGaussianBlur stdDeviation="12"/>
<feColorMatrix type="matrix" values="0 0 0 0 0 0 0 0 0 0 0 0 0 0 0 0 0 0 0.12 0"/>
<feBlend mode="normal" in2="BackgroundImageFix" result="effect1_dropShadow"/>
<feBlend mode="normal" in="SourceGraphic" in2="effect1_dropShadow" result="shape"/>
</filter>
<filter id="filter3_d" x="46" y="220" width="513" height="269" filterUnits="userSpaceOnUse" color-interpolation-filters="sRGB">
<feFlood flood-opacity="0" result="BackgroundImageFix"/>
<feColorMatrix in="SourceAlpha" type="matrix" values="0 0 0 0 0 0 0 0 0 0 0 0 0 0 0 0 0 0 127 0" result="hardAlpha"/>
<feOffset dx="16" dy="16"/>
<feGaussianBlur stdDeviation="12"/>
<feColorMatrix type="matrix" values="0 0 0 0 0 0 0 0 0 0 0 0 0 0 0 0 0 0 0.12 0"/>
<feBlend mode="normal" in2="BackgroundImageFix" result="effect1_dropShadow"/>
<feBlend mode="normal" in="SourceGraphic" in2="effect1_dropShadow" result="shape"/>
</filter>
<filter id="filter4_d" x="46" y="-34" width="513" height="280" filterUnits="userSpaceOnUse" color-interpolation-filters="sRGB">
<feFlood flood-opacity="0" result="BackgroundImageFix"/>
<feColorMatrix in="SourceAlpha" type="matrix" values="0 0 0 0 0 0 0 0 0 0 0 0 0 0 0 0 0 0 127 0" result="hardAlpha"/>
<feOffset dx="16" dy="16"/>
<feGaussianBlur stdDeviation="12"/>
<feColorMatrix type="matrix" values="0 0 0 0 0 0 0 0 0 0 0 0 0 0 0 0 0 0 0.12 0"/>
<feBlend mode="normal" in2="BackgroundImageFix" result="effect1_dropShadow"/>
<feBlend mode="normal" in="SourceGraphic" in2="effect1_dropShadow" result="shape"/>
</filter>
<clipPath id="clip0">
<rect width="1532" height="5992" fill="white" transform="translate(-699 -3702)"/>
</clipPath>
</defs>
</svg>
