<?xml version="1.0" encoding="UTF-8"?>
<svg width="210px" height="536px" viewBox="0 0 210 536" version="1.1" xmlns="http://www.w3.org/2000/svg" xmlns:xlink="http://www.w3.org/1999/xlink">
    <!-- Generator: Sketch 61.2 (89653) - https://sketch.com -->
    <title>track-curve-end-alt</title>
    <desc>Created with Sketch.</desc>
    <g id="Page-1" stroke="none" stroke-width="1" fill="none" fill-rule="evenodd">
        <g id="track-curve-end-alt" transform="translate(2.000000, 2.000000)">
            <g id="new_roads">
                <path d="M205.18,11.06 C205.18,11.06 115.56,11.72 63.26,11.72 C29.98,11.72 11.26,39.13 11.26,77.09 L11.26,533.61" id="Path" stroke="#343449" stroke-width="26" stroke-linecap="round"></path>
                <path d="M205.18,11.06 C205.18,11.06 115.56,11.72 63.26,11.72 C29.98,11.72 11.26,39.13 11.26,77.09 L11.26,533.61" id="Path" stroke="#FFFFFF" stroke-width="1.3" stroke-dasharray="12"></path>
                <path d="M11.26,544.11 C5.46101013,544.11 0.76,539.40899 0.76,533.61 L0.76,77.09 C0.76,55.68 6.18,37.26 16.43,23.81 C27.69,9 43.89,1.22 63.26,1.22 C114.92,1.22 204.26,0.57 205.11,0.559844872 L205.18,0.559844872 C210.97899,0.537908697 215.697908,5.22101019 215.720155,11.02 C215.742091,16.8189898 211.05899,21.5379085 205.26,21.56 C204.36,21.56 115,22.22 63.26,22.22 C32.66,22.22 21.76,50.57 21.76,77.09 L21.76,533.61 C21.76,539.40899 17.0589899,544.11 11.26,544.11 Z" id="Path" stroke="#FFFFFF"></path>
            </g>
            <g id="bits" transform="translate(1.000000, 475.000000)">
                <rect id="Rectangle" fill="#FFFFFF" fill-rule="nonzero" x="0.42" y="0.35" width="2.3" height="3.65"></rect>
                <rect id="Rectangle" fill="#FFFFFF" fill-rule="nonzero" x="2.72" y="4" width="2.3" height="3.65"></rect>
                <rect id="Rectangle" fill="#FFFFFF" fill-rule="nonzero" x="5.02" y="0.35" width="2.3" height="3.65"></rect>
                <rect id="Rectangle" fill="#FFFFFF" fill-rule="nonzero" x="7.32" y="4" width="2.3" height="3.65"></rect>
                <rect id="Rectangle" fill="#FFFFFF" fill-rule="nonzero" x="9.62" y="0.35" width="2.3" height="3.65"></rect>
                <rect id="Rectangle" fill="#FFFFFF" fill-rule="nonzero" x="11.92" y="4" width="2.3" height="3.65"></rect>
                <rect id="Rectangle" fill="#FFFFFF" fill-rule="nonzero" x="14.21" y="0.35" width="2.3" height="3.65"></rect>
                <rect id="Rectangle" fill="#FFFFFF" fill-rule="nonzero" x="16.35" y="4" width="2.3" height="3.65"></rect>
                <rect id="Rectangle" fill="#FFFFFF" fill-rule="nonzero" x="18.65" y="0.35" width="2.3" height="3.65"></rect>
                <rect id="Rectangle" stroke="#FFFFFF" x="0.41" y="0.5" width="20.39" height="7"></rect>
            </g>
        </g>
    </g>
</svg>